<svg xmlns="http://www.w3.org/2000/svg" width="124" height="99.685" viewBox="0 0 124 99.685">
  <g id="Grupo_1112795" data-name="Grupo 1112795" transform="translate(-205.051 -1685)">
    <rect id="Rectángulo_404619" data-name="Rectángulo 404619" width="124" height="61" rx="8" transform="translate(205.051 1704)" fill="#f9f2c8"/>
    <g id="pez_1_" data-name="pez (1)" transform="translate(201.294 1685)">
      <path id="Trazado_979901" data-name="Trazado 979901" d="M26.379,58.8a38.705,38.705,0,0,1-1.158-9.527c-.036-11.235,5.891-21.182,16.689-28.007a50.793,50.793,0,0,1,14.279-6.129,1.435,1.435,0,0,0,.165-.043c10.626-2.735,21.931-2.164,30.658,2.015a1.46,1.46,0,1,0,1.261-2.634A44.25,44.25,0,0,0,67.448,10.53L59.025,1.712A5.49,5.49,0,0,0,52.939.417a88.505,88.505,0,0,0-16.218,8.7c-7.759,5.372-12.928,11.272-15.363,17.539-2.448,6.3-2.088,12.895,1.07,19.6-.085,1-.131,2.011-.128,3.032a41.639,41.639,0,0,0,1.251,10.248,1.46,1.46,0,0,0,2.828-.73Zm-2.3-31.091c2.22-5.713,7.032-11.162,14.3-16.2a85.5,85.5,0,0,1,15.662-8.4,2.587,2.587,0,0,1,2.868.609l6.761,7.078a56.209,56.209,0,0,0-7.4,1.308L52.3,8.782a1.46,1.46,0,0,0-1.879,2.236l2.44,2.05q-1.383.433-2.736.933l-1.393-1.343a1.46,1.46,0,1,0-2.027,2.1l.454.437a51.109,51.109,0,0,0-6.813,3.6c-8.812,5.57-14.622,13.1-16.927,21.738a20.289,20.289,0,0,1,.659-12.825Z" transform="translate(0 0)" fill="#f8a230"/>
      <path id="Trazado_979902" data-name="Trazado 979902" d="M119.881,91.981a1.46,1.46,0,1,0-1.668,2.4c16.109,11.208,16.342,25.643,16.03,29.8a.483.483,0,0,1-.256.389,52.586,52.586,0,0,1-16.179,5.552c-9.073,1.367-16.244-.822-21.32-6.5a19.172,19.172,0,0,1-1.838-6.159,14.562,14.562,0,0,1,4.061-12.279,1.46,1.46,0,1,0-2.116-2.013,19.06,19.06,0,0,0-2.2,2.781A10.048,10.048,0,0,0,88.963,99.9c-3.251-1.59-7.249-1.911-10.37-2.013a3.693,3.693,0,0,0-3.812,3.693v16.841a3.694,3.694,0,0,0,3.688,3.7l.125,0c3.119-.1,7.117-.425,10.369-2.016a11.482,11.482,0,0,0,2.836-1.928,22.426,22.426,0,0,0,1.207,4.752,25.856,25.856,0,0,0-4.943.558,16.772,16.772,0,0,0-11.016,7.163l-3.8-1.21a10.149,10.149,0,0,1,1.141-2.112,1.46,1.46,0,0,0-2.38-1.692,12.939,12.939,0,0,0-2.017,4.437,25.061,25.061,0,0,0-.36,7.111c.489,5.251,2.7,9.326,6.4,11.785a1.46,1.46,0,0,0,1.116.212l1.539-.331a20.38,20.38,0,0,0,3.806,2.959.924.924,0,0,1,.354,1.208,4.736,4.736,0,0,1-5.316,2.518c-6.295-1.442-17.7-5.531-23.375-16.721a1.46,1.46,0,1,0-2.6,1.321,31.779,31.779,0,0,0,9.991,11.519,53.044,53.044,0,0,0,7.575,12.771c5.02,6.061,10.586,9.127,16.561,9.127q.529,0,1.062-.032a2.47,2.47,0,0,0,1.892-3.866,8.343,8.343,0,0,1-1.548-3.686,16.357,16.357,0,0,1,.019-2.214,13.62,13.62,0,0,0-1.718-8.375,18.026,18.026,0,0,0,5.756-2.631,1.46,1.46,0,1,0-1.689-2.382,14.361,14.361,0,0,1-3.606,1.817A3.83,3.83,0,0,0,84,149.3a17.779,17.779,0,0,1-2.832-2.125c.064-.1.126-.195.182-.3a3.854,3.854,0,0,0,.2-3.23c-.088-.225-.176-.464-.264-.711a16.27,16.27,0,0,0,2.831-1.8c2.532-1.976,4.725-2.114,7.045-2.26a16.947,16.947,0,0,0,3.571-.485,16.518,16.518,0,0,1-1.366,7.232,1.46,1.46,0,1,0,2.651,1.224,19.787,19.787,0,0,0,1.6-9.342,2.356,2.356,0,0,0-1.081-1.838,2.414,2.414,0,0,0-2.142-.233,11.928,11.928,0,0,1-3.413.528,14.054,14.054,0,0,0-8.659,2.873,13.95,13.95,0,0,1-1.85,1.23,14.422,14.422,0,0,1-.247-5,3.881,3.881,0,0,0-.708-2.865c4.166-6.466,12.858-6.45,15.079-6.331a22.781,22.781,0,0,0,11.228,6.711,31.184,31.184,0,0,0,12.422.419,55.632,55.632,0,0,0,17.13-5.869,3.391,3.391,0,0,0,1.781-2.74c.343-4.547.106-20.324-17.273-32.416ZM85.7,170.626c-5.078,0-9.9-2.711-14.334-8.069a46.539,46.539,0,0,1-5.3-8.131,45.49,45.49,0,0,0,10.811,3.95,7.737,7.737,0,0,0,1.729.2,7.637,7.637,0,0,0,4.429-1.415,10.8,10.8,0,0,1,1.15,6.44,18.734,18.734,0,0,0-.012,2.618,10.485,10.485,0,0,0,1.61,4.41ZM72.6,132.3l4.088,1.3a.95.95,0,0,1,.642,1.052,20.589,20.589,0,0,0,1.5,10.063.94.94,0,0,1-.679,1.261l-.991.213C72.138,142.42,72.256,135.43,72.6,132.3ZM87.68,117.479c-2.754,1.348-6.354,1.627-9.182,1.72a.755.755,0,0,1-.56-.216.772.772,0,0,1-.237-.559v-5.083h8.206a1.46,1.46,0,1,0,0-2.92H77.7v-2.156h3.961a1.46,1.46,0,1,0,0-2.92H77.7v-3.762a.773.773,0,0,1,.77-.775H78.5c2.829.093,6.429.371,9.182,1.718,2.954,1.445,4.39,3.891,4.39,7.477S90.633,116.033,87.68,117.479Z" transform="translate(-25.476 -73.863)" fill="#f8a230"/>
      <path id="Trazado_979903" data-name="Trazado 979903" d="M362.367,147.04a5.349,5.349,0,1,0,5.349-5.349A5.355,5.355,0,0,0,362.367,147.04Zm5.349-2.428a2.428,2.428,0,1,1-2.428,2.428A2.431,2.431,0,0,1,367.716,144.611Z" transform="translate(-275.909 -114.106)" fill="#f8a230"/>
    </g>
  </g>
</svg>
