<svg xmlns="http://www.w3.org/2000/svg" xmlns:xlink="http://www.w3.org/1999/xlink" width="108.914" height="108.914" viewBox="0 0 108.914 108.914">
  <defs>
    <filter id="Trazado_874925" x="0" y="0" width="108.914" height="108.914" filterUnits="userSpaceOnUse">
      <feOffset dy="3" input="SourceAlpha"/>
      <feGaussianBlur stdDeviation="3" result="blur"/>
      <feFlood flood-opacity="0.161"/>
      <feComposite operator="in" in2="blur"/>
      <feComposite in="SourceGraphic"/>
    </filter>
  </defs>
  <g id="Grupo_1112815" data-name="Grupo 1112815" transform="translate(3341 7018)">
    <g transform="matrix(1, 0, 0, 1, -3341, -7018)" filter="url(#Trazado_874925)">
      <g id="Trazado_874925-2" data-name="Trazado 874925" transform="translate(9 6)" fill="#cbe7f0">
        <path d="M 45.45676803588867 89.41407012939453 C 39.52198028564453 89.41407012939453 33.76551818847656 88.25206756591797 28.34726715087891 85.96034240722656 C 23.11311721801758 83.74648284912109 18.41204261779785 80.57682800292969 14.37464332580566 76.5394287109375 C 10.33724308013916 72.50202941894531 7.167593002319336 67.80095672607422 4.953730583190918 62.56679534912109 C 2.662005424499512 57.14855575561523 1.500005483627319 51.39208221435547 1.500005483627319 45.45729446411133 C 1.500005483627319 39.52198028564453 2.662005424499512 33.76551818847656 4.953730583190918 28.34726905822754 C 7.167593002319336 23.11310577392578 10.33724308013916 18.41203117370605 14.37464332580566 14.37464332580566 C 18.41204261779785 10.33724403381348 23.11311721801758 7.167593955993652 28.34726715087891 4.953731060028076 C 33.76551818847656 2.662006139755249 39.52198028564453 1.500006198883057 45.45676803588867 1.500006198883057 C 51.39155578613281 1.500006198883057 57.14802932739258 2.662006139755249 62.56626892089844 4.953731060028076 C 67.80043029785156 7.167593955993652 72.50150299072266 10.33724403381348 76.53890228271484 14.37464332580566 C 80.57630920410156 18.41203117370605 83.74595642089844 23.11310577392578 85.95981597900391 28.34726905822754 C 88.25154113769531 33.76551818847656 89.41354370117188 39.52198028564453 89.41354370117188 45.45676803588867 C 89.41354370117188 51.39208221435547 88.25154113769531 57.14855575561523 85.95981597900391 62.56679534912109 C 83.74595642089844 67.80095672607422 80.57630920410156 72.50202941894531 76.53890228271484 76.5394287109375 C 72.50150299072266 80.57682800292969 67.80043029785156 83.74648284912109 62.56626892089844 85.96034240722656 C 57.14802932739258 88.25206756591797 51.39155578613281 89.41407012939453 45.45676803588867 89.41407012939453 Z" stroke="none"/>
        <path d="M 45.45676803588867 3 C 39.72381210327148 3 34.1639404296875 4.12213134765625 28.93159484863281 6.335227966308594 C 23.87622833251953 8.473472595214844 19.33542633056641 11.53517150878906 15.43529510498047 15.435302734375 C 11.53517150878906 19.33543395996094 8.473464965820312 23.87622833251953 6.335227966308594 28.93160247802734 C 4.122123718261719 34.16394424438477 3 39.72381591796875 3 45.4572868347168 C 3 51.19024658203125 4.122123718261719 56.75011825561523 6.335227966308594 61.98246002197266 C 8.473464965820312 67.03782653808594 11.53517150878906 71.57862854003906 15.43529510498047 75.478759765625 C 19.33542633056641 79.37889099121094 23.87622833251953 82.44058990478516 28.93159484863281 84.57883453369141 C 34.1639404296875 86.79193115234375 39.72381210327148 87.9140625 45.45676803588867 87.9140625 C 51.18972396850586 87.9140625 56.74959564208984 86.79193115234375 61.98194122314453 84.57883453369141 C 67.03730773925781 82.44058990478516 71.57810974121094 79.37889099121094 75.47824096679688 75.478759765625 C 79.37837219238281 71.57862854003906 82.44007110595703 67.03782653808594 84.57830810546875 61.98246002197266 C 86.79141235351562 56.75011825561523 87.91353607177734 51.19024658203125 87.91353607177734 45.4567756652832 C 87.91353607177734 39.72381591796875 86.79141235351562 34.16394424438477 84.57830810546875 28.93160247802734 C 82.44007110595703 23.87622833251953 79.37837219238281 19.33543395996094 75.47824096679688 15.435302734375 C 71.57810974121094 11.53517150878906 67.03730773925781 8.473472595214844 61.98194122314453 6.335227966308594 C 56.74959564208984 4.12213134765625 51.18972396850586 3 45.45676803588867 3 M 45.45676803588867 0 C 70.56185150146484 0 90.91353607177734 20.35169219970703 90.91353607177734 45.4567756652832 L 90.91353607177734 45.4572868347168 C 90.91353607177734 70.5623779296875 70.56185150146484 90.9140625 45.45676803588867 90.9140625 C 20.3516845703125 90.9140625 0 70.5623779296875 0 45.4572868347168 L 0 45.4567756652832 C 0 20.35169219970703 20.3516845703125 0 45.45676803588867 0 Z" stroke="none" fill="#fff"/>
      </g>
    </g>
    <g id="bolsa-de-pescado" transform="translate(-3318.83 -6998)">
      <path id="Trazado_979924" data-name="Trazado 979924" d="M27.007,45.094c.076.1.142.211.221.311.151.193.322.371.482.557.193.226.378.459.584.675a7.732,7.732,0,0,0-4.36,8.7,1,1,0,0,0,.766.766,8.045,8.045,0,0,0,.918.139c.092.009.184.009.276.015.155.009.311.025.465.025.058,0,.114-.007.172-.008.1,0,.193-.008.29-.014.2-.012.4-.032.6-.06.1-.014.2-.026.3-.044.22-.039.437-.09.652-.148.067-.018.135-.031.2-.05a7.559,7.559,0,0,0,.788-.286c.1-.042.193-.091.289-.137.163-.077.325-.158.483-.247.11-.062.218-.128.326-.195.14-.088.277-.183.412-.281.106-.077.212-.151.315-.234.147-.118.286-.247.426-.377.07-.066.147-.122.216-.191s.119-.121.176-.182c.058.061.116.122.176.182s.148.128.22.195c.137.128.275.255.42.371.1.084.212.16.32.238.133.1.266.189.4.275.11.069.22.136.333.2.154.087.312.165.471.241.1.048.2.1.3.143a7.783,7.783,0,0,0,.783.284c.071.021.143.035.214.054.211.057.424.107.639.145.1.018.2.031.3.045.2.027.394.047.593.059.1.006.2.012.294.014.057,0,.114.008.171.008.154,0,.309-.016.464-.025.093-.006.184-.006.277-.015A7.878,7.878,0,0,0,39.3,56.1a1,1,0,0,0,.766-.766,7.733,7.733,0,0,0-4.361-8.7A17.076,17.076,0,0,0,40.335,36.5c.052-.543.079-1.092.079-1.643a17.24,17.24,0,0,0-.448-3.9,17.022,17.022,0,0,0-7.423-10.5,1,1,0,0,0-1.082,0A17.286,17.286,0,0,0,27.718,23.7a16.963,16.963,0,0,0-3.68,7.258,17.24,17.24,0,0,0-.448,3.9q0,.828.079,1.643a17.057,17.057,0,0,0,3.34,8.594ZM32,34.409a13,13,0,0,0,6.258-1.6,14.907,14.907,0,0,1-5.111,13.508,1,1,0,0,0-.3.462c0,.006,0,.012,0,.017a1,1,0,0,0-.042.255c0,.016.005.031.005.047a1.012,1.012,0,0,0,.027.231v0c.006.024.021.044.029.068a.944.944,0,0,0,.081.19c.013.022.033.039.048.06a.948.948,0,0,0,.126.155c.018.017.041.027.06.042a.956.956,0,0,0,.166.117.875.875,0,0,0,.086.03,1.081,1.081,0,0,0,.176.062,5.778,5.778,0,0,1,2.956,1.572,5.71,5.71,0,0,1,1.651,4.625c-.056.006-.111,0-.167.007a5.7,5.7,0,0,1-4.448-1.664,5.309,5.309,0,0,1-.745-.926,1,1,0,0,0-.842-.469h-.022a.863.863,0,0,0-.134.018.733.733,0,0,0-.094.013,1,1,0,0,0-.613.438,5.35,5.35,0,0,1-.746.927,5.7,5.7,0,0,1-4.437,1.663c-.059,0-.117,0-.176-.008a5.708,5.708,0,0,1,1.649-4.623,5.78,5.78,0,0,1,2.958-1.574.9.9,0,0,0,.176-.062.876.876,0,0,0,.086-.03.92.92,0,0,0,.166-.117c.019-.015.042-.026.06-.042a1.041,1.041,0,0,0,.126-.155c.015-.021.035-.038.048-.06a1.064,1.064,0,0,0,.081-.19c.008-.023.022-.044.029-.068s0,0,0,0a1,1,0,0,0,.027-.231c0-.016.006-.031,0-.047a.993.993,0,0,0-.042-.255c0-.006,0-.012,0-.017a1,1,0,0,0-.3-.462A14.907,14.907,0,0,1,25.736,32.8a13,13,0,0,0,6.258,1.6Zm1.067-11.086c.113.095.216.2.326.3.223.2.446.4.655.609.124.125.238.259.357.388.182.2.365.392.535.6.119.144.229.3.343.443.156.2.311.4.456.613.109.158.21.322.313.485.133.21.266.42.389.637.1.17.185.345.275.519.113.219.224.44.327.665.082.18.157.363.232.546.093.228.183.458.265.692.066.188.128.379.187.57.037.121.069.244.1.367a11.251,11.251,0,0,1-11.662,0c.034-.122.065-.244.1-.365.059-.193.121-.385.188-.574.082-.232.171-.461.263-.688.075-.184.151-.369.234-.549.1-.224.213-.443.325-.662.09-.175.18-.35.277-.521.122-.216.255-.425.388-.635.1-.163.2-.328.315-.487.145-.209.3-.411.456-.612.114-.148.224-.3.343-.443.171-.2.353-.4.535-.6.119-.129.233-.263.357-.388.209-.211.432-.41.655-.609.11-.1.213-.2.326-.3q.513-.433,1.067-.826.555.391,1.067.826Z" fill="#008db6"/>
      <path id="Trazado_979925" data-name="Trazado 979925" d="M33.456,30.1a1.719,1.719,0,1,0-1.719-1.719A1.721,1.721,0,0,0,33.456,30.1Zm0-2a.281.281,0,1,1-.281.281A.281.281,0,0,1,33.456,28.1Z" fill="#008db6"/>
      <path id="Trazado_979926" data-name="Trazado 979926" d="M32,62c12.225,0,22.17-9.246,22.17-20.61,0-10.006-8.05-26.226-18.974-28.967L40.346,3.5A1,1,0,0,0,39.48,2H24.52a1,1,0,0,0-.866,1.5l5.151,8.924C17.876,15.172,9.83,31.387,9.83,41.391,9.83,52.755,19.775,62,32,62ZM37.748,4,33.1,12.056c-.04,0-.083,0-.123-.005-.283-.021-.57-.034-.861-.036-.039,0-.075-.005-.114-.005s-.065,0-.1,0c-.3,0-.594.015-.882.037-.038,0-.08,0-.118.005L26.252,4Zm-7.13,10.1a10.125,10.125,0,0,1,1.375-.09h.014a10.034,10.034,0,0,1,1.384.091c10.366,1.34,18.778,17.472,18.778,27.289C52.169,51.652,43.121,60,32,60s-20.17-8.348-20.17-18.61c0-9.817,8.413-25.948,18.788-27.29Z" fill="#008db6"/>
    </g>
  </g>
</svg>
