<svg xmlns="http://www.w3.org/2000/svg" xmlns:xlink="http://www.w3.org/1999/xlink" width="108" height="108" viewBox="0 0 108 108">
  <defs>
    <filter id="Rect치ngulo_404644" x="0" y="0" width="108" height="108" filterUnits="userSpaceOnUse">
      <feOffset dy="3" input="SourceAlpha"/>
      <feGaussianBlur stdDeviation="3" result="blur"/>
      <feFlood flood-opacity="0.161"/>
      <feComposite operator="in" in2="blur"/>
      <feComposite in="SourceGraphic"/>
    </filter>
  </defs>
  <g id="Grupo_1112855" data-name="Grupo 1112855" transform="translate(-745.051 -6304)">
    <g transform="matrix(1, 0, 0, 1, 745.05, 6304)" filter="url(#Rect치ngulo_404644)">
      <g id="Rect치ngulo_404644-2" data-name="Rect치ngulo 404644" transform="translate(9 6)" fill="#f1de5f" stroke="#fff" stroke-width="3" opacity="0.859">
        <rect width="90" height="90" rx="45" stroke="none"/>
        <rect x="1.5" y="1.5" width="87" height="87" rx="43.5" fill="none"/>
      </g>
    </g>
    <g id="epi" transform="translate(765.66 6325)">
      <g id="Grupo_1112854" data-name="Grupo 1112854" transform="translate(6.391 0)">
        <circle id="Elipse_11813" data-name="Elipse 11813" cx="1.96" cy="1.96" r="1.96" transform="translate(30.228 16.719)" fill="#008db6"/>
        <path id="Elipse_11813_-_Contorno" data-name="Elipse 11813 - Contorno" d="M1.96-.5A2.46,2.46,0,1,1-.5,1.96,2.463,2.463,0,0,1,1.96-.5Zm0,3.921A1.46,1.46,0,1,0,.5,1.96,1.462,1.462,0,0,0,1.96,3.421Z" transform="translate(30.228 16.719)" fill="#008db6"/>
        <circle id="Elipse_11814" data-name="Elipse 11814" cx="1.96" cy="1.96" r="1.96" transform="translate(19.851 16.719)" fill="#008db6"/>
        <path id="Elipse_11814_-_Contorno" data-name="Elipse 11814 - Contorno" d="M1.96-.5A2.46,2.46,0,1,1-.5,1.96,2.463,2.463,0,0,1,1.96-.5Zm0,3.921A1.46,1.46,0,1,0,.5,1.96,1.462,1.462,0,0,0,1.96,3.421Z" transform="translate(19.851 16.719)" fill="#008db6"/>
        <path id="Trazado_979949" data-name="Trazado 979949" d="M62.613,22.188H55.77a.82.82,0,0,0,0,1.64h6.843a.82.82,0,1,0,0-1.64Z" transform="translate(-32.191 -11.789)" fill="#008db6"/>
        <path id="Trazado_979949_-_Contorno" data-name="Trazado 979949 - Contorno" d="M55.77,21.688h6.843a1.32,1.32,0,0,1,0,2.64H55.77a1.32,1.32,0,0,1,0-2.64Zm6.843,1.64a.32.32,0,0,0,0-.64H55.77a.32.32,0,0,0,0,.64Z" transform="translate(-32.191 -11.789)" fill="#008db6"/>
        <path id="Trazado_979950" data-name="Trazado 979950" d="M54.725,41.279l-11.213-5.15a21.205,21.205,0,0,0,8.85-12.774,20.716,20.716,0,0,0-2.52-15.611L47.5,3.92A8.256,8.256,0,0,0,40.5,0H26.281a8.257,8.257,0,0,0-7,3.92L16.94,7.743a20.716,20.716,0,0,0-2.521,15.611A21.2,21.2,0,0,0,23.27,36.129l-11.214,5.15a9.751,9.751,0,0,0-5.666,8.837v9.051a.82.82,0,0,0,.82.82h52.36a.82.82,0,0,0,.82-.82V50.117A9.751,9.751,0,0,0,54.725,41.279Zm4.026,17.068H52.665V51.672a.82.82,0,1,0-1.64,0v6.676H36.408v-25.6h.937a8.328,8.328,0,0,0,8.319-8.319V20.992a.82.82,0,0,0-1.64,0v2.167H33.541l.328-2.179a.82.82,0,0,0-1.622-.246l-.335,2.211a1.563,1.563,0,0,0-.009.214H22.758v-7.4H44.024v.96a.82.82,0,0,0,1.64,0V14.938a.82.82,0,0,0-.82-.82H42.032V9.842a3.167,3.167,0,0,0-3.164-3.164H27.913A3.167,3.167,0,0,0,24.75,9.842v4.277H21.938a.82.82,0,0,0-.82.82V24.43a8.329,8.329,0,0,0,8.319,8.319h.937v8.214a.82.82,0,1,0,1.64,0V32.749h2.753v25.6H32.014V51.838a.82.82,0,0,0-1.64,0v6.509H15.757V51.672a.82.82,0,0,0-1.64,0v6.676H8.031V50.117a8.108,8.108,0,0,1,4.71-7.347l12.606-5.791a.82.82,0,0,0,.066-1.456l-.144-.083a19.548,19.548,0,0,1-9.251-12.457A19.078,19.078,0,0,1,18.341,8.6l2.341-3.823a6.608,6.608,0,0,1,5.6-3.136H40.5a6.608,6.608,0,0,1,5.6,3.14L48.441,8.6a19.078,19.078,0,0,1,2.322,14.382,19.544,19.544,0,0,1-9.25,12.454l-.145.083a.82.82,0,0,0,.066,1.456l12.607,5.79a8.108,8.108,0,0,1,4.71,7.347ZM29.436,31.108a6.688,6.688,0,0,1-6.668-6.31H44.014a6.688,6.688,0,0,1-6.669,6.31Zm10.955-16.99h-14V9.842a1.525,1.525,0,0,1,1.523-1.523H38.868a1.525,1.525,0,0,1,1.523,1.523Z" transform="translate(-6.391 0)" fill="#008db6"/>
        <path id="Trazado_979950_-_Contorno" data-name="Trazado 979950 - Contorno" d="M59.571,60.488H7.211a1.32,1.32,0,0,1-1.32-1.32V50.117a10.251,10.251,0,0,1,5.956-9.291l10.421-4.786a21.706,21.706,0,0,1-8.336-12.57A21.215,21.215,0,0,1,16.515,7.481l2.343-3.823A8.757,8.757,0,0,1,26.279-.5H40.5a8.756,8.756,0,0,1,7.423,4.157l2.344,3.825a21.216,21.216,0,0,1,2.58,15.987,21.707,21.707,0,0,1-8.334,12.569l10.42,4.786a10.251,10.251,0,0,1,5.958,9.291v9.052a1.32,1.32,0,0,1-1.32,1.32ZM26.281.5a7.757,7.757,0,0,0-6.572,3.683L17.367,8A20.216,20.216,0,0,0,14.906,23.24a20.637,20.637,0,0,0,8.642,12.473l.743.5L12.266,41.734a9.251,9.251,0,0,0-5.375,8.384v9.05a.32.32,0,0,0,.32.32H59.571a.32.32,0,0,0,.32-.32V50.117a9.251,9.251,0,0,0-5.376-8.383L42.491,36.21l.743-.5A20.639,20.639,0,0,0,51.875,23.24,20.216,20.216,0,0,0,49.416,8.006L47.072,4.181A7.756,7.756,0,0,0,40.5.5Zm8.986,58.348H31.514V51.838a.32.32,0,0,0-.64,0v7.009H15.257V51.672a.32.32,0,1,0-.64,0v7.176H7.531V50.117a8.608,8.608,0,0,1,5-7.8l12.607-5.791a.32.32,0,0,0,.026-.568l-.145-.084A20.048,20.048,0,0,1,15.532,23.1,19.578,19.578,0,0,1,17.915,8.338l2.34-3.822A7.108,7.108,0,0,1,26.279,1.14H40.5a7.108,7.108,0,0,1,6.025,3.378l2.341,3.825A19.578,19.578,0,0,1,51.25,23.1a20.044,20.044,0,0,1-9.487,12.772l-.146.084a.32.32,0,0,0,.026.568l12.607,5.79a8.608,8.608,0,0,1,5,7.8v8.732H52.165V51.672a.32.32,0,1,0-.64,0v7.176H35.908v-26.6h1.437a7.828,7.828,0,0,0,7.819-7.82V20.992a.32.32,0,0,0-.64,0v2.667H32.96l.415-2.754a.32.32,0,0,0-.269-.365.323.323,0,0,0-.365.269l-.333,2.2a1.066,1.066,0,0,0-.005.137l.013.512H22.258v-8.4H44.524v1.46a.32.32,0,0,0,.64,0V14.938a.32.32,0,0,0-.32-.32H41.532V9.842a2.672,2.672,0,0,0-2.664-2.664H27.913A2.672,2.672,0,0,0,25.25,9.843v4.776H21.938a.321.321,0,0,0-.32.32V24.43a7.829,7.829,0,0,0,7.82,7.819h1.437v8.714a.32.32,0,1,0,.64,0V32.249h3.753Zm-2.753-1h1.753v-24.6H32.514v7.714a1.32,1.32,0,1,1-2.64,0V33.249h-.437a8.829,8.829,0,0,1-8.819-8.818V14.939a1.322,1.322,0,0,1,1.32-1.32H24.25V9.842a3.673,3.673,0,0,1,3.663-3.664H38.868a3.673,3.673,0,0,1,3.664,3.663v3.776h2.312a1.32,1.32,0,0,1,1.32,1.32v1.781a1.32,1.32,0,0,1-2.64,0v-.46H23.258v6.4h8.192l.3-2a1.319,1.319,0,0,1,1.5-1.108,1.32,1.32,0,0,1,1.108,1.5l-.242,1.6h9.4V20.992a1.32,1.32,0,0,1,2.64,0V24.43a8.828,8.828,0,0,1-8.818,8.819h-.438v24.6H50.525V51.672a1.32,1.32,0,1,1,2.64,0v6.176h5.085V50.117a7.632,7.632,0,0,0-4.42-6.893l-12.607-5.79a1.32,1.32,0,0,1-.107-2.344l.146-.084a19.044,19.044,0,0,0,9.013-12.135A18.578,18.578,0,0,0,48.015,8.866L45.674,5.042A6.108,6.108,0,0,0,40.5,2.14H26.281a6.108,6.108,0,0,0-5.174,2.9l-2.34,3.822a18.578,18.578,0,0,0-2.262,14.006A19.048,19.048,0,0,0,25.52,35.007l.143.083a1.32,1.32,0,0,1-.107,2.344L12.95,43.224a7.632,7.632,0,0,0-4.419,6.894v7.73h5.085V51.672a1.32,1.32,0,1,1,2.64,0v6.176H29.874V51.838a1.32,1.32,0,0,1,2.64,0Zm4.832-26.239h-7.91a7.194,7.194,0,0,1-7.168-6.782l-.03-.528h22.3l-.03.528A7.194,7.194,0,0,1,37.346,31.608ZM23.32,25.3a6.194,6.194,0,0,0,6.117,5.31h7.908a6.194,6.194,0,0,0,6.117-5.31Zm17.572-10.68h-15V9.842a2.029,2.029,0,0,1,2.023-2.023H38.868a2.029,2.029,0,0,1,2.023,2.023Zm-14-1h13V9.842a1.027,1.027,0,0,0-1.024-1.023H27.914A1.027,1.027,0,0,0,26.89,9.843Z" transform="translate(-6.391 0)" fill="#008db6"/>
        <path id="Trazado_979951" data-name="Trazado 979951" d="M58.382,98.739a.82.82,0,0,0,.82-.82v-2.33a.82.82,0,0,0-1.64,0v2.33A.82.82,0,0,0,58.382,98.739Z" transform="translate(-33.579 -50.353)" fill="#008db6"/>
        <path id="Trazado_979951_-_Contorno" data-name="Trazado 979951 - Contorno" d="M58.383,99.239h0a1.322,1.322,0,0,1-1.32-1.32v-2.33a1.32,1.32,0,1,1,2.64,0v2.33a1.32,1.32,0,0,1-1.32,1.32Zm0-3.97a.321.321,0,0,0-.32.32v2.33a.321.321,0,0,0,.32.32h0a.32.32,0,0,0,.32-.32v-2.33a.32.32,0,0,0-.32-.32Z" transform="translate(-33.579 -50.353)" fill="#008db6"/>
        <path id="Trazado_979952" data-name="Trazado 979952" d="M63.148,58.714a.82.82,0,0,0-.82-.82H51.22a.82.82,0,1,0,0,1.64H62.328A.821.821,0,0,0,63.148,58.714Z" transform="translate(-29.774 -30.76)" fill="#008db6"/>
        <path id="Trazado_979952_-_Contorno" data-name="Trazado 979952 - Contorno" d="M51.22,57.394H62.328a1.32,1.32,0,0,1,0,2.64H51.22a1.32,1.32,0,1,1,0-2.64Zm11.108,1.64a.32.32,0,1,0,0-.64H51.22a.32.32,0,1,0,0,.64Z" transform="translate(-29.774 -30.76)" fill="#008db6"/>
      </g>
    </g>
  </g>
</svg>
