<svg xmlns="http://www.w3.org/2000/svg" width="90" height="90" viewBox="0 0 90 90">
  <g id="Grupo_1112844" data-name="Grupo 1112844" transform="translate(-597.051 -5958)">
    <g id="Grupo_404640" data-name="Grupo 404640" opacity="0.859">
      <rect id="Rect치ngulo_404640" data-name="Rect치ngulo 404640" width="90" height="90" rx="45" transform="translate(597.051 5958)" fill="#f1de5f"/>
      <path id="Rect치ngulo_404640_-_Contorno" data-name="Rect치ngulo 404640 - Contorno" d="M45,3A42.012,42.012,0,0,0,28.653,83.7,42.012,42.012,0,0,0,61.347,6.3,41.734,41.734,0,0,0,45,3m0-3A45,45,0,0,1,90,45h0A45,45,0,0,1,0,45H0A45,45,0,0,1,45,0Z" transform="translate(597.051 5958)" fill="#fff"/>
    </g>
    <g id="_x31_4_Medical_Contract" transform="translate(603.278 5956.646)">
      <g id="Grupo_1112843" data-name="Grupo 1112843" transform="translate(8.773 17.354)">
        <path id="Trazado_979928" data-name="Trazado 979928" d="M65.561,23.518H56.945L56.955,20a2.553,2.553,0,0,0-2.542-2.557l-32.033-.088h-.007a2.552,2.552,0,0,0-2.55,2.542l-.01,3.622h-8.7a2.342,2.342,0,0,0-2.34,2.34V62.152a2.342,2.342,0,0,0,2.34,2.34H29.5v3.884l-3.528,4.95a.7.7,0,0,0,.568,1.1h23.6A.7.7,0,0,0,50.7,73.32l-3.6-4.948v-3.88H65.561a2.342,2.342,0,0,0,2.34-2.34V25.858a2.342,2.342,0,0,0-2.34-2.34Zm-8.635,6.924h5.1V57.568H56.852ZM22.372,18.751h0l32.033.088A1.154,1.154,0,0,1,55.558,20c0,1.382-.023,8.374-.027,9.747v0l-.077,27.821H21.115c.026-9.358.082-29.864.1-37.668a1.154,1.154,0,0,1,1.153-1.15ZM19.718,57.568H14.645V30.443h5.148Zm8.176,15.465L30.556,69.3h15.5l2.715,3.735ZM45.71,67.9H30.895V64.491H45.709V67.9ZM66.5,62.152a.934.934,0,0,1-.943.943H11.113a.944.944,0,0,1-.943-.943V25.858a.956.956,0,0,1,.943-.943h8.7L19.8,29.046h-5.85a.7.7,0,0,0-.7.7V58.266a.7.7,0,0,0,.7.7h48.78a.7.7,0,0,0,.7-.7V29.744a.7.7,0,0,0-.7-.7h-5.8l.011-4.131h8.619a.944.944,0,0,1,.943.943Z" transform="translate(-8.773 -17.354)" fill="#008db6" stroke="#008db6" stroke-width="1"/>
        <path id="Trazado_979929" data-name="Trazado 979929" d="M137.3,146.6h14.465a.7.7,0,1,0,0-1.4H137.3a.7.7,0,0,0,0,1.4Z" transform="translate(-121.313 -129.915)" fill="#008db6" stroke="#008db6" stroke-width="1"/>
        <path id="Trazado_979930" data-name="Trazado 979930" d="M137.3,201.662h14.465a.7.7,0,1,0,0-1.4H137.3a.7.7,0,0,0,0,1.4Z" transform="translate(-121.313 -178.392)" fill="#008db6" stroke="#008db6" stroke-width="1"/>
        <path id="Trazado_979931" data-name="Trazado 979931" d="M137.3,256.732h14.465a.7.7,0,1,0,0-1.4H137.3a.7.7,0,1,0,0,1.4Z" transform="translate(-121.313 -226.877)" fill="#008db6" stroke="#008db6" stroke-width="1"/>
        <path id="Trazado_979932" data-name="Trazado 979932" d="M137.3,311.794h14.465a.7.7,0,1,0,0-1.4H137.3a.7.7,0,1,0,0,1.4Z" transform="translate(-121.313 -275.354)" fill="#008db6" stroke="#008db6" stroke-width="1"/>
        <path id="Trazado_979933" data-name="Trazado 979933" d="M303.534,134.953a.7.7,0,0,0,.988,0l3.6-3.6a.7.7,0,1,0-.988-.988l-3.1,3.1-1.34-1.34a.7.7,0,0,0-.988.988Z" transform="translate(-266.491 -116.672)" fill="#008db6" stroke="#008db6" stroke-width="1"/>
        <path id="Trazado_979934" data-name="Trazado 979934" d="M303.534,190.015a.7.7,0,0,0,.988,0l3.6-3.6a.7.7,0,1,0-.988-.988l-3.1,3.1-1.34-1.34a.7.7,0,0,0-.988.988Z" transform="translate(-266.491 -165.15)" fill="#008db6" stroke="#008db6" stroke-width="1"/>
        <path id="Trazado_979935" data-name="Trazado 979935" d="M303.534,245.077a.7.7,0,0,0,.988,0l3.6-3.6a.7.7,0,1,0-.988-.988l-3.1,3.1-1.34-1.34a.7.7,0,0,0-.988.988Z" transform="translate(-266.491 -213.628)" fill="#008db6" stroke="#008db6" stroke-width="1"/>
        <path id="Trazado_979936" data-name="Trazado 979936" d="M303.534,300.139a.7.7,0,0,0,.988,0l3.6-3.6a.7.7,0,0,0-.988-.987l-3.1,3.1-1.34-1.34a.7.7,0,0,0-.988.988Z" transform="translate(-266.491 -262.105)" fill="#008db6" stroke="#008db6" stroke-width="1"/>
        <path id="Trazado_979937" data-name="Trazado 979937" d="M218.411,48.686h1.937v1.523a.7.7,0,0,0,.7.7h3.314a.7.7,0,0,0,.7-.7V48.686H227a.7.7,0,0,0,.7-.7V45.193a.7.7,0,0,0-.7-.7h-1.937V42.971a.7.7,0,0,0-.7-.7h-3.314a.7.7,0,0,0-.7.7v1.523h-1.937a.7.7,0,0,0-.7.7v2.794a.7.7,0,0,0,.7.7Zm.7-2.794h1.937a.7.7,0,0,0,.7-.7V43.67h1.918v1.523a.7.7,0,0,0,.7.7H226.3v1.4h-1.937a.7.7,0,0,0-.7.7V49.51h-1.918V47.987a.7.7,0,0,0-.7-.7H219.11Z" transform="translate(-192.728 -39.293)" fill="#008db6" stroke="#008db6" stroke-width="1"/>
      </g>
    </g>
  </g>
</svg>
