<svg xmlns="http://www.w3.org/2000/svg" xmlns:xlink="http://www.w3.org/1999/xlink" width="108" height="108" viewBox="0 0 108 108">
  <defs>
    <filter id="Rect치ngulo_404639" x="0" y="0" width="108" height="108" filterUnits="userSpaceOnUse">
      <feOffset dy="3" input="SourceAlpha"/>
      <feGaussianBlur stdDeviation="3" result="blur"/>
      <feFlood flood-opacity="0.161"/>
      <feComposite operator="in" in2="blur"/>
      <feComposite in="SourceGraphic"/>
    </filter>
    <clipPath id="clip-path">
      <path id="path2223" d="M0-682.665H54.954v54.954H0Z" transform="translate(0 682.665)" fill="#008db6" stroke="#707070" stroke-width="0.5"/>
    </clipPath>
  </defs>
  <g id="Grupo_1112842" data-name="Grupo 1112842" transform="translate(-274.051 -5952)">
    <g transform="matrix(1, 0, 0, 1, 274.05, 5952)" filter="url(#Rect치ngulo_404639)">
      <g id="Rect치ngulo_404639-2" data-name="Rect치ngulo 404639" transform="translate(9 6)" fill="#f1de5f" stroke="#fff" stroke-width="3" opacity="0.859">
        <rect width="90" height="90" rx="45" stroke="none"/>
        <rect x="1.5" y="1.5" width="87" height="87" rx="43.5" fill="none"/>
      </g>
    </g>
    <g id="g2217" transform="translate(301.051 6657.665)">
      <g id="g2219" transform="translate(0 -682.665)">
        <g id="g2221" clip-path="url(#clip-path)">
          <g id="g2227" transform="translate(4.788 23.93)">
            <path id="path2229" d="M-74.569-44.057a3.551,3.551,0,0,1,3.547,3.547,3.551,3.551,0,0,1-3.547,3.547,3.551,3.551,0,0,1-3.547-3.547A3.551,3.551,0,0,1-74.569-44.057Zm0,5.483a1.939,1.939,0,0,0,1.937-1.937,1.939,1.939,0,0,0-1.937-1.937,1.939,1.939,0,0,0-1.937,1.937A1.939,1.939,0,0,0-74.569-38.574Z" transform="translate(78.116 44.057)" fill="#008db6"/>
            <path id="path2229_-_Contorno" data-name="path2229 - Contorno" d="M-74.569-44.307a3.8,3.8,0,0,1,3.8,3.8,3.8,3.8,0,0,1-3.8,3.8,3.8,3.8,0,0,1-3.8-3.8A3.8,3.8,0,0,1-74.569-44.307Zm0,7.093a3.3,3.3,0,0,0,3.3-3.3,3.3,3.3,0,0,0-3.3-3.3,3.3,3.3,0,0,0-3.3,3.3A3.3,3.3,0,0,0-74.569-37.214Zm0-5.483a2.189,2.189,0,0,1,2.187,2.187,2.189,2.189,0,0,1-2.187,2.187,2.189,2.189,0,0,1-2.187-2.187A2.189,2.189,0,0,1-74.569-42.7Zm0,3.873a1.689,1.689,0,0,0,1.687-1.687A1.689,1.689,0,0,0-74.569-42.2a1.688,1.688,0,0,0-1.687,1.687A1.689,1.689,0,0,0-74.569-38.824Z" transform="translate(78.116 44.057)" fill="#008db6"/>
          </g>
          <g id="g2231" transform="translate(0 0.491)">
            <path id="path2233" d="M-171.005-10h11.623a2.333,2.333,0,0,1,2.33,2.33V7.274a2.333,2.333,0,0,1-2.33,2.33h-3.57L-164,11.035a1.469,1.469,0,0,1-1.189.6,1.469,1.469,0,0,1-1.189-.6l-1.071-1.44-3.551.009a2.333,2.333,0,0,1-2.33-2.33V-7.67A2.333,2.333,0,0,1-171.005-10Zm11.623,17.994a.721.721,0,0,0,.72-.72V-7.67a.721.721,0,0,0-.72-.72h-11.623a.721.721,0,0,0-.72.72V7.274a.721.721,0,0,0,.72.72h3.57a1.593,1.593,0,0,1,1.273.64l.968,1.3.968-1.3a1.594,1.594,0,0,1,1.273-.64Z" transform="translate(173.336 10)" fill="#008db6"/>
            <path id="path2233_-_Contorno" data-name="path2233 - Contorno" d="M-171.005-10.25h11.623a2.583,2.583,0,0,1,2.58,2.58V7.274a2.583,2.583,0,0,1-2.58,2.58h-3.444l-.977,1.329a1.717,1.717,0,0,1-1.391.7,1.717,1.717,0,0,1-1.39-.7l-1-1.339L-171,9.854a2.583,2.583,0,0,1-2.581-2.58V-7.67A2.583,2.583,0,0,1-171.005-10.25Zm11.623,19.6a2.083,2.083,0,0,0,2.08-2.08V-7.67a2.083,2.083,0,0,0-2.08-2.08h-11.623a2.083,2.083,0,0,0-2.08,2.08V7.274a2.083,2.083,0,0,0,2.08,2.08l3.677-.01,1.146,1.541a1.221,1.221,0,0,0,.989.5,1.221,1.221,0,0,0,.989-.5l1.126-1.531ZM-171.005-8.64h11.623a.971.971,0,0,1,.97.97V7.274a.971.971,0,0,1-.97.97h-3.57a1.343,1.343,0,0,0-1.073.539l-1.169,1.572-1.169-1.572a1.342,1.342,0,0,0-1.072-.539h-3.57a.971.971,0,0,1-.97-.97V-7.67A.971.971,0,0,1-171.005-8.64Zm11.623,16.384a.471.471,0,0,0,.47-.47V-7.67a.471.471,0,0,0-.47-.47h-11.623a.471.471,0,0,0-.47.47V7.274a.471.471,0,0,0,.47.47h3.57a1.845,1.845,0,0,1,1.474.74l.768,1.032.768-1.032a1.845,1.845,0,0,1,1.474-.741Z" transform="translate(173.336 10)" fill="#008db6"/>
          </g>
          <g id="g2235" transform="translate(5.848 4.759)">
            <path id="path2237" d="M-6.217-8.39H-9.195a.8.8,0,0,1-.8-.8.8.8,0,0,1,.8-.8h2.978a.8.8,0,0,1,.8.8A.8.8,0,0,1-6.217-8.39Z" transform="translate(10 10)" fill="#008db6"/>
            <path id="path2237_-_Contorno" data-name="path2237 - Contorno" d="M-6.217-8.14H-9.195A1.056,1.056,0,0,1-10.25-9.195,1.056,1.056,0,0,1-9.195-10.25h2.978A1.056,1.056,0,0,1-5.162-9.195,1.056,1.056,0,0,1-6.217-8.14ZM-9.195-9.75a.556.556,0,0,0-.555.555.556.556,0,0,0,.555.555h2.978a.556.556,0,0,0,.555-.555.556.556,0,0,0-.555-.555Z" transform="translate(10 10)" fill="#008db6"/>
          </g>
          <g id="g2239" transform="translate(4.112 7.866)">
            <path id="path2241" d="M-2.746-8.39H-9.195a.8.8,0,0,1-.8-.8.8.8,0,0,1,.8-.8h6.449a.8.8,0,0,1,.8.8A.8.8,0,0,1-2.746-8.39Z" transform="translate(10 10)" fill="#008db6"/>
            <path id="path2241_-_Contorno" data-name="path2241 - Contorno" d="M-2.746-8.14H-9.195A1.056,1.056,0,0,1-10.25-9.195,1.056,1.056,0,0,1-9.195-10.25h6.449A1.056,1.056,0,0,1-1.691-9.195,1.056,1.056,0,0,1-2.746-8.14ZM-9.195-9.75a.556.556,0,0,0-.555.555.556.556,0,0,0,.555.555h6.449a.556.556,0,0,0,.555-.555.556.556,0,0,0-.555-.555Z" transform="translate(10 10)" fill="#008db6"/>
          </g>
          <g id="g2243" transform="translate(4.112 10.974)">
            <path id="path2245" d="M-2.746-8.39H-9.195a.8.8,0,0,1-.8-.8.8.8,0,0,1,.8-.8h6.449a.8.8,0,0,1,.8.8A.8.8,0,0,1-2.746-8.39Z" transform="translate(10 10)" fill="#008db6"/>
            <path id="path2245_-_Contorno" data-name="path2245 - Contorno" d="M-2.746-8.14H-9.195A1.056,1.056,0,0,1-10.25-9.195,1.056,1.056,0,0,1-9.195-10.25h6.449A1.056,1.056,0,0,1-1.691-9.195,1.056,1.056,0,0,1-2.746-8.14ZM-9.195-9.75a.556.556,0,0,0-.555.555.556.556,0,0,0,.555.555h6.449a.556.556,0,0,0,.555-.555.556.556,0,0,0-.555-.555Z" transform="translate(10 10)" fill="#008db6"/>
          </g>
          <g id="g2247" transform="translate(4.112 14.082)">
            <path id="path2249" d="M-2.746-8.39H-9.195a.8.8,0,0,1-.8-.8.8.8,0,0,1,.8-.8h6.449a.8.8,0,0,1,.8.8A.8.8,0,0,1-2.746-8.39Z" transform="translate(10 10)" fill="#008db6"/>
            <path id="path2249_-_Contorno" data-name="path2249 - Contorno" d="M-2.746-8.14H-9.195A1.056,1.056,0,0,1-10.25-9.195,1.056,1.056,0,0,1-9.195-10.25h6.449A1.056,1.056,0,0,1-1.691-9.195,1.056,1.056,0,0,1-2.746-8.14ZM-9.195-9.75a.556.556,0,0,0-.555.555.556.556,0,0,0,.555.555h6.449a.556.556,0,0,0,.555-.555.556.556,0,0,0-.555-.555Z" transform="translate(10 10)" fill="#008db6"/>
          </g>
          <g id="g2251" transform="translate(17.678 23.93)">
            <path id="path2253" d="M-74.569-44.057a3.551,3.551,0,0,1,3.547,3.547,3.551,3.551,0,0,1-3.547,3.547,3.551,3.551,0,0,1-3.547-3.547A3.551,3.551,0,0,1-74.569-44.057Zm0,5.483a1.939,1.939,0,0,0,1.937-1.937,1.939,1.939,0,0,0-1.937-1.937,1.939,1.939,0,0,0-1.937,1.937A1.939,1.939,0,0,0-74.569-38.574Z" transform="translate(78.116 44.057)" fill="#008db6"/>
            <path id="path2253_-_Contorno" data-name="path2253 - Contorno" d="M-74.569-44.307a3.8,3.8,0,0,1,3.8,3.8,3.8,3.8,0,0,1-3.8,3.8,3.8,3.8,0,0,1-3.8-3.8A3.8,3.8,0,0,1-74.569-44.307Zm0,7.093a3.3,3.3,0,0,0,3.3-3.3,3.3,3.3,0,0,0-3.3-3.3,3.3,3.3,0,0,0-3.3,3.3A3.3,3.3,0,0,0-74.569-37.214Zm0-5.483a2.189,2.189,0,0,1,2.187,2.187,2.189,2.189,0,0,1-2.187,2.187,2.189,2.189,0,0,1-2.187-2.187A2.189,2.189,0,0,1-74.569-42.7Zm0,3.873a1.689,1.689,0,0,0,1.687-1.687A1.688,1.688,0,0,0-74.569-42.2a1.689,1.689,0,0,0-1.687,1.687A1.689,1.689,0,0,0-74.569-38.824Z" transform="translate(78.116 44.057)" fill="#008db6"/>
          </g>
          <g id="g2255" transform="translate(12.89 32.83)">
            <path id="path2257" d="M-159.382-237.1h-11.623a2.333,2.333,0,0,1-2.33-2.33v-14.944a2.333,2.333,0,0,1,2.33-2.33h3.57l1.052-1.43a1.469,1.469,0,0,1,1.189-.6,1.469,1.469,0,0,1,1.189.6l1.071,1.44,3.551-.009a2.333,2.333,0,0,1,2.33,2.33v14.944A2.333,2.333,0,0,1-159.382-237.1Zm-11.623-17.994a.721.721,0,0,0-.72.72v14.944a.721.721,0,0,0,.72.72h11.623a.721.721,0,0,0,.72-.72v-14.944a.721.721,0,0,0-.72-.72h-3.57a1.594,1.594,0,0,1-1.273-.64l-.968-1.3-.968,1.3a1.593,1.593,0,0,1-1.273.64Z" transform="translate(173.336 258.73)" fill="#008db6"/>
            <path id="path2257_-_Contorno" data-name="path2257 - Contorno" d="M-159.382-236.848h-11.623a2.583,2.583,0,0,1-2.58-2.58v-14.944a2.583,2.583,0,0,1,2.58-2.58h3.444l.977-1.328a1.717,1.717,0,0,1,1.391-.7,1.717,1.717,0,0,1,1.39.7l1,1.339,3.425-.009a2.583,2.583,0,0,1,2.581,2.58v14.944A2.583,2.583,0,0,1-159.382-236.848Zm-11.623-19.6a2.083,2.083,0,0,0-2.08,2.08v14.944a2.083,2.083,0,0,0,2.08,2.08h11.623a2.083,2.083,0,0,0,2.08-2.08v-14.944a2.083,2.083,0,0,0-2.08-2.08l-3.677.01-1.146-1.541a1.221,1.221,0,0,0-.989-.5,1.221,1.221,0,0,0-.989.5l-1.126,1.531Zm11.623,17.994h-11.623a.971.971,0,0,1-.97-.97v-14.944a.971.971,0,0,1,.97-.97h3.57a1.342,1.342,0,0,0,1.072-.539l1.169-1.572,1.169,1.572a1.342,1.342,0,0,0,1.072.539h3.57a.971.971,0,0,1,.97.97v14.944A.971.971,0,0,1-159.382-238.458Zm-11.623-16.384a.471.471,0,0,0-.47.47v14.944a.471.471,0,0,0,.47.47h11.623a.471.471,0,0,0,.47-.47v-14.944a.471.471,0,0,0-.47-.47h-3.57a1.845,1.845,0,0,1-1.474-.74l-.768-1.032-.768,1.032a1.845,1.845,0,0,1-1.474.741Z" transform="translate(173.336 258.73)" fill="#008db6"/>
          </g>
          <g id="g2259" transform="translate(18.738 39.262)">
            <path id="path2261" d="M-6.217-8.39H-9.195a.8.8,0,0,1-.8-.8.8.8,0,0,1,.8-.8h2.978a.8.8,0,0,1,.8.8A.8.8,0,0,1-6.217-8.39Z" transform="translate(10 10)" fill="#008db6"/>
            <path id="path2261_-_Contorno" data-name="path2261 - Contorno" d="M-6.217-8.14H-9.195A1.056,1.056,0,0,1-10.25-9.195,1.056,1.056,0,0,1-9.195-10.25h2.978A1.056,1.056,0,0,1-5.162-9.195,1.056,1.056,0,0,1-6.217-8.14ZM-9.195-9.75a.556.556,0,0,0-.555.555.556.556,0,0,0,.555.555h2.978a.556.556,0,0,0,.555-.555.556.556,0,0,0-.555-.555Z" transform="translate(10 10)" fill="#008db6"/>
          </g>
          <g id="g2263" transform="translate(17.002 42.369)">
            <path id="path2265" d="M-2.746-8.39H-9.195a.8.8,0,0,1-.8-.8.8.8,0,0,1,.8-.8h6.449a.8.8,0,0,1,.8.8A.8.8,0,0,1-2.746-8.39Z" transform="translate(10 10)" fill="#008db6"/>
            <path id="path2265_-_Contorno" data-name="path2265 - Contorno" d="M-2.746-8.14H-9.195A1.056,1.056,0,0,1-10.25-9.195,1.056,1.056,0,0,1-9.195-10.25h6.449A1.056,1.056,0,0,1-1.691-9.195,1.056,1.056,0,0,1-2.746-8.14ZM-9.195-9.75a.556.556,0,0,0-.555.555.556.556,0,0,0,.555.555h6.449a.556.556,0,0,0,.555-.555.556.556,0,0,0-.555-.555Z" transform="translate(10 10)" fill="#008db6"/>
          </g>
          <g id="g2267" transform="translate(17.002 45.477)">
            <path id="path2269" d="M-2.746-8.39H-9.195a.8.8,0,0,1-.8-.8.8.8,0,0,1,.8-.8h6.449a.8.8,0,0,1,.8.8A.8.8,0,0,1-2.746-8.39Z" transform="translate(10 10)" fill="#008db6"/>
            <path id="path2269_-_Contorno" data-name="path2269 - Contorno" d="M-2.746-8.14H-9.195A1.056,1.056,0,0,1-10.25-9.195,1.056,1.056,0,0,1-9.195-10.25h6.449A1.056,1.056,0,0,1-1.691-9.195,1.056,1.056,0,0,1-2.746-8.14ZM-9.195-9.75a.556.556,0,0,0-.555.555.556.556,0,0,0,.555.555h6.449a.556.556,0,0,0,.555-.555.556.556,0,0,0-.555-.555Z" transform="translate(10 10)" fill="#008db6"/>
          </g>
          <g id="g2271" transform="translate(17.002 48.585)">
            <path id="path2273" d="M-2.746-8.39H-9.195a.8.8,0,0,1-.8-.8.8.8,0,0,1,.8-.8h6.449a.8.8,0,0,1,.8.8A.8.8,0,0,1-2.746-8.39Z" transform="translate(10 10)" fill="#008db6"/>
            <path id="path2273_-_Contorno" data-name="path2273 - Contorno" d="M-2.746-8.14H-9.195A1.056,1.056,0,0,1-10.25-9.195,1.056,1.056,0,0,1-9.195-10.25h6.449A1.056,1.056,0,0,1-1.691-9.195,1.056,1.056,0,0,1-2.746-8.14ZM-9.195-9.75a.556.556,0,0,0-.555.555.556.556,0,0,0,.555.555h6.449a.556.556,0,0,0,.555-.555.556.556,0,0,0-.555-.555Z" transform="translate(10 10)" fill="#008db6"/>
          </g>
          <g id="g2275" transform="translate(30.568 23.93)">
            <path id="path2277" d="M-74.569-44.057a3.551,3.551,0,0,1,3.547,3.547,3.551,3.551,0,0,1-3.547,3.547,3.551,3.551,0,0,1-3.547-3.547A3.551,3.551,0,0,1-74.569-44.057Zm0,5.483a1.939,1.939,0,0,0,1.937-1.937,1.939,1.939,0,0,0-1.937-1.937,1.939,1.939,0,0,0-1.937,1.937A1.939,1.939,0,0,0-74.569-38.574Z" transform="translate(78.116 44.057)" fill="#008db6"/>
            <path id="path2277_-_Contorno" data-name="path2277 - Contorno" d="M-74.569-44.307a3.8,3.8,0,0,1,3.8,3.8,3.8,3.8,0,0,1-3.8,3.8,3.8,3.8,0,0,1-3.8-3.8A3.8,3.8,0,0,1-74.569-44.307Zm0,7.093a3.3,3.3,0,0,0,3.3-3.3,3.3,3.3,0,0,0-3.3-3.3,3.3,3.3,0,0,0-3.3,3.3A3.3,3.3,0,0,0-74.569-37.214Zm0-5.483a2.189,2.189,0,0,1,2.187,2.187,2.189,2.189,0,0,1-2.187,2.187,2.189,2.189,0,0,1-2.187-2.187A2.189,2.189,0,0,1-74.569-42.7Zm0,3.873a1.689,1.689,0,0,0,1.687-1.687A1.688,1.688,0,0,0-74.569-42.2a1.689,1.689,0,0,0-1.687,1.687A1.689,1.689,0,0,0-74.569-38.824Z" transform="translate(78.116 44.057)" fill="#008db6"/>
          </g>
          <g id="g2279" transform="translate(31.628 4.759)">
            <path id="path2281" d="M-6.217-8.39H-9.195a.8.8,0,0,1-.8-.8.8.8,0,0,1,.8-.8h2.978a.8.8,0,0,1,.8.8A.8.8,0,0,1-6.217-8.39Z" transform="translate(10 10)" fill="#008db6"/>
            <path id="path2281_-_Contorno" data-name="path2281 - Contorno" d="M-6.217-8.14H-9.195A1.056,1.056,0,0,1-10.25-9.195,1.056,1.056,0,0,1-9.195-10.25h2.978A1.056,1.056,0,0,1-5.162-9.195,1.056,1.056,0,0,1-6.217-8.14ZM-9.195-9.75a.556.556,0,0,0-.555.555.556.556,0,0,0,.555.555h2.978a.556.556,0,0,0,.555-.555.556.556,0,0,0-.555-.555Z" transform="translate(10 10)" fill="#008db6"/>
          </g>
          <g id="g2283" transform="translate(29.892 7.866)">
            <path id="path2285" d="M-2.746-8.39H-9.195a.8.8,0,0,1-.8-.8.8.8,0,0,1,.8-.8h6.449a.8.8,0,0,1,.8.8A.8.8,0,0,1-2.746-8.39Z" transform="translate(10 10)" fill="#008db6"/>
            <path id="path2285_-_Contorno" data-name="path2285 - Contorno" d="M-2.746-8.14H-9.195A1.056,1.056,0,0,1-10.25-9.195,1.056,1.056,0,0,1-9.195-10.25h6.449A1.056,1.056,0,0,1-1.691-9.195,1.056,1.056,0,0,1-2.746-8.14ZM-9.195-9.75a.556.556,0,0,0-.555.555.556.556,0,0,0,.555.555h6.449a.556.556,0,0,0,.555-.555.556.556,0,0,0-.555-.555Z" transform="translate(10 10)" fill="#008db6"/>
          </g>
          <g id="g2287" transform="translate(29.892 10.974)">
            <path id="path2289" d="M-2.746-8.39H-9.195a.8.8,0,0,1-.8-.8.8.8,0,0,1,.8-.8h6.449a.8.8,0,0,1,.8.8A.8.8,0,0,1-2.746-8.39Z" transform="translate(10 10)" fill="#008db6"/>
            <path id="path2289_-_Contorno" data-name="path2289 - Contorno" d="M-2.746-8.14H-9.195A1.056,1.056,0,0,1-10.25-9.195,1.056,1.056,0,0,1-9.195-10.25h6.449A1.056,1.056,0,0,1-1.691-9.195,1.056,1.056,0,0,1-2.746-8.14ZM-9.195-9.75a.556.556,0,0,0-.555.555.556.556,0,0,0,.555.555h6.449a.556.556,0,0,0,.555-.555.556.556,0,0,0-.555-.555Z" transform="translate(10 10)" fill="#008db6"/>
          </g>
          <g id="g2291" transform="translate(29.892 14.082)">
            <path id="path2293" d="M-2.746-8.39H-9.195a.8.8,0,0,1-.8-.8.8.8,0,0,1,.8-.8h6.449a.8.8,0,0,1,.8.8A.8.8,0,0,1-2.746-8.39Z" transform="translate(10 10)" fill="#008db6"/>
            <path id="path2293_-_Contorno" data-name="path2293 - Contorno" d="M-2.746-8.14H-9.195A1.056,1.056,0,0,1-10.25-9.195,1.056,1.056,0,0,1-9.195-10.25h6.449A1.056,1.056,0,0,1-1.691-9.195,1.056,1.056,0,0,1-2.746-8.14ZM-9.195-9.75a.556.556,0,0,0-.555.555.556.556,0,0,0,.555.555h6.449a.556.556,0,0,0,.555-.555.556.556,0,0,0-.555-.555Z" transform="translate(10 10)" fill="#008db6"/>
          </g>
          <g id="g2295" transform="translate(43.458 23.93)">
            <path id="path2297" d="M-74.569-44.057a3.551,3.551,0,0,1,3.547,3.547,3.551,3.551,0,0,1-3.547,3.547,3.551,3.551,0,0,1-3.547-3.547A3.551,3.551,0,0,1-74.569-44.057Zm0,5.483a1.939,1.939,0,0,0,1.937-1.937,1.939,1.939,0,0,0-1.937-1.937,1.939,1.939,0,0,0-1.937,1.937A1.939,1.939,0,0,0-74.569-38.574Z" transform="translate(78.116 44.057)" fill="#008db6"/>
            <path id="path2297_-_Contorno" data-name="path2297 - Contorno" d="M-74.569-44.307a3.8,3.8,0,0,1,3.8,3.8,3.8,3.8,0,0,1-3.8,3.8,3.8,3.8,0,0,1-3.8-3.8A3.8,3.8,0,0,1-74.569-44.307Zm0,7.093a3.3,3.3,0,0,0,3.3-3.3,3.3,3.3,0,0,0-3.3-3.3,3.3,3.3,0,0,0-3.3,3.3A3.3,3.3,0,0,0-74.569-37.214Zm0-5.483a2.189,2.189,0,0,1,2.187,2.187,2.189,2.189,0,0,1-2.187,2.187,2.189,2.189,0,0,1-2.187-2.187A2.189,2.189,0,0,1-74.569-42.7Zm0,3.873a1.689,1.689,0,0,0,1.687-1.687A1.688,1.688,0,0,0-74.569-42.2a1.689,1.689,0,0,0-1.687,1.687A1.689,1.689,0,0,0-74.569-38.824Z" transform="translate(78.116 44.057)" fill="#008db6"/>
          </g>
          <g id="g2299" transform="translate(44.518 39.262)">
            <path id="path2301" d="M-6.217-8.39H-9.195a.8.8,0,0,1-.8-.8.8.8,0,0,1,.8-.8h2.978a.8.8,0,0,1,.8.8A.8.8,0,0,1-6.217-8.39Z" transform="translate(10 10)" fill="#008db6"/>
            <path id="path2301_-_Contorno" data-name="path2301 - Contorno" d="M-6.217-8.14H-9.195A1.056,1.056,0,0,1-10.25-9.195,1.056,1.056,0,0,1-9.195-10.25h2.978A1.056,1.056,0,0,1-5.162-9.195,1.056,1.056,0,0,1-6.217-8.14ZM-9.195-9.75a.556.556,0,0,0-.555.555.556.556,0,0,0,.555.555h2.978a.556.556,0,0,0,.555-.555.556.556,0,0,0-.555-.555Z" transform="translate(10 10)" fill="#008db6"/>
          </g>
          <g id="g2303" transform="translate(42.782 42.369)">
            <path id="path2305" d="M-2.746-8.39H-9.195a.8.8,0,0,1-.8-.8.8.8,0,0,1,.8-.8h6.449a.8.8,0,0,1,.8.8A.8.8,0,0,1-2.746-8.39Z" transform="translate(10 10)" fill="#008db6"/>
            <path id="path2305_-_Contorno" data-name="path2305 - Contorno" d="M-2.746-8.14H-9.195A1.056,1.056,0,0,1-10.25-9.195,1.056,1.056,0,0,1-9.195-10.25h6.449A1.056,1.056,0,0,1-1.691-9.195,1.056,1.056,0,0,1-2.746-8.14ZM-9.195-9.75a.556.556,0,0,0-.555.555.556.556,0,0,0,.555.555h6.449a.556.556,0,0,0,.555-.555.556.556,0,0,0-.555-.555Z" transform="translate(10 10)" fill="#008db6"/>
          </g>
          <g id="g2307" transform="translate(42.782 45.477)">
            <path id="path2309" d="M-2.746-8.39H-9.195a.8.8,0,0,1-.8-.8.8.8,0,0,1,.8-.8h6.449a.8.8,0,0,1,.8.8A.8.8,0,0,1-2.746-8.39Z" transform="translate(10 10)" fill="#008db6"/>
            <path id="path2309_-_Contorno" data-name="path2309 - Contorno" d="M-2.746-8.14H-9.195A1.056,1.056,0,0,1-10.25-9.195,1.056,1.056,0,0,1-9.195-10.25h6.449A1.056,1.056,0,0,1-1.691-9.195,1.056,1.056,0,0,1-2.746-8.14ZM-9.195-9.75a.556.556,0,0,0-.555.555.556.556,0,0,0,.555.555h6.449a.556.556,0,0,0,.555-.555.556.556,0,0,0-.555-.555Z" transform="translate(10 10)" fill="#008db6"/>
          </g>
          <g id="g2311" transform="translate(42.782 48.585)">
            <path id="path2313" d="M-2.746-8.39H-9.195a.8.8,0,0,1-.8-.8.8.8,0,0,1,.8-.8h6.449a.8.8,0,0,1,.8.8A.8.8,0,0,1-2.746-8.39Z" transform="translate(10 10)" fill="#008db6"/>
            <path id="path2313_-_Contorno" data-name="path2313 - Contorno" d="M-2.746-8.14H-9.195A1.056,1.056,0,0,1-10.25-9.195,1.056,1.056,0,0,1-9.195-10.25h6.449A1.056,1.056,0,0,1-1.691-9.195,1.056,1.056,0,0,1-2.746-8.14ZM-9.195-9.75a.556.556,0,0,0-.555.555.556.556,0,0,0,.555.555h6.449a.556.556,0,0,0,.555-.555.556.556,0,0,0-.555-.555Z" transform="translate(10 10)" fill="#008db6"/>
          </g>
          <g id="g2315" transform="translate(48.942 26.672)">
            <path id="path2317" d="M-4.793-8.39h-4.4a.8.8,0,0,1-.8-.8.8.8,0,0,1,.8-.8h4.4a.8.8,0,0,1,.8.8A.8.8,0,0,1-4.793-8.39Z" transform="translate(10 10)" fill="#008db6"/>
            <path id="path2317_-_Contorno" data-name="path2317 - Contorno" d="M-4.793-8.14h-4.4A1.056,1.056,0,0,1-10.25-9.195,1.056,1.056,0,0,1-9.195-10.25h4.4A1.056,1.056,0,0,1-3.738-9.195,1.056,1.056,0,0,1-4.793-8.14Zm-4.4-1.61a.556.556,0,0,0-.555.555.556.556,0,0,0,.555.555h4.4a.556.556,0,0,0,.555-.555.556.556,0,0,0-.555-.555Z" transform="translate(10 10)" fill="#008db6"/>
          </g>
          <g id="g2319" transform="translate(36.052 26.672)">
            <path id="path2321" d="M-1.788-8.39H-9.195a.8.8,0,0,1-.8-.8.8.8,0,0,1,.8-.8h7.407a.8.8,0,0,1,.8.8A.8.8,0,0,1-1.788-8.39Z" transform="translate(10 10)" fill="#008db6"/>
            <path id="path2321_-_Contorno" data-name="path2321 - Contorno" d="M-1.788-8.14H-9.195A1.056,1.056,0,0,1-10.25-9.195,1.056,1.056,0,0,1-9.195-10.25h7.407A1.056,1.056,0,0,1-.733-9.195,1.056,1.056,0,0,1-1.788-8.14ZM-9.195-9.75a.556.556,0,0,0-.555.555.556.556,0,0,0,.555.555h7.407a.556.556,0,0,0,.555-.555.556.556,0,0,0-.555-.555Z" transform="translate(10 10)" fill="#008db6"/>
          </g>
          <g id="g2323" transform="translate(23.162 26.672)">
            <path id="path2325" d="M-1.788-8.39H-9.195a.8.8,0,0,1-.8-.8.8.8,0,0,1,.8-.8h7.407a.8.8,0,0,1,.8.8A.8.8,0,0,1-1.788-8.39Z" transform="translate(10 10)" fill="#008db6"/>
            <path id="path2325_-_Contorno" data-name="path2325 - Contorno" d="M-1.788-8.14H-9.195A1.056,1.056,0,0,1-10.25-9.195,1.056,1.056,0,0,1-9.195-10.25h7.407A1.056,1.056,0,0,1-.733-9.195,1.056,1.056,0,0,1-1.788-8.14ZM-9.195-9.75a.556.556,0,0,0-.555.555.556.556,0,0,0,.555.555h7.407a.556.556,0,0,0,.555-.555.556.556,0,0,0-.555-.555Z" transform="translate(10 10)" fill="#008db6"/>
          </g>
          <g id="g2327" transform="translate(10.271 26.672)">
            <path id="path2329" d="M-1.788-8.39H-9.2a.8.8,0,0,1-.8-.8.8.8,0,0,1,.8-.8h7.407a.8.8,0,0,1,.8.8A.8.8,0,0,1-1.788-8.39Z" transform="translate(10 10)" fill="#008db6"/>
            <path id="path2329_-_Contorno" data-name="path2329 - Contorno" d="M-1.788-8.14H-9.2A1.056,1.056,0,0,1-10.25-9.195,1.056,1.056,0,0,1-9.2-10.25h7.407A1.056,1.056,0,0,1-.733-9.195,1.056,1.056,0,0,1-1.788-8.14ZM-9.2-9.75a.556.556,0,0,0-.555.555A.556.556,0,0,0-9.2-8.64h7.407a.556.556,0,0,0,.555-.555.556.556,0,0,0-.555-.555Z" transform="translate(10 10)" fill="#008db6"/>
          </g>
          <g id="g2331" transform="translate(0 26.672)">
            <path id="path2333" d="M-4.407-8.39H-9.195a.8.8,0,0,1-.8-.8.8.8,0,0,1,.8-.8h4.788a.8.8,0,0,1,.8.8A.8.8,0,0,1-4.407-8.39Z" transform="translate(10 10)" fill="#008db6"/>
            <path id="path2333_-_Contorno" data-name="path2333 - Contorno" d="M-4.407-8.14H-9.195A1.056,1.056,0,0,1-10.25-9.195,1.056,1.056,0,0,1-9.195-10.25h4.788A1.056,1.056,0,0,1-3.352-9.195,1.056,1.056,0,0,1-4.407-8.14ZM-9.195-9.75a.556.556,0,0,0-.555.555.556.556,0,0,0,.555.555h4.788a.556.556,0,0,0,.555-.555.556.556,0,0,0-.555-.555Z" transform="translate(10 10)" fill="#008db6"/>
          </g>
          <g id="g2335" transform="translate(38.67 32.83)">
            <path id="path2337" d="M-112.92-237.1h-3.74a.8.8,0,0,1-.8-.8.8.8,0,0,1,.8-.8h3.74a.721.721,0,0,0,.72-.72v-14.944a.721.721,0,0,0-.72-.72h-3.57a1.593,1.593,0,0,1-1.273-.64l-.968-1.3-.968,1.3a1.594,1.594,0,0,1-1.273.64h-3.57a.721.721,0,0,0-.72.72v14.944a.721.721,0,0,0,.72.72h4.126a.8.8,0,0,1,.8.8.8.8,0,0,1-.8.8h-4.126a2.333,2.333,0,0,1-2.33-2.33v-14.944a2.333,2.333,0,0,1,2.33-2.33h3.57l1.052-1.43a1.469,1.469,0,0,1,1.189-.6,1.469,1.469,0,0,1,1.189.6l1.071,1.44,3.551-.009a2.333,2.333,0,0,1,2.33,2.33v14.944A2.333,2.333,0,0,1-112.92-237.1Z" transform="translate(126.873 258.73)" fill="#008db6"/>
            <path id="path2337_-_Contorno" data-name="path2337 - Contorno" d="M-112.92-236.848h-3.74a1.056,1.056,0,0,1-1.055-1.055,1.056,1.056,0,0,1,1.055-1.055h3.74a.471.471,0,0,0,.47-.47v-14.944a.471.471,0,0,0-.47-.47h-3.57a1.845,1.845,0,0,1-1.474-.74l-.768-1.032-.768,1.032a1.845,1.845,0,0,1-1.474.741h-3.57a.471.471,0,0,0-.47.47v14.944a.471.471,0,0,0,.47.47h4.126a1.056,1.056,0,0,1,1.055,1.055,1.056,1.056,0,0,1-1.055,1.055h-4.126a2.583,2.583,0,0,1-2.58-2.58v-14.944a2.583,2.583,0,0,1,2.58-2.58h3.444l.977-1.329a1.717,1.717,0,0,1,1.391-.7,1.717,1.717,0,0,1,1.39.7l1,1.339,3.425-.009a2.583,2.583,0,0,1,2.581,2.58v14.944A2.583,2.583,0,0,1-112.92-236.848Zm-3.74-1.61a.556.556,0,0,0-.555.555.556.556,0,0,0,.555.555h3.74a2.083,2.083,0,0,0,2.08-2.08v-14.944a2.083,2.083,0,0,0-2.08-2.08l-3.677.01-1.146-1.541a1.221,1.221,0,0,0-.989-.5,1.221,1.221,0,0,0-.989.5l-1.126,1.531h-3.7a2.083,2.083,0,0,0-2.08,2.08v14.944a2.083,2.083,0,0,0,2.08,2.08h4.126a.556.556,0,0,0,.555-.555.556.556,0,0,0-.555-.555h-4.126a.971.971,0,0,1-.97-.97v-14.944a.971.971,0,0,1,.97-.97h3.57a1.343,1.343,0,0,0,1.073-.539l1.169-1.572,1.169,1.572a1.342,1.342,0,0,0,1.072.539h3.57a.971.971,0,0,1,.97.97v14.944a.971.971,0,0,1-.97.97Z" transform="translate(126.873 258.73)" fill="#008db6"/>
          </g>
          <g id="g2339" transform="translate(25.78 0.491)">
            <path id="path2341" d="M-184.142-80.809a1.469,1.469,0,0,1-1.189-.6l-1.071-1.44-3.551.009a2.333,2.333,0,0,1-2.33-2.33v-14.944a2.333,2.333,0,0,1,2.33-2.33h11.623a2.333,2.333,0,0,1,2.33,2.33v5.916a.8.8,0,0,1-.8.8.8.8,0,0,1-.8-.8v-5.916a.721.721,0,0,0-.72-.72h-11.623a.721.721,0,0,0-.72.72v14.944a.721.721,0,0,0,.72.72h3.57a1.593,1.593,0,0,1,1.273.64l.968,1.3.968-1.3a1.594,1.594,0,0,1,1.273-.64h3.57a.721.721,0,0,0,.72-.72v-5.271a.8.8,0,0,1,.8-.8.8.8,0,0,1,.8.8v5.271a2.333,2.333,0,0,1-2.33,2.33h-3.57l-1.052,1.43A1.469,1.469,0,0,1-184.142-80.809Z" transform="translate(192.283 102.441)" fill="#008db6"/>
            <path id="path2341_-_Contorno" data-name="path2341 - Contorno" d="M-184.142-80.559a1.717,1.717,0,0,1-1.39-.7l-1-1.339-3.425.009a2.583,2.583,0,0,1-2.581-2.58v-14.944a2.583,2.583,0,0,1,2.58-2.58h11.623a2.583,2.583,0,0,1,2.58,2.58v5.916A1.056,1.056,0,0,1-176.8-93.14a1.056,1.056,0,0,1-1.055-1.055v-5.916a.471.471,0,0,0-.47-.47h-11.623a.471.471,0,0,0-.47.47v14.944a.471.471,0,0,0,.47.47h3.57a1.845,1.845,0,0,1,1.474.74l.768,1.032.768-1.032A1.845,1.845,0,0,1-181.9-84.7h3.57a.471.471,0,0,0,.47-.47v-5.271a1.056,1.056,0,0,1,1.055-1.055,1.056,1.056,0,0,1,1.055,1.055v5.271a2.583,2.583,0,0,1-2.58,2.58h-3.444l-.977,1.328A1.717,1.717,0,0,1-184.142-80.559Zm-2.135-2.538,1.146,1.541a1.221,1.221,0,0,0,.989.5,1.221,1.221,0,0,0,.989-.5l1.126-1.531h3.7a2.083,2.083,0,0,0,2.08-2.08v-5.271a.556.556,0,0,0-.555-.555.556.556,0,0,0-.555.555v5.271a.971.971,0,0,1-.97.97h-3.57a1.343,1.343,0,0,0-1.072.539l-1.169,1.572-1.169-1.572a1.342,1.342,0,0,0-1.072-.539h-3.57a.971.971,0,0,1-.97-.97v-14.944a.971.971,0,0,1,.97-.97h11.623a.971.971,0,0,1,.97.97v5.916a.556.556,0,0,0,.555.555.556.556,0,0,0,.555-.555v-5.916a2.083,2.083,0,0,0-2.08-2.08h-11.623a2.083,2.083,0,0,0-2.08,2.08v14.944a2.083,2.083,0,0,0,2.08,2.08Z" transform="translate(192.283 102.441)" fill="#008db6"/>
          </g>
        </g>
      </g>
    </g>
  </g>
</svg>
