<svg xmlns="http://www.w3.org/2000/svg" xmlns:xlink="http://www.w3.org/1999/xlink" width="108" height="108" viewBox="0 0 108 108">
  <defs>
    <filter id="Rect치ngulo_404643" x="0" y="0" width="108" height="108" filterUnits="userSpaceOnUse">
      <feOffset dy="3" input="SourceAlpha"/>
      <feGaussianBlur stdDeviation="3" result="blur"/>
      <feFlood flood-opacity="0.161"/>
      <feComposite operator="in" in2="blur"/>
      <feComposite in="SourceGraphic"/>
    </filter>
  </defs>
  <g id="Grupo_1112850" data-name="Grupo 1112850" transform="translate(-430.051 -6304)">
    <g transform="matrix(1, 0, 0, 1, 430.05, 6304)" filter="url(#Rect치ngulo_404643)">
      <g id="Rect치ngulo_404643-2" data-name="Rect치ngulo 404643" transform="translate(9 6)" fill="#f1de5f" stroke="#fff" stroke-width="3" opacity="0.859">
        <rect width="90" height="90" rx="45" stroke="none"/>
        <rect x="1.5" y="1.5" width="87" height="87" rx="43.5" fill="none"/>
      </g>
    </g>
    <g id="Grupo_1112849" data-name="Grupo 1112849" transform="translate(3647.481 11533.52)">
      <g id="g1695" transform="translate(-3162.606 -5203.569)">
        <path id="path1697" d="M-17.481-94.54h-1.842a.89.89,0,0,1-.89-.89.89.89,0,0,1,.89-.89h1.842a.227.227,0,0,0,.164-.068.227.227,0,0,0,.068-.164v-6.191a.232.232,0,0,0-.232-.232h-6.191a.232.232,0,0,0-.232.232v6.191a.232.232,0,0,0,.232.232h.274a.89.89,0,0,1,.89.89.89.89,0,0,1-.89.89h-.274a2.014,2.014,0,0,1-2.012-2.012v-6.191a2.014,2.014,0,0,1,2.012-2.012h6.191a2.014,2.014,0,0,1,2.012,2.012v6.191a2,2,0,0,1-.589,1.423A2,2,0,0,1-17.481-94.54Z" transform="translate(25.684 104.754)" fill="#008db6"/>
        <path id="path1697_-_Contorno" data-name="path1697 - Contorno" d="M-17.481-94.29h-1.842a1.141,1.141,0,0,1-1.14-1.14,1.141,1.141,0,0,1,1.14-1.14H-17.5v-6.154h-6.154v6.154h.256a1.141,1.141,0,0,1,1.14,1.14,1.141,1.141,0,0,1-1.14,1.14h-.274a2.264,2.264,0,0,1-2.262-2.262v-6.191A2.264,2.264,0,0,1-23.672-105h6.191a2.264,2.264,0,0,1,2.262,2.262v6.191a2.247,2.247,0,0,1-.663,1.6A2.247,2.247,0,0,1-17.481-94.29Zm-1.842-1.78a.641.641,0,0,0-.64.64.641.641,0,0,0,.64.64h1.842a1.75,1.75,0,0,0,1.246-.516,1.75,1.75,0,0,0,.516-1.246v-6.191a1.764,1.764,0,0,0-1.762-1.762h-6.191a1.764,1.764,0,0,0-1.762,1.762v6.191a1.764,1.764,0,0,0,1.762,1.762h.274a.641.641,0,0,0,.64-.64.641.641,0,0,0-.64-.64h-.274a.482.482,0,0,1-.482-.482v-6.191a.482.482,0,0,1,.482-.482h6.191a.482.482,0,0,1,.482.482v6.191a.478.478,0,0,1-.141.341.478.478,0,0,1-.341.141Z" transform="translate(25.684 104.754)" fill="#008db6"/>
      </g>
      <g id="g1699" transform="translate(-3159.372 -5203.886)">
        <path id="path1701" d="M-6.939-44.051a1.572,1.572,0,0,1-1.125-.469l-1.678-1.692a.89.89,0,0,1,.005-1.259.89.89,0,0,1,1.259.005l1.537,1.55,5.06-5.229a.89.89,0,0,1,1.259-.021A.89.89,0,0,1-.6-49.907l-5.2,5.373a1.572,1.572,0,0,1-1.129.483Z" transform="translate(10 51.416)" fill="#008db6"/>
        <path id="path1701_-_Contorno" data-name="path1701 - Contorno" d="M-6.939-43.8a1.821,1.821,0,0,1-1.3-.543l-1.678-1.692a1.141,1.141,0,0,1,.007-1.612,1.133,1.133,0,0,1,.8-.33,1.132,1.132,0,0,1,.81.337l1.357,1.369,4.882-5.045a1.131,1.131,0,0,1,.819-.347,1.134,1.134,0,0,1,.793.321,1.141,1.141,0,0,1,.027,1.612l-5.2,5.373a1.82,1.82,0,0,1-1.307.559Zm-2.17-3.678a.636.636,0,0,0-.451.186.641.641,0,0,0,0,.905L-7.887-44.7a1.325,1.325,0,0,0,.947.395h.008a1.324,1.324,0,0,0,.951-.406l5.2-5.373A.641.641,0,0,0-.8-50.986a.637.637,0,0,0-.445-.18.635.635,0,0,0-.46.195l-5.237,5.412L-8.655-47.29A.636.636,0,0,0-9.11-47.479Z" transform="translate(10 51.416)" fill="#008db6"/>
      </g>
      <g id="g1703" transform="translate(-3148.18 -5201.167)">
        <path id="path1705" d="M-111.14-8.22h-9.969a.89.89,0,0,1-.89-.89.89.89,0,0,1,.89-.89h9.969a.89.89,0,0,1,.89.89A.89.89,0,0,1-111.14-8.22Z" transform="translate(122 10)" fill="#008db6"/>
        <path id="path1705_-_Contorno" data-name="path1705 - Contorno" d="M-111.14-7.97h-9.969a1.141,1.141,0,0,1-1.14-1.14,1.141,1.141,0,0,1,1.14-1.14h9.969A1.141,1.141,0,0,1-110-9.11,1.141,1.141,0,0,1-111.14-7.97Zm-9.969-1.78a.641.641,0,0,0-.64.64.641.641,0,0,0,.64.64h9.969a.641.641,0,0,0,.64-.64.641.641,0,0,0-.64-.64Z" transform="translate(122 10)" fill="#008db6"/>
      </g>
      <g id="g1707" transform="translate(-3148.18 -5197.537)">
        <path id="path1709" d="M-111.14-8.22h-9.969a.89.89,0,0,1-.89-.89.89.89,0,0,1,.89-.89h9.969a.89.89,0,0,1,.89.89A.89.89,0,0,1-111.14-8.22Z" transform="translate(122 10)" fill="#008db6"/>
        <path id="path1709_-_Contorno" data-name="path1709 - Contorno" d="M-111.14-7.97h-9.969a1.141,1.141,0,0,1-1.14-1.14,1.141,1.141,0,0,1,1.14-1.14h9.969A1.141,1.141,0,0,1-110-9.11,1.141,1.141,0,0,1-111.14-7.97Zm-9.969-1.78a.641.641,0,0,0-.64.64.641.641,0,0,0,.64.64h9.969a.641.641,0,0,0,.64-.64.641.641,0,0,0-.64-.64Z" transform="translate(122 10)" fill="#008db6"/>
      </g>
      <g id="g1711" transform="translate(-3162.606 -5189.923)">
        <path id="path1713" d="M-83.949-94.54H-90.14a2.014,2.014,0,0,1-2.012-2.012v-6.191a2.014,2.014,0,0,1,2.012-2.012h6.191a2.014,2.014,0,0,1,2.012,2.012v6.191A2.014,2.014,0,0,1-83.949-94.54Zm-6.191-8.434a.232.232,0,0,0-.232.232v6.191a.232.232,0,0,0,.232.232h6.191a.232.232,0,0,0,.232-.232v-6.191a.232.232,0,0,0-.232-.232Z" transform="translate(92.152 104.754)" fill="#008db6"/>
        <path id="path1713_-_Contorno" data-name="path1713 - Contorno" d="M-83.949-94.29H-90.14A2.264,2.264,0,0,1-92.4-96.552v-6.191A2.264,2.264,0,0,1-90.14-105h6.191a2.264,2.264,0,0,1,2.262,2.262v6.191A2.264,2.264,0,0,1-83.949-94.29ZM-90.14-104.5a1.764,1.764,0,0,0-1.762,1.762v6.191A1.764,1.764,0,0,0-90.14-94.79h6.191a1.764,1.764,0,0,0,1.762-1.762v-6.191a1.764,1.764,0,0,0-1.762-1.762Zm6.191,8.434H-90.14a.482.482,0,0,1-.482-.482v-6.191a.482.482,0,0,1,.482-.482h6.191a.482.482,0,0,1,.482.482v6.191A.482.482,0,0,1-83.949-96.07Zm-6.172-.5h6.154v-6.154h-6.154Z" transform="translate(92.152 104.754)" fill="#008db6"/>
      </g>
      <g id="g1715" transform="translate(-3159.372 -5190.24)">
        <path id="path1717" d="M-6.94-44.05a1.572,1.572,0,0,1-1.125-.469l-1.678-1.692a.89.89,0,0,1,.005-1.259.89.89,0,0,1,1.259.005l1.537,1.55,5.06-5.229a.89.89,0,0,1,1.259-.021A.89.89,0,0,1-.6-49.905l-5.2,5.373a1.572,1.572,0,0,1-1.129.483Z" transform="translate(10 51.415)" fill="#008db6"/>
        <path id="path1717_-_Contorno" data-name="path1717 - Contorno" d="M-6.94-43.8a1.821,1.821,0,0,1-1.3-.543L-9.92-46.035a1.133,1.133,0,0,1-.33-.808,1.133,1.133,0,0,1,.337-.8,1.133,1.133,0,0,1,.8-.33,1.132,1.132,0,0,1,.81.337l1.357,1.369,4.882-5.045a1.131,1.131,0,0,1,.819-.347,1.134,1.134,0,0,1,.793.321,1.133,1.133,0,0,1,.347.8,1.133,1.133,0,0,1-.321.812l-5.2,5.373a1.82,1.82,0,0,1-1.307.559Zm-2.17-3.678a.636.636,0,0,0-.451.186.641.641,0,0,0,0,.905l1.678,1.692a1.325,1.325,0,0,0,.947.395h.008a1.325,1.325,0,0,0,.951-.406l5.2-5.373a.636.636,0,0,0,.18-.456A.636.636,0,0,0-.8-50.984a.637.637,0,0,0-.445-.18.635.635,0,0,0-.46.195l-5.237,5.412-1.716-1.731A.636.636,0,0,0-9.11-47.478Z" transform="translate(10 51.415)" fill="#008db6"/>
      </g>
      <g id="g1719" transform="translate(-3148.18 -5187.521)">
        <path id="path1721" d="M-111.14-8.22h-9.969a.89.89,0,0,1-.89-.89.89.89,0,0,1,.89-.89h9.969a.89.89,0,0,1,.89.89A.89.89,0,0,1-111.14-8.22Z" transform="translate(122 10)" fill="#008db6"/>
        <path id="path1721_-_Contorno" data-name="path1721 - Contorno" d="M-111.14-7.97h-9.969a1.141,1.141,0,0,1-1.14-1.14,1.141,1.141,0,0,1,1.14-1.14h9.969A1.141,1.141,0,0,1-110-9.11,1.141,1.141,0,0,1-111.14-7.97Zm-9.969-1.78a.641.641,0,0,0-.64.64.641.641,0,0,0,.64.64h9.969a.641.641,0,0,0,.64-.64.641.641,0,0,0-.64-.64Z" transform="translate(122 10)" fill="#008db6"/>
      </g>
      <g id="g1723" transform="translate(-3148.18 -5183.892)">
        <path id="path1725" d="M-111.14-8.22h-9.969a.89.89,0,0,1-.89-.89.89.89,0,0,1,.89-.89h9.969a.89.89,0,0,1,.89.89A.89.89,0,0,1-111.14-8.22Z" transform="translate(122 10)" fill="#008db6"/>
        <path id="path1725_-_Contorno" data-name="path1725 - Contorno" d="M-111.14-7.97h-9.969a1.141,1.141,0,0,1-1.14-1.14,1.141,1.141,0,0,1,1.14-1.14h9.969A1.141,1.141,0,0,1-110-9.11,1.141,1.141,0,0,1-111.14-7.97Zm-9.969-1.78a.641.641,0,0,0-.64.64.641.641,0,0,0,.64.64h9.969a.641.641,0,0,0,.64-.64.641.641,0,0,0-.64-.64Z" transform="translate(122 10)" fill="#008db6"/>
      </g>
      <g id="g1727" transform="translate(-3162.606 -5176.278)">
        <path id="path1729" d="M-83.949-94.54H-90.14a2.014,2.014,0,0,1-2.012-2.012v-6.191a2.014,2.014,0,0,1,2.012-2.012h6.191a2.014,2.014,0,0,1,2.012,2.012v6.191A2.014,2.014,0,0,1-83.949-94.54Zm-6.191-8.434a.232.232,0,0,0-.232.232v6.191a.232.232,0,0,0,.232.232h6.191a.232.232,0,0,0,.232-.232v-6.191a.232.232,0,0,0-.232-.232Z" transform="translate(92.152 104.754)" fill="#008db6"/>
        <path id="path1729_-_Contorno" data-name="path1729 - Contorno" d="M-83.949-94.29H-90.14A2.264,2.264,0,0,1-92.4-96.552v-6.191A2.264,2.264,0,0,1-90.14-105h6.191a2.264,2.264,0,0,1,2.262,2.262v6.191A2.264,2.264,0,0,1-83.949-94.29ZM-90.14-104.5a1.764,1.764,0,0,0-1.762,1.762v6.191A1.764,1.764,0,0,0-90.14-94.79h6.191a1.764,1.764,0,0,0,1.762-1.762v-6.191a1.764,1.764,0,0,0-1.762-1.762Zm6.191,8.434H-90.14a.482.482,0,0,1-.482-.482v-6.191a.482.482,0,0,1,.482-.482h6.191a.482.482,0,0,1,.482.482v6.191A.482.482,0,0,1-83.949-96.07Zm-6.172-.5h6.154v-6.154h-6.154Z" transform="translate(92.152 104.754)" fill="#008db6"/>
      </g>
      <g id="g1731" transform="translate(-3159.372 -5176.594)">
        <path id="path1733" d="M-6.94-44.05a1.572,1.572,0,0,1-1.125-.469l-1.678-1.692a.89.89,0,0,1,.005-1.259.89.89,0,0,1,1.259.005l1.537,1.55,5.06-5.229a.89.89,0,0,1,1.259-.021A.89.89,0,0,1-.6-49.905l-5.2,5.373a1.572,1.572,0,0,1-1.129.483Z" transform="translate(10 51.415)" fill="#008db6"/>
        <path id="path1733_-_Contorno" data-name="path1733 - Contorno" d="M-6.94-43.8a1.821,1.821,0,0,1-1.3-.543L-9.92-46.035a1.133,1.133,0,0,1-.33-.808,1.133,1.133,0,0,1,.337-.8,1.133,1.133,0,0,1,.8-.33,1.132,1.132,0,0,1,.81.337l1.357,1.369,4.882-5.045a1.131,1.131,0,0,1,.819-.347,1.134,1.134,0,0,1,.793.321,1.133,1.133,0,0,1,.347.8,1.133,1.133,0,0,1-.321.812l-5.2,5.373a1.82,1.82,0,0,1-1.307.559Zm-2.17-3.678a.636.636,0,0,0-.451.186.641.641,0,0,0,0,.905l1.678,1.692a1.325,1.325,0,0,0,.947.395h.008a1.325,1.325,0,0,0,.951-.406l5.2-5.373a.636.636,0,0,0,.18-.456A.636.636,0,0,0-.8-50.984a.637.637,0,0,0-.445-.18.635.635,0,0,0-.46.195l-5.237,5.412-1.716-1.731A.636.636,0,0,0-9.11-47.478Z" transform="translate(10 51.415)" fill="#008db6"/>
      </g>
      <g id="g1735" transform="translate(-3148.18 -5173.875)">
        <path id="path1737" d="M-111.14-8.22h-9.969a.89.89,0,0,1-.89-.89.89.89,0,0,1,.89-.89h9.969a.89.89,0,0,1,.89.89A.89.89,0,0,1-111.14-8.22Z" transform="translate(122 10)" fill="#008db6"/>
        <path id="path1737_-_Contorno" data-name="path1737 - Contorno" d="M-111.14-7.97h-9.969a1.141,1.141,0,0,1-1.14-1.14,1.141,1.141,0,0,1,1.14-1.14h9.969A1.141,1.141,0,0,1-110-9.11,1.141,1.141,0,0,1-111.14-7.97Zm-9.969-1.78a.641.641,0,0,0-.64.64.641.641,0,0,0,.64.64h9.969a.641.641,0,0,0,.64-.64.641.641,0,0,0-.64-.64Z" transform="translate(122 10)" fill="#008db6"/>
      </g>
      <g id="g1739" transform="translate(-3148.18 -5170.246)">
        <path id="path1741" d="M-111.14-8.22h-9.969a.89.89,0,0,1-.89-.89.89.89,0,0,1,.89-.89h9.969a.89.89,0,0,1,.89.89A.89.89,0,0,1-111.14-8.22Z" transform="translate(122 10)" fill="#008db6"/>
        <path id="path1741_-_Contorno" data-name="path1741 - Contorno" d="M-111.14-7.97h-9.969a1.141,1.141,0,0,1-1.14-1.14,1.141,1.141,0,0,1,1.14-1.14h9.969A1.141,1.141,0,0,1-110-9.11,1.141,1.141,0,0,1-111.14-7.97Zm-9.969-1.78a.641.641,0,0,0-.64.64.641.641,0,0,0,.64.64h9.969a.641.641,0,0,0,.64-.64.641.641,0,0,0-.64-.64Z" transform="translate(122 10)" fill="#008db6"/>
      </g>
      <g id="g1743" transform="translate(-3162.606 -5162.632)">
        <path id="path1745" d="M-83.949-94.54H-90.14a2.014,2.014,0,0,1-2.012-2.012v-6.191a2.014,2.014,0,0,1,2.012-2.012h6.191a2.014,2.014,0,0,1,2.012,2.012v6.191A2.014,2.014,0,0,1-83.949-94.54Zm-6.191-8.434a.232.232,0,0,0-.232.232v6.191a.232.232,0,0,0,.232.232h6.191a.232.232,0,0,0,.232-.232v-6.191a.232.232,0,0,0-.232-.232Z" transform="translate(92.152 104.754)" fill="#008db6"/>
        <path id="path1745_-_Contorno" data-name="path1745 - Contorno" d="M-83.949-94.29H-90.14A2.264,2.264,0,0,1-92.4-96.552v-6.191A2.264,2.264,0,0,1-90.14-105h6.191a2.264,2.264,0,0,1,2.262,2.262v6.191A2.264,2.264,0,0,1-83.949-94.29ZM-90.14-104.5a1.764,1.764,0,0,0-1.762,1.762v6.191A1.764,1.764,0,0,0-90.14-94.79h6.191a1.764,1.764,0,0,0,1.762-1.762v-6.191a1.764,1.764,0,0,0-1.762-1.762Zm6.191,8.434H-90.14a.482.482,0,0,1-.482-.482v-6.191a.482.482,0,0,1,.482-.482h6.191a.482.482,0,0,1,.482.482v6.191A.482.482,0,0,1-83.949-96.07Zm-6.172-.5h6.154v-6.154h-6.154Z" transform="translate(92.152 104.754)" fill="#008db6"/>
      </g>
      <g id="g1747" transform="translate(-3159.372 -5162.949)">
        <path id="path1749" d="M-6.94-44.05a1.572,1.572,0,0,1-1.125-.469l-1.678-1.692a.89.89,0,0,1,.005-1.259.89.89,0,0,1,1.259.005l1.537,1.55,5.06-5.229a.89.89,0,0,1,1.259-.021A.89.89,0,0,1-.6-49.905l-5.2,5.373a1.572,1.572,0,0,1-1.129.483Z" transform="translate(10 51.415)" fill="#008db6"/>
        <path id="path1749_-_Contorno" data-name="path1749 - Contorno" d="M-6.94-43.8a1.821,1.821,0,0,1-1.3-.543L-9.92-46.035a1.133,1.133,0,0,1-.33-.808,1.133,1.133,0,0,1,.337-.8,1.133,1.133,0,0,1,.8-.33,1.132,1.132,0,0,1,.81.337l1.357,1.369,4.882-5.045a1.131,1.131,0,0,1,.819-.347,1.134,1.134,0,0,1,.793.321,1.133,1.133,0,0,1,.347.8,1.133,1.133,0,0,1-.321.812l-5.2,5.373a1.82,1.82,0,0,1-1.307.559Zm-2.17-3.678a.636.636,0,0,0-.451.186.641.641,0,0,0,0,.905l1.678,1.692a1.325,1.325,0,0,0,.947.395h.008a1.325,1.325,0,0,0,.951-.406l5.2-5.373a.636.636,0,0,0,.18-.456A.636.636,0,0,0-.8-50.984a.637.637,0,0,0-.445-.18.635.635,0,0,0-.46.195l-5.237,5.412-1.716-1.731A.636.636,0,0,0-9.11-47.478Z" transform="translate(10 51.415)" fill="#008db6"/>
      </g>
      <g id="g1751" transform="translate(-3148.18 -5160.229)">
        <path id="path1753" d="M-111.14-8.22h-9.969a.89.89,0,0,1-.89-.89.89.89,0,0,1,.89-.89h9.969a.89.89,0,0,1,.89.89A.89.89,0,0,1-111.14-8.22Z" transform="translate(122 10)" fill="#008db6"/>
        <path id="path1753_-_Contorno" data-name="path1753 - Contorno" d="M-111.14-7.97h-9.969a1.141,1.141,0,0,1-1.14-1.14,1.141,1.141,0,0,1,1.14-1.14h9.969A1.141,1.141,0,0,1-110-9.11,1.141,1.141,0,0,1-111.14-7.97Zm-9.969-1.78a.641.641,0,0,0-.64.64.641.641,0,0,0,.64.64h9.969a.641.641,0,0,0,.64-.64.641.641,0,0,0-.64-.64Z" transform="translate(122 10)" fill="#008db6"/>
      </g>
      <g id="g1755" transform="translate(-3148.18 -5156.6)">
        <path id="path1757" d="M-111.14-8.22h-9.969a.89.89,0,0,1-.89-.89.89.89,0,0,1,.89-.89h9.969a.89.89,0,0,1,.89.89A.89.89,0,0,1-111.14-8.22Z" transform="translate(122 10)" fill="#008db6"/>
        <path id="path1757_-_Contorno" data-name="path1757 - Contorno" d="M-111.14-7.97h-9.969a1.141,1.141,0,0,1-1.14-1.14,1.141,1.141,0,0,1,1.14-1.14h9.969A1.141,1.141,0,0,1-110-9.11,1.141,1.141,0,0,1-111.14-7.97Zm-9.969-1.78a.641.641,0,0,0-.64.64.641.641,0,0,0,.64.64h9.969a.641.641,0,0,0,.64-.64.641.641,0,0,0-.64-.64Z" transform="translate(122 10)" fill="#008db6"/>
      </g>
      <g id="g1767" transform="translate(-3184.38 -5181.523)">
        <path id="path1769" d="M-138.395,21.969a3.966,3.966,0,0,1-3.084-1.471,3.966,3.966,0,0,1-3.084,1.471A3.976,3.976,0,0,1-148.534,18V-10.881a.89.89,0,0,1,.89-.89.89.89,0,0,1,.89.89V18a2.194,2.194,0,0,0,2.192,2.192A2.194,2.194,0,0,0-142.371,18l0-16.714a.891.891,0,0,1,.89-.89.89.89,0,0,1,.89.89V18a2.194,2.194,0,0,0,2.192,2.192A2.194,2.194,0,0,0-136.2,18v-28.72a.89.89,0,0,1,.89-.89.89.89,0,0,1,.89.89V18A3.976,3.976,0,0,1-138.395,21.969Z" transform="translate(148.534 11.771)" fill="#008db6"/>
        <path id="path1769_-_Contorno" data-name="path1769 - Contorno" d="M-138.395,22.219a4.2,4.2,0,0,1-3.084-1.341,4.2,4.2,0,0,1-3.084,1.341A4.227,4.227,0,0,1-148.784,18V-10.881a1.141,1.141,0,0,1,1.14-1.14,1.141,1.141,0,0,1,1.14,1.14V18a1.944,1.944,0,0,0,1.942,1.942A1.944,1.944,0,0,0-142.621,18l0-16.714a1.145,1.145,0,0,1,1.139-1.14,1.142,1.142,0,0,1,1.141,1.14V18a1.944,1.944,0,0,0,1.942,1.942A1.944,1.944,0,0,0-136.453,18v-28.72a1.141,1.141,0,0,1,1.14-1.14,1.141,1.141,0,0,1,1.14,1.14V18A4.227,4.227,0,0,1-138.395,22.219Zm-3.084-2.118.194.239a3.71,3.71,0,0,0,2.89,1.379A3.726,3.726,0,0,0-134.673,18v-28.72a.641.641,0,0,0-.64-.64.641.641,0,0,0-.64.64V18a2.444,2.444,0,0,1-2.442,2.442A2.444,2.444,0,0,1-140.836,18V1.284a.641.641,0,0,0-.64-.64.644.644,0,0,0-.64.64l0,16.714a2.444,2.444,0,0,1-2.442,2.442A2.444,2.444,0,0,1-147,18V-10.881a.641.641,0,0,0-.64-.64.641.641,0,0,0-.64.64V18a3.726,3.726,0,0,0,3.722,3.722,3.71,3.71,0,0,0,2.89-1.379Z" transform="translate(148.534 11.771)" fill="#008db6"/>
      </g>
      <g id="g1771" transform="translate(-3189.431 -5173.463)">
        <path id="path1773" d="M-6.6-3.486a3.4,3.4,0,0,1-3.4-3.4V-9.11A.89.89,0,0,1-9.11-10a.89.89,0,0,1,.89.89v2.228A1.618,1.618,0,0,0-6.6-5.266,1.656,1.656,0,0,0-4.952-6.882v-1.4a.89.89,0,0,1,.89-.89.89.89,0,0,1,.89.89v1.4A3.418,3.418,0,0,1-6.6-3.486Z" transform="translate(10 10)" fill="#008db6"/>
        <path id="path1773_-_Contorno" data-name="path1773 - Contorno" d="M-6.6-3.236A3.65,3.65,0,0,1-10.25-6.882V-9.11a1.141,1.141,0,0,1,1.14-1.14A1.141,1.141,0,0,1-7.97-9.11v2.228A1.368,1.368,0,0,0-6.6-5.516,1.4,1.4,0,0,0-5.2-6.882v-1.4a1.141,1.141,0,0,1,1.14-1.14,1.141,1.141,0,0,1,1.14,1.14v1.4A3.668,3.668,0,0,1-6.6-3.236ZM-9.11-9.75a.641.641,0,0,0-.64.64v2.228A3.15,3.15,0,0,0-6.6-3.736,3.168,3.168,0,0,0-3.422-6.882v-1.4a.641.641,0,0,0-.64-.64.641.641,0,0,0-.64.64v1.4A1.909,1.909,0,0,1-6.6-5.016,1.868,1.868,0,0,1-8.47-6.882V-9.11A.641.641,0,0,0-9.11-9.75Z" transform="translate(10 10)" fill="#008db6"/>
      </g>
      <g id="g1775" transform="translate(-3189.431 -5192.995)">
        <path id="path1777" d="M-184.562-238.453a3.314,3.314,0,0,1-3.426-3.18v-1.276a.89.89,0,0,1,.89-.89.89.89,0,0,1,.89.89v1.276a1.559,1.559,0,0,0,1.646,1.4,1.521,1.521,0,0,0,1.616-1.4v-8.189a9.586,9.586,0,0,0-7.333-8.959,2.005,2.005,0,0,1-1.5-1.906v-2.031h-2.986v2.031a2.005,2.005,0,0,1-1.5,1.905,9.586,9.586,0,0,0-7.333,8.959v2.466a.89.89,0,0,1-.89.89.89.89,0,0,1-.89-.89v-2.466a11.367,11.367,0,0,1,8.643-10.676c.125-.034.191-.121.191-.189v-2.922a.89.89,0,0,1,.89-.89h4.766a.89.89,0,0,1,.89.89v2.922c0,.068.066.154.191.189a11.367,11.367,0,0,1,8.642,10.676v8.189A3.3,3.3,0,0,1-184.562-238.453Z" transform="translate(205.379 264.498)" fill="#008db6"/>
        <path id="path1777_-_Contorno" data-name="path1777 - Contorno" d="M-184.562-238.2a3.564,3.564,0,0,1-3.676-3.43v-1.276a1.141,1.141,0,0,1,1.14-1.14,1.141,1.141,0,0,1,1.14,1.14v1.276a1.309,1.309,0,0,0,1.4,1.15,1.273,1.273,0,0,0,1.366-1.15v-8.189a9.336,9.336,0,0,0-7.149-8.718,2.256,2.256,0,0,1-1.685-2.147v-1.781h-2.486v1.781a2.256,2.256,0,0,1-1.684,2.147,9.336,9.336,0,0,0-7.15,8.718v2.466a1.141,1.141,0,0,1-1.14,1.14,1.141,1.141,0,0,1-1.14-1.14v-2.466a11.617,11.617,0,0,1,8.827-10.917l.007,0v-2.867a1.141,1.141,0,0,1,1.14-1.14h4.766a1.141,1.141,0,0,1,1.14,1.14v2.867l.007,0a11.617,11.617,0,0,1,8.826,10.917v8.189A3.547,3.547,0,0,1-184.562-238.2Zm-2.536-5.346a.641.641,0,0,0-.64.64v1.276a3.064,3.064,0,0,0,3.176,2.93,3.047,3.047,0,0,0,3.146-2.93v-8.189a11.116,11.116,0,0,0-8.459-10.435.475.475,0,0,1-.375-.43v-2.922a.641.641,0,0,0-.64-.64h-4.766a.641.641,0,0,0-.64.64v2.922a.474.474,0,0,1-.375.43,11.117,11.117,0,0,0-8.459,10.435v2.466a.641.641,0,0,0,.64.64.641.641,0,0,0,.64-.64v-2.466a9.836,9.836,0,0,1,7.517-9.2,1.755,1.755,0,0,0,1.316-1.664v-2.281h3.486v2.281a1.755,1.755,0,0,0,1.317,1.664,9.836,9.836,0,0,1,7.517,9.2v8.189a1.77,1.77,0,0,1-1.866,1.65,1.81,1.81,0,0,1-1.9-1.65v-1.276A.641.641,0,0,0-187.1-243.549Z" transform="translate(205.379 264.498)" fill="#008db6"/>
      </g>
      <g id="g1787" transform="translate(-3186.154 -5208.52)">
        <path id="path1789" d="M-175.762-97.206a8.662,8.662,0,0,1,8.653,8.653,8.662,8.662,0,0,1-8.653,8.653,8.662,8.662,0,0,1-8.653-8.653A8.662,8.662,0,0,1-175.762-97.206Zm0,15.525a6.88,6.88,0,0,0,6.872-6.872,6.88,6.88,0,0,0-6.872-6.872,6.88,6.88,0,0,0-6.872,6.872A6.88,6.88,0,0,0-175.762-81.682Z" transform="translate(184.414 97.206)" fill="#008db6"/>
        <path id="path1789_-_Contorno" data-name="path1789 - Contorno" d="M-175.762-97.456a8.913,8.913,0,0,1,8.9,8.9,8.913,8.913,0,0,1-8.9,8.9,8.913,8.913,0,0,1-8.9-8.9A8.913,8.913,0,0,1-175.762-97.456Zm0,17.305a8.412,8.412,0,0,0,8.4-8.4,8.412,8.412,0,0,0-8.4-8.4,8.412,8.412,0,0,0-8.4,8.4A8.412,8.412,0,0,0-175.762-80.151Zm0-15.525a7.13,7.13,0,0,1,7.122,7.122,7.13,7.13,0,0,1-7.122,7.122,7.13,7.13,0,0,1-7.122-7.122A7.13,7.13,0,0,1-175.762-95.676Zm0,13.745a6.63,6.63,0,0,0,6.622-6.622,6.63,6.63,0,0,0-6.622-6.622,6.63,6.63,0,0,0-6.622,6.622A6.63,6.63,0,0,0-175.762-81.932Z" transform="translate(184.414 97.206)" fill="#008db6"/>
      </g>
      <g id="g1791" transform="translate(-3179.849 -5197.907)">
        <path id="path1793" d="M-43.531-7.489a2.879,2.879,0,0,1-2.316-1.154.89.89,0,0,1,.174-1.247.89.89,0,0,1,1.247.174,1.113,1.113,0,0,0,.9.447,1.113,1.113,0,0,0,.893-.443.89.89,0,0,1,1.247-.169.89.89,0,0,1,.169,1.247A2.88,2.88,0,0,1-43.531-7.489Z" transform="translate(46.027 10.07)" fill="#008db6"/>
        <path id="path1793_-_Contorno" data-name="path1793 - Contorno" d="M-43.531-7.239a3.127,3.127,0,0,1-2.516-1.254,1.133,1.133,0,0,1-.219-.845,1.133,1.133,0,0,1,.442-.752,1.13,1.13,0,0,1,.686-.23,1.132,1.132,0,0,1,.911.453.865.865,0,0,0,.7.347.865.865,0,0,0,.694-.345,1.132,1.132,0,0,1,.908-.45,1.13,1.13,0,0,1,.69.233,1.133,1.133,0,0,1,.439.754,1.133,1.133,0,0,1-.222.844A3.128,3.128,0,0,1-43.531-7.239ZM-45.138-9.82a.634.634,0,0,0-.385.129.636.636,0,0,0-.248.422.636.636,0,0,0,.123.474,2.631,2.631,0,0,0,2.117,1.055,2.632,2.632,0,0,0,2.11-1.047A.636.636,0,0,0-41.3-9.26a.636.636,0,0,0-.247-.423.634.634,0,0,0-.387-.131.636.636,0,0,0-.51.253,1.361,1.361,0,0,1-1.092.542,1.361,1.361,0,0,1-1.095-.546A.636.636,0,0,0-45.138-9.82Z" transform="translate(46.027 10.07)" fill="#008db6"/>
      </g>
    </g>
  </g>
</svg>
