<svg xmlns="http://www.w3.org/2000/svg" xmlns:xlink="http://www.w3.org/1999/xlink" width="103" height="103" viewBox="0 0 103 103">
  <defs>
    <filter id="Trazado_896985" x="0" y="0" width="103" height="103" filterUnits="userSpaceOnUse">
      <feOffset dy="3" input="SourceAlpha"/>
      <feGaussianBlur stdDeviation="3" result="blur"/>
      <feFlood flood-opacity="0.161"/>
      <feComposite operator="in" in2="blur"/>
      <feComposite in="SourceGraphic"/>
    </filter>
  </defs>
  <g id="Grupo_1112874" data-name="Grupo 1112874" transform="translate(-191.051 -9035)">
    <g id="Grupo_1107785" data-name="Grupo 1107785" transform="translate(200.051 9041)">
      <g id="Grupo_1098742" data-name="Grupo 1098742">
        <g transform="matrix(1, 0, 0, 1, -9, -6)" filter="url(#Trazado_896985)">
          <g id="Trazado_896985-2" data-name="Trazado 896985" transform="translate(9 6)" fill="#f8a230" opacity="0.859">
            <path d="M 42.49993896484375 83.5 C 36.96431732177734 83.5 31.59507942199707 82.41617584228516 26.54137420654297 80.27863311767578 C 21.65930366516113 78.21369171142578 17.27444458007812 75.25724792480469 13.5085973739624 71.49140167236328 C 9.742751121520996 67.72555541992188 6.786303520202637 63.34069442749023 4.721362590789795 58.45862197875977 C 2.583821296691895 53.4049186706543 1.499997735023499 48.03568267822266 1.499997735023499 42.50005722045898 C 1.499997735023499 36.96431732177734 2.583821296691895 31.59508323669434 4.721362590789795 26.5413761138916 C 6.786303520202637 21.65930557250977 9.742751121520996 17.27444648742676 13.5085973739624 13.50860023498535 C 17.27444458007812 9.742753028869629 21.65930366516113 6.786305904388428 26.54137420654297 4.721364498138428 C 31.59507942199707 2.583823442459106 36.96431732177734 1.5 42.49993896484375 1.5 C 48.03556060791016 1.5 53.4047966003418 2.583823442459106 58.45851516723633 4.721364498138428 C 63.34057235717773 6.786305904388428 67.72543334960938 9.742753028869629 71.49127960205078 13.50860023498535 C 75.25712585449219 17.27444648742676 78.21358489990234 21.65930557250977 80.27851867675781 26.5413761138916 C 82.41605377197266 31.59508323669434 83.4998779296875 36.96431732177734 83.4998779296875 42.49994277954102 C 83.4998779296875 48.03568267822266 82.41605377197266 53.4049186706543 80.27851867675781 58.45862197875977 C 78.21358489990234 63.34069442749023 75.25712585449219 67.72555541992188 71.49127960205078 71.49140167236328 C 67.72543334960938 75.25724792480469 63.34057235717773 78.21369171142578 58.45851516723633 80.27863311767578 C 53.4047966003418 82.41617584228516 48.03556060791016 83.5 42.49993896484375 83.5 Z" stroke="none"/>
            <path d="M 42.49993896484375 3 C 37.16616439819336 3 31.99351119995117 4.043960571289062 27.12569808959961 6.102867126464844 C 22.42243194580078 8.092185974121094 18.19783020019531 10.94069671630859 14.56925964355469 14.56926727294922 C 10.94068908691406 18.19783782958984 8.092178344726562 22.42242813110352 6.102859497070312 27.12569427490234 C 4.043952941894531 31.9935188293457 2.999992370605469 37.16616058349609 2.999992370605469 42.50005340576172 C 2.999992370605469 47.83383941650391 4.043952941894531 53.00647735595703 6.102859497070312 57.87429428100586 C 8.092178344726562 62.57756042480469 10.94068908691406 66.80216217041016 14.56925964355469 70.43073272705078 C 18.19783020019531 74.05931091308594 22.42243194580078 76.90781402587891 27.12569808959961 78.89713287353516 C 31.99351119995117 80.95603942871094 37.16616439819336 82 42.49993896484375 82 C 47.83372497558594 82 53.00636291503906 80.95603942871094 57.87417984008789 78.89713287353516 C 62.57744598388672 76.90781402587891 66.80204772949219 74.05931091308594 70.43061828613281 70.43073272705078 C 74.05918884277344 66.80216217041016 76.90769958496094 62.57757568359375 78.89700317382812 57.87429428100586 C 80.95590972900391 53.00647735595703 81.99987030029297 47.83383941650391 81.99987030029297 42.49993515014648 C 81.99987030029297 37.16616058349609 80.95590972900391 31.99350738525391 78.89700317382812 27.12569427490234 C 76.90769958496094 22.42242813110352 74.05918884277344 18.19783782958984 70.43061828613281 14.56926727294922 C 66.80204772949219 10.94069671630859 62.57744598388672 8.092185974121094 57.87417984008789 6.102867126464844 C 53.00636291503906 4.043960571289062 47.83372497558594 3 42.49993896484375 3 M 42.49993896484375 0 C 65.97201538085938 0 84.99987030029297 19.02787017822266 84.99987030029297 42.49993515014648 L 84.99987030029297 42.50005340576172 C 84.99987030029297 65.97213745117188 65.97201538085938 85 42.49993896484375 85 C 19.02787017822266 85 -7.62939453125e-06 65.97213745117188 -7.62939453125e-06 42.50005340576172 L -7.62939453125e-06 42.49993515014648 C -7.62939453125e-06 19.02787017822266 19.02787017822266 0 42.49993896484375 0 Z" stroke="none" fill="#fff"/>
          </g>
        </g>
        <g id="Rectángulo_400907" data-name="Rectángulo 400907" transform="translate(0)" fill="none" stroke="#fff" stroke-width="3">
          <rect width="85" height="85" rx="42.5" stroke="none"/>
          <rect x="1.5" y="1.5" width="82" height="82" rx="41" fill="none"/>
        </g>
      </g>
    </g>
    <g id="formulario-de-consentimiento-del-donante" transform="translate(219.051 9057)">
      <g id="Grupo_1112873" data-name="Grupo 1112873" transform="translate(1 1)">
        <path id="Trazado_979968" data-name="Trazado 979968" d="M43.729,22.759l-2.268-.648L45,18.569a4.4,4.4,0,0,0-6.219-6.217l-.881.881V6.871A4.2,4.2,0,0,0,33.71,2.677H27.839A1.679,1.679,0,0,0,26.161,1H12.742a1.679,1.679,0,0,0-1.677,1.677H5.194A4.2,4.2,0,0,0,1,6.871V48.806A4.2,4.2,0,0,0,5.194,53H33.71A4.2,4.2,0,0,0,37.9,48.806V34.468a8.471,8.471,0,0,0,5.728-1.332l.358-.239,9.01.9V19.052Zm-3.757-9.222a2.72,2.72,0,0,1,3.845,3.847l-.043.042-3.845-3.846Zm-1.23,1.229,3.846,3.846-1.33,1.33L37.412,16.1Zm1.33,6.362-3.065,3.065a6.764,6.764,0,0,1-4.619,1.959L38.742,19.8Zm-2.516-2.516-7.549,7.549-2.663,0,8.882-8.882ZM20.29,35.879l-1.33-1.33L24.5,29.012a4.153,4.153,0,0,0,.687,1.973Zm6.079-3.707a4.145,4.145,0,0,0,1.973.688l-5.536,5.535-1.33-1.33Zm-8.684,5.3.455-1.366,3.113,3.113-1.366.455Zm.424,2.8-1.525.508.508-1.525Zm3.02-22.488A5.032,5.032,0,1,0,13,21.73a8.419,8.419,0,0,0-3.61,2.775V11.065H22.806V22.133a5.894,5.894,0,0,0-1.177,1.089,8.384,8.384,0,0,0-2.438-1.488,5.021,5.021,0,0,0,1.937-3.96ZM16.1,21.129a3.355,3.355,0,1,1,3.355-3.355A3.358,3.358,0,0,1,16.1,21.129Zm0,1.677a6.716,6.716,0,0,1,4.585,1.817L18.2,28.6a2.786,2.786,0,0,0-.361.92H9.387a6.718,6.718,0,0,1,6.71-6.71Zm3.97,8.263a1.112,1.112,0,0,1-.446-1.585L22.614,24.7a4.208,4.208,0,0,1,2.083-1.7l3.784-1.419a6.914,6.914,0,0,1,1.442-.361ZM27.839,4.355H33.71a2.519,2.519,0,0,1,2.516,2.516v8.04l-1.677,1.677V6.032h-6.71Zm-15.1-1.677H26.161V6.032H12.742ZM32.871,7.71V18.266l-1.23,1.23A8.69,8.69,0,0,0,27.892,20l-3.408,1.279V9.387H7.71V31.194H18.018a2.818,2.818,0,0,0,.839,1.086L17.041,34.1l-2.752,8.255a2,2,0,0,0-.931,1.115l-.268.807a.518.518,0,0,1-.886.119l-.957-1.434a1.931,1.931,0,0,0-3.539,1.07V46.29H9.387V44.028a.263.263,0,0,1,.465-.141l.957,1.434a2.174,2.174,0,0,0,3.872-.518L14.949,44a.339.339,0,0,1,.617,0l.382,1.147A1.676,1.676,0,0,0,17.54,46.29h4.428V44.613H17.54l-.382-1.148a2,2,0,0,0-.63-.907l6.731-2.244,7.435-7.435a11.7,11.7,0,0,1,2.176.305V47.968H6.032V7.71Zm3.355,41.1a2.519,2.519,0,0,1-2.516,2.516H5.194a2.519,2.519,0,0,1-2.516-2.516V6.871A2.519,2.519,0,0,1,5.194,4.355h5.871V6.032H4.355V49.645H34.548V33.623l1.677.479Zm6.71-17.223-.234.157a6.789,6.789,0,0,1-5.587.872l-3.159-.9a13.387,13.387,0,0,0-3.684-.517h-1.6a2.51,2.51,0,0,1-2.506-2.507.848.848,0,0,1,.848-.845l5.249-.005a8.449,8.449,0,0,0,5.934-2.457L40.1,23.469l2.831.809Zm8.387.361-6.71-.671v-7.06l6.71-2.684Z" transform="translate(-1 -1)" fill="#00455a"/>
        <path id="Trazado_979969" data-name="Trazado 979969" d="M31,11h5.032v1.677H31Z" transform="translate(-5.839 -2.613)" fill="#00455a"/>
        <path id="Trazado_979970" data-name="Trazado 979970" d="M31,15h5.032v1.677H31Z" transform="translate(-5.839 -3.258)" fill="#00455a"/>
        <path id="Trazado_979971" data-name="Trazado 979971" d="M31,19h5.032v1.677H31Z" transform="translate(-5.839 -3.903)" fill="#00455a"/>
        <path id="Trazado_979972" data-name="Trazado 979972" d="M9,39h3.355v1.677H9Z" transform="translate(-2.29 -7.129)" fill="#00455a"/>
        <path id="Trazado_979973" data-name="Trazado 979973" d="M9,43h5.032v1.677H9Z" transform="translate(-2.29 -7.774)" fill="#00455a"/>
      </g>
    </g>
  </g>
</svg>
