<svg xmlns="http://www.w3.org/2000/svg" xmlns:xlink="http://www.w3.org/1999/xlink" width="85.538" height="85.538" viewBox="0 0 85.538 85.538">
  <defs>
    <filter id="Trazado_874925" x="0" y="0" width="85.538" height="85.538" filterUnits="userSpaceOnUse">
      <feOffset dy="3" input="SourceAlpha"/>
      <feGaussianBlur stdDeviation="3" result="blur"/>
      <feFlood flood-opacity="0.161"/>
      <feComposite operator="in" in2="blur"/>
      <feComposite in="SourceGraphic"/>
    </filter>
  </defs>
  <g id="Grupo_1112805" data-name="Grupo 1112805" transform="translate(-284.051 -2234)">
    <g transform="matrix(1, 0, 0, 1, 284.05, 2234)" filter="url(#Trazado_874925)">
      <g id="Trazado_874925-2" data-name="Trazado 874925" transform="translate(9 6)" fill="#f0e077">
        <path d="M 33.76883697509766 66.0380859375 C 29.41190719604492 66.0380859375 25.18610763549805 65.18511199951172 21.20880699157715 63.50285339355469 C 17.3664379119873 61.87766265869141 13.91531658172607 59.55075454711914 10.95131683349609 56.58676147460938 C 7.987317085266113 53.62276458740234 5.660407066345215 50.1716423034668 4.035226821899414 46.32927322387695 C 2.352967023849487 42.35197448730469 1.499997019767761 38.12616348266602 1.499997019767761 33.76923370361328 C 1.499997019767761 29.41192245483398 2.352967023849487 25.18612289428711 4.035226821899414 21.20882225036621 C 5.660407066345215 17.3664436340332 7.987327098846436 13.91533279418945 10.95131683349609 10.95133304595947 C 13.91531658172607 7.987332820892334 17.3664379119873 5.660422801971436 21.20880699157715 4.035233020782471 C 25.18610763549805 2.352972984313965 29.41190719604492 1.500002980232239 33.76883697509766 1.500002980232239 C 38.12576675415039 1.500002980232239 42.35156631469727 2.352972984313965 46.3288688659668 4.035233020782471 C 50.17123794555664 5.660422801971436 53.62235641479492 7.987332820892334 56.58635711669922 10.95133304595947 C 59.55034637451172 13.91533279418945 61.87726593017578 17.3664436340332 63.50244522094727 21.20882225036621 C 65.18470764160156 25.18612289428711 66.03767395019531 29.41192245483398 66.03767395019531 33.76885223388672 C 66.03767395019531 38.12616348266602 65.18470764160156 42.35197448730469 63.50244522094727 46.32927322387695 C 61.87726593017578 50.1716423034668 59.55035781860352 53.62276458740234 56.58635711669922 56.58676147460938 C 53.62235641479492 59.55075454711914 50.17123794555664 61.87766265869141 46.3288688659668 63.50285339355469 C 42.35156631469727 65.18511199951172 38.12576675415039 66.0380859375 33.76883697509766 66.0380859375 Z" stroke="none"/>
        <path d="M 33.76883697509766 3 C 29.61374664306641 3 25.58453750610352 3.8131103515625 21.79313659667969 5.416732788085938 C 18.12955856323242 6.966297149658203 14.83870315551758 9.185264587402344 12.01198196411133 12.01198577880859 C 9.185260772705078 14.83871078491211 6.966304779052734 18.12956619262695 5.416736602783203 21.79314422607422 C 3.813114166259766 25.58454132080078 3 29.61375427246094 3 33.76924133300781 C 3 37.92433166503906 3.813114166259766 41.95354461669922 5.416736602783203 45.74494171142578 C 6.966304779052734 49.40852355957031 9.185260772705078 52.69937515258789 12.01198196411133 55.52610015869141 C 14.83870315551758 58.35282135009766 18.12955856323242 60.5717887878418 21.79313659667969 62.12135314941406 C 25.58453750610352 63.7249755859375 29.61374664306641 64.5380859375 33.76883697509766 64.5380859375 C 37.92392730712891 64.5380859375 41.953125 63.7249755859375 45.74453735351562 62.12135314941406 C 49.40810394287109 60.5717887878418 52.69895935058594 58.35282135009766 55.52569198608398 55.52610015869141 C 58.3524169921875 52.69937515258789 60.57136917114258 49.40852355957031 62.12093734741211 45.74494171142578 C 63.72455978393555 41.95354461669922 64.53767395019531 37.92433166503906 64.53767395019531 33.76884460449219 C 64.53767395019531 29.61375427246094 63.72455978393555 25.58454132080078 62.12093734741211 21.79314422607422 C 60.57136917114258 18.12956619262695 58.3524169921875 14.83871078491211 55.52569198608398 12.01198577880859 C 52.69895935058594 9.185264587402344 49.40810394287109 6.966297149658203 45.74453735351562 5.416732788085938 C 41.953125 3.8131103515625 37.92392730712891 3 33.76883697509766 3 M 33.76883697509766 0 C 52.41884613037109 0 67.53767395019531 15.11883163452148 67.53767395019531 33.76884460449219 L 67.53767395019531 33.76924133300781 C 67.53767395019531 52.41925430297852 52.41884613037109 67.5380859375 33.76883697509766 67.5380859375 C 15.11881637573242 67.5380859375 0 52.41925430297852 0 33.76924133300781 L 0 33.76884460449219 C 0 15.11883163452148 15.11881637573242 0 33.76883697509766 0 Z" stroke="none" fill="#fff"/>
      </g>
    </g>
    <g id="tanque_1_" data-name="tanque (1)" transform="translate(305.051 2253)">
      <g id="Grupo_1112804" data-name="Grupo 1112804" transform="translate(1 0)">
        <path id="Trazado_979923" data-name="Trazado 979923" d="M30.941,15.586H12.895a1.231,1.231,0,0,1-.645-.183L1.586,8.841a1.23,1.23,0,0,1,0-2.1L12.25.183A1.231,1.231,0,0,1,12.895,0H30.941a1.231,1.231,0,0,1,.645.183L42.25,6.745a1.23,1.23,0,0,1,0,2.1L31.586,15.4A1.231,1.231,0,0,1,30.941,15.586Zm-17.7-2.461h17.35l8.665-5.332L30.593,2.461H13.243L4.578,7.793Z" transform="translate(-1 0)" fill="#008db6"/>
        <path id="Trazado_979924" data-name="Trazado 979924" d="M30.941,95.586H12.895a1.231,1.231,0,0,1-.645-.183L1.586,88.841a1.23,1.23,0,0,1,0-2.1L12.25,80.183A1.231,1.231,0,0,1,12.895,80H30.941a1.231,1.231,0,0,1,.645.183L42.25,86.745a1.23,1.23,0,0,1,0,2.1L31.586,95.4A1.231,1.231,0,0,1,30.941,95.586Zm-17.7-2.461h17.35l8.665-5.332-8.665-5.332H13.243L4.578,87.793Z" transform="translate(-1 -73.438)" fill="#008db6"/>
        <path id="Trazado_979925" data-name="Trazado 979925" d="M30.941,115.438H12.895a1.231,1.231,0,0,1-.645-.183L1.586,108.692A1.23,1.23,0,0,1,1,107.645V81.23a1.23,1.23,0,1,1,2.461,0v25.726l9.782,6.02h17.35l9.782-6.02V81.23a1.23,1.23,0,0,1,2.461,0v26.414a1.23,1.23,0,0,1-.586,1.048l-10.664,6.563A1.231,1.231,0,0,1,30.941,115.438Z" transform="translate(-1 -73.438)" fill="#008db6"/>
        <path id="Línea_568" data-name="Línea 568" d="M-13.77,13.875A1.23,1.23,0,0,1-15,12.645V-13.77A1.23,1.23,0,0,1-13.77-15a1.23,1.23,0,0,1,1.23,1.23V12.645A1.23,1.23,0,0,1-13.77,13.875Z" transform="translate(43.711 28.125)" fill="#008db6"/>
        <path id="Línea_569" data-name="Línea 569" d="M-13.77,13.875A1.23,1.23,0,0,1-15,12.645V-13.77A1.23,1.23,0,0,1-13.77-15a1.23,1.23,0,0,1,1.23,1.23V12.645A1.23,1.23,0,0,1-13.77,13.875Z" transform="translate(25.664 28.125)" fill="#008db6"/>
        <path id="Línea_570" data-name="Línea 570" d="M-13.77-5.977A1.23,1.23,0,0,1-15-7.207V-13.77A1.23,1.23,0,0,1-13.77-15a1.23,1.23,0,0,1,1.23,1.23v6.563A1.23,1.23,0,0,1-13.77-5.977Z" transform="translate(43.711 15)" fill="#008db6"/>
        <path id="Línea_571" data-name="Línea 571" d="M-13.77-5.977A1.23,1.23,0,0,1-15-7.207V-13.77A1.23,1.23,0,0,1-13.77-15a1.23,1.23,0,0,1,1.23,1.23v6.563A1.23,1.23,0,0,1-13.77-5.977Z" transform="translate(25.664 15)" fill="#008db6"/>
      </g>
      <path id="Línea_572" data-name="Línea 572" d="M-11.309-12.539H-13.77A1.23,1.23,0,0,1-15-13.77,1.23,1.23,0,0,1-13.77-15h2.461a1.23,1.23,0,0,1,1.23,1.23A1.23,1.23,0,0,1-11.309-12.539Z" transform="translate(31.586 40.594)" fill="#008db6"/>
      <path id="Línea_573" data-name="Línea 573" d="M-11.309-12.539H-13.77A1.23,1.23,0,0,1-15-13.77,1.23,1.23,0,0,1-13.77-15h2.461a1.23,1.23,0,0,1,1.23,1.23A1.23,1.23,0,0,1-11.309-12.539Z" transform="translate(37.328 44.695)" fill="#008db6"/>
      <path id="Línea_574" data-name="Línea 574" d="M-9.668-12.539h-4.1A1.23,1.23,0,0,1-15-13.77,1.23,1.23,0,0,1-13.77-15h4.1a1.23,1.23,0,0,1,1.23,1.23A1.23,1.23,0,0,1-9.668-12.539Z" transform="translate(44.711 38.953)" fill="#008db6"/>
      <path id="Línea_575" data-name="Línea 575" d="M-9.668-12.539h-4.1A1.23,1.23,0,0,1-15-13.77,1.23,1.23,0,0,1-13.77-15h4.1a1.23,1.23,0,0,1,1.23,1.23A1.23,1.23,0,0,1-9.668-12.539Z" transform="translate(51.273 43.875)" fill="#008db6"/>
      <path id="Línea_576" data-name="Línea 576" d="M-9.668-12.539h-4.1A1.23,1.23,0,0,1-15-13.77,1.23,1.23,0,0,1-13.77-15h4.1a1.23,1.23,0,0,1,1.23,1.23A1.23,1.23,0,0,1-9.668-12.539Z" transform="translate(22.563 38.953)" fill="#008db6"/>
      <path id="Línea_577" data-name="Línea 577" d="M-9.668-12.539h-4.1A1.23,1.23,0,0,1-15-13.77,1.23,1.23,0,0,1-13.77-15h4.1a1.23,1.23,0,0,1,1.23,1.23A1.23,1.23,0,0,1-9.668-12.539Z" transform="translate(16 43.875)" fill="#008db6"/>
      <path id="Línea_578" data-name="Línea 578" d="M-11.309-12.539H-13.77A1.23,1.23,0,0,1-15-13.77,1.23,1.23,0,0,1-13.77-15h2.461a1.23,1.23,0,0,1,1.23,1.23A1.23,1.23,0,0,1-11.309-12.539Z" transform="translate(31.586 48.797)" fill="#008db6"/>
    </g>
  </g>
</svg>
