<svg xmlns="http://www.w3.org/2000/svg" xmlns:xlink="http://www.w3.org/1999/xlink" width="103" height="103" viewBox="0 0 103 103">
  <defs>
    <filter id="Trazado_896985" x="0" y="0" width="103" height="103" filterUnits="userSpaceOnUse">
      <feOffset dy="3" input="SourceAlpha"/>
      <feGaussianBlur stdDeviation="3" result="blur"/>
      <feFlood flood-opacity="0.161"/>
      <feComposite operator="in" in2="blur"/>
      <feComposite in="SourceGraphic"/>
    </filter>
  </defs>
  <g id="Grupo_1112879" data-name="Grupo 1112879" transform="translate(-821.051 -8777)">
    <g id="Grupo_1107785" data-name="Grupo 1107785" transform="translate(830.051 8783)">
      <g id="Grupo_1098742" data-name="Grupo 1098742">
        <g transform="matrix(1, 0, 0, 1, -9, -6)" filter="url(#Trazado_896985)">
          <g id="Trazado_896985-2" data-name="Trazado 896985" transform="translate(9 6)" fill="#f8a230" opacity="0.859">
            <path d="M 42.49993896484375 83.5 C 36.96431732177734 83.5 31.59507942199707 82.41617584228516 26.54137420654297 80.27863311767578 C 21.65930366516113 78.21369171142578 17.27444458007812 75.25724792480469 13.5085973739624 71.49140167236328 C 9.742751121520996 67.72555541992188 6.786303520202637 63.34069442749023 4.721362590789795 58.45862197875977 C 2.583821296691895 53.4049186706543 1.499997735023499 48.03568267822266 1.499997735023499 42.50005722045898 C 1.499997735023499 36.96431732177734 2.583821296691895 31.59508323669434 4.721362590789795 26.5413761138916 C 6.786303520202637 21.65930557250977 9.742751121520996 17.27444648742676 13.5085973739624 13.50860023498535 C 17.27444458007812 9.742753028869629 21.65930366516113 6.786305904388428 26.54137420654297 4.721364498138428 C 31.59507942199707 2.583823442459106 36.96431732177734 1.5 42.49993896484375 1.5 C 48.03556060791016 1.5 53.4047966003418 2.583823442459106 58.45851516723633 4.721364498138428 C 63.34057235717773 6.786305904388428 67.72543334960938 9.742753028869629 71.49127960205078 13.50860023498535 C 75.25712585449219 17.27444648742676 78.21358489990234 21.65930557250977 80.27851867675781 26.5413761138916 C 82.41605377197266 31.59508323669434 83.4998779296875 36.96431732177734 83.4998779296875 42.49994277954102 C 83.4998779296875 48.03568267822266 82.41605377197266 53.4049186706543 80.27851867675781 58.45862197875977 C 78.21358489990234 63.34069442749023 75.25712585449219 67.72555541992188 71.49127960205078 71.49140167236328 C 67.72543334960938 75.25724792480469 63.34057235717773 78.21369171142578 58.45851516723633 80.27863311767578 C 53.4047966003418 82.41617584228516 48.03556060791016 83.5 42.49993896484375 83.5 Z" stroke="none"/>
            <path d="M 42.49993896484375 3 C 37.16616439819336 3 31.99351119995117 4.043960571289062 27.12569808959961 6.102867126464844 C 22.42243194580078 8.092185974121094 18.19783020019531 10.94069671630859 14.56925964355469 14.56926727294922 C 10.94068908691406 18.19783782958984 8.092178344726562 22.42242813110352 6.102859497070312 27.12569427490234 C 4.043952941894531 31.9935188293457 2.999992370605469 37.16616058349609 2.999992370605469 42.50005340576172 C 2.999992370605469 47.83383941650391 4.043952941894531 53.00647735595703 6.102859497070312 57.87429428100586 C 8.092178344726562 62.57756042480469 10.94068908691406 66.80216217041016 14.56925964355469 70.43073272705078 C 18.19783020019531 74.05931091308594 22.42243194580078 76.90781402587891 27.12569808959961 78.89713287353516 C 31.99351119995117 80.95603942871094 37.16616439819336 82 42.49993896484375 82 C 47.83372497558594 82 53.00636291503906 80.95603942871094 57.87417984008789 78.89713287353516 C 62.57744598388672 76.90781402587891 66.80204772949219 74.05931091308594 70.43061828613281 70.43073272705078 C 74.05918884277344 66.80216217041016 76.90769958496094 62.57757568359375 78.89700317382812 57.87429428100586 C 80.95590972900391 53.00647735595703 81.99987030029297 47.83383941650391 81.99987030029297 42.49993515014648 C 81.99987030029297 37.16616058349609 80.95590972900391 31.99350738525391 78.89700317382812 27.12569427490234 C 76.90769958496094 22.42242813110352 74.05918884277344 18.19783782958984 70.43061828613281 14.56926727294922 C 66.80204772949219 10.94069671630859 62.57744598388672 8.092185974121094 57.87417984008789 6.102867126464844 C 53.00636291503906 4.043960571289062 47.83372497558594 3 42.49993896484375 3 M 42.49993896484375 0 C 65.97201538085938 0 84.99987030029297 19.02787017822266 84.99987030029297 42.49993515014648 L 84.99987030029297 42.50005340576172 C 84.99987030029297 65.97213745117188 65.97201538085938 85 42.49993896484375 85 C 19.02787017822266 85 -7.62939453125e-06 65.97213745117188 -7.62939453125e-06 42.50005340576172 L -7.62939453125e-06 42.49993515014648 C -7.62939453125e-06 19.02787017822266 19.02787017822266 0 42.49993896484375 0 Z" stroke="none" fill="#fff"/>
          </g>
        </g>
        <g id="Rectángulo_400907" data-name="Rectángulo 400907" transform="translate(0)" fill="none" stroke="#fff" stroke-width="3">
          <rect width="85" height="85" rx="42.5" stroke="none"/>
          <rect x="1.5" y="1.5" width="82" height="82" rx="41" fill="none"/>
        </g>
      </g>
    </g>
    <g id="kit-de-primeros-auxilios" transform="translate(843.042 8796)">
      <path id="Trazado_980008" data-name="Trazado 980008" d="M126.609,114.144h-6.476a.856.856,0,0,0-.856.856v4.192h-4.193a.856.856,0,0,0-.856.856v6.476a.856.856,0,0,0,.856.856h4.193v4.192a.856.856,0,0,0,.856.856h6.476a.856.856,0,0,0,.856-.856v-4.192h4.193a.856.856,0,0,0,.856-.856v-6.476a.856.856,0,0,0-.856-.856h-4.193V115A.856.856,0,0,0,126.609,114.144Zm4.193,6.761v4.763h-4.193a.856.856,0,0,0-.856.856v4.192h-4.763v-4.192a.856.856,0,0,0-.856-.856H115.94v-4.763h4.193a.856.856,0,0,0,.856-.856v-4.192h4.763v4.192a.856.856,0,0,0,.856.856Z" transform="translate(-101.179 -101.113)" fill="#00455a"/>
      <path id="Trazado_980009" data-name="Trazado 980009" d="M57.818,42.33l-5.093-5.092a2.3,2.3,0,0,0-2.21-.544V31a3.321,3.321,0,0,0-1.148-2.513L46.659,26.14a1.792,1.792,0,0,1-.62-1.356v-.033h.7a.856.856,0,0,0,.856-.856V21.012a1.923,1.923,0,0,0-1.921-1.921h-1.3V10.363a5.3,5.3,0,0,0-5.3-5.3H30.731A4.835,4.835,0,0,0,25.978,0H18.406a4.839,4.839,0,0,0-4.753,5.066H5.305a5.3,5.3,0,0,0-5.3,5.3v2.881a.857.857,0,0,0,1.712,0V10.363A3.588,3.588,0,0,1,5.305,6.779H39.078a3.588,3.588,0,0,1,3.584,3.584v8.729H39.608a1.923,1.923,0,0,0-1.921,1.921v2.883a.856.856,0,0,0,.856.856h.7v.033a1.792,1.792,0,0,1-.62,1.356l-2.708,2.344A3.321,3.321,0,0,0,34.769,31v1a9.294,9.294,0,0,0-3.4-.581c-2.405,0-4.992.752-5.023,2.4,0,.009,0,.018,0,.028l-.009,3.484a7.767,7.767,0,0,0-12.5.238H5.305a3.588,3.588,0,0,1-3.584-3.584V17.81a.857.857,0,0,0-1.712,0V33.985a5.3,5.3,0,0,0,5.3,5.3h7.607a7.778,7.778,0,0,0,9.1,10.348v7.933c0,.941,1.077.891,1.7.891,6.264,0,12.745-3.994,12.684-10.856a4.194,4.194,0,0,0,2.4.467,2.362,2.362,0,0,0-.449,3.556l5.093,5.093a2.216,2.216,0,0,0,3.107,0l1.407-1.407a.857.857,0,0,0-1.211-1.211L45.331,55.5a.484.484,0,0,1-.685,0L39.553,50.41a.485.485,0,0,1,0-.685L50.829,38.448a.484.484,0,0,1,.685,0l5.093,5.092a.485.485,0,0,1,0,.685l-6.718,6.718A.857.857,0,0,0,51.1,52.155l6.718-6.718a2.2,2.2,0,0,0,0-3.107ZM15.365,4.753a3.044,3.044,0,0,1,3.041-3.041h7.572a3.132,3.132,0,0,1,3.041,3.354H15.365ZM39.4,21.012a.209.209,0,0,1,.208-.208h6.069a.208.208,0,0,1,.208.208v2.026H39.4V21.012ZM27.948,42.218a.85.85,0,0,0,.088-.375l.017-6.113a9.873,9.873,0,0,0,6.265.132,10.37,10.37,0,0,1-1.57,2.86,11.659,11.659,0,0,1-3.878,3.359c-.314.152-.624.281-.929.393,0-.085.005-.171.007-.256Zm3.422-9.087a5.849,5.849,0,0,1,3.246.718c-1.363,1.123-5.13,1.122-6.492,0A5.849,5.849,0,0,1,31.371,33.132Zm-11.2,15a6.075,6.075,0,1,1,6-5.187,10.21,10.21,0,0,1-2.374.138,3.773,3.773,0,1,0-1.793,2.272v2.494a6.06,6.06,0,0,1-1.835.283Zm0-4.011a2.056,2.056,0,1,1,2.056-2.056A2.059,2.059,0,0,1,20.173,44.126Zm14.51,3.831c-.217,5.753-5.765,8.768-10.962,8.782V44.8a11.955,11.955,0,0,0,5.9-1.179,13.874,13.874,0,0,0,5.066-4.675Zm3.409-1.6a1.612,1.612,0,0,1-1.61-1.61V31a1.609,1.609,0,0,1,.557-1.218l2.708-2.344a3.5,3.5,0,0,0,1.211-2.651v-.031h3.369v.031a3.5,3.5,0,0,0,1.211,2.651l2.708,2.344A1.61,1.61,0,0,1,48.8,31v7.057l-1.695,1.695V34.116a1.773,1.773,0,0,0-1.771-1.771h-5.39a1.773,1.773,0,0,0-1.771,1.771v7.01A1.773,1.773,0,0,0,39.948,42.9h4.012L40.5,46.352H38.092Zm7.246-5.168h-5.39a.058.058,0,0,1-.058-.058v-7.01a.058.058,0,0,1,.058-.058h5.39a.058.058,0,0,1,.058.058v7.01A.059.059,0,0,1,45.338,41.184Z" transform="translate(0 0)" fill="#00455a"/>
      <path id="Trazado_980010" data-name="Trazado 980010" d="M368.141,430.019a.857.857,0,0,0,0-1.712A.857.857,0,0,0,368.141,430.019Z" transform="translate(-325.372 -379.409)" fill="#00455a"/>
      <path id="Trazado_980011" data-name="Trazado 980011" d="M391.76,404.688a.857.857,0,0,0,0,1.712A.857.857,0,0,0,391.76,404.688Z" transform="translate(-346.294 -358.487)" fill="#00455a"/>
      <path id="Trazado_980012" data-name="Trazado 980012" d="M415.379,381.069a.857.857,0,0,0,0,1.712A.857.857,0,0,0,415.379,381.069Z" transform="translate(-367.217 -337.564)" fill="#00455a"/>
      <path id="Trazado_980013" data-name="Trazado 980013" d="M439,357.45a.857.857,0,0,0,0,1.713A.857.857,0,0,0,439,357.45Z" transform="translate(-388.139 -316.642)" fill="#00455a"/>
      <path id="Trazado_980014" data-name="Trazado 980014" d="M388.546,450.424a.857.857,0,0,0,0-1.712A.857.857,0,0,0,388.546,450.424Z" transform="translate(-343.447 -397.485)" fill="#00455a"/>
      <path id="Trazado_980015" data-name="Trazado 980015" d="M412.165,425.093a.857.857,0,0,0,0,1.713A.857.857,0,0,0,412.165,425.093Z" transform="translate(-364.37 -376.562)" fill="#00455a"/>
      <path id="Trazado_980016" data-name="Trazado 980016" d="M435.785,403.186a.857.857,0,0,0,0-1.712A.857.857,0,0,0,435.785,403.186Z" transform="translate(-385.293 -355.64)" fill="#00455a"/>
      <path id="Trazado_980017" data-name="Trazado 980017" d="M459.4,377.855a.857.857,0,0,0,0,1.712A.857.857,0,0,0,459.4,377.855Z" transform="translate(-406.215 -334.717)" fill="#00455a"/>
    </g>
  </g>
</svg>
