<svg xmlns="http://www.w3.org/2000/svg" xmlns:xlink="http://www.w3.org/1999/xlink" width="108.914" height="108.914" viewBox="0 0 108.914 108.914">
  <defs>
    <filter id="Trazado_874925" x="0" y="0" width="108.914" height="108.914" filterUnits="userSpaceOnUse">
      <feOffset dy="3" input="SourceAlpha"/>
      <feGaussianBlur stdDeviation="3" result="blur"/>
      <feFlood flood-opacity="0.161"/>
      <feComposite operator="in" in2="blur"/>
      <feComposite in="SourceGraphic"/>
    </filter>
    <clipPath id="clip-path">
      <path id="path6282" d="M0-682.665H61.159v61.159H0Z" transform="translate(0 682.665)"/>
    </clipPath>
  </defs>
  <g id="Grupo_1112712" data-name="Grupo 1112712" transform="translate(-791 -2565.29)">
    <g transform="matrix(1, 0, 0, 1, 791, 2565.29)" filter="url(#Trazado_874925)">
      <g id="Trazado_874925-2" data-name="Trazado 874925" transform="translate(9 6)" fill="#cbe7f0" opacity="0.859">
        <path d="M 45.45676803588867 89.41407012939453 C 39.52198028564453 89.41407012939453 33.76551818847656 88.25206756591797 28.34726715087891 85.96034240722656 C 23.11311721801758 83.74648284912109 18.41204261779785 80.57682800292969 14.37464332580566 76.5394287109375 C 10.33724308013916 72.50202941894531 7.167593002319336 67.80095672607422 4.953730583190918 62.56679534912109 C 2.662005424499512 57.14855575561523 1.500005483627319 51.39208221435547 1.500005483627319 45.45729446411133 C 1.500005483627319 39.52198028564453 2.662005424499512 33.76551818847656 4.953730583190918 28.34726905822754 C 7.167593002319336 23.11310577392578 10.33724308013916 18.41203117370605 14.37464332580566 14.37464332580566 C 18.41204261779785 10.33724403381348 23.11311721801758 7.167593955993652 28.34726715087891 4.953731060028076 C 33.76551818847656 2.662006139755249 39.52198028564453 1.500006198883057 45.45676803588867 1.500006198883057 C 51.39155578613281 1.500006198883057 57.14802932739258 2.662006139755249 62.56626892089844 4.953731060028076 C 67.80043029785156 7.167593955993652 72.50150299072266 10.33724403381348 76.53890228271484 14.37464332580566 C 80.57630920410156 18.41203117370605 83.74595642089844 23.11310577392578 85.95981597900391 28.34726905822754 C 88.25154113769531 33.76551818847656 89.41354370117188 39.52198028564453 89.41354370117188 45.45676803588867 C 89.41354370117188 51.39208221435547 88.25154113769531 57.14855575561523 85.95981597900391 62.56679534912109 C 83.74595642089844 67.80095672607422 80.57630920410156 72.50202941894531 76.53890228271484 76.5394287109375 C 72.50150299072266 80.57682800292969 67.80043029785156 83.74648284912109 62.56626892089844 85.96034240722656 C 57.14802932739258 88.25206756591797 51.39155578613281 89.41407012939453 45.45676803588867 89.41407012939453 Z" stroke="none"/>
        <path d="M 45.45676803588867 3 C 39.72381210327148 3 34.1639404296875 4.12213134765625 28.93159484863281 6.335227966308594 C 23.87622833251953 8.473472595214844 19.33542633056641 11.53517150878906 15.43529510498047 15.435302734375 C 11.53517150878906 19.33543395996094 8.473464965820312 23.87622833251953 6.335227966308594 28.93160247802734 C 4.122123718261719 34.16394424438477 3 39.72381591796875 3 45.4572868347168 C 3 51.19024658203125 4.122123718261719 56.75011825561523 6.335227966308594 61.98246002197266 C 8.473464965820312 67.03782653808594 11.53517150878906 71.57862854003906 15.43529510498047 75.478759765625 C 19.33542633056641 79.37889099121094 23.87622833251953 82.44058990478516 28.93159484863281 84.57883453369141 C 34.1639404296875 86.79193115234375 39.72381210327148 87.9140625 45.45676803588867 87.9140625 C 51.18972396850586 87.9140625 56.74959564208984 86.79193115234375 61.98194122314453 84.57883453369141 C 67.03730773925781 82.44058990478516 71.57810974121094 79.37889099121094 75.47824096679688 75.478759765625 C 79.37837219238281 71.57862854003906 82.44007110595703 67.03782653808594 84.57830810546875 61.98246002197266 C 86.79141235351562 56.75011825561523 87.91353607177734 51.19024658203125 87.91353607177734 45.4567756652832 C 87.91353607177734 39.72381591796875 86.79141235351562 34.16394424438477 84.57830810546875 28.93160247802734 C 82.44007110595703 23.87622833251953 79.37837219238281 19.33543395996094 75.47824096679688 15.435302734375 C 71.57810974121094 11.53517150878906 67.03730773925781 8.473472595214844 61.98194122314453 6.335227966308594 C 56.74959564208984 4.12213134765625 51.18972396850586 3 45.45676803588867 3 M 45.45676803588867 0 C 70.56185150146484 0 90.91353607177734 20.35169219970703 90.91353607177734 45.4567756652832 L 90.91353607177734 45.4572868347168 C 90.91353607177734 70.5623779296875 70.56185150146484 90.9140625 45.45676803588867 90.9140625 C 20.3516845703125 90.9140625 0 70.5623779296875 0 45.4572868347168 L 0 45.4567756652832 C 0 20.35169219970703 20.3516845703125 0 45.45676803588867 0 Z" stroke="none" fill="#fff"/>
      </g>
    </g>
    <g id="g6276" transform="translate(814.877 3268.832)">
      <g id="g6278" transform="translate(0 -682.665)">
        <g id="g6280" clip-path="url(#clip-path)">
          <g id="g6286" transform="translate(14.108 31.919)">
            <path id="path6288" d="M-167.27,0c8.936,0,16.209,3.249,16.46,27.059A1.233,1.233,0,0,1-152,28.344h-30.543a1.233,1.233,0,0,1-1.189-1.285C-183.479,3.249-176.206,0-167.27,0" transform="translate(183.73 0)" fill="#f8e7c7"/>
          </g>
          <g id="g6290" transform="translate(29.139 31.919)">
            <path id="path6292" d="M-14.526,0c-.482,0-.958.009-1.429.031C-7.686.41-1.162,4.532-.925,27.059a1.233,1.233,0,0,1-1.189,1.285H.745a1.233,1.233,0,0,0,1.189-1.285C1.683,3.249-5.59,0-14.526,0" transform="translate(15.956 0)" fill="#f4daa7"/>
          </g>
          <g id="g6294" transform="translate(20.792 40.677)">
            <path id="path6296" d="M-198.695-199.042h-19.553a136.909,136.909,0,0,1,1.2-18.99,61.992,61.992,0,0,1,17.156,0,136.89,136.89,0,0,1,1.2,18.99" transform="translate(218.247 218.628)" fill="#df646e"/>
          </g>
          <g id="g6298" transform="translate(21.99 40.677)">
            <path id="path6300" d="M0-6.06a62,62,0,0,1,17.156,0" transform="translate(0 6.656)" fill="none" stroke="#000" stroke-linecap="round" stroke-linejoin="round" stroke-miterlimit="10" stroke-width="1.5"/>
          </g>
          <g id="g6302" transform="translate(37.56 33.061)">
            <path id="path6304" d="M0,0C1.812,7.434,2.726,15.332,2.785,27.2" fill="none" stroke="#000" stroke-linecap="round" stroke-linejoin="round" stroke-miterlimit="10" stroke-width="1.5"/>
          </g>
          <g id="g6306" transform="translate(20.792 33.061)">
            <path id="path6308" d="M0-276.435c.058-11.87.972-19.769,2.785-27.2" transform="translate(0 303.638)" fill="none" stroke="#000" stroke-linecap="round" stroke-linejoin="round" stroke-miterlimit="10" stroke-width="1.5"/>
          </g>
          <g id="g6310" transform="translate(14.108 31.919)">
            <path id="path6312" d="M-307.418-88.758c1.611,4.044,2.58,9.9,2.669,18.325a1.233,1.233,0,0,1-1.189,1.285h-30.543a1.233,1.233,0,0,1-1.189-1.285c.251-23.81,7.524-27.059,16.46-27.059,4.6,0,8.766.862,11.754,4.954" transform="translate(337.669 97.492)" fill="none" stroke="#000" stroke-linecap="round" stroke-linejoin="round" stroke-miterlimit="10" stroke-width="1.5"/>
          </g>
          <g id="g6314" transform="translate(22.054 29.25)">
            <path id="path6316" d="M-85.4-70.714l-2.637.17a2.938,2.938,0,0,1-2.285-.873l-3.234-3.29a.864.864,0,0,1,.4-1.442l5.784-1.524h4.171l5.784,1.524a.864.864,0,0,1,.4,1.442l-3.234,3.29a2.938,2.938,0,0,1-2.285.873Z" transform="translate(93.808 77.673)" fill="#f4daa7"/>
          </g>
          <g id="g6318" transform="translate(22.054 29.25)">
            <path id="path6320" d="M-85.4-70.714l-2.637.17a2.938,2.938,0,0,1-2.285-.873l-3.234-3.29a.864.864,0,0,1,.4-1.442l5.784-1.524h4.171l5.784,1.524a.864.864,0,0,1,.4,1.442l-3.234,3.29a2.938,2.938,0,0,1-2.285.873Z" transform="translate(93.808 77.673)" fill="none" stroke="#000" stroke-linecap="round" stroke-linejoin="round" stroke-miterlimit="10" stroke-width="1.5"/>
          </g>
          <g id="g6322" transform="translate(27.347 25.111)">
            <path id="path6324" d="M0,0V7.608c0,1.436,1.786,4.754,3.221,4.754S6.443,9.043,6.443,7.608V0Z" fill="#faa68f"/>
          </g>
          <g id="g6326" transform="translate(27.347 25.111)">
            <path id="path6328" d="M0-57.573A7.2,7.2,0,0,0,3.7-56.43a6.787,6.787,0,0,0,2.744-.633v-6.175H0Z" transform="translate(0 63.239)" fill="#e09380"/>
          </g>
          <g id="g6330" transform="translate(27.347 25.111)">
            <path id="path6332" d="M0,0V7.608c0,1.436,1.786,4.754,3.221,4.754S6.443,9.043,6.443,7.608V0Z" fill="none" stroke="#000" stroke-linecap="round" stroke-linejoin="round" stroke-miterlimit="10" stroke-width="1.5"/>
          </g>
          <g id="g6334" transform="translate(19.065 8.659)">
            <path id="path6336" d="M-26.393,0c-3.337,2.547-2.89,8.322-1.783,12.371H-6.8C-5.692,8.322-5.245,2.547-8.582,0Z" transform="translate(28.991)" fill="#ab7b64"/>
          </g>
          <g id="g6338" transform="translate(19.065 8.659)">
            <path id="path6340" d="M-26.393,0c-3.337,2.547-2.89,8.322-1.783,12.371H-6.8C-5.692,8.322-5.245,2.547-8.582,0Z" transform="translate(28.991)" fill="none" stroke="#000" stroke-linecap="round" stroke-linejoin="round" stroke-miterlimit="10" stroke-width="1.5"/>
          </g>
          <g id="g6342" transform="translate(18.715 18.445)">
            <path id="path6344" d="M-216.438,0H-235.33a2.407,2.407,0,0,0-2.407,2.407,2.407,2.407,0,0,0,2.407,2.407h18.892a2.407,2.407,0,0,0,2.407-2.407A2.407,2.407,0,0,0-216.438,0" transform="translate(237.737)" fill="#faa68f"/>
          </g>
          <g id="g6346" transform="translate(18.715 18.445)">
            <path id="path6348" d="M-216.438,0H-235.33a2.407,2.407,0,0,0-2.407,2.407,2.407,2.407,0,0,0,2.407,2.407h18.892a2.407,2.407,0,0,0,2.407-2.407A2.407,2.407,0,0,0-216.438,0Z" transform="translate(237.737)" fill="none" stroke="#000" stroke-linecap="round" stroke-linejoin="round" stroke-miterlimit="10" stroke-width="1.5"/>
          </g>
          <g id="g6350" transform="translate(22.666 12.958)">
            <path id="path6352" d="M-160.6-71.944c0,6.155-4.643,9.212-7.9,9.212s-7.9-3.057-7.9-9.212a15.508,15.508,0,0,1,.563-4.365,38.8,38.8,0,0,0,4.588-2.09.407.407,0,0,1,.6.4c-.083.918-.072,2.329.77,2.329a17.994,17.994,0,0,0,7.461-3.351,12.244,12.244,0,0,1,1.825,7.08" transform="translate(176.406 79.024)" fill="#faa68f"/>
          </g>
          <g id="g6354" transform="translate(22.666 12.958)">
            <path id="path6356" d="M-160.6-71.944c0,6.155-4.643,9.212-7.9,9.212s-7.9-3.057-7.9-9.212a15.508,15.508,0,0,1,.563-4.365,38.8,38.8,0,0,0,4.588-2.09.407.407,0,0,1,.6.4c-.083.918-.072,2.329.77,2.329a17.994,17.994,0,0,0,7.461-3.351A12.244,12.244,0,0,1-160.6-71.944Z" transform="translate(176.406 79.024)" fill="none" stroke="#000" stroke-linecap="round" stroke-linejoin="round" stroke-miterlimit="10" stroke-width="1.5"/>
          </g>
          <g id="g6358" transform="translate(14.852 0.896)">
            <path id="path6360" d="M-317.5-102.264l-5.818-2.959-2.063-6.166a1.374,1.374,0,0,0-1.3-.938h-12.687a1.374,1.374,0,0,0-1.3.938l-2.063,6.166-5.818,2.959a.346.346,0,0,0,.157.654h30.74a.346.346,0,0,0,.157-.654" transform="translate(348.741 112.328)" fill="#e3e0e4"/>
          </g>
          <g id="g6362" transform="translate(33.531 0.896)">
            <path id="path6364" d="M-127.675-102.264l-5.818-2.959-2.063-6.166a1.374,1.374,0,0,0-1.3-.938h-3.38a1.31,1.31,0,0,1,1.235.938l1.957,6.166,5.517,2.959a.349.349,0,0,1-.149.654h3.846a.346.346,0,0,0,.157-.654" transform="translate(140.238 112.328)" fill="#c5bec6"/>
          </g>
          <g id="g6366" transform="translate(20.859 4.353)">
            <path id="path6368" d="M-12.4,0l-1.22,3.647H5.8L4.576,0Z" transform="translate(13.623)" fill="#df646e"/>
          </g>
          <g id="g6370" transform="translate(35.566 4.353)">
            <path id="path6372" d="M-35.477,0h-3.491l1.157,3.647h3.554Z" transform="translate(38.968)" fill="#dc4955"/>
          </g>
          <g id="g6374" transform="translate(14.852 0.896)">
            <path id="path6376" d="M-109.761,0h-1.428a1.374,1.374,0,0,0-1.3.938L-114.555,7.1l-5.818,2.959a.346.346,0,0,0,.157.655h30.74a.346.346,0,0,0,.157-.655L-95.136,7.1-97.2.938A1.374,1.374,0,0,0-98.5,0h-7.078" transform="translate(120.562)" fill="none" stroke="#000" stroke-linecap="round" stroke-linejoin="round" stroke-miterlimit="10" stroke-width="1.5"/>
          </g>
          <g id="g6378" transform="translate(20.859 8)">
            <path id="path6380" d="M0,0H19.419" fill="none" stroke="#000" stroke-linecap="round" stroke-linejoin="round" stroke-miterlimit="10" stroke-width="1.5"/>
          </g>
          <g id="g6382" transform="translate(22.079 4.353)">
            <path id="path6384" d="M-172.53,0h-16.978" transform="translate(189.508)" fill="none" stroke="#000" stroke-linecap="round" stroke-linejoin="round" stroke-miterlimit="10" stroke-width="1.5"/>
          </g>
          <g id="g6386" transform="translate(24.983 44.598)">
            <path id="path6388" d="M-163.193-44.738c-.321-2.119-3.866-6.247-12-3.477s-1.535,5.839-1.535,5.839Z" transform="translate(179.252 49.14)" fill="#dce6eb"/>
          </g>
          <g id="g6390" transform="translate(24.983 44.598)">
            <path id="path6392" d="M-163.193-44.738c-.321-2.119-3.866-6.247-12-3.477s-1.535,5.839-1.535,5.839Z" transform="translate(179.252 49.14)" fill="none" stroke="#000" stroke-linecap="round" stroke-linejoin="round" stroke-miterlimit="10" stroke-width="1.5"/>
          </g>
          <g id="g6394" transform="translate(6.506 46.536)">
            <path id="path6396" d="M-342.473-17.027c-8.416,0-19.217.98-25.041,2.419a1.011,1.011,0,0,1-.931-.236c-1.92-1.778-5.828-4.07-7.158-3.843-1.651.283.8,4.514.8,6.079v.253c0,1.565-2.454,5.8-.8,6.079,1.33.228,5.238-2.065,7.158-3.843a1.012,1.012,0,0,1,.931-.236c5.824,1.439,16.624,2.419,25.041,2.419,8.773,0,12.615-2.378,14.069-3.695a1.15,1.15,0,0,0,0-1.7c-1.454-1.316-5.3-3.695-14.069-3.695" transform="translate(376.174 18.702)" fill="#c8d2dc"/>
          </g>
          <g id="g6398" transform="translate(6.506 51.499)">
            <path id="path6400" d="M-480.474,0c-1.751,1.3-5.651,3.187-13.58,3.187-8.416,0-19.217-.95-25.041-2.345a1.034,1.034,0,0,0-.932.229c-1.92,1.724-5.828,3.946-7.158,3.725a.769.769,0,0,1-.167-.048c-.44,1.353-.692,2.569.167,2.716,1.33.228,5.238-2.064,7.158-3.843a1.012,1.012,0,0,1,.932-.236c5.824,1.439,16.624,2.419,25.041,2.419,8.773,0,12.615-2.378,14.069-3.695a1.15,1.15,0,0,0,0-1.7c-.14-.127-.3-.263-.489-.407" transform="translate(527.755)" fill="#a2abb8"/>
          </g>
          <g id="g6402" transform="translate(6.506 46.536)">
            <path id="path6404" d="M-1.679-106.887c-.258,1-.277,1.792.406,1.909,1.33.228,5.238-2.064,7.158-3.843a1.011,1.011,0,0,1,.931-.236c5.824,1.439,16.624,2.419,25.041,2.419,8.773,0,12.615-2.378,14.069-3.695a1.15,1.15,0,0,0,0-1.7c-1.454-1.316-5.3-3.695-14.069-3.695-8.416,0-19.217.98-25.041,2.419a1.012,1.012,0,0,1-.931-.236c-1.92-1.778-5.828-4.07-7.158-3.843-1.651.283.8,4.514.8,6.079v.253a1.934,1.934,0,0,1-.012.2" transform="translate(1.845 117.405)" fill="none" stroke="#000" stroke-linecap="round" stroke-linejoin="round" stroke-miterlimit="10" stroke-width="1.5"/>
          </g>
          <g id="g6410" transform="translate(18.578 54.345)">
            <path id="path6412" d="M-21.753,0h2.743a2.141,2.141,0,0,1,2.14,2.141v.9a2.88,2.88,0,0,1-2.88,2.88h-1.264a2.88,2.88,0,0,1-2.88-2.88v-.9A2.141,2.141,0,0,1-21.753,0" transform="translate(23.893)" fill="#faa68f"/>
          </g>
          <g id="g6414" transform="translate(35.534 54.345)">
            <path id="path6416" d="M-21.751,0h2.743a2.141,2.141,0,0,1,2.141,2.141v.9a2.88,2.88,0,0,1-2.88,2.88h-1.264a2.88,2.88,0,0,1-2.88-2.88v-.9A2.141,2.141,0,0,1-21.751,0" transform="translate(23.892)" fill="#faa68f"/>
          </g>
          <g id="g6418" transform="translate(18.578 54.345)">
            <path id="path6420" d="M-21.753,0h2.743a2.141,2.141,0,0,1,2.14,2.141v.9a2.88,2.88,0,0,1-2.88,2.88h-1.264a2.88,2.88,0,0,1-2.88-2.88v-.9A2.141,2.141,0,0,1-21.753,0Z" transform="translate(23.893)" fill="none" stroke="#000" stroke-linecap="round" stroke-linejoin="round" stroke-miterlimit="10" stroke-width="1.5"/>
          </g>
          <g id="g6422" transform="translate(35.534 54.345)">
            <path id="path6424" d="M-21.751,0h2.743a2.141,2.141,0,0,1,2.141,2.141v.9a2.88,2.88,0,0,1-2.88,2.88h-1.264a2.88,2.88,0,0,1-2.88-2.88v-.9A2.141,2.141,0,0,1-21.751,0Z" transform="translate(23.892)" fill="none" stroke="#000" stroke-linecap="round" stroke-linejoin="round" stroke-miterlimit="10" stroke-width="1.5"/>
          </g>
        </g>
      </g>
    </g>
  </g>
</svg>
