<svg xmlns="http://www.w3.org/2000/svg" xmlns:xlink="http://www.w3.org/1999/xlink" width="108.914" height="108.914" viewBox="0 0 108.914 108.914">
  <defs>
    <filter id="Trazado_874925" x="0" y="0" width="108.914" height="108.914" filterUnits="userSpaceOnUse">
      <feOffset dy="3" input="SourceAlpha"/>
      <feGaussianBlur stdDeviation="3" result="blur"/>
      <feFlood flood-opacity="0.161"/>
      <feComposite operator="in" in2="blur"/>
      <feComposite in="SourceGraphic"/>
    </filter>
    <clipPath id="clip-path">
      <path id="path3064" d="M0-682.665H60.36v60.36H0Z" transform="translate(0 682.665)" fill="#008db6"/>
    </clipPath>
  </defs>
  <g id="Grupo_1112813" data-name="Grupo 1112813" transform="translate(-798.051 -4590)">
    <g transform="matrix(1, 0, 0, 1, 798.05, 4590)" filter="url(#Trazado_874925)">
      <g id="Trazado_874925-2" data-name="Trazado 874925" transform="translate(9 6)" fill="#cbe7f0">
        <path d="M 45.45676803588867 89.41407012939453 C 39.52198028564453 89.41407012939453 33.76551818847656 88.25206756591797 28.34726715087891 85.96034240722656 C 23.11311721801758 83.74648284912109 18.41204261779785 80.57682800292969 14.37464332580566 76.5394287109375 C 10.33724308013916 72.50202941894531 7.167593002319336 67.80095672607422 4.953730583190918 62.56679534912109 C 2.662005424499512 57.14855575561523 1.500005483627319 51.39208221435547 1.500005483627319 45.45729446411133 C 1.500005483627319 39.52198028564453 2.662005424499512 33.76551818847656 4.953730583190918 28.34726905822754 C 7.167593002319336 23.11310577392578 10.33724308013916 18.41203117370605 14.37464332580566 14.37464332580566 C 18.41204261779785 10.33724403381348 23.11311721801758 7.167593955993652 28.34726715087891 4.953731060028076 C 33.76551818847656 2.662006139755249 39.52198028564453 1.500006198883057 45.45676803588867 1.500006198883057 C 51.39155578613281 1.500006198883057 57.14802932739258 2.662006139755249 62.56626892089844 4.953731060028076 C 67.80043029785156 7.167593955993652 72.50150299072266 10.33724403381348 76.53890228271484 14.37464332580566 C 80.57630920410156 18.41203117370605 83.74595642089844 23.11310577392578 85.95981597900391 28.34726905822754 C 88.25154113769531 33.76551818847656 89.41354370117188 39.52198028564453 89.41354370117188 45.45676803588867 C 89.41354370117188 51.39208221435547 88.25154113769531 57.14855575561523 85.95981597900391 62.56679534912109 C 83.74595642089844 67.80095672607422 80.57630920410156 72.50202941894531 76.53890228271484 76.5394287109375 C 72.50150299072266 80.57682800292969 67.80043029785156 83.74648284912109 62.56626892089844 85.96034240722656 C 57.14802932739258 88.25206756591797 51.39155578613281 89.41407012939453 45.45676803588867 89.41407012939453 Z" stroke="none"/>
        <path d="M 45.45676803588867 3 C 39.72381210327148 3 34.1639404296875 4.12213134765625 28.93159484863281 6.335227966308594 C 23.87622833251953 8.473472595214844 19.33542633056641 11.53517150878906 15.43529510498047 15.435302734375 C 11.53517150878906 19.33543395996094 8.473464965820312 23.87622833251953 6.335227966308594 28.93160247802734 C 4.122123718261719 34.16394424438477 3 39.72381591796875 3 45.4572868347168 C 3 51.19024658203125 4.122123718261719 56.75011825561523 6.335227966308594 61.98246002197266 C 8.473464965820312 67.03782653808594 11.53517150878906 71.57862854003906 15.43529510498047 75.478759765625 C 19.33542633056641 79.37889099121094 23.87622833251953 82.44058990478516 28.93159484863281 84.57883453369141 C 34.1639404296875 86.79193115234375 39.72381210327148 87.9140625 45.45676803588867 87.9140625 C 51.18972396850586 87.9140625 56.74959564208984 86.79193115234375 61.98194122314453 84.57883453369141 C 67.03730773925781 82.44058990478516 71.57810974121094 79.37889099121094 75.47824096679688 75.478759765625 C 79.37837219238281 71.57862854003906 82.44007110595703 67.03782653808594 84.57830810546875 61.98246002197266 C 86.79141235351562 56.75011825561523 87.91353607177734 51.19024658203125 87.91353607177734 45.4567756652832 C 87.91353607177734 39.72381591796875 86.79141235351562 34.16394424438477 84.57830810546875 28.93160247802734 C 82.44007110595703 23.87622833251953 79.37837219238281 19.33543395996094 75.47824096679688 15.435302734375 C 71.57810974121094 11.53517150878906 67.03730773925781 8.473472595214844 61.98194122314453 6.335227966308594 C 56.74959564208984 4.12213134765625 51.18972396850586 3 45.45676803588867 3 M 45.45676803588867 0 C 70.56185150146484 0 90.91353607177734 20.35169219970703 90.91353607177734 45.4567756652832 L 90.91353607177734 45.4572868347168 C 90.91353607177734 70.5623779296875 70.56185150146484 90.9140625 45.45676803588867 90.9140625 C 20.3516845703125 90.9140625 0 70.5623779296875 0 45.4572868347168 L 0 45.4567756652832 C 0 20.35169219970703 20.3516845703125 0 45.45676803588867 0 Z" stroke="none" fill="#fff"/>
      </g>
    </g>
    <g id="g3054" transform="translate(822.051 5294.665)">
      <g id="g3056" transform="translate(53.855 -673.266)">
        <path id="path3058" d="M-9.116-6.989A.884.884,0,0,1-10-7.873V-9.116A.884.884,0,0,1-9.116-10a.884.884,0,0,1,.884.884v1.243A.884.884,0,0,1-9.116-6.989Z" transform="translate(10 10)" fill="#008db6"/>
      </g>
      <g id="g3060" transform="translate(0 -682.665)">
        <g id="g3062" clip-path="url(#clip-path)">
          <g id="g3068" transform="translate(41.007 9.129)">
            <path id="path3070" d="M-66.306-27.047A3.894,3.894,0,0,1-62.938-25.1a1.589,1.589,0,0,1,0,1.578,3.894,3.894,0,0,1-3.368,1.951,3.9,3.9,0,0,1-3.368-1.951,1.59,1.59,0,0,1,0-1.577A3.9,3.9,0,0,1-66.306-27.047Zm1.779,2.74a2.122,2.122,0,0,0-1.779-.971,2.122,2.122,0,0,0-1.779.971,2.122,2.122,0,0,0,1.779.971A2.122,2.122,0,0,0-64.527-24.307Z" transform="translate(69.883 27.047)" fill="#008db6"/>
          </g>
          <g id="g3072" transform="translate(49.411 4.538)">
            <path id="path3074" d="M-105.449-87.168a.884.884,0,0,1-.775-.459A14.316,14.316,0,0,1-107.98-94.5a14.305,14.305,0,0,1,1.757-6.873.884.884,0,0,1,.992-.431,12.932,12.932,0,0,1,7.527,5.13,3.857,3.857,0,0,1,0,4.347,12.925,12.925,0,0,1-7.528,5.131A.884.884,0,0,1-105.449-87.168Zm.457-12.73a12.555,12.555,0,0,0-1.219,5.4,12.564,12.564,0,0,0,1.218,5.4,11.068,11.068,0,0,0,5.832-4.227,2.079,2.079,0,0,0,0-2.343A11.074,11.074,0,0,0-104.992-99.9Z" transform="translate(107.98 101.83)" fill="#008db6"/>
          </g>
          <g id="g3076" transform="translate(32.361 6.092)">
            <path id="path3078" d="M-54.875-65.345a5,5,0,0,1,3.556,1.473,5,5,0,0,1,1.077,1.6.884.884,0,0,1-.128.9,9.971,9.971,0,0,0-1.167,1.8,9.971,9.971,0,0,0,1.167,1.8.884.884,0,0,1,.128.9,5,5,0,0,1-1.077,1.6,5,5,0,0,1-3.556,1.473,5.013,5.013,0,0,1-1.878-.363.884.884,0,0,1-.491-.491,5.024,5.024,0,0,1,.664-4.925,5.025,5.025,0,0,1-.664-4.924.884.884,0,0,1,.491-.491A5.013,5.013,0,0,1-54.875-65.345Zm2.777,3.32a3.243,3.243,0,0,0-.472-.6,3.239,3.239,0,0,0-2.306-.955,3.261,3.261,0,0,0-.851.112,3.258,3.258,0,0,0,.843,3.157,1.039,1.039,0,0,1,.308.74,1.037,1.037,0,0,1-.307.739,3.259,3.259,0,0,0-.844,3.158,3.262,3.262,0,0,0,.851.112,3.24,3.24,0,0,0,2.306-.955,3.241,3.241,0,0,0,.472-.6,11.552,11.552,0,0,1-1.224-2.1.884.884,0,0,1,0-.724A11.551,11.551,0,0,1-52.1-62.025Z" transform="translate(57.609 65.345)" fill="#008db6"/>
          </g>
          <g id="g3080" transform="translate(36.571 4.134)">
            <path id="path3082" d="M-161.751-14.576a14.152,14.152,0,0,1,3.483.432.884.884,0,0,1,.593.5.884.884,0,0,1-.036.778A12.533,12.533,0,0,0-159.25-6.84a12.542,12.542,0,0,0,1.538,6.021.884.884,0,0,1,.036.777.884.884,0,0,1-.592.5A14.077,14.077,0,0,1-161.751.9a13.02,13.02,0,0,1-12.03-7.374.884.884,0,0,1,0-.724A13.02,13.02,0,0,1-161.751-14.576Zm1.965,1.923a12.51,12.51,0,0,0-1.965-.154A11.308,11.308,0,0,0-172-6.84,11.308,11.308,0,0,0-161.751-.872a12.466,12.466,0,0,0,1.964-.155,14.347,14.347,0,0,1-1.231-5.813A14.339,14.339,0,0,1-159.786-12.653Z" transform="translate(173.858 14.576)" fill="#008db6"/>
          </g>
          <g id="g3084" transform="translate(21.492 9.399)">
            <path id="path3086" d="M-9.116-6.989A.884.884,0,0,1-10-7.873V-9.116A.884.884,0,0,1-9.116-10a.884.884,0,0,1,.884.884v1.243A.884.884,0,0,1-9.116-6.989Z" transform="translate(10 10)" fill="#008db6"/>
          </g>
          <g id="g3088" transform="translate(8.644 9.129)">
            <path id="path3090" d="M-66.307-27.047A3.9,3.9,0,0,1-62.939-25.1a1.589,1.589,0,0,1,0,1.578,3.9,3.9,0,0,1-3.368,1.951,3.9,3.9,0,0,1-3.368-1.951,1.589,1.589,0,0,1,0-1.578A3.9,3.9,0,0,1-66.307-27.047Zm1.779,2.74a2.122,2.122,0,0,0-1.779-.971,2.122,2.122,0,0,0-1.779.971,2.122,2.122,0,0,0,1.779.971A2.122,2.122,0,0,0-64.528-24.307Z" transform="translate(69.885 27.047)" fill="#008db6"/>
          </g>
          <g id="g3092" transform="translate(17.048 4.538)">
            <path id="path3094" d="M-105.45-87.168a.884.884,0,0,1-.775-.459,14.316,14.316,0,0,1-1.756-6.872,14.305,14.305,0,0,1,1.757-6.873.884.884,0,0,1,.992-.431,12.933,12.933,0,0,1,7.527,5.13,3.857,3.857,0,0,1,0,4.347,12.926,12.926,0,0,1-7.528,5.131A.884.884,0,0,1-105.45-87.168Zm.457-12.73a12.555,12.555,0,0,0-1.219,5.4,12.564,12.564,0,0,0,1.219,5.4,11.071,11.071,0,0,0,5.832-4.227,2.079,2.079,0,0,0,0-2.343A11.075,11.075,0,0,0-104.993-99.9Z" transform="translate(107.981 101.83)" fill="#008db6"/>
          </g>
          <g id="g3096" transform="translate(-0.002 6.092)">
            <path id="path3098" d="M-54.876-65.345a5.009,5.009,0,0,1,3.556,1.473,5,5,0,0,1,1.077,1.6.884.884,0,0,1-.128.9,9.972,9.972,0,0,0-1.167,1.8,9.972,9.972,0,0,0,1.167,1.8.884.884,0,0,1,.128.9,5,5,0,0,1-1.077,1.6,5,5,0,0,1-3.556,1.473,5.013,5.013,0,0,1-1.879-.363.884.884,0,0,1-.491-.491,5.024,5.024,0,0,1,.664-4.925,5.025,5.025,0,0,1-.664-4.924.884.884,0,0,1,.491-.491A5.013,5.013,0,0,1-54.876-65.345Zm2.778,3.32a3.242,3.242,0,0,0-.472-.6,3.228,3.228,0,0,0-2.306-.955,3.261,3.261,0,0,0-.851.112,3.258,3.258,0,0,0,.843,3.157,1.039,1.039,0,0,1,.308.74,1.037,1.037,0,0,1-.308.74,3.259,3.259,0,0,0-.843,3.157,3.262,3.262,0,0,0,.851.112,3.24,3.24,0,0,0,2.306-.955,3.241,3.241,0,0,0,.471-.6,11.547,11.547,0,0,1-1.224-2.1.884.884,0,0,1,0-.724A11.547,11.547,0,0,1-52.1-62.025Z" transform="translate(57.609 65.345)" fill="#008db6"/>
          </g>
          <g id="g3100" transform="translate(4.208 4.134)">
            <path id="path3102" d="M-56.41-11.137a13.019,13.019,0,0,1-12.03-7.374.884.884,0,0,1,0-.724,12.372,12.372,0,0,1,5.57-5.8.884.884,0,0,1,1.194.372.884.884,0,0,1-.372,1.194,10.668,10.668,0,0,0-4.606,4.6A11.308,11.308,0,0,0-56.41-12.905a12.47,12.47,0,0,0,1.964-.155,14.345,14.345,0,0,1-1.231-5.813,14.338,14.338,0,0,1,1.232-5.814,12.6,12.6,0,0,0-4.537.113.884.884,0,0,1-1.048-.682.884.884,0,0,1,.682-1.048,14.243,14.243,0,0,1,2.938-.305,14.146,14.146,0,0,1,3.483.432.884.884,0,0,1,.593.5.884.884,0,0,1-.036.778,12.532,12.532,0,0,0-1.539,6.022,12.543,12.543,0,0,0,1.538,6.021.884.884,0,0,1,.036.777.884.884,0,0,1-.592.5A14.077,14.077,0,0,1-56.41-11.137Z" transform="translate(68.517 26.609)" fill="#008db6"/>
          </g>
          <g id="g3104" transform="translate(37.673 27.709)">
            <path id="path3106" d="M-9.116-6.989A.884.884,0,0,1-10-7.873V-9.116A.884.884,0,0,1-9.116-10a.884.884,0,0,1,.884.884v1.243A.884.884,0,0,1-9.116-6.989Z" transform="translate(10 10)" fill="#008db6"/>
          </g>
          <g id="g3108" transform="translate(24.826 27.439)">
            <path id="path3110" d="M-66.306-27.047A3.9,3.9,0,0,1-62.938-25.1a1.589,1.589,0,0,1,0,1.578,3.894,3.894,0,0,1-3.368,1.951,3.9,3.9,0,0,1-3.368-1.951,1.59,1.59,0,0,1,0-1.577A3.9,3.9,0,0,1-66.306-27.047Zm1.779,2.74a2.122,2.122,0,0,0-1.779-.971,2.122,2.122,0,0,0-1.779.971,2.122,2.122,0,0,0,1.779.971A2.122,2.122,0,0,0-64.527-24.307Z" transform="translate(69.883 27.047)" fill="#008db6"/>
          </g>
          <g id="g3112" transform="translate(33.229 22.848)">
            <path id="path3114" d="M-105.45-87.168a.884.884,0,0,1-.775-.459,14.316,14.316,0,0,1-1.756-6.872,14.305,14.305,0,0,1,1.757-6.873.884.884,0,0,1,.992-.431,12.933,12.933,0,0,1,7.527,5.13,3.857,3.857,0,0,1,0,4.347,12.926,12.926,0,0,1-7.528,5.131A.884.884,0,0,1-105.45-87.168Zm.457-12.73a12.555,12.555,0,0,0-1.219,5.4,12.564,12.564,0,0,0,1.219,5.4,11.07,11.07,0,0,0,5.832-4.227,2.079,2.079,0,0,0,0-2.343A11.075,11.075,0,0,0-104.993-99.9Z" transform="translate(107.981 101.83)" fill="#008db6"/>
          </g>
          <g id="g3116" transform="translate(16.18 24.402)">
            <path id="path3118" d="M-54.876-65.345a5.009,5.009,0,0,1,3.556,1.473,5,5,0,0,1,1.077,1.6.884.884,0,0,1-.128.9,9.972,9.972,0,0,0-1.167,1.8,9.972,9.972,0,0,0,1.167,1.8.884.884,0,0,1,.128.9,5,5,0,0,1-1.077,1.6,5,5,0,0,1-3.556,1.473,5.013,5.013,0,0,1-1.879-.363.884.884,0,0,1-.491-.491,5.024,5.024,0,0,1,.664-4.925,5.025,5.025,0,0,1-.664-4.924.884.884,0,0,1,.491-.491A5.013,5.013,0,0,1-54.876-65.345Zm2.778,3.32a3.242,3.242,0,0,0-.472-.6,3.228,3.228,0,0,0-2.306-.955,3.261,3.261,0,0,0-.851.112,3.258,3.258,0,0,0,.843,3.157,1.039,1.039,0,0,1,.308.74,1.037,1.037,0,0,1-.308.74,3.259,3.259,0,0,0-.843,3.157,3.262,3.262,0,0,0,.851.112,3.24,3.24,0,0,0,2.306-.955,3.241,3.241,0,0,0,.471-.6,11.547,11.547,0,0,1-1.224-2.1.884.884,0,0,1,0-.724A11.547,11.547,0,0,1-52.1-62.025Z" transform="translate(57.609 65.345)" fill="#008db6"/>
          </g>
          <g id="g3120" transform="translate(20.389 22.443)">
            <path id="path3122" d="M-161.751-14.576a14.152,14.152,0,0,1,3.483.432.884.884,0,0,1,.593.5.884.884,0,0,1-.036.778A12.533,12.533,0,0,0-159.25-6.84a12.542,12.542,0,0,0,1.538,6.021.884.884,0,0,1,.036.777.884.884,0,0,1-.592.5A14.077,14.077,0,0,1-161.751.9a13.019,13.019,0,0,1-12.03-7.374.884.884,0,0,1,0-.724A13.02,13.02,0,0,1-161.751-14.576Zm1.964,1.923a12.51,12.51,0,0,0-1.964-.154A11.307,11.307,0,0,0-172-6.84,11.307,11.307,0,0,0-161.751-.872a12.466,12.466,0,0,0,1.964-.155,14.345,14.345,0,0,1-1.231-5.813A14.339,14.339,0,0,1-159.786-12.653Z" transform="translate(173.858 14.576)" fill="#008db6"/>
          </g>
          <g id="g3124" transform="translate(53.855 46.02)">
            <path id="path3126" d="M-9.116-6.989A.884.884,0,0,1-10-7.873V-9.116A.884.884,0,0,1-9.116-10a.884.884,0,0,1,.884.884v1.243A.884.884,0,0,1-9.116-6.989Z" transform="translate(10 10)" fill="#008db6"/>
          </g>
          <g id="g3128" transform="translate(41.007 45.75)">
            <path id="path3130" d="M-66.306-27.047A3.894,3.894,0,0,1-62.938-25.1a1.589,1.589,0,0,1,0,1.578,3.894,3.894,0,0,1-3.368,1.951,3.9,3.9,0,0,1-3.368-1.951,1.59,1.59,0,0,1,0-1.577A3.9,3.9,0,0,1-66.306-27.047Zm1.779,2.74a2.122,2.122,0,0,0-1.779-.971,2.122,2.122,0,0,0-1.779.971,2.122,2.122,0,0,0,1.779.971A2.122,2.122,0,0,0-64.527-24.307Z" transform="translate(69.883 27.047)" fill="#008db6"/>
          </g>
          <g id="g3132" transform="translate(49.411 41.159)">
            <path id="path3134" d="M-105.449-87.168a.884.884,0,0,1-.775-.459A14.316,14.316,0,0,1-107.98-94.5a14.305,14.305,0,0,1,1.757-6.873.884.884,0,0,1,.992-.431,12.932,12.932,0,0,1,7.527,5.13,3.857,3.857,0,0,1,0,4.347,12.925,12.925,0,0,1-7.528,5.131A.884.884,0,0,1-105.449-87.168Zm.457-12.73a12.555,12.555,0,0,0-1.219,5.4,12.564,12.564,0,0,0,1.218,5.4,11.068,11.068,0,0,0,5.832-4.227,2.079,2.079,0,0,0,0-2.343A11.074,11.074,0,0,0-104.992-99.9Z" transform="translate(107.98 101.83)" fill="#008db6"/>
          </g>
          <g id="g3136" transform="translate(32.361 42.713)">
            <path id="path3138" d="M-54.875-65.345a5,5,0,0,1,3.556,1.473,5,5,0,0,1,1.077,1.6.884.884,0,0,1-.128.9,9.971,9.971,0,0,0-1.167,1.8,9.971,9.971,0,0,0,1.167,1.8.884.884,0,0,1,.128.9,5,5,0,0,1-1.077,1.6,5,5,0,0,1-3.556,1.473,5.013,5.013,0,0,1-1.878-.363.884.884,0,0,1-.491-.491,5.024,5.024,0,0,1,.664-4.925,5.024,5.024,0,0,1-.664-4.924.884.884,0,0,1,.491-.491A5.013,5.013,0,0,1-54.875-65.345Zm2.777,3.32a3.244,3.244,0,0,0-.472-.6,3.239,3.239,0,0,0-2.306-.955,3.261,3.261,0,0,0-.851.112,3.258,3.258,0,0,0,.843,3.157,1.039,1.039,0,0,1,.308.74,1.038,1.038,0,0,1-.307.739,3.259,3.259,0,0,0-.844,3.158,3.262,3.262,0,0,0,.851.112,3.24,3.24,0,0,0,2.306-.955,3.242,3.242,0,0,0,.472-.6,11.551,11.551,0,0,1-1.224-2.1.884.884,0,0,1,0-.724A11.551,11.551,0,0,1-52.1-62.025Z" transform="translate(57.609 65.345)" fill="#008db6"/>
          </g>
          <g id="g3140" transform="translate(36.571 40.754)">
            <path id="path3142" d="M-109.968-148.78c-.457,0-.928-.023-1.4-.07a.884.884,0,0,1-.794-.966.884.884,0,0,1,.966-.794c.415.041.828.061,1.228.061A12.467,12.467,0,0,0-108-150.7a14.347,14.347,0,0,1-1.231-5.813A14.339,14.339,0,0,1-108-162.33a12.515,12.515,0,0,0-1.964-.154,11.308,11.308,0,0,0-10.245,5.967,10.877,10.877,0,0,0,5.8,5.142.884.884,0,0,1,.5,1.145.884.884,0,0,1-1.145.5A12.586,12.586,0,0,1-122-156.154a.884.884,0,0,1,0-.724,13.02,13.02,0,0,1,12.03-7.374,14.152,14.152,0,0,1,3.483.432.884.884,0,0,1,.593.5.884.884,0,0,1-.036.778,12.533,12.533,0,0,0-1.539,6.022,12.542,12.542,0,0,0,1.538,6.021.884.884,0,0,1,.036.777.884.884,0,0,1-.592.5A14.076,14.076,0,0,1-109.968-148.78Z" transform="translate(122.076 164.253)" fill="#008db6"/>
          </g>
          <g id="g3144" transform="translate(21.492 46.02)">
            <path id="path3146" d="M-9.116-6.989A.884.884,0,0,1-10-7.873V-9.116A.884.884,0,0,1-9.116-10a.884.884,0,0,1,.884.884v1.243A.884.884,0,0,1-9.116-6.989Z" transform="translate(10 10)" fill="#008db6"/>
          </g>
          <g id="g3148" transform="translate(8.644 45.75)">
            <path id="path3150" d="M-66.307-27.047A3.9,3.9,0,0,1-62.939-25.1a1.589,1.589,0,0,1,0,1.578,3.9,3.9,0,0,1-3.368,1.951,3.9,3.9,0,0,1-3.368-1.951,1.589,1.589,0,0,1,0-1.578A3.9,3.9,0,0,1-66.307-27.047Zm1.779,2.74a2.122,2.122,0,0,0-1.779-.971,2.122,2.122,0,0,0-1.779.971,2.122,2.122,0,0,0,1.779.971A2.122,2.122,0,0,0-64.528-24.307Z" transform="translate(69.885 27.047)" fill="#008db6"/>
          </g>
          <g id="g3152" transform="translate(17.048 41.159)">
            <path id="path3154" d="M-105.45-87.168a.884.884,0,0,1-.775-.459,14.316,14.316,0,0,1-1.756-6.872,14.305,14.305,0,0,1,1.757-6.873.884.884,0,0,1,.992-.431,12.933,12.933,0,0,1,7.527,5.13,3.857,3.857,0,0,1,0,4.347,12.926,12.926,0,0,1-7.528,5.131A.884.884,0,0,1-105.45-87.168Zm.457-12.73a12.555,12.555,0,0,0-1.219,5.4,12.564,12.564,0,0,0,1.219,5.4,11.071,11.071,0,0,0,5.832-4.227,2.079,2.079,0,0,0,0-2.343A11.075,11.075,0,0,0-104.993-99.9Z" transform="translate(107.981 101.83)" fill="#008db6"/>
          </g>
          <g id="g3156" transform="translate(-0.002 42.713)">
            <path id="path3158" d="M-54.876-65.345a5.009,5.009,0,0,1,3.556,1.473,5,5,0,0,1,1.077,1.6.884.884,0,0,1-.128.9,9.972,9.972,0,0,0-1.167,1.8,9.972,9.972,0,0,0,1.167,1.8.884.884,0,0,1,.128.9,5,5,0,0,1-1.077,1.6,5,5,0,0,1-3.556,1.473,5.013,5.013,0,0,1-1.879-.363.884.884,0,0,1-.491-.491,5.024,5.024,0,0,1,.664-4.925,5.025,5.025,0,0,1-.664-4.924.884.884,0,0,1,.491-.491A5.013,5.013,0,0,1-54.876-65.345Zm2.778,3.32a3.242,3.242,0,0,0-.472-.6,3.228,3.228,0,0,0-2.306-.955,3.261,3.261,0,0,0-.851.112,3.258,3.258,0,0,0,.843,3.157,1.04,1.04,0,0,1,.308.741,1.037,1.037,0,0,1-.308.739,3.259,3.259,0,0,0-.843,3.157,3.262,3.262,0,0,0,.851.112,3.24,3.24,0,0,0,2.306-.955,3.241,3.241,0,0,0,.471-.6,11.547,11.547,0,0,1-1.224-2.1.884.884,0,0,1,0-.724A11.547,11.547,0,0,1-52.1-62.025Z" transform="translate(57.609 65.345)" fill="#008db6"/>
          </g>
          <g id="g3160" transform="translate(4.208 40.754)">
            <path id="path3162" d="M-161.751-14.576a14.152,14.152,0,0,1,3.483.432.884.884,0,0,1,.593.5.884.884,0,0,1-.036.778A12.533,12.533,0,0,0-159.25-6.84a12.542,12.542,0,0,0,1.538,6.021.884.884,0,0,1,.036.777.884.884,0,0,1-.592.5A14.077,14.077,0,0,1-161.751.9a13.019,13.019,0,0,1-12.03-7.374.884.884,0,0,1,0-.724A13.02,13.02,0,0,1-161.751-14.576Zm1.964,1.923a12.51,12.51,0,0,0-1.964-.154A11.307,11.307,0,0,0-172-6.84,11.307,11.307,0,0,0-161.751-.872a12.466,12.466,0,0,0,1.964-.155,14.345,14.345,0,0,1-1.231-5.813A14.339,14.339,0,0,1-159.786-12.653Z" transform="translate(173.858 14.576)" fill="#008db6"/>
          </g>
        </g>
      </g>
    </g>
  </g>
</svg>
