<svg xmlns="http://www.w3.org/2000/svg" xmlns:xlink="http://www.w3.org/1999/xlink" width="101.538" height="101.538" viewBox="0 0 101.538 101.538">
  <defs>
    <filter id="Trazado_874925" x="0" y="0" width="101.538" height="101.538" filterUnits="userSpaceOnUse">
      <feOffset dy="3" input="SourceAlpha"/>
      <feGaussianBlur stdDeviation="3" result="blur"/>
      <feFlood flood-opacity="0.161"/>
      <feComposite operator="in" in2="blur"/>
      <feComposite in="SourceGraphic"/>
    </filter>
  </defs>
  <g id="Grupo_1112841" data-name="Grupo 1112841" transform="translate(-198.051 -1333)">
    <g transform="matrix(1, 0, 0, 1, 198.05, 1333)" filter="url(#Trazado_874925)">
      <g id="Trazado_874925-2" data-name="Trazado 874925" transform="translate(9 6)" fill="#f0e077">
        <path d="M 41.76877975463867 82.03804016113281 C 36.33187484741211 82.03804016113281 31.05838012695312 80.97354888916016 26.09481430053711 78.87413787841797 C 21.29981422424316 76.84602355957031 16.99315643310547 73.94229125976562 13.2944507598877 70.24359893798828 C 9.595756530761719 66.54489135742188 6.692015171051025 62.23823165893555 4.663908958435059 57.44323348999023 C 2.564497470855713 52.47965621948242 1.500003337860107 47.20617294311523 1.500003337860107 41.76925659179688 C 1.500003337860107 36.33186721801758 2.564497470855713 31.05838394165039 4.663908958435059 26.09480857849121 C 6.692015171051025 21.29980850219727 9.595756530761719 16.99314880371094 13.2944507598877 13.29444408416748 C 16.99315643310547 9.595749855041504 21.29981422424316 6.692019939422607 26.09481430053711 4.663902282714844 C 31.05838012695312 2.564490556716919 36.33187484741211 1.499996542930603 41.76877975463867 1.499996542930603 C 47.20569610595703 1.499996542930603 52.47917938232422 2.564490556716919 57.44274520874023 4.663902282714844 C 62.23774337768555 6.692019939422607 66.54441833496094 9.595749855041504 70.24311065673828 13.29444408416748 C 73.94180297851562 16.99314880371094 76.84554290771484 21.29980850219727 78.87364959716797 26.09480857849121 C 80.97306060791016 31.05838394165039 82.03755950927734 36.33186721801758 82.03755950927734 41.76878356933594 C 82.03755950927734 47.20617294311523 80.97306060791016 52.47965621948242 78.87364959716797 57.44323348999023 C 76.84554290771484 62.23823165893555 73.94180297851562 66.54489135742188 70.24311065673828 70.24359893798828 C 66.54441833496094 73.94229125976562 62.23774337768555 76.84602355957031 57.44274520874023 78.87413787841797 C 52.47917938232422 80.97354888916016 47.20569610595703 82.03804016113281 41.76877975463867 82.03804016113281 Z" stroke="none"/>
        <path d="M 41.76877975463867 2.999992370605469 C 36.53369903564453 2.999992370605469 31.45682144165039 4.024620056152344 26.67913818359375 6.04541015625 C 22.06293869018555 7.997886657714844 17.91652679443359 10.79368591308594 14.35511016845703 14.35511016845703 C 10.79368591308594 17.91652679443359 7.997886657714844 22.06293869018555 6.04541015625 26.67913818359375 C 4.024620056152344 31.45682144165039 2.999992370605469 36.53369903564453 2.999992370605469 41.76926040649414 C 2.999992370605469 47.00434112548828 4.024620056152344 52.08122253417969 6.04541015625 56.85890197753906 C 7.997886657714844 61.47509765625 10.79368591308594 65.62149810791016 14.3551025390625 69.18292999267578 C 17.91652679443359 72.74435424804688 22.06293869018555 75.54013824462891 26.67913818359375 77.49262237548828 C 31.45682144165039 79.51340484619141 36.53369903564453 80.53803253173828 41.76877975463867 80.53803253173828 C 47.00386047363281 80.53803253173828 52.08074188232422 79.51340484619141 56.85842132568359 77.49262237548828 C 61.47461700439453 75.54013824462891 65.62101745605469 72.74435424804688 69.18244934082031 69.18292999267578 C 72.74387359619141 65.62149810791016 75.53965759277344 61.47509765625 77.49214172363281 56.85890197753906 C 79.51292419433594 52.08122253417969 80.53755187988281 47.00434112548828 80.53755187988281 41.76877975463867 C 80.53755187988281 36.53369903564453 79.51292419433594 31.45682144165039 77.49214172363281 26.67913818359375 C 75.53965759277344 22.06293869018555 72.74387359619141 17.91652679443359 69.18244934082031 14.3551025390625 C 65.62101745605469 10.79368591308594 61.47461700439453 7.997886657714844 56.85842132568359 6.04541015625 C 52.08074188232422 4.024620056152344 47.00386047363281 2.999992370605469 41.76877975463867 2.999992370605469 M 41.76877975463867 -7.62939453125e-06 C 64.83704376220703 -7.62939453125e-06 83.53755187988281 18.70051574707031 83.53755187988281 41.76877975463867 L 83.53755187988281 41.76926040649414 C 83.53755187988281 64.8375244140625 64.83704376220703 83.53803253173828 41.76877975463867 83.53803253173828 C 18.70051574707031 83.53803253173828 -7.62939453125e-06 64.8375244140625 -7.62939453125e-06 41.76926040649414 L -7.62939453125e-06 41.76877975463867 C -7.62939453125e-06 18.70051574707031 18.70051574707031 -7.62939453125e-06 41.76877975463867 -7.62939453125e-06 Z" stroke="none" fill="#fff"/>
      </g>
    </g>
    <g id="fishing_5727349_1_" data-name="fishing_5727349 (1)" transform="translate(226.02 1356)">
      <g id="Grupo_1108486" data-name="Grupo 1108486" transform="translate(0.72 0.72)">
        <path id="Trazado_939900" data-name="Trazado 939900" d="M230.105,333.592v10.956h-7.611V336a2.616,2.616,0,0,0-.655-1.731l-5.93-6.717h8.156A6.041,6.041,0,0,1,230.105,333.592Z" transform="translate(-196.761 -296.809)" fill="#c4e2ff"/>
        <path id="Trazado_939901" data-name="Trazado 939901" d="M256.6,327.55h-4.7a6.041,6.041,0,0,1,6.041,6.041v10.956h4.7V333.591A6.041,6.041,0,0,0,256.6,327.55Z" transform="translate(-229.294 -296.808)" fill="#b3dafe"/>
        <path id="Trazado_939902" data-name="Trazado 939902" d="M30.761,327.55l-5.93,6.717A2.616,2.616,0,0,0,24.176,336v8.549H16.565V333.59a6.04,6.04,0,0,1,6.04-6.04Z" transform="translate(-16.565 -296.808)" fill="#c4e2ff"/>
        <path id="Trazado_939903" data-name="Trazado 939903" d="M60.968,144.86v4.665H58.5a1.56,1.56,0,0,1-1.534-1.56v-1.544a1.56,1.56,0,0,1,1.534-1.56h2.468Z" transform="translate(-53.085 -131.666)" fill="#ffdfcf"/>
        <path id="Trazado_939904" data-name="Trazado 939904" d="M75.4,144.86v4.665H72.936v-4.663H75.4Z" transform="translate(-67.521 -131.666)" fill="#ffcebf"/>
        <path id="Trazado_939905" data-name="Trazado 939905" d="M107.341,327.55l5.93,6.717a2.616,2.616,0,0,1,.655,1.731v8.549H95.8V336a2.616,2.616,0,0,1,.655-1.731l5.93-6.717h4.951Z" transform="translate(-88.194 -296.808)" fill="#eaf6ff"/>
        <path id="Trazado_939906" data-name="Trazado 939906" d="M284.081,149.529H281.64v-4.665h2.441a1.56,1.56,0,0,1,1.56,1.561v1.544A1.561,1.561,0,0,1,284.081,149.529Z" transform="translate(-256.178 -131.67)" fill="#ffdfcf"/>
        <path id="Trazado_939907" data-name="Trazado 939907" d="M284.081,144.864H281.64a1.56,1.56,0,0,1,1.534,1.559v1.544a1.56,1.56,0,0,1-1.534,1.559h2.441a1.56,1.56,0,0,0,1.56-1.56v-1.544A1.561,1.561,0,0,0,284.081,144.864Z" transform="translate(-256.178 -131.67)" fill="#ffcebf"/>
        <path id="Trazado_939908" data-name="Trazado 939908" d="M169.312,273.161h-4.951v5.18a2.476,2.476,0,1,0,4.951,0Z" transform="translate(-150.165 -247.643)" fill="#ffdfcf"/>
        <path id="Trazado_939909" data-name="Trazado 939909" d="M178.532,273.161v5.18a2.474,2.474,0,0,1-1.242,2.146,2.475,2.475,0,0,0,3.71-2.146v-5.18Z" transform="translate(-161.852 -247.643)" fill="#ffcebf"/>
        <path id="Trazado_939910" data-name="Trazado 939910" d="M116.208,108.8v9.7a6.084,6.084,0,0,1-6.084,6.084h-5.411a6.084,6.084,0,0,1-6.084-6.084v-9.7Z" transform="translate(-90.746 -99.07)" fill="#ffdfcf"/>
        <path id="Trazado_939911" data-name="Trazado 939911" d="M198.693,108.8v9.7a6.084,6.084,0,0,1-6.084,6.084h2.468a6.084,6.084,0,0,0,6.084-6.084v-9.7Z" transform="translate(-175.699 -99.07)" fill="#ffcebf"/>
        <path id="Trazado_939912" data-name="Trazado 939912" d="M56.221,72.672H80.155a.989.989,0,0,0,.619-1.761l-2.592-2.078H58.194L55.6,70.911A.989.989,0,0,0,56.221,72.672Z" transform="translate(-51.516 -62.942)" fill="#b98080"/>
        <path id="Trazado_939913" data-name="Trazado 939913" d="M267.5,72.669H264.46a.989.989,0,0,0,.619-1.761l-2.592-2.079h3.044l2.592,2.079A.989.989,0,0,1,267.5,72.669Z" transform="translate(-238.864 -62.939)" fill="#ae6c6c"/>
        <path id="Trazado_939914" data-name="Trazado 939914" d="M89.721,7.5h12.733a2.611,2.611,0,0,1,2.515,1.909l1.112,3.982H86.094l1.112-3.982A2.611,2.611,0,0,1,89.721,7.5Z" transform="translate(-79.415 -7.5)" fill="#b98080"/>
        <path id="Trazado_939915" data-name="Trazado 939915" d="M231.4,13.391h-3.044L227.242,9.41a2.612,2.612,0,0,0-2.516-1.91h3.044a2.612,2.612,0,0,1,2.516,1.91Z" transform="translate(-204.731 -7.5)" fill="#ae6c6c"/>
        <path id="Trazado_939916" data-name="Trazado 939916" d="M334.512,196.16l-1.677,1.815H330.41a1.267,1.267,0,0,1-1.221-1.608,27.518,27.518,0,0,1,1.4-3.938,7.407,7.407,0,0,1,2.242-3.089Z" transform="translate(-299.118 -171.873)" fill="#fd4755"/>
        <path id="Trazado_939917" data-name="Trazado 939917" d="M347.858,196.16l-1.677,1.815h-1.936a25.086,25.086,0,0,1-.338-4.029q0-.791.033-1.517a7.407,7.407,0,0,1,2.242-3.089Z" transform="translate(-312.463 -171.873)" fill="#fb2b3a"/>
        <path id="Trazado_939918" data-name="Trazado 939918" d="M370.357,106.092s-6.292,0-6.292,12.6a31.167,31.167,0,0,0,3.732,13.927h5.118a31.167,31.167,0,0,0,3.732-13.927C376.648,106.092,370.357,106.092,370.357,106.092Z" transform="translate(-330.686 -96.622)" fill="#b6c4cf"/>
        <path id="Trazado_939919" data-name="Trazado 939919" d="M417.955,106.092a3.7,3.7,0,0,0-1.234.289c1.832.728,5.058,3.289,5.058,12.314a31.167,31.167,0,0,1-3.732,13.927h2.468a31.167,31.167,0,0,0,3.732-13.927C424.246,106.092,417.955,106.092,417.955,106.092Z" transform="translate(-378.284 -96.622)" fill="#a4b6c1"/>
        <path id="Trazado_939920" data-name="Trazado 939920" d="M372.61,382.282h-5.118l-3.41,4.951a2.012,2.012,0,0,0,2.684,2.871l3.285-1.951,3.285,1.951a2.012,2.012,0,0,0,2.684-2.871Z" transform="translate(-330.38 -346.283)" fill="#627ad1"/>
        <path id="Trazado_939921" data-name="Trazado 939921" d="M436.4,387.233l-3.41-4.951H430.52l3.41,4.951a2.011,2.011,0,0,1-.437,2.74l.221.131a2.012,2.012,0,0,0,2.684-2.871Z" transform="translate(-390.758 -346.283)" fill="#4f66d0"/>
        <path id="Trazado_939922" data-name="Trazado 939922" d="M399.389,225.537h2.42a.907.907,0,0,0,.907-.907v-4.8h-2.09a14.828,14.828,0,0,0-2.16,4.511A.955.955,0,0,0,399.389,225.537Z" transform="translate(-361.754 -199.435)" fill="#fd4755"/>
        <path id="Trazado_939923" data-name="Trazado 939923" d="M415.624,219.83v4.8a.907.907,0,0,1-.907.907h1.81a.907.907,0,0,0,.907-.907v-4.8Z" transform="translate(-376.473 -199.435)" fill="#fb2b3a"/>
      </g>
      <g id="Grupo_1108487" data-name="Grupo 1108487" transform="translate(0 0)">
        <path id="Trazado_939924" data-name="Trazado 939924" d="M15.825,320.05a6.768,6.768,0,0,0-6.76,6.76v10.957a.72.72,0,0,0,1.441,0V326.81a5.326,5.326,0,0,1,5.319-5.319.72.72,0,0,0,0-1.441Z" transform="translate(-9.065 -289.308)"/>
        <path id="Trazado_939925" data-name="Trazado 939925" d="M183.355,160.774a.72.72,0,0,0,.72-.72v-.8a.72.72,0,1,0-1.441,0v.8A.72.72,0,0,0,183.355,160.774Z" transform="translate(-165.963 -143.306)"/>
        <path id="Trazado_939926" data-name="Trazado 939926" d="M170.674,207.393a2.555,2.555,0,0,0,3.27,0,.72.72,0,0,0-.922-1.107,1.1,1.1,0,0,1-.713.258,1.112,1.112,0,0,1-.712-.257.72.72,0,0,0-.924,1.106Z" transform="translate(-154.917 -186.321)"/>
        <path id="Trazado_939927" data-name="Trazado 939927" d="M215.314,431.9H213.53a.72.72,0,0,0,0,1.441h1.783a.72.72,0,0,0,0-1.441Z" transform="translate(-193.239 -390.413)"/>
        <path id="Trazado_939928" data-name="Trazado 939928" d="M91.02,41.262l-3.158-4.585A31.585,31.585,0,0,0,91.47,22.823a.739.739,0,0,0-.629-.745.721.721,0,0,0-.812.715A30.581,30.581,0,0,1,86.589,36H82.327a30.511,30.511,0,0,1-3.44-13.206c0-3.4.494-7.974,2.85-10.431a5,5,0,0,1,1.746-1.213l-.547,2.24a.738.738,0,0,0,.509.893.72.72,0,0,0,.884-.526L85,11a4.557,4.557,0,0,1,1.768.968c1.642,1.407,2.712,4.014,3.1,7.539a.72.72,0,1,0,1.432-.156,14.127,14.127,0,0,0-2.671-7.537,2.923,2.923,0,0,0,.833-3.1.7.7,0,1,0-1.325.439l.048.119A1.447,1.447,0,0,1,87.61,10.8l-.01-.009a5.885,5.885,0,0,0-2.421-1.221V6.1a2.541,2.541,0,1,0-1.441,0V9.569A6.077,6.077,0,0,0,80.8,11.257,11.943,11.943,0,0,0,77.84,17.78c-1.726,1.356-2.937,4.617-3.662,7.2a2.034,2.034,0,0,0,.292,1.744,1.974,1.974,0,0,0,1.61.822H77.9a33.137,33.137,0,0,0,3.158,9.135l-2.2,3.2V37.5a6.761,6.761,0,0,0-6.761-6.761H64.656v-3.8a6.812,6.812,0,0,0,6.314-6.785V19.3H72.69a2.281,2.281,0,0,0,2.281-2.281V15.475a2.281,2.281,0,0,0-2.281-2.281H70.969V11.171h2.414a1.746,1.746,0,0,0,1.647-1.116A1.691,1.691,0,0,0,74.5,8.128L72.084,6.195,71.035,2.436A3.342,3.342,0,0,0,67.826,0H55.093a3.342,3.342,0,0,0-3.209,2.436L50.834,6.195,48.457,8.1a1.746,1.746,0,0,0-.569,1.949,1.69,1.69,0,0,0,1.605,1.121h2.457v2.023H50.229a2.281,2.281,0,0,0-2.281,2.281v1.544A2.281,2.281,0,0,0,50.229,19.3h1.721v.854a6.812,6.812,0,0,0,6.314,6.785v3.8H54.239a.74.74,0,0,0-.75.7.72.72,0,0,0,.72.742h3.178L52.513,37.7a3.334,3.334,0,0,0-.835,2.208v8.519a.74.74,0,0,0,.7.75.72.72,0,0,0,.743-.72V39.911a1.894,1.894,0,0,1,.475-1.254l5.052-5.723a3.195,3.195,0,0,0,5.627,0l5.052,5.723a1.9,1.9,0,0,1,.474,1.254v8.519a.74.74,0,0,0,.7.75.72.72,0,0,0,.743-.72V39.911a3.336,3.336,0,0,0-.835-2.208l-4.873-5.52h6.558a5.32,5.32,0,0,1,5.32,5.32V48.429a.74.74,0,0,0,.7.75.72.72,0,0,0,.743-.72v-3.24a2.723,2.723,0,0,0,2.688-.058l2.917-1.733,2.917,1.733a2.732,2.732,0,0,0,3.645-3.9Zm-7.663-37.6a1.1,1.1,0,1,1,1.1,1.1A1.1,1.1,0,0,1,83.358,3.666ZM70.969,14.635H72.69a.841.841,0,0,1,.84.84v1.544a.841.841,0,0,1-.84.84H70.969ZM53.271,2.823a1.9,1.9,0,0,1,1.821-1.383H67.826a1.9,1.9,0,0,1,1.821,1.383L70.5,5.891H66.94l-.264-1.222a.72.72,0,0,0-1.408.3l.2.918H57.452l.2-.918a.72.72,0,0,0-1.408-.3l-.264,1.222H52.415ZM49.239,9.551a.254.254,0,0,1,.085-.3l2.395-1.92H71.2l2.395,1.92a.269.269,0,0,1-.168.478H49.492A.254.254,0,0,1,49.239,9.551Zm.15,7.469V15.475a.841.841,0,0,1,.84-.84h1.721v3.224H50.229A.841.841,0,0,1,49.389,17.019Zm4,3.135V11.171H69.528v8.983a5.37,5.37,0,0,1-5.364,5.364H58.754A5.37,5.37,0,0,1,53.39,20.154Zm9.824,11.265a1.755,1.755,0,0,1-3.511,0v-4.46h3.511ZM76.08,26.1a.547.547,0,0,1-.527-.694A21.677,21.677,0,0,1,77.526,20.4q-.08,1.14-.08,2.391a25.414,25.414,0,0,0,.222,3.309H76.08ZM89.544,43.846a1.287,1.287,0,0,1-1.434.077l-3.285-1.951a.72.72,0,0,0-.736,0L80.8,43.922a1.291,1.291,0,0,1-1.723-1.843l3.2-4.639h4.361l3.2,4.639a1.288,1.288,0,0,1-.289,1.766Z" transform="translate(-44.067 0)"/>
        <path id="Trazado_939929" data-name="Trazado 939929" d="M391.282,218.827a1.663,1.663,0,0,0,1.325.65h2.42a1.63,1.63,0,0,0,1.628-1.628v-4.079h.639a.72.72,0,1,0,0-1.441h-5.641a.72.72,0,0,0,0,1.441h.87a14.72,14.72,0,0,0-1.536,3.609A1.665,1.665,0,0,0,391.282,218.827Zm1.1-1.084a14.044,14.044,0,0,1,1.84-3.972h.993v4.079a.187.187,0,0,1-.187.187h-2.419a.234.234,0,0,1-.226-.293Z" transform="translate(-354.251 -191.935)"/>
        <circle id="Elipse_11724" data-name="Elipse 11724" cx="0.719" cy="0.719" r="0.719" transform="translate(40.875 15.176) rotate(-45)"/>
      </g>
    </g>
  </g>
</svg>
