<svg xmlns="http://www.w3.org/2000/svg" width="82" height="82" viewBox="0 0 82 82">
  <g id="Grupo_1112788" data-name="Grupo 1112788" transform="translate(-233.051 -505)">
    <circle id="Elipse_11802" data-name="Elipse 11802" cx="41" cy="41" r="41" transform="translate(233.051 505)" fill="#f0e077"/>
    <g id="ahorrar-agua" transform="translate(245.551 517.46)">
      <g id="Grupo_1112781" data-name="Grupo 1112781" transform="translate(7.655 45.096)">
        <g id="Grupo_1112780" data-name="Grupo 1112780">
          <path id="Trazado_979881" data-name="Trazado 979881" d="M71.844,410.994a1.1,1.1,0,1,0-.776,1.345A1.1,1.1,0,0,0,71.844,410.994Z" transform="translate(-69.685 -410.18)" fill="#008db6"/>
          <path id="Trazado_979881_-_Contorno" data-name="Trazado 979881 - Contorno" d="M70.784,409.68h0a1.6,1.6,0,1,1-.415.055A1.6,1.6,0,0,1,70.784,409.68Zm0,2.2a.6.6,0,0,0,.156-.021.6.6,0,0,0-.155-1.177.6.6,0,0,0,0,1.2Z" transform="translate(-69.685 -410.18)" fill="#008db6"/>
        </g>
      </g>
      <g id="Grupo_1112783" data-name="Grupo 1112783" transform="translate(0 30.199)">
        <g id="Grupo_1112782" data-name="Grupo 1112782" transform="translate(0)">
          <path id="Trazado_979882" data-name="Trazado 979882" d="M55.982,289.439a4.405,4.405,0,0,0-5.569-2.662l-9.1,2.317a4.393,4.393,0,0,0-2.082-4.809l-15.545-8.976a5.456,5.456,0,0,0-4.167-.548l-9.037,2.421a3.293,3.293,0,0,0-3.3-.976L.814,277.912a1.1,1.1,0,0,0-.777,1.345l4.549,16.974a1.1,1.1,0,0,0,1.345.776L12.3,295.3a3.316,3.316,0,0,0,2.381-2.56l1.544-.385a3.283,3.283,0,0,1,2.446.346l11.538,6.618a9.834,9.834,0,0,0,7.372,1.022c.027-.007.053-.015.079-.023l15.658-5.25.023-.008A4.4,4.4,0,0,0,55.982,289.439Zm-44.253,3.742-5.3,1.421L2.444,279.75l2.122-.569,1.99,7.426a1.1,1.1,0,0,0,2.122-.569l-1.99-7.426,1.061-.284a1.1,1.1,0,0,1,1.346.776l3.411,12.733A1.1,1.1,0,0,1,11.728,293.181Zm40.875-.189L37,298.224a7.65,7.65,0,0,1-5.7-.806L19.763,290.8a5.468,5.468,0,0,0-4.072-.573l-1.259.314L11.4,279.212l8.691-2.329a3.273,3.273,0,0,1,2.5.329l15.545,8.976a2.2,2.2,0,0,1-2.2,3.8L26.424,284.5a1.1,1.1,0,1,0-1.1,1.9l9.511,5.491a4.367,4.367,0,0,0,4.395,0c12.5-3.184,11.776-2.994,11.87-3.028a2.2,2.2,0,0,1,1.5,4.129Z" transform="translate(0 -274.571)" fill="#008db6"/>
          <path id="Trazado_979882_-_Contorno" data-name="Trazado 979882 - Contorno" d="M35.136,301.149h0a10.379,10.379,0,0,1-5.18-1.395l-11.537-6.617a2.784,2.784,0,0,0-2.076-.294l-1.251.311a3.827,3.827,0,0,1-2.666,2.631l-6.364,1.706a1.6,1.6,0,0,1-1.958-1.13L-.445,279.387a1.6,1.6,0,0,1,1.13-1.958l6.366-1.706a3.793,3.793,0,0,1,3.583.9l8.755-2.346a5.959,5.959,0,0,1,4.547.6l15.545,8.976a4.846,4.846,0,0,1,2.066,2.343,4.946,4.946,0,0,1,.37,2.229L50.27,286.3a4.866,4.866,0,0,1,1.57-.26,4.892,4.892,0,0,1,1.667,9.5l-.036.013-15.655,5.249c-.036.012-.075.023-.114.034A10.45,10.45,0,0,1,35.136,301.149Zm-18.117-9.39a3.8,3.8,0,0,1,1.9.511l11.537,6.617a9.379,9.379,0,0,0,4.681,1.261h0a9.445,9.445,0,0,0,2.319-.291l.043-.013,15.669-5.254a3.893,3.893,0,0,0-2.591-7.343l-.04.012-9.9,2.521.19-.8a3.921,3.921,0,0,0-.2-2.4,3.855,3.855,0,0,0-1.644-1.863l-15.545-8.976a4.96,4.96,0,0,0-3.788-.5l-9.334,2.5-.205-.228a2.792,2.792,0,0,0-2.8-.827L.944,278.4a.6.6,0,0,0-.423.733L5.07,296.1a.6.6,0,0,0,.733.423l6.365-1.706a2.82,2.82,0,0,0,2.019-2.174l.061-.312,1.853-.461A3.808,3.808,0,0,1,17.02,291.759Zm18.12,7.193a8.191,8.191,0,0,1-4.088-1.1l-11.537-6.618a4.971,4.971,0,0,0-3.7-.522l-1.736.432-3.291-12.286,9.174-2.458a3.775,3.775,0,0,1,2.88.378l15.545,8.976a2.7,2.7,0,1,1-2.7,4.67l-9.511-5.491a.6.6,0,1,0-.6,1.036l9.511,5.491a3.867,3.867,0,0,0,3.894,0l.06-.035.067-.017,9.622-2.45c1.646-.419,2.1-.535,2.189-.559l.014-.005a2.7,2.7,0,0,1,1.842,5.07l-.013,0-15.643,5.243A8.23,8.23,0,0,1,35.14,298.952Zm-18.117-9.39a5.994,5.994,0,0,1,2.99.8l11.538,6.618a7.153,7.153,0,0,0,5.309.759l15.578-5.223a1.7,1.7,0,0,0-1.159-3.19c-.058.024-.177.054-2.3.595l-9.556,2.433a4.866,4.866,0,0,1-4.833-.032l-9.511-5.491a1.6,1.6,0,0,1-.585-2.183,1.6,1.6,0,0,1,2.183-.585l9.511,5.492a1.7,1.7,0,1,0,1.7-2.938l-15.545-8.976a2.775,2.775,0,0,0-2.121-.279l-8.208,2.2,2.778,10.371.783-.195A6.022,6.022,0,0,1,17.023,289.562ZM6.071,295.215,1.831,279.4l3.088-.827,2.12,7.909a.6.6,0,0,0,1.156-.31l-2.12-7.909,1.544-.414a1.6,1.6,0,0,1,1.958,1.128l3.411,12.735a1.6,1.6,0,0,1-1.131,1.956ZM3.056,280.1,6.778,293.99,11.6,292.7a.6.6,0,0,0,.363-.281.586.586,0,0,0,.061-.448L8.611,279.234a.6.6,0,0,0-.733-.423l-.578.155,1.861,6.943a1.6,1.6,0,1,1-3.088.828l-1.861-6.943Z" transform="translate(0 -274.571)" fill="#008db6"/>
        </g>
      </g>
      <g id="Grupo_1112785" data-name="Grupo 1112785" transform="translate(32.08 0.04)">
        <g id="Grupo_1112784" data-name="Grupo 1112784" transform="translate(0 0)">
          <path id="Trazado_979883" data-name="Trazado 979883" d="M314.158,14.872,305.027.548a1.1,1.1,0,0,0-1.852,0l-9.132,14.324c-5.359,8.039.591,19.106,10.058,19.106C313.545,33.978,319.532,22.933,314.158,14.872ZM304.1,31.781c-7.645,0-12.653-9.07-8.225-15.7l.013-.02L304.1,3.181l8.212,12.881.013.02C316.738,22.688,311.791,31.781,304.1,31.781Z" transform="translate(-292.019 -0.04)" fill="#008db6"/>
          <path id="Trazado_979883_-_Contorno" data-name="Trazado 979883 - Contorno" d="M304.1-.46a1.591,1.591,0,0,1,1.348.739l9.129,14.32a12.467,12.467,0,0,1,2.105,6.665,13.258,13.258,0,0,1-6.013,11.292,12.188,12.188,0,0,1-13.138,0,13.261,13.261,0,0,1-6.01-11.294,12.458,12.458,0,0,1,2.1-6.663L302.753.279A1.591,1.591,0,0,1,304.1-.46Zm0,33.938a11.144,11.144,0,0,0,6.029-1.764,12.258,12.258,0,0,0,5.553-10.43,11.468,11.468,0,0,0-1.94-6.134l-.006-.009L304.605.817a.6.6,0,0,0-1.009,0L294.459,15.15a11.461,11.461,0,0,0-1.937,6.133,12.261,12.261,0,0,0,5.55,10.432A11.144,11.144,0,0,0,304.1,33.478Zm0-31.227,8.642,13.555a10.281,10.281,0,0,1,1.741,5.52,11.033,11.033,0,0,1-4.973,9.358,9.943,9.943,0,0,1-10.813,0,11.047,11.047,0,0,1-4.979-9.357A10.271,10.271,0,0,1,295.46,15.8l0-.007Zm0,29.03a8.959,8.959,0,0,0,4.868-1.437,10.033,10.033,0,0,0,4.516-8.5,9.283,9.283,0,0,0-1.574-4.985l0-.005-.018-.027L304.1,4.111l-7.79,12.22-.019.029a9.273,9.273,0,0,0-1.574,4.983,10.047,10.047,0,0,0,4.522,8.5A8.939,8.939,0,0,0,304.1,31.281Z" transform="translate(-292.019 -0.04)" fill="#008db6"/>
        </g>
      </g>
      <g id="Grupo_1112787" data-name="Grupo 1112787" transform="translate(43.063 16.816)">
        <g id="Grupo_1112786" data-name="Grupo 1112786">
          <path id="Trazado_979884" data-name="Trazado 979884" d="M399.5,153.235a1.1,1.1,0,1,0-1.827,1.22,5.461,5.461,0,0,1,.919,3.043,5.812,5.812,0,0,1-5.492,5.821,1.1,1.1,0,1,0,0,2.2,7.963,7.963,0,0,0,7.688-8.018A7.652,7.652,0,0,0,399.5,153.235Z" transform="translate(-391.999 -152.746)" fill="#008db6"/>
          <path id="Trazado_979884_-_Contorno" data-name="Trazado 979884 - Contorno" d="M398.583,152.246a1.6,1.6,0,0,1,1.33.711,8.15,8.15,0,0,1,1.373,4.54,8.47,8.47,0,0,1-8.188,8.518,1.6,1.6,0,1,1,0-3.2,4.858,4.858,0,0,0,3.479-1.591,5.507,5.507,0,0,0,1.512-3.73,4.963,4.963,0,0,0-.835-2.765,1.6,1.6,0,0,1,1.328-2.486ZM393.1,165.016a7.457,7.457,0,0,0,7.188-7.518,7.153,7.153,0,0,0-1.2-3.985.6.6,0,1,0-1,.664,5.96,5.96,0,0,1,1,3.321,6.516,6.516,0,0,1-1.785,4.417,5.86,5.86,0,0,1-4.206,1.9.6.6,0,1,0,0,1.2Z" transform="translate(-391.999 -152.746)" fill="#008db6"/>
        </g>
      </g>
    </g>
  </g>
</svg>
