<svg xmlns="http://www.w3.org/2000/svg" xmlns:xlink="http://www.w3.org/1999/xlink" width="108.914" height="108.914" viewBox="0 0 108.914 108.914">
  <defs>
    <filter id="Trazado_874925" x="0" y="0" width="108.914" height="108.914" filterUnits="userSpaceOnUse">
      <feOffset dy="3" input="SourceAlpha"/>
      <feGaussianBlur stdDeviation="3" result="blur"/>
      <feFlood flood-opacity="0.161"/>
      <feComposite operator="in" in2="blur"/>
      <feComposite in="SourceGraphic"/>
    </filter>
  </defs>
  <g id="Grupo_1112816" data-name="Grupo 1112816" transform="translate(3034 7018)">
    <g transform="matrix(1, 0, 0, 1, -3034, -7018)" filter="url(#Trazado_874925)">
      <g id="Trazado_874925-2" data-name="Trazado 874925" transform="translate(9 6)" fill="#cbe7f0">
        <path d="M 45.45676803588867 89.41407012939453 C 39.52198028564453 89.41407012939453 33.76551818847656 88.25206756591797 28.34726715087891 85.96034240722656 C 23.11311721801758 83.74648284912109 18.41204261779785 80.57682800292969 14.37464332580566 76.5394287109375 C 10.33724308013916 72.50202941894531 7.167593002319336 67.80095672607422 4.953730583190918 62.56679534912109 C 2.662005424499512 57.14855575561523 1.500005483627319 51.39208221435547 1.500005483627319 45.45729446411133 C 1.500005483627319 39.52198028564453 2.662005424499512 33.76551818847656 4.953730583190918 28.34726905822754 C 7.167593002319336 23.11310577392578 10.33724308013916 18.41203117370605 14.37464332580566 14.37464332580566 C 18.41204261779785 10.33724403381348 23.11311721801758 7.167593955993652 28.34726715087891 4.953731060028076 C 33.76551818847656 2.662006139755249 39.52198028564453 1.500006198883057 45.45676803588867 1.500006198883057 C 51.39155578613281 1.500006198883057 57.14802932739258 2.662006139755249 62.56626892089844 4.953731060028076 C 67.80043029785156 7.167593955993652 72.50150299072266 10.33724403381348 76.53890228271484 14.37464332580566 C 80.57630920410156 18.41203117370605 83.74595642089844 23.11310577392578 85.95981597900391 28.34726905822754 C 88.25154113769531 33.76551818847656 89.41354370117188 39.52198028564453 89.41354370117188 45.45676803588867 C 89.41354370117188 51.39208221435547 88.25154113769531 57.14855575561523 85.95981597900391 62.56679534912109 C 83.74595642089844 67.80095672607422 80.57630920410156 72.50202941894531 76.53890228271484 76.5394287109375 C 72.50150299072266 80.57682800292969 67.80043029785156 83.74648284912109 62.56626892089844 85.96034240722656 C 57.14802932739258 88.25206756591797 51.39155578613281 89.41407012939453 45.45676803588867 89.41407012939453 Z" stroke="none"/>
        <path d="M 45.45676803588867 3 C 39.72381210327148 3 34.1639404296875 4.12213134765625 28.93159484863281 6.335227966308594 C 23.87622833251953 8.473472595214844 19.33542633056641 11.53517150878906 15.43529510498047 15.435302734375 C 11.53517150878906 19.33543395996094 8.473464965820312 23.87622833251953 6.335227966308594 28.93160247802734 C 4.122123718261719 34.16394424438477 3 39.72381591796875 3 45.4572868347168 C 3 51.19024658203125 4.122123718261719 56.75011825561523 6.335227966308594 61.98246002197266 C 8.473464965820312 67.03782653808594 11.53517150878906 71.57862854003906 15.43529510498047 75.478759765625 C 19.33542633056641 79.37889099121094 23.87622833251953 82.44058990478516 28.93159484863281 84.57883453369141 C 34.1639404296875 86.79193115234375 39.72381210327148 87.9140625 45.45676803588867 87.9140625 C 51.18972396850586 87.9140625 56.74959564208984 86.79193115234375 61.98194122314453 84.57883453369141 C 67.03730773925781 82.44058990478516 71.57810974121094 79.37889099121094 75.47824096679688 75.478759765625 C 79.37837219238281 71.57862854003906 82.44007110595703 67.03782653808594 84.57830810546875 61.98246002197266 C 86.79141235351562 56.75011825561523 87.91353607177734 51.19024658203125 87.91353607177734 45.4567756652832 C 87.91353607177734 39.72381591796875 86.79141235351562 34.16394424438477 84.57830810546875 28.93160247802734 C 82.44007110595703 23.87622833251953 79.37837219238281 19.33543395996094 75.47824096679688 15.435302734375 C 71.57810974121094 11.53517150878906 67.03730773925781 8.473472595214844 61.98194122314453 6.335227966308594 C 56.74959564208984 4.12213134765625 51.18972396850586 3 45.45676803588867 3 M 45.45676803588867 0 C 70.56185150146484 0 90.91353607177734 20.35169219970703 90.91353607177734 45.4567756652832 L 90.91353607177734 45.4572868347168 C 90.91353607177734 70.5623779296875 70.56185150146484 90.9140625 45.45676803588867 90.9140625 C 20.3516845703125 90.9140625 0 70.5623779296875 0 45.4572868347168 L 0 45.4567756652832 C 0 20.35169219970703 20.3516845703125 0 45.45676803588867 0 Z" stroke="none" fill="#fff"/>
      </g>
    </g>
    <g id="Layer_x0020_1" transform="translate(-3050.376 -6997)">
      <path id="Trazado_979927" data-name="Trazado 979927" d="M52.625,16.7a1.176,1.176,0,0,1-1.176-1.176V6.1a1.159,1.159,0,0,0-2.317.009v9.418a1.176,1.176,0,0,1-2.352,0V8.882a1.159,1.159,0,1,0-2.317,0V32.361H60.8v-5a1.175,1.175,0,0,1,.342-.834l6.24-6.24a1.394,1.394,0,0,0,.413-.992,1.374,1.374,0,0,0-.413-.983A1.359,1.359,0,0,0,66.4,17.9a1.394,1.394,0,0,0-.992.413l-2.6,2.6a1.178,1.178,0,0,1-2.01-.834V7.32a1.159,1.159,0,0,0-2.317,0v8.206a1.181,1.181,0,0,1-2.361,0V3.52a1.154,1.154,0,1,0-2.308,0V15.526A1.184,1.184,0,0,1,52.625,16.7ZM90.217,62.413H74.058a1.176,1.176,0,0,1-1.176-1.176V55.313h-3.3v5.924A1.178,1.178,0,0,1,68.4,62.413H52.239a1.173,1.173,0,0,1-.922-.448l-5.178-6.574a1.168,1.168,0,0,1-.255-.728V48.247a1.159,1.159,0,0,1,.316-.8l4.248-4.564a1.2,1.2,0,0,1,.86-.377H91.147a1.183,1.183,0,0,1,.86.377l4.248,4.564a1.136,1.136,0,0,1,.316.8v6.416a1.214,1.214,0,0,1-.246.728l-5.178,6.574A1.2,1.2,0,0,1,90.217,62.413ZM75.235,60.052H89.646l4.573-5.793V52.688H90.761l-3.73,3.73a1.176,1.176,0,1,1-1.659-1.668l4.073-4.073a1.175,1.175,0,0,1,.834-.342h3.941V48.712l-3.581-3.844H51.826l-3.59,3.844v1.624h3.941a1.175,1.175,0,0,1,.834.342l4.081,4.073a1.176,1.176,0,0,1-.834,2.01,1.168,1.168,0,0,1-.834-.342l-3.73-3.73H48.237v1.571l4.573,5.793H67.221V54.136A1.176,1.176,0,0,1,68.4,52.96h5.661a1.176,1.176,0,0,1,1.176,1.176Zm-.246-10.629H67.467a1.176,1.176,0,1,1,0-2.352h7.522a1.176,1.176,0,1,1,0,2.352Zm4.318-16.044V27.841l-5.9-5.9a3.749,3.749,0,0,1,5.3-5.3l.6.6V7.32a3.521,3.521,0,0,1,3.511-3.511A3.564,3.564,0,0,1,83.976,4V3.52a3.515,3.515,0,0,1,6.96-.7A3.585,3.585,0,0,1,92.165,2.6a3.53,3.53,0,0,1,3.476,2.975,3.553,3.553,0,0,1,1.194-.211,3.517,3.517,0,0,1,3.511,3.52v24.5l1.694,6.249A1.183,1.183,0,0,1,100.9,41.12H78.754a1.183,1.183,0,0,1-1.132-1.492Zm2.352-1.018H97.993V8.882a1.159,1.159,0,0,0-2.317,0v6.644a1.176,1.176,0,1,1-2.352,0V6.109a1.159,1.159,0,0,0-2.317,0v9.418a1.176,1.176,0,1,1-2.352,0V3.52a1.159,1.159,0,1,0-2.317,0V15.526a1.181,1.181,0,0,1-2.361,0V7.32a1.159,1.159,0,1,0-2.317,0V20.082a1.157,1.157,0,0,1-.72,1.08,1.177,1.177,0,0,1-1.29-.255l-2.6-2.6a1.388,1.388,0,0,0-1.975,0,1.366,1.366,0,0,0-.4.983,1.386,1.386,0,0,0,.4.992l6.24,6.24a1.175,1.175,0,0,1,.342.834Zm-1.369,6.4H99.362l-1.088-4.046H81.387Zm-38.18-5.38V8.882a3.517,3.517,0,0,1,3.511-3.52,3.644,3.644,0,0,1,1.2.211,3.515,3.515,0,0,1,4.7-2.756,3.515,3.515,0,0,1,6.96.7V4a3.6,3.6,0,0,1,1.159-.193A3.521,3.521,0,0,1,63.149,7.32v9.918l.6-.6a3.749,3.749,0,0,1,5.3,5.3l-5.9,5.9v5.538l1.668,6.179a1.065,1.065,0,0,1,.061.377A1.184,1.184,0,0,1,63.7,41.12H41.557a1.183,1.183,0,0,1-1.141-1.492Zm.983,5.38H62.166l-1.1-4.046H44.19Z" transform="translate(0)" fill="#008db6" fill-rule="evenodd"/>
    </g>
  </g>
</svg>
