<svg xmlns="http://www.w3.org/2000/svg" width="90" height="90" viewBox="0 0 90 90">
  <g id="Grupo_1112846" data-name="Grupo 1112846" transform="translate(-1230.051 -5958)">
    <g id="Grupo_404642" data-name="Grupo 404642" transform="translate(0 0.492)" opacity="0.859">
      <rect id="Rect치ngulo_404642" data-name="Rect치ngulo 404642" width="90" height="90" rx="45" transform="translate(1230.051 5957.508)" fill="#f1de5f"/>
      <path id="Rect치ngulo_404642_-_Contorno" data-name="Rect치ngulo 404642 - Contorno" d="M45,3A42.012,42.012,0,0,0,28.653,83.7,42.012,42.012,0,0,0,61.347,6.3,41.734,41.734,0,0,0,45,3m0-3A45,45,0,0,1,90,45h0A45,45,0,0,1,0,45H0A45,45,0,0,1,45,0Z" transform="translate(1230.051 5957.508)" fill="#fff"/>
    </g>
    <path id="Trazado_979938" data-name="Trazado 979938" d="M-20.347,0h-5.133V-25.594h5.133ZM3.929-8.473l.035.105a8.012,8.012,0,0,1-2.5,6.416A10.177,10.177,0,0,1-5.616.369a9.813,9.813,0,0,1-7.436-2.962,10.625,10.625,0,0,1-2.83-7.655v-5.08a10.82,10.82,0,0,1,2.76-7.655A9.409,9.409,0,0,1-5.88-25.963a10.8,10.8,0,0,1,7.313,2.285A7.867,7.867,0,0,1,4-17.244l-.035.105H-1.028A5.032,5.032,0,0,0-2.215-20.8a4.949,4.949,0,0,0-3.665-1.2,4.138,4.138,0,0,0-3.595,1.854,8.2,8.2,0,0,0-1.292,4.79v5.115A7.96,7.96,0,0,0-9.4-5.432,4.428,4.428,0,0,0-5.616-3.568a4.506,4.506,0,0,0,3.437-1.2,5.238,5.238,0,0,0,1.134-3.7ZM20.979-5.52h-8.3L10.96,0H5.6l8.631-25.594h5.256L28.081,0H22.72ZM13.948-9.545h5.783L16.9-18.562H16.8Z" transform="translate(1275.051 6015)" fill="#008db6"/>
  </g>
</svg>
