<svg xmlns="http://www.w3.org/2000/svg" xmlns:xlink="http://www.w3.org/1999/xlink" width="108.914" height="108.914" viewBox="0 0 108.914 108.914">
  <defs>
    <filter id="Trazado_874925" x="0" y="0" width="108.914" height="108.914" filterUnits="userSpaceOnUse">
      <feOffset dy="3" input="SourceAlpha"/>
      <feGaussianBlur stdDeviation="3" result="blur"/>
      <feFlood flood-opacity="0.161"/>
      <feComposite operator="in" in2="blur"/>
      <feComposite in="SourceGraphic"/>
    </filter>
    <clipPath id="clip-path">
      <path id="path41" d="M0-682.665H62.59v62.59H0Z" transform="translate(0 682.665)" fill="#008db6"/>
    </clipPath>
  </defs>
  <g id="Grupo_1112817" data-name="Grupo 1112817" transform="translate(2716 7018)">
    <g transform="matrix(1, 0, 0, 1, -2716, -7018)" filter="url(#Trazado_874925)">
      <g id="Trazado_874925-2" data-name="Trazado 874925" transform="translate(9 6)" fill="#cbe7f0">
        <path d="M 45.45676803588867 89.41407012939453 C 39.52198028564453 89.41407012939453 33.76551818847656 88.25206756591797 28.34726715087891 85.96034240722656 C 23.11311721801758 83.74648284912109 18.41204261779785 80.57682800292969 14.37464332580566 76.5394287109375 C 10.33724308013916 72.50202941894531 7.167593002319336 67.80095672607422 4.953730583190918 62.56679534912109 C 2.662005424499512 57.14855575561523 1.500005483627319 51.39208221435547 1.500005483627319 45.45729446411133 C 1.500005483627319 39.52198028564453 2.662005424499512 33.76551818847656 4.953730583190918 28.34726905822754 C 7.167593002319336 23.11310577392578 10.33724308013916 18.41203117370605 14.37464332580566 14.37464332580566 C 18.41204261779785 10.33724403381348 23.11311721801758 7.167593955993652 28.34726715087891 4.953731060028076 C 33.76551818847656 2.662006139755249 39.52198028564453 1.500006198883057 45.45676803588867 1.500006198883057 C 51.39155578613281 1.500006198883057 57.14802932739258 2.662006139755249 62.56626892089844 4.953731060028076 C 67.80043029785156 7.167593955993652 72.50150299072266 10.33724403381348 76.53890228271484 14.37464332580566 C 80.57630920410156 18.41203117370605 83.74595642089844 23.11310577392578 85.95981597900391 28.34726905822754 C 88.25154113769531 33.76551818847656 89.41354370117188 39.52198028564453 89.41354370117188 45.45676803588867 C 89.41354370117188 51.39208221435547 88.25154113769531 57.14855575561523 85.95981597900391 62.56679534912109 C 83.74595642089844 67.80095672607422 80.57630920410156 72.50202941894531 76.53890228271484 76.5394287109375 C 72.50150299072266 80.57682800292969 67.80043029785156 83.74648284912109 62.56626892089844 85.96034240722656 C 57.14802932739258 88.25206756591797 51.39155578613281 89.41407012939453 45.45676803588867 89.41407012939453 Z" stroke="none"/>
        <path d="M 45.45676803588867 3 C 39.72381210327148 3 34.1639404296875 4.12213134765625 28.93159484863281 6.335227966308594 C 23.87622833251953 8.473472595214844 19.33542633056641 11.53517150878906 15.43529510498047 15.435302734375 C 11.53517150878906 19.33543395996094 8.473464965820312 23.87622833251953 6.335227966308594 28.93160247802734 C 4.122123718261719 34.16394424438477 3 39.72381591796875 3 45.4572868347168 C 3 51.19024658203125 4.122123718261719 56.75011825561523 6.335227966308594 61.98246002197266 C 8.473464965820312 67.03782653808594 11.53517150878906 71.57862854003906 15.43529510498047 75.478759765625 C 19.33542633056641 79.37889099121094 23.87622833251953 82.44058990478516 28.93159484863281 84.57883453369141 C 34.1639404296875 86.79193115234375 39.72381210327148 87.9140625 45.45676803588867 87.9140625 C 51.18972396850586 87.9140625 56.74959564208984 86.79193115234375 61.98194122314453 84.57883453369141 C 67.03730773925781 82.44058990478516 71.57810974121094 79.37889099121094 75.47824096679688 75.478759765625 C 79.37837219238281 71.57862854003906 82.44007110595703 67.03782653808594 84.57830810546875 61.98246002197266 C 86.79141235351562 56.75011825561523 87.91353607177734 51.19024658203125 87.91353607177734 45.4567756652832 C 87.91353607177734 39.72381591796875 86.79141235351562 34.16394424438477 84.57830810546875 28.93160247802734 C 82.44007110595703 23.87622833251953 79.37837219238281 19.33543395996094 75.47824096679688 15.435302734375 C 71.57810974121094 11.53517150878906 67.03730773925781 8.473472595214844 61.98194122314453 6.335227966308594 C 56.74959564208984 4.12213134765625 51.18972396850586 3 45.45676803588867 3 M 45.45676803588867 0 C 70.56185150146484 0 90.91353607177734 20.35169219970703 90.91353607177734 45.4567756652832 L 90.91353607177734 45.4572868347168 C 90.91353607177734 70.5623779296875 70.56185150146484 90.9140625 45.45676803588867 90.9140625 C 20.3516845703125 90.9140625 0 70.5623779296875 0 45.4572868347168 L 0 45.4567756652832 C 0 20.35169219970703 20.3516845703125 0 45.45676803588867 0 Z" stroke="none" fill="#fff"/>
      </g>
    </g>
    <g id="g15" transform="translate(-2693 -6315.335)">
      <g id="g17" transform="translate(23.708 -674.543)">
        <path id="path19" d="M-9.083,19.839A.917.917,0,0,1-10,18.923V-9.083A.917.917,0,0,1-9.083-10a.917.917,0,0,1,.917.917V18.923A.917.917,0,0,1-9.083,19.839Z" transform="translate(10 10)" fill="#008db6"/>
      </g>
      <g id="g21" transform="translate(14.058 -674.543)">
        <path id="path23" d="M-9.083-285.618a.917.917,0,0,1-.917-.917v-28.006a.917.917,0,0,1,.917-.917.917.917,0,0,1,.917.917v28.006A.917.917,0,0,1-9.083-285.618Z" transform="translate(10 315.458)" fill="#008db6"/>
      </g>
      <g id="g25" transform="translate(14.058 -667.831)">
        <path id="path27" d="M.57-8.166H-9.083A.917.917,0,0,1-10-9.083.917.917,0,0,1-9.083-10H.57a.917.917,0,0,1,.917.917A.917.917,0,0,1,.57-8.166Z" transform="translate(10 10)" fill="#008db6"/>
      </g>
      <g id="g29" transform="translate(14.058 -659.88)">
        <path id="path31" d="M.57-8.166H-9.083A.917.917,0,0,1-10-9.083.917.917,0,0,1-9.083-10H.57a.917.917,0,0,1,.917.917A.917.917,0,0,1,.57-8.166Z" transform="translate(10 10)" fill="#008db6"/>
      </g>
      <g id="g33" transform="translate(14.058 -651.929)">
        <path id="path35" d="M.57-8.166H-9.083A.917.917,0,0,1-10-9.083.917.917,0,0,1-9.083-10H.57a.917.917,0,0,1,.917.917A.917.917,0,0,1,.57-8.166Z" transform="translate(10 10)" fill="#008db6"/>
      </g>
      <g id="g37" transform="translate(0 -682.665)">
        <g id="g39" clip-path="url(#clip-path)">
          <g id="g45" transform="translate(6.002 4.142)">
            <path id="path47" d="M-397.133-47.582h-6.9a.917.917,0,0,1-.917-.917.917.917,0,0,1,.917-.917h6.9a1.074,1.074,0,0,0,1.072-1.072,1.074,1.074,0,0,0-1.072-1.072h-44.773a1.074,1.074,0,0,0-1.072,1.072,1.074,1.074,0,0,0,1.072,1.072h34.183a.917.917,0,0,1,.917.917.917.917,0,0,1-.917.917h-34.183a2.909,2.909,0,0,1-2.906-2.906,2.909,2.909,0,0,1,2.906-2.906h44.773a2.909,2.909,0,0,1,2.906,2.906A2.909,2.909,0,0,1-397.133-47.582Z" transform="translate(444.812 53.395)" fill="#008db6"/>
          </g>
          <g id="g49" transform="translate(10.315 40.743)">
            <path id="path51" d="M-406.607-8.166h-40.126a.917.917,0,0,1-.917-.917.917.917,0,0,1,.917-.917h40.126a.917.917,0,0,1,.917.917A.917.917,0,0,1-406.607-8.166Z" transform="translate(447.65 10)" fill="#008db6"/>
          </g>
          <g id="g53" transform="translate(8.993 0)">
            <path id="path55" d="M-432.8-49.2a.917.917,0,0,1-.916-.9,3.338,3.338,0,0,0-3.318-3.245h-34.3a3.337,3.337,0,0,0-3.318,3.245.917.917,0,0,1-.937.9.917.917,0,0,1-.9-.937,5.182,5.182,0,0,1,5.151-5.038h34.3a5.182,5.182,0,0,1,5.151,5.038.917.917,0,0,1-.9.937Z" transform="translate(476.488 55.173)" fill="#008db6"/>
          </g>
          <g id="g57" transform="translate(8.991 8.12)">
            <path id="path59" d="M16.383-264.61H8.23a.917.917,0,0,1-.562-.192l-15.989-12.4A4.683,4.683,0,0,1-10-280.793v-2.12a.917.917,0,0,1,.917-.917.917.917,0,0,1,.917.917v2.12a2.834,2.834,0,0,0,1,2.164L8.544-266.444h7.525l15.736-12.211a2.818,2.818,0,0,0,.969-2.138v-29.76a.917.917,0,0,1,.917-.917.917.917,0,0,1,.917.917v29.76a4.665,4.665,0,0,1-1.647,3.561L16.945-264.8A.917.917,0,0,1,16.383-264.61Z" transform="translate(10 311.47)" fill="#008db6"/>
          </g>
          <g id="g61" transform="translate(8.991 8.12)">
            <path id="path63" d="M-9.083,15.763A.917.917,0,0,1-10,14.846V-9.083A.917.917,0,0,1-9.083-10a.917.917,0,0,1,.917.917V14.846A.917.917,0,0,1-9.083,15.763Z" transform="translate(10 10)" fill="#008db6"/>
          </g>
          <g id="g65" transform="translate(26.301 53.145)">
            <path id="path67" d="M-2.858-4.544H-7.211a2.82,2.82,0,0,1-2.817-2.817V-9.1a.917.917,0,0,1,.51-.822.917.917,0,0,1,.963.092.918.918,0,0,1,.361.772v1.7a.984.984,0,0,0,.983.983h4.353a.984.984,0,0,0,.983-.983V-9.1a.917.917,0,0,1,.917-.917A.917.917,0,0,1-.041-9.1v1.742A2.82,2.82,0,0,1-2.858-4.544Z" transform="translate(10.028 10.021)" fill="#008db6"/>
          </g>
          <g id="g69" transform="translate(43.625 41.367)">
            <path id="path71" d="M-1.953-39.654H-4.434a1.8,1.8,0,0,1-1.734-1.328l-3.8-14.074a.917.917,0,0,1,.646-1.124.917.917,0,0,1,1.124.646L-4.4-41.46l2.445-.028L-3.986-59.861a.917.917,0,0,1,.813-1.01.917.917,0,0,1,1.01.813l2,18.414a1.8,1.8,0,0,1-.449,1.393A1.8,1.8,0,0,1-1.953-39.654Z" transform="translate(10.002 60.877)" fill="#008db6"/>
          </g>
          <g id="g73" transform="translate(9.443 41.599)">
            <path id="path75" d="M-27.278,10.99h-2.481a1.8,1.8,0,0,1-1.337-.6A1.8,1.8,0,0,1-31.545,9l1.971-18.182A.917.917,0,0,1-28.564-10a.917.917,0,0,1,.813,1.01L-29.722,9.2l2.444-.041,3.71-13.84a.917.917,0,0,1,1.124-.646A.917.917,0,0,1-21.8-4.205L-25.543,9.662A1.8,1.8,0,0,1-27.278,10.99Z" transform="translate(31.556 10.001)" fill="#008db6"/>
          </g>
        </g>
      </g>
    </g>
  </g>
</svg>
