<svg xmlns="http://www.w3.org/2000/svg" xmlns:xlink="http://www.w3.org/1999/xlink" width="108" height="108" viewBox="0 0 108 108">
  <defs>
    <filter id="Rect치ngulo_404641" x="0" y="0" width="108" height="108" filterUnits="userSpaceOnUse">
      <feOffset dy="3" input="SourceAlpha"/>
      <feGaussianBlur stdDeviation="3" result="blur"/>
      <feFlood flood-opacity="0.161"/>
      <feComposite operator="in" in2="blur"/>
      <feComposite in="SourceGraphic"/>
    </filter>
  </defs>
  <g id="Grupo_1112845" data-name="Grupo 1112845" transform="translate(-903.051 -5952)">
    <g transform="matrix(1, 0, 0, 1, 903.05, 5952)" filter="url(#Rect치ngulo_404641)">
      <g id="Rect치ngulo_404641-2" data-name="Rect치ngulo 404641" transform="translate(9 6)" fill="#f1de5f" stroke="#fff" stroke-width="3" opacity="0.859">
        <rect width="90" height="90" rx="45" stroke="none"/>
        <rect x="1.5" y="1.5" width="87" height="87" rx="43.5" fill="none"/>
      </g>
    </g>
    <g id="acuicultura_1_" data-name="acuicultura (1)" transform="translate(903.249 5975)">
      <path id="Trazado_979912" data-name="Trazado 979912" d="M78.25,27.415A9.315,9.315,0,0,0,74.157,19.7a9.316,9.316,0,1,0-14.4-9.317H55.632V0H52.42V10.388H48.3a9.317,9.317,0,1,0-14.4,9.317,9.31,9.31,0,0,0,0,15.421,9.316,9.316,0,1,0,14.4,9.317H52.42V54.831h3.213V44.443h4.123a9.317,9.317,0,1,0,14.4-9.317A9.315,9.315,0,0,0,78.25,27.415ZM68.933,5.89a6.1,6.1,0,1,1-6.1,6.1A6.111,6.111,0,0,1,68.933,5.89ZM59.756,13.6a9.335,9.335,0,0,0,3.953,6.1,9.335,9.335,0,0,0-3.953,6.1H55.632V13.6ZM48.3,13.6H52.42V25.809H48.3a9.335,9.335,0,0,0-3.953-6.1A9.334,9.334,0,0,0,48.3,13.6ZM33.015,11.994a6.1,6.1,0,1,1,6.1,6.1A6.111,6.111,0,0,1,33.015,11.994Zm0,15.421a6.1,6.1,0,1,1,6.1,6.1A6.111,6.111,0,0,1,33.015,27.415Zm6.1,21.525a6.1,6.1,0,1,1,6.1-6.1A6.111,6.111,0,0,1,39.119,48.941ZM48.3,41.23a9.335,9.335,0,0,0-3.953-6.1,9.335,9.335,0,0,0,3.953-6.1H52.42V41.23Zm11.459,0H55.632V29.022h4.123a9.335,9.335,0,0,0,3.953,6.1A9.334,9.334,0,0,0,59.756,41.23Zm15.281,1.606a6.1,6.1,0,1,1-6.1-6.1A6.111,6.111,0,0,1,75.037,42.837Zm-6.1-9.317a6.1,6.1,0,1,1,6.1-6.1A6.111,6.111,0,0,1,68.933,33.52Z" transform="translate(0)" fill="#008db6"/>
    </g>
  </g>
</svg>
