<svg xmlns="http://www.w3.org/2000/svg" xmlns:xlink="http://www.w3.org/1999/xlink" width="108" height="108" viewBox="0 0 108 108">
  <defs>
    <filter id="Rect치ngulo_404645" x="0" y="0" width="108" height="108" filterUnits="userSpaceOnUse">
      <feOffset dy="3" input="SourceAlpha"/>
      <feGaussianBlur stdDeviation="3" result="blur"/>
      <feFlood flood-opacity="0.161"/>
      <feComposite operator="in" in2="blur"/>
      <feComposite in="SourceGraphic"/>
    </filter>
    <clipPath id="clip-path">
      <path id="path41" d="M0-682.665H59v59H0Z" transform="translate(0 682.665)" fill="#008db6" stroke="#008db6" stroke-width="1"/>
    </clipPath>
  </defs>
  <g id="Grupo_1112847" data-name="Grupo 1112847" transform="translate(-1060.051 -6304)">
    <g transform="matrix(1, 0, 0, 1, 1060.05, 6304)" filter="url(#Rect치ngulo_404645)">
      <g id="Rect치ngulo_404645-2" data-name="Rect치ngulo 404645" transform="translate(9 6)" fill="#f1de5f" stroke="#fff" stroke-width="3" opacity="0.859">
        <rect width="90" height="90" rx="45" stroke="none"/>
        <rect x="1.5" y="1.5" width="87" height="87" rx="43.5" fill="none"/>
      </g>
    </g>
    <g id="g15" transform="translate(1085.051 7008.665)">
      <g id="g17" transform="translate(22.349 -675.009)">
        <path id="path19" d="M-9.136,18.128A.864.864,0,0,1-10,17.264v-26.4A.864.864,0,0,1-9.136-10a.864.864,0,0,1,.864.864v26.4A.864.864,0,0,1-9.136,18.128Z" transform="translate(10 10)" fill="#008db6"/>
        <path id="path19_-_Contorno" data-name="path19 - Contorno" d="M-9.136,18.628A1.366,1.366,0,0,1-10.5,17.264v-26.4A1.366,1.366,0,0,1-9.136-10.5,1.366,1.366,0,0,1-7.771-9.136v26.4A1.366,1.366,0,0,1-9.136,18.628Zm0-28.128a.365.365,0,0,0-.364.364v26.4a.365.365,0,0,0,.364.364.365.365,0,0,0,.364-.364v-26.4A.365.365,0,0,0-9.136-9.5Z" transform="translate(10 10)" fill="#008db6"/>
      </g>
      <g id="g21" transform="translate(13.252 -675.009)">
        <path id="path23" d="M-9.136-287.33a.864.864,0,0,1-.864-.864v-26.4a.864.864,0,0,1,.864-.864.864.864,0,0,1,.864.864v26.4A.864.864,0,0,1-9.136-287.33Z" transform="translate(10 315.458)" fill="#008db6"/>
        <path id="path23_-_Contorno" data-name="path23 - Contorno" d="M-9.136-286.83a1.366,1.366,0,0,1-1.364-1.364v-26.4a1.366,1.366,0,0,1,1.364-1.364,1.366,1.366,0,0,1,1.364,1.364v26.4A1.366,1.366,0,0,1-9.136-286.83Zm0-28.128a.365.365,0,0,0-.364.364v26.4a.365.365,0,0,0,.364.364.365.365,0,0,0,.364-.364v-26.4A.365.365,0,0,0-9.136-314.958Z" transform="translate(10 315.458)" fill="#008db6"/>
      </g>
      <g id="g25" transform="translate(13.252 -668.682)">
        <path id="path27" d="M-.036-8.271h-9.1A.864.864,0,0,1-10-9.136.864.864,0,0,1-9.136-10h9.1a.864.864,0,0,1,.864.864A.864.864,0,0,1-.036-8.271Z" transform="translate(10 10)" fill="#008db6"/>
        <path id="path27_-_Contorno" data-name="path27 - Contorno" d="M-.036-7.771h-9.1A1.366,1.366,0,0,1-10.5-9.136,1.366,1.366,0,0,1-9.136-10.5h9.1A1.366,1.366,0,0,1,1.328-9.136,1.366,1.366,0,0,1-.036-7.771ZM-9.136-9.5a.365.365,0,0,0-.364.364.365.365,0,0,0,.364.364h9.1a.365.365,0,0,0,.364-.364A.365.365,0,0,0-.036-9.5Z" transform="translate(10 10)" fill="#008db6"/>
      </g>
      <g id="g29" transform="translate(13.252 -661.187)">
        <path id="path31" d="M-.036-8.271h-9.1A.864.864,0,0,1-10-9.136.864.864,0,0,1-9.136-10h9.1a.864.864,0,0,1,.864.864A.864.864,0,0,1-.036-8.271Z" transform="translate(10 10)" fill="#008db6"/>
        <path id="path31_-_Contorno" data-name="path31 - Contorno" d="M-.036-7.771h-9.1A1.366,1.366,0,0,1-10.5-9.136,1.366,1.366,0,0,1-9.136-10.5h9.1A1.366,1.366,0,0,1,1.328-9.136,1.366,1.366,0,0,1-.036-7.771ZM-9.136-9.5a.365.365,0,0,0-.364.364.365.365,0,0,0,.364.364h9.1a.365.365,0,0,0,.364-.364A.365.365,0,0,0-.036-9.5Z" transform="translate(10 10)" fill="#008db6"/>
      </g>
      <g id="g33" transform="translate(13.252 -653.692)">
        <path id="path35" d="M-.036-8.271h-9.1A.864.864,0,0,1-10-9.136.864.864,0,0,1-9.136-10h9.1a.864.864,0,0,1,.864.864A.864.864,0,0,1-.036-8.271Z" transform="translate(10 10)" fill="#008db6"/>
        <path id="path35_-_Contorno" data-name="path35 - Contorno" d="M-.036-7.771h-9.1A1.366,1.366,0,0,1-10.5-9.136,1.366,1.366,0,0,1-9.136-10.5h9.1A1.366,1.366,0,0,1,1.328-9.136,1.366,1.366,0,0,1-.036-7.771ZM-9.136-9.5a.365.365,0,0,0-.364.364.365.365,0,0,0,.364.364h9.1a.365.365,0,0,0,.364-.364A.365.365,0,0,0-.036-9.5Z" transform="translate(10 10)" fill="#008db6"/>
      </g>
      <g id="g37" transform="translate(0 -682.665)">
        <g id="g39" clip-path="url(#clip-path)">
          <g id="g45" transform="translate(5.658 3.904)">
            <path id="path47" d="M-399.868-47.916h-6.5a.864.864,0,0,1-.864-.864.864.864,0,0,1,.864-.864h6.5a1.012,1.012,0,0,0,1.011-1.011,1.012,1.012,0,0,0-1.011-1.011h-42.205a1.012,1.012,0,0,0-1.011,1.011,1.012,1.012,0,0,0,1.011,1.011h32.223a.864.864,0,0,1,.864.864.864.864,0,0,1-.864.864h-32.223a2.743,2.743,0,0,1-2.739-2.739,2.743,2.743,0,0,1,2.739-2.739h42.205a2.743,2.743,0,0,1,2.74,2.739A2.743,2.743,0,0,1-399.868-47.916Z" transform="translate(444.812 53.395)" fill="#008db6"/>
            <path id="path47_-_Contorno" data-name="path47 - Contorno" d="M-399.868-47.416h-6.5a1.366,1.366,0,0,1-1.364-1.364,1.366,1.366,0,0,1,1.364-1.364h6.5a.512.512,0,0,0,.511-.511.512.512,0,0,0-.511-.511h-42.205a.512.512,0,0,0-.511.511.512.512,0,0,0,.511.511h32.223a1.366,1.366,0,0,1,1.364,1.364,1.366,1.366,0,0,1-1.364,1.364h-32.223a3.243,3.243,0,0,1-3.239-3.239,3.243,3.243,0,0,1,3.239-3.239h42.205a3.243,3.243,0,0,1,3.24,3.239A3.243,3.243,0,0,1-399.868-47.416Zm-6.5-1.729a.365.365,0,0,0-.364.364.365.365,0,0,0,.364.364h6.5a2.242,2.242,0,0,0,2.24-2.239,2.242,2.242,0,0,0-2.24-2.239h-42.205a2.242,2.242,0,0,0-2.239,2.239,2.242,2.242,0,0,0,2.239,2.239h32.223a.365.365,0,0,0,.364-.364.365.365,0,0,0-.364-.364h-32.223a1.513,1.513,0,0,1-1.511-1.511,1.513,1.513,0,0,1,1.511-1.511h42.205a1.513,1.513,0,0,1,1.511,1.511,1.513,1.513,0,0,1-1.511,1.511Z" transform="translate(444.812 53.395)" fill="#008db6"/>
          </g>
          <g id="g49" transform="translate(9.724 38.406)">
            <path id="path51" d="M-408.961-8.271h-37.824a.864.864,0,0,1-.864-.864.864.864,0,0,1,.864-.864h37.824a.864.864,0,0,1,.864.864A.864.864,0,0,1-408.961-8.271Z" transform="translate(447.65 10)" fill="#008db6"/>
            <path id="path51_-_Contorno" data-name="path51 - Contorno" d="M-408.961-7.771h-37.824a1.366,1.366,0,0,1-1.364-1.364,1.366,1.366,0,0,1,1.364-1.364h37.824A1.366,1.366,0,0,1-407.6-9.136,1.366,1.366,0,0,1-408.961-7.771ZM-446.785-9.5a.365.365,0,0,0-.364.364.365.365,0,0,0,.364.364h37.824a.365.365,0,0,0,.364-.364.365.365,0,0,0-.364-.364Z" transform="translate(447.65 10)" fill="#008db6"/>
          </g>
          <g id="g53" transform="translate(8.477 0)">
            <path id="path55" d="M-435.308-49.541a.864.864,0,0,1-.864-.845,3.146,3.146,0,0,0-3.127-3.059h-32.334a3.146,3.146,0,0,0-3.127,3.059.864.864,0,0,1-.883.845.864.864,0,0,1-.845-.883,4.884,4.884,0,0,1,4.856-4.749H-439.3a4.885,4.885,0,0,1,4.856,4.749.864.864,0,0,1-.845.883Z" transform="translate(476.488 55.173)" fill="#008db6"/>
            <path id="path55_-_Contorno" data-name="path55 - Contorno" d="M-435.308-49.041a1.372,1.372,0,0,1-1.364-1.334,2.643,2.643,0,0,0-2.628-2.57h-32.334a2.643,2.643,0,0,0-2.628,2.57,1.372,1.372,0,0,1-1.364,1.334h-.03a1.366,1.366,0,0,1-1.334-1.394,5.387,5.387,0,0,1,5.355-5.238H-439.3a5.387,5.387,0,0,1,5.355,5.238,1.366,1.366,0,0,1-1.334,1.394Zm-36.325-4.9H-439.3a3.649,3.649,0,0,1,3.627,3.548.366.366,0,0,0,.364.356h.008a.365.365,0,0,0,.357-.372,4.382,4.382,0,0,0-4.356-4.26h-32.334a4.382,4.382,0,0,0-4.356,4.26.365.365,0,0,0,.356.372h.008a.366.366,0,0,0,.364-.356A3.649,3.649,0,0,1-471.632-53.945Z" transform="translate(476.488 55.173)" fill="#008db6"/>
          </g>
          <g id="g57" transform="translate(8.475 7.655)">
            <path id="path59" d="M14.87-267.3H7.185a.864.864,0,0,1-.53-.181L-8.417-279.171A4.414,4.414,0,0,1-10-282.553v-2a.864.864,0,0,1,.864-.864.864.864,0,0,1,.864.864v2a2.672,2.672,0,0,0,.944,2.04L7.48-269.026h7.093l14.834-11.511a2.657,2.657,0,0,0,.914-2.015v-28.053a.864.864,0,0,1,.864-.864.864.864,0,0,1,.864.864v28.053A4.4,4.4,0,0,1,30.5-279.2L15.4-267.479A.864.864,0,0,1,14.87-267.3Z" transform="translate(10 311.47)" fill="#008db6"/>
            <path id="path59_-_Contorno" data-name="path59 - Contorno" d="M14.87-266.8H7.185a1.371,1.371,0,0,1-.836-.286L-8.74-278.79a4.935,4.935,0,0,1-1.76-3.763v-2a1.366,1.366,0,0,1,1.364-1.364,1.366,1.366,0,0,1,1.364,1.364v2a2.173,2.173,0,0,0,.76,1.652L7.652-269.526H14.4l14.689-11.4a2.166,2.166,0,0,0,.73-1.628v-28.053a1.366,1.366,0,0,1,1.364-1.364,1.366,1.366,0,0,1,1.364,1.364v28.053a4.9,4.9,0,0,1-1.729,3.738l-.017.014-15.1,11.717A1.371,1.371,0,0,1,14.87-266.8ZM-8.1-279.559,6.961-267.874a.366.366,0,0,0,.223.076H14.87a.366.366,0,0,0,.223-.076l15.088-11.71a3.9,3.9,0,0,0,1.369-2.969v-28.053a.365.365,0,0,0-.364-.364.365.365,0,0,0-.364.364v28.053a3.177,3.177,0,0,1-1.09,2.4l-.018.014L14.745-268.526H7.309L-7.651-280.132a3.171,3.171,0,0,1-1.12-2.421v-2a.365.365,0,0,0-.364-.364.365.365,0,0,0-.364.364v2A3.936,3.936,0,0,0-8.1-279.559Z" transform="translate(10 311.47)" fill="#008db6"/>
          </g>
          <g id="g61" transform="translate(8.475 7.655)">
            <path id="path63" d="M-9.136,14.286A.864.864,0,0,1-10,13.421V-9.136A.864.864,0,0,1-9.136-10a.864.864,0,0,1,.864.864V13.421A.864.864,0,0,1-9.136,14.286Z" transform="translate(10 10)" fill="#008db6"/>
            <path id="path63_-_Contorno" data-name="path63 - Contorno" d="M-9.136,14.786A1.366,1.366,0,0,1-10.5,13.421V-9.136A1.366,1.366,0,0,1-9.136-10.5,1.366,1.366,0,0,1-7.771-9.136V13.421A1.366,1.366,0,0,1-9.136,14.786Zm0-24.286a.365.365,0,0,0-.364.364V13.421a.365.365,0,0,0,.364.364.365.365,0,0,0,.364-.364V-9.136A.365.365,0,0,0-9.136-9.5Z" transform="translate(10 10)" fill="#008db6"/>
          </g>
          <g id="g65" transform="translate(24.793 50.097)">
            <path id="path67" d="M-3.269-4.858h-4.1a2.658,2.658,0,0,1-2.655-2.655V-9.157a.864.864,0,0,1,.481-.774.864.864,0,0,1,.907.087.866.866,0,0,1,.34.727v1.6a.928.928,0,0,0,.927.927h4.1a.928.928,0,0,0,.927-.927V-9.155a.864.864,0,0,1,.864-.864.864.864,0,0,1,.864.864v1.642A2.658,2.658,0,0,1-3.269-4.858Z" transform="translate(10.028 10.021)" fill="#008db6"/>
            <path id="path67_-_Contorno" data-name="path67 - Contorno" d="M-3.269-4.358h-4.1a3.159,3.159,0,0,1-3.155-3.155V-9.157a1.356,1.356,0,0,1,.759-1.223,1.371,1.371,0,0,1,.605-.142,1.372,1.372,0,0,1,.827.279A1.368,1.368,0,0,1-7.8-9.108v1.594a.427.427,0,0,0,.427.427h4.1a.427.427,0,0,0,.427-.427V-9.155A1.366,1.366,0,0,1-1.478-10.52,1.366,1.366,0,0,1-.114-9.155v1.642A3.159,3.159,0,0,1-3.269-4.358ZM-9.164-9.521a.361.361,0,0,0-.162.038.362.362,0,0,0-.2.326v1.644A2.158,2.158,0,0,0-7.373-5.358h4.1A2.158,2.158,0,0,0-1.114-7.514V-9.155a.365.365,0,0,0-.364-.364.365.365,0,0,0-.364.364v1.642A1.428,1.428,0,0,1-3.269-6.087h-4.1A1.428,1.428,0,0,1-8.8-7.514V-9.139a.367.367,0,0,0-.144-.308A.361.361,0,0,0-9.164-9.521Z" transform="translate(10.028 10.021)" fill="#008db6"/>
          </g>
          <g id="g69" transform="translate(41.123 38.995)">
            <path id="path71" d="M-2.414-40.871H-4.753a1.7,1.7,0,0,1-1.635-1.252L-9.972-55.39a.864.864,0,0,1,.609-1.06.864.864,0,0,1,1.06.609L-4.72-42.574l2.305-.026L-4.331-59.919a.864.864,0,0,1,.766-.952.864.864,0,0,1,.952.766L-.731-42.747a1.7,1.7,0,0,1-.423,1.314A1.7,1.7,0,0,1-2.414-40.871Z" transform="translate(10.002 60.877)" fill="#008db6"/>
            <path id="path71_-_Contorno" data-name="path71 - Contorno" d="M-2.414-40.371H-4.753a2.2,2.2,0,0,1-2.117-1.621L-10.455-55.26a1.355,1.355,0,0,1,.134-1.035,1.355,1.355,0,0,1,.827-.637,1.367,1.367,0,0,1,.356-.047,1.366,1.366,0,0,1,1.317,1.009l3.483,12.893,1.366-.015L-4.828-59.864a1.366,1.366,0,0,1,1.209-1.5,1.38,1.38,0,0,1,.148-.008,1.362,1.362,0,0,1,1.355,1.217L-.234-42.8a2.2,2.2,0,0,1-.548,1.7A2.2,2.2,0,0,1-2.414-40.371ZM-9.137-55.98a.366.366,0,0,0-.1.013.362.362,0,0,0-.221.17.362.362,0,0,0-.036.276l3.584,13.267a1.2,1.2,0,0,0,1.152.882h2.339a1.2,1.2,0,0,0,.888-.4,1.2,1.2,0,0,0,.3-.926L-3.11-60.052a.365.365,0,0,0-.4-.323.365.365,0,0,0-.323.4l1.977,17.867L-5.1-42.07-8.786-55.71A.365.365,0,0,0-9.137-55.98Z" transform="translate(10.002 60.877)" fill="#008db6"/>
          </g>
          <g id="g73" transform="translate(8.901 39.213)">
            <path id="path75" d="M-27.523,9.786h-2.339a1.7,1.7,0,0,1-1.26-.562,1.7,1.7,0,0,1-.423-1.314l1.858-17.14A.864.864,0,0,1-28.735-10a.864.864,0,0,1,.766.952L-29.827,8.1l2.3-.039,3.5-13.046a.864.864,0,0,1,1.06-.609.864.864,0,0,1,.609,1.06L-25.888,8.534A1.7,1.7,0,0,1-27.523,9.786Z" transform="translate(31.556 10.001)" fill="#008db6"/>
            <path id="path75_-_Contorno" data-name="path75 - Contorno" d="M-27.523,10.286h-2.339a2.2,2.2,0,0,1-1.632-.728,2.2,2.2,0,0,1-.548-1.7l1.858-17.14A1.362,1.362,0,0,1-28.829-10.5a1.38,1.38,0,0,1,.148.008,1.366,1.366,0,0,1,1.209,1.5l-1.8,16.576,1.361-.023,3.4-12.682a1.367,1.367,0,0,1,1.317-1.01,1.367,1.367,0,0,1,.356.047,1.355,1.355,0,0,1,.827.637,1.355,1.355,0,0,1,.134,1.036L-25.406,8.665A2.2,2.2,0,0,1-27.523,10.286ZM-28.829-9.5a.363.363,0,0,0-.361.325l-1.858,17.14a1.2,1.2,0,0,0,.3.926,1.2,1.2,0,0,0,.888.4h2.339A1.2,1.2,0,0,0-26.371,8.4L-22.84-4.668a.362.362,0,0,0-.036-.276.362.362,0,0,0-.221-.17.367.367,0,0,0-.1-.013.365.365,0,0,0-.351.269L-27.138,8.551l-3.248.055,1.919-17.7a.362.362,0,0,0-.078-.268.362.362,0,0,0-.245-.134Z" transform="translate(31.556 10.001)" fill="#008db6"/>
          </g>
        </g>
      </g>
    </g>
  </g>
</svg>
