<svg xmlns="http://www.w3.org/2000/svg" xmlns:xlink="http://www.w3.org/1999/xlink" width="103" height="103" viewBox="0 0 103 103">
  <defs>
    <filter id="Trazado_896985" x="0" y="0" width="103" height="103" filterUnits="userSpaceOnUse">
      <feOffset dy="3" input="SourceAlpha"/>
      <feGaussianBlur stdDeviation="3" result="blur"/>
      <feFlood flood-opacity="0.161"/>
      <feComposite operator="in" in2="blur"/>
      <feComposite in="SourceGraphic"/>
    </filter>
  </defs>
  <g id="Grupo_1112878" data-name="Grupo 1112878" transform="translate(-191.051 -8777)">
    <g id="Grupo_1107785" data-name="Grupo 1107785" transform="translate(200.051 8783)">
      <g id="Grupo_1098742" data-name="Grupo 1098742">
        <g transform="matrix(1, 0, 0, 1, -9, -6)" filter="url(#Trazado_896985)">
          <g id="Trazado_896985-2" data-name="Trazado 896985" transform="translate(9 6)" fill="#f8a230" opacity="0.859">
            <path d="M 42.49993896484375 83.5 C 36.96431732177734 83.5 31.59507942199707 82.41617584228516 26.54137420654297 80.27863311767578 C 21.65930366516113 78.21369171142578 17.27444458007812 75.25724792480469 13.5085973739624 71.49140167236328 C 9.742751121520996 67.72555541992188 6.786303520202637 63.34069442749023 4.721362590789795 58.45862197875977 C 2.583821296691895 53.4049186706543 1.499997735023499 48.03568267822266 1.499997735023499 42.50005722045898 C 1.499997735023499 36.96431732177734 2.583821296691895 31.59508323669434 4.721362590789795 26.5413761138916 C 6.786303520202637 21.65930557250977 9.742751121520996 17.27444648742676 13.5085973739624 13.50860023498535 C 17.27444458007812 9.742753028869629 21.65930366516113 6.786305904388428 26.54137420654297 4.721364498138428 C 31.59507942199707 2.583823442459106 36.96431732177734 1.5 42.49993896484375 1.5 C 48.03556060791016 1.5 53.4047966003418 2.583823442459106 58.45851516723633 4.721364498138428 C 63.34057235717773 6.786305904388428 67.72543334960938 9.742753028869629 71.49127960205078 13.50860023498535 C 75.25712585449219 17.27444648742676 78.21358489990234 21.65930557250977 80.27851867675781 26.5413761138916 C 82.41605377197266 31.59508323669434 83.4998779296875 36.96431732177734 83.4998779296875 42.49994277954102 C 83.4998779296875 48.03568267822266 82.41605377197266 53.4049186706543 80.27851867675781 58.45862197875977 C 78.21358489990234 63.34069442749023 75.25712585449219 67.72555541992188 71.49127960205078 71.49140167236328 C 67.72543334960938 75.25724792480469 63.34057235717773 78.21369171142578 58.45851516723633 80.27863311767578 C 53.4047966003418 82.41617584228516 48.03556060791016 83.5 42.49993896484375 83.5 Z" stroke="none"/>
            <path d="M 42.49993896484375 3 C 37.16616439819336 3 31.99351119995117 4.043960571289062 27.12569808959961 6.102867126464844 C 22.42243194580078 8.092185974121094 18.19783020019531 10.94069671630859 14.56925964355469 14.56926727294922 C 10.94068908691406 18.19783782958984 8.092178344726562 22.42242813110352 6.102859497070312 27.12569427490234 C 4.043952941894531 31.9935188293457 2.999992370605469 37.16616058349609 2.999992370605469 42.50005340576172 C 2.999992370605469 47.83383941650391 4.043952941894531 53.00647735595703 6.102859497070312 57.87429428100586 C 8.092178344726562 62.57756042480469 10.94068908691406 66.80216217041016 14.56925964355469 70.43073272705078 C 18.19783020019531 74.05931091308594 22.42243194580078 76.90781402587891 27.12569808959961 78.89713287353516 C 31.99351119995117 80.95603942871094 37.16616439819336 82 42.49993896484375 82 C 47.83372497558594 82 53.00636291503906 80.95603942871094 57.87417984008789 78.89713287353516 C 62.57744598388672 76.90781402587891 66.80204772949219 74.05931091308594 70.43061828613281 70.43073272705078 C 74.05918884277344 66.80216217041016 76.90769958496094 62.57757568359375 78.89700317382812 57.87429428100586 C 80.95590972900391 53.00647735595703 81.99987030029297 47.83383941650391 81.99987030029297 42.49993515014648 C 81.99987030029297 37.16616058349609 80.95590972900391 31.99350738525391 78.89700317382812 27.12569427490234 C 76.90769958496094 22.42242813110352 74.05918884277344 18.19783782958984 70.43061828613281 14.56926727294922 C 66.80204772949219 10.94069671630859 62.57744598388672 8.092185974121094 57.87417984008789 6.102867126464844 C 53.00636291503906 4.043960571289062 47.83372497558594 3 42.49993896484375 3 M 42.49993896484375 0 C 65.97201538085938 0 84.99987030029297 19.02787017822266 84.99987030029297 42.49993515014648 L 84.99987030029297 42.50005340576172 C 84.99987030029297 65.97213745117188 65.97201538085938 85 42.49993896484375 85 C 19.02787017822266 85 -7.62939453125e-06 65.97213745117188 -7.62939453125e-06 42.50005340576172 L -7.62939453125e-06 42.49993515014648 C -7.62939453125e-06 19.02787017822266 19.02787017822266 0 42.49993896484375 0 Z" stroke="none" fill="#fff"/>
          </g>
        </g>
        <g id="Rectángulo_400907" data-name="Rectángulo 400907" transform="translate(0)" fill="none" stroke="#fff" stroke-width="3">
          <rect width="85" height="85" rx="42.5" stroke="none"/>
          <rect x="1.5" y="1.5" width="82" height="82" rx="41" fill="none"/>
        </g>
      </g>
    </g>
    <g id="Grupo_1112877" data-name="Grupo 1112877" transform="translate(214.051 8797.166)">
      <path id="Trazado_980000" data-name="Trazado 980000" d="M48.481,8.74v1.74H46.74A1.742,1.742,0,0,0,45,12.221v1.74a1.742,1.742,0,0,0,1.74,1.74h1.74v1.74a1.742,1.742,0,0,0,1.74,1.74h1.74a1.742,1.742,0,0,0,1.74-1.74V15.7h1.74a1.742,1.742,0,0,0,1.74-1.74v-1.74a1.742,1.742,0,0,0-1.74-1.74H53.7V8.74A1.742,1.742,0,0,0,51.961,7h-1.74A1.742,1.742,0,0,0,48.481,8.74Zm6.961,3.48v1.741H51.961v3.481h-1.74V13.961H46.74v-1.74h3.481V8.74h1.74v3.481Z" transform="translate(-5.713 -0.801)" fill="#00455a"/>
      <path id="Trazado_980001" data-name="Trazado 980001" d="M54.079,3.589a14.831,14.831,0,0,1-7.633-2.114L45.378.834l-1.069.64a14.831,14.831,0,0,1-7.633,2.114h-.87V7.94h-1.74v-.87a6.091,6.091,0,0,0-12.182,0v.87H9.7a1.742,1.742,0,0,0-1.74,1.74v6.972A6.66,6.66,0,0,0,2.92,19.158,8.832,8.832,0,0,0,3.587,30.9l4.374,4.374V53.187a1.742,1.742,0,0,0,1.74,1.74H46.248a1.742,1.742,0,0,0,1.74-1.74V22.593a12.979,12.979,0,0,0,6.961-11.556V3.589ZM42.767,33.713l-1.84,2.071H30.585V46.226H41.027V38.29l1.74-1.958V49.707H13.182V40.5l.87.87L24.518,30.9a8.839,8.839,0,0,0,1.545-2.077h8.164a2.61,2.61,0,1,0,0-1.74H26.76A8.947,8.947,0,0,0,27.1,24.63a8.791,8.791,0,0,0-1.92-5.472,6.7,6.7,0,0,0-9.976-.553l-1.156,1.156-.87-.87V13.161H35.976a12.951,12.951,0,0,0,6.792,9.432Zm-6.054,9.43,2.573-2.895v4.238H32.325V37.525h6.961v.1l-2.648,2.979L34.681,38.65l-1.23,1.23Zm-.908-15.19a.87.87,0,1,1,.87.87A.871.871,0,0,1,35.806,27.953ZM23.624,7.069a4.351,4.351,0,0,1,8.7,0v.87h-1.74v-.87a2.61,2.61,0,0,0-5.221,0v.87h-1.74Zm5.221.87H27.1v-.87a.87.87,0,0,1,1.74,0Zm6.961,1.74v1.357c0,.129.011.255.016.383H11.442v6.085a6.6,6.6,0,0,0-1.74-.679V9.68ZM2.74,24.63A7.043,7.043,0,0,1,4.28,20.244a4.963,4.963,0,0,1,7.386-.409l2.387,2.387,2.387-2.387a4.963,4.963,0,0,1,7.386.409,7.065,7.065,0,0,1,1.106,6.838H17l-1.911,3.823-2.7-8.092-2.4,6.009H7.961v1.74h3.2l1.077-2.692,2.523,7.57,3.31-6.618H24a7.215,7.215,0,0,1-.714.847L14.052,38.9,4.817,29.67A7.061,7.061,0,0,1,2.74,24.63ZM46.248,53.187H9.7V37.015l1.74,1.74V51.447H44.507V23.353c.206.073.409.151.62.213l.25.075.25-.075c.211-.064.414-.141.62-.213Zm6.961-42.15a11.268,11.268,0,0,1-7.831,10.784,11.268,11.268,0,0,1-7.831-10.784V5.307a16.583,16.583,0,0,0,7.659-2.339l.172-.1.172.1a16.57,16.57,0,0,0,7.659,2.34Z" transform="translate(0)" fill="#00455a"/>
      <path id="Trazado_980002" data-name="Trazado 980002" d="M31,51h1.74v1.74H31Z" transform="translate(-3.896 -6.514)" fill="#00455a"/>
      <path id="Trazado_980003" data-name="Trazado 980003" d="M27,51h1.74v1.74H27Z" transform="translate(-3.376 -6.514)" fill="#00455a"/>
      <path id="Trazado_980004" data-name="Trazado 980004" d="M23,51h1.74v1.74H23Z" transform="translate(-2.857 -6.514)" fill="#00455a"/>
      <path id="Trazado_980005" data-name="Trazado 980005" d="M33,25h5.221v1.74H33Z" transform="translate(-4.155 -3.138)" fill="#00455a"/>
      <path id="Trazado_980006" data-name="Trazado 980006" d="M33,21h5.221v1.74H33Z" transform="translate(-4.155 -2.619)" fill="#00455a"/>
      <path id="Trazado_980007" data-name="Trazado 980007" d="M33,17h5.221v1.74H33Z" transform="translate(-4.155 -2.099)" fill="#00455a"/>
    </g>
  </g>
</svg>
