<svg xmlns="http://www.w3.org/2000/svg" xmlns:xlink="http://www.w3.org/1999/xlink" width="103" height="103" viewBox="0 0 103 103">
  <defs>
    <filter id="Trazado_896985" x="0" y="0" width="103" height="103" filterUnits="userSpaceOnUse">
      <feOffset dy="3" input="SourceAlpha"/>
      <feGaussianBlur stdDeviation="3" result="blur"/>
      <feFlood flood-opacity="0.161"/>
      <feComposite operator="in" in2="blur"/>
      <feComposite in="SourceGraphic"/>
    </filter>
  </defs>
  <g id="Grupo_1112880" data-name="Grupo 1112880" transform="translate(-821.051 -8908)">
    <g id="Grupo_1107785" data-name="Grupo 1107785" transform="translate(830.051 8914)">
      <g id="Grupo_1098742" data-name="Grupo 1098742">
        <g transform="matrix(1, 0, 0, 1, -9, -6)" filter="url(#Trazado_896985)">
          <g id="Trazado_896985-2" data-name="Trazado 896985" transform="translate(9 6)" fill="#f8a230" opacity="0.859">
            <path d="M 42.49993896484375 83.5 C 36.96431732177734 83.5 31.59507942199707 82.41617584228516 26.54137420654297 80.27863311767578 C 21.65930366516113 78.21369171142578 17.27444458007812 75.25724792480469 13.5085973739624 71.49140167236328 C 9.742751121520996 67.72555541992188 6.786303520202637 63.34069442749023 4.721362590789795 58.45862197875977 C 2.583821296691895 53.4049186706543 1.499997735023499 48.03568267822266 1.499997735023499 42.50005722045898 C 1.499997735023499 36.96431732177734 2.583821296691895 31.59508323669434 4.721362590789795 26.5413761138916 C 6.786303520202637 21.65930557250977 9.742751121520996 17.27444648742676 13.5085973739624 13.50860023498535 C 17.27444458007812 9.742753028869629 21.65930366516113 6.786305904388428 26.54137420654297 4.721364498138428 C 31.59507942199707 2.583823442459106 36.96431732177734 1.5 42.49993896484375 1.5 C 48.03556060791016 1.5 53.4047966003418 2.583823442459106 58.45851516723633 4.721364498138428 C 63.34057235717773 6.786305904388428 67.72543334960938 9.742753028869629 71.49127960205078 13.50860023498535 C 75.25712585449219 17.27444648742676 78.21358489990234 21.65930557250977 80.27851867675781 26.5413761138916 C 82.41605377197266 31.59508323669434 83.4998779296875 36.96431732177734 83.4998779296875 42.49994277954102 C 83.4998779296875 48.03568267822266 82.41605377197266 53.4049186706543 80.27851867675781 58.45862197875977 C 78.21358489990234 63.34069442749023 75.25712585449219 67.72555541992188 71.49127960205078 71.49140167236328 C 67.72543334960938 75.25724792480469 63.34057235717773 78.21369171142578 58.45851516723633 80.27863311767578 C 53.4047966003418 82.41617584228516 48.03556060791016 83.5 42.49993896484375 83.5 Z" stroke="none"/>
            <path d="M 42.49993896484375 3 C 37.16616439819336 3 31.99351119995117 4.043960571289062 27.12569808959961 6.102867126464844 C 22.42243194580078 8.092185974121094 18.19783020019531 10.94069671630859 14.56925964355469 14.56926727294922 C 10.94068908691406 18.19783782958984 8.092178344726562 22.42242813110352 6.102859497070312 27.12569427490234 C 4.043952941894531 31.9935188293457 2.999992370605469 37.16616058349609 2.999992370605469 42.50005340576172 C 2.999992370605469 47.83383941650391 4.043952941894531 53.00647735595703 6.102859497070312 57.87429428100586 C 8.092178344726562 62.57756042480469 10.94068908691406 66.80216217041016 14.56925964355469 70.43073272705078 C 18.19783020019531 74.05931091308594 22.42243194580078 76.90781402587891 27.12569808959961 78.89713287353516 C 31.99351119995117 80.95603942871094 37.16616439819336 82 42.49993896484375 82 C 47.83372497558594 82 53.00636291503906 80.95603942871094 57.87417984008789 78.89713287353516 C 62.57744598388672 76.90781402587891 66.80204772949219 74.05931091308594 70.43061828613281 70.43073272705078 C 74.05918884277344 66.80216217041016 76.90769958496094 62.57757568359375 78.89700317382812 57.87429428100586 C 80.95590972900391 53.00647735595703 81.99987030029297 47.83383941650391 81.99987030029297 42.49993515014648 C 81.99987030029297 37.16616058349609 80.95590972900391 31.99350738525391 78.89700317382812 27.12569427490234 C 76.90769958496094 22.42242813110352 74.05918884277344 18.19783782958984 70.43061828613281 14.56926727294922 C 66.80204772949219 10.94069671630859 62.57744598388672 8.092185974121094 57.87417984008789 6.102867126464844 C 53.00636291503906 4.043960571289062 47.83372497558594 3 42.49993896484375 3 M 42.49993896484375 0 C 65.97201538085938 0 84.99987030029297 19.02787017822266 84.99987030029297 42.49993515014648 L 84.99987030029297 42.50005340576172 C 84.99987030029297 65.97213745117188 65.97201538085938 85 42.49993896484375 85 C 19.02787017822266 85 -7.62939453125e-06 65.97213745117188 -7.62939453125e-06 42.50005340576172 L -7.62939453125e-06 42.49993515014648 C -7.62939453125e-06 19.02787017822266 19.02787017822266 0 42.49993896484375 0 Z" stroke="none" fill="#fff"/>
          </g>
        </g>
        <g id="Rectángulo_400907" data-name="Rectángulo 400907" transform="translate(0)" fill="none" stroke="#fff" stroke-width="3">
          <rect width="85" height="85" rx="42.5" stroke="none"/>
          <rect x="1.5" y="1.5" width="82" height="82" rx="41" fill="none"/>
        </g>
      </g>
    </g>
    <g id="Layer_7" data-name="Layer 7" transform="translate(848.051 8933)">
      <path id="Trazado_980018" data-name="Trazado 980018" d="M20,6.113V5a5.006,5.006,0,0,0-5-5H10A5.006,5.006,0,0,0,5,5V43a1,1,0,0,0,1,1H9a1,1,0,0,1,1,1v1H2V45a1,1,0,0,1,.5-.867,1,1,0,0,0-1-1.731A3.012,3.012,0,0,0,0,45v2a1,1,0,0,0,1,1H11a1,1,0,0,0,1-1V45a3,3,0,0,0-3-3H7V5a3,3,0,0,1,3-3h5a3,3,0,0,1,3,3V6.1A5.009,5.009,0,0,0,14,11v2a1,1,0,0,0,1,1h8a1,1,0,0,0,1-1V11a4.977,4.977,0,0,0-4-4.887ZM22,12H16V11a3,3,0,0,1,5.6-1.5h0A3.006,3.006,0,0,1,22,11Z" fill="#00455a"/>
      <path id="Trazado_980019" data-name="Trazado 980019" d="M47,28a1,1,0,0,0,1-1V21a3,3,0,0,0-6,0v9H29a1,1,0,0,0-1,1v2a9.01,9.01,0,0,0,9,9h.613l-1.561,4.684A1,1,0,0,0,37,48H47a1,1,0,0,0,1-1V31a1,1,0,0,0-1-1H44V21a1,1,0,0,1,2,0v6A1,1,0,0,0,47,28ZM46,46H38.388l1.333-4H43a1,1,0,0,0,0-2H37a7,7,0,0,1-6.315-4H43a1,1,0,0,0,0-2H30.08A7.026,7.026,0,0,1,30,33V32H46Z" fill="#00455a"/>
      <path id="Trazado_980020" data-name="Trazado 980020" d="M15,15a1,1,0,0,0-1,1v2a1,1,0,0,0,2,0V16A1,1,0,0,0,15,15Z" fill="#00455a"/>
      <path id="Trazado_980021" data-name="Trazado 980021" d="M19,17a1,1,0,0,0-1,1v2a1,1,0,0,0,2,0V18A1,1,0,0,0,19,17Z" fill="#00455a"/>
      <path id="Trazado_980022" data-name="Trazado 980022" d="M23,15a1,1,0,0,0-1,1v2a1,1,0,0,0,2,0V16A1,1,0,0,0,23,15Z" fill="#00455a"/>
      <path id="Trazado_980023" data-name="Trazado 980023" d="M15,21a1,1,0,0,0-1,1v2a1,1,0,0,0,2,0V22A1,1,0,0,0,15,21Z" fill="#00455a"/>
      <path id="Trazado_980024" data-name="Trazado 980024" d="M19,23a1,1,0,0,0-1,1v2a1,1,0,0,0,2,0V24A1,1,0,0,0,19,23Z" fill="#00455a"/>
      <path id="Trazado_980025" data-name="Trazado 980025" d="M23,21a1,1,0,0,0-1,1v2a1,1,0,0,0,2,0V22A1,1,0,0,0,23,21Z" fill="#00455a"/>
      <path id="Trazado_980026" data-name="Trazado 980026" d="M15,27a1,1,0,0,0-1,1v2a1,1,0,0,0,2,0V28A1,1,0,0,0,15,27Z" fill="#00455a"/>
      <path id="Trazado_980027" data-name="Trazado 980027" d="M19,29a1,1,0,0,0-1,1v2a1,1,0,0,0,2,0V30A1,1,0,0,0,19,29Z" fill="#00455a"/>
      <path id="Trazado_980028" data-name="Trazado 980028" d="M23,27a1,1,0,0,0-1,1v2a1,1,0,0,0,2,0V28A1,1,0,0,0,23,27Z" fill="#00455a"/>
      <path id="Trazado_980029" data-name="Trazado 980029" d="M15,33a1,1,0,0,0-1,1v2a1,1,0,0,0,2,0V34A1,1,0,0,0,15,33Z" fill="#00455a"/>
      <path id="Trazado_980030" data-name="Trazado 980030" d="M19,35a1,1,0,0,0-1,1v2a1,1,0,0,0,2,0V36A1,1,0,0,0,19,35Z" fill="#00455a"/>
      <path id="Trazado_980031" data-name="Trazado 980031" d="M23,33a1,1,0,0,0-1,1v2a1,1,0,0,0,2,0V34A1,1,0,0,0,23,33Z" fill="#00455a"/>
      <path id="Trazado_980032" data-name="Trazado 980032" d="M15,39a1,1,0,0,0-1,1v2a1,1,0,0,0,2,0V40A1,1,0,0,0,15,39Z" fill="#00455a"/>
      <path id="Trazado_980033" data-name="Trazado 980033" d="M19,41a1,1,0,0,0-1,1v2a1,1,0,0,0,2,0V42A1,1,0,0,0,19,41Z" fill="#00455a"/>
      <path id="Trazado_980034" data-name="Trazado 980034" d="M23,39a1,1,0,0,0-1,1v2a1,1,0,0,0,2,0V40A1,1,0,0,0,23,39Z" fill="#00455a"/>
    </g>
  </g>
</svg>
