<svg xmlns="http://www.w3.org/2000/svg" xmlns:xlink="http://www.w3.org/1999/xlink" width="103" height="103" viewBox="0 0 103 103">
  <defs>
    <filter id="Trazado_896985" x="0" y="0" width="103" height="103" filterUnits="userSpaceOnUse">
      <feOffset dy="3" input="SourceAlpha"/>
      <feGaussianBlur stdDeviation="3" result="blur"/>
      <feFlood flood-opacity="0.161"/>
      <feComposite operator="in" in2="blur"/>
      <feComposite in="SourceGraphic"/>
    </filter>
  </defs>
  <g id="Grupo_1112876" data-name="Grupo 1112876" transform="translate(-191.051 -8908)">
    <g id="Grupo_1107785" data-name="Grupo 1107785" transform="translate(200.051 8914)">
      <g id="Grupo_1098742" data-name="Grupo 1098742">
        <g transform="matrix(1, 0, 0, 1, -9, -6)" filter="url(#Trazado_896985)">
          <g id="Trazado_896985-2" data-name="Trazado 896985" transform="translate(9 6)" fill="#f8a230" opacity="0.859">
            <path d="M 42.49993896484375 83.5 C 36.96431732177734 83.5 31.59507942199707 82.41617584228516 26.54137420654297 80.27863311767578 C 21.65930366516113 78.21369171142578 17.27444458007812 75.25724792480469 13.5085973739624 71.49140167236328 C 9.742751121520996 67.72555541992188 6.786303520202637 63.34069442749023 4.721362590789795 58.45862197875977 C 2.583821296691895 53.4049186706543 1.499997735023499 48.03568267822266 1.499997735023499 42.50005722045898 C 1.499997735023499 36.96431732177734 2.583821296691895 31.59508323669434 4.721362590789795 26.5413761138916 C 6.786303520202637 21.65930557250977 9.742751121520996 17.27444648742676 13.5085973739624 13.50860023498535 C 17.27444458007812 9.742753028869629 21.65930366516113 6.786305904388428 26.54137420654297 4.721364498138428 C 31.59507942199707 2.583823442459106 36.96431732177734 1.5 42.49993896484375 1.5 C 48.03556060791016 1.5 53.4047966003418 2.583823442459106 58.45851516723633 4.721364498138428 C 63.34057235717773 6.786305904388428 67.72543334960938 9.742753028869629 71.49127960205078 13.50860023498535 C 75.25712585449219 17.27444648742676 78.21358489990234 21.65930557250977 80.27851867675781 26.5413761138916 C 82.41605377197266 31.59508323669434 83.4998779296875 36.96431732177734 83.4998779296875 42.49994277954102 C 83.4998779296875 48.03568267822266 82.41605377197266 53.4049186706543 80.27851867675781 58.45862197875977 C 78.21358489990234 63.34069442749023 75.25712585449219 67.72555541992188 71.49127960205078 71.49140167236328 C 67.72543334960938 75.25724792480469 63.34057235717773 78.21369171142578 58.45851516723633 80.27863311767578 C 53.4047966003418 82.41617584228516 48.03556060791016 83.5 42.49993896484375 83.5 Z" stroke="none"/>
            <path d="M 42.49993896484375 3 C 37.16616439819336 3 31.99351119995117 4.043960571289062 27.12569808959961 6.102867126464844 C 22.42243194580078 8.092185974121094 18.19783020019531 10.94069671630859 14.56925964355469 14.56926727294922 C 10.94068908691406 18.19783782958984 8.092178344726562 22.42242813110352 6.102859497070312 27.12569427490234 C 4.043952941894531 31.9935188293457 2.999992370605469 37.16616058349609 2.999992370605469 42.50005340576172 C 2.999992370605469 47.83383941650391 4.043952941894531 53.00647735595703 6.102859497070312 57.87429428100586 C 8.092178344726562 62.57756042480469 10.94068908691406 66.80216217041016 14.56925964355469 70.43073272705078 C 18.19783020019531 74.05931091308594 22.42243194580078 76.90781402587891 27.12569808959961 78.89713287353516 C 31.99351119995117 80.95603942871094 37.16616439819336 82 42.49993896484375 82 C 47.83372497558594 82 53.00636291503906 80.95603942871094 57.87417984008789 78.89713287353516 C 62.57744598388672 76.90781402587891 66.80204772949219 74.05931091308594 70.43061828613281 70.43073272705078 C 74.05918884277344 66.80216217041016 76.90769958496094 62.57757568359375 78.89700317382812 57.87429428100586 C 80.95590972900391 53.00647735595703 81.99987030029297 47.83383941650391 81.99987030029297 42.49993515014648 C 81.99987030029297 37.16616058349609 80.95590972900391 31.99350738525391 78.89700317382812 27.12569427490234 C 76.90769958496094 22.42242813110352 74.05918884277344 18.19783782958984 70.43061828613281 14.56926727294922 C 66.80204772949219 10.94069671630859 62.57744598388672 8.092185974121094 57.87417984008789 6.102867126464844 C 53.00636291503906 4.043960571289062 47.83372497558594 3 42.49993896484375 3 M 42.49993896484375 0 C 65.97201538085938 0 84.99987030029297 19.02787017822266 84.99987030029297 42.49993515014648 L 84.99987030029297 42.50005340576172 C 84.99987030029297 65.97213745117188 65.97201538085938 85 42.49993896484375 85 C 19.02787017822266 85 -7.62939453125e-06 65.97213745117188 -7.62939453125e-06 42.50005340576172 L -7.62939453125e-06 42.49993515014648 C -7.62939453125e-06 19.02787017822266 19.02787017822266 0 42.49993896484375 0 Z" stroke="none" fill="#fff"/>
          </g>
        </g>
        <g id="Rectángulo_400907" data-name="Rectángulo 400907" transform="translate(0)" fill="none" stroke="#fff" stroke-width="3">
          <rect width="85" height="85" rx="42.5" stroke="none"/>
          <rect x="1.5" y="1.5" width="82" height="82" rx="41" fill="none"/>
        </g>
      </g>
    </g>
    <g id="Grupo_1112875" data-name="Grupo 1112875" transform="translate(216.051 8929.564)">
      <circle id="Elipse_11819" data-name="Elipse 11819" cx="0.827" cy="0.827" r="0.827" transform="translate(3.249 37.924)" fill="#00455a"/>
      <circle id="Elipse_11820" data-name="Elipse 11820" cx="0.827" cy="0.827" r="0.827" transform="translate(3.249 41.233)" fill="#00455a"/>
      <path id="Trazado_979991" data-name="Trazado 979991" d="M237.187,100.848a2.422,2.422,0,1,0-2.422,2.422A2.425,2.425,0,0,0,237.187,100.848Zm-2.422.887a.887.887,0,1,1,.887-.887A.888.888,0,0,1,234.765,101.735Z" transform="translate(-208.56 -87.96)" fill="#00455a"/>
      <path id="Trazado_979992" data-name="Trazado 979992" d="M51.459,33.717a3.249,3.249,0,0,0-4.6,0l-5.206,5.207V36.4a.768.768,0,0,0-1.535,0v4.062l-.834.834H35.169a3.251,3.251,0,0,0-1.785-4.815V32.245a4.47,4.47,0,0,0-1.113-2.955h4.9a2.958,2.958,0,0,1,2.954,2.955v.568a.768.768,0,0,0,1.535,0v-.568a4.5,4.5,0,0,0-3.689-4.418,4.9,4.9,0,0,0-1.481-7.913,12.487,12.487,0,0,0,2.171-7.027,12.345,12.345,0,0,0-3.752-8.907.768.768,0,1,0-1.072,1.1,10.821,10.821,0,0,1,3.289,7.807A10.943,10.943,0,0,1,34.891,19.5c-.136-.011-.274-.019-.413-.019a4.9,4.9,0,0,0-4.137,2.275,4.94,4.94,0,0,0-1.693-1.62,1.822,1.822,0,0,0,.171-.383l.474-1.517,1.551.348a1.794,1.794,0,0,0,1.955-.857l.894-1.549a1.794,1.794,0,0,0-.235-2.122l-1.077-1.169,1.077-1.169A1.794,1.794,0,0,0,33.693,9.6L32.8,8.048a1.794,1.794,0,0,0-1.955-.857l-1.551.348-.474-1.517A1.794,1.794,0,0,0,27.1,4.758H25.311a1.794,1.794,0,0,0-1.72,1.264l-.474,1.517-1.551-.348a1.794,1.794,0,0,0-1.955.857L18.717,9.6a1.794,1.794,0,0,0,.235,2.122l1.077,1.169-1.077,1.169a1.794,1.794,0,0,0-.235,2.122l.894,1.549a1.794,1.794,0,0,0,1.955.857l1.551-.348.474,1.517a1.817,1.817,0,0,0,.171.384,4.939,4.939,0,0,0-1.693,1.62,4.9,4.9,0,0,0-4.137-2.275c-.139,0-.277.007-.413.019A10.917,10.917,0,0,1,26.205,1.971,10.806,10.806,0,0,1,31.12,3.137a.768.768,0,1,0,.692-1.371A12.326,12.326,0,0,0,26.205.435,12.453,12.453,0,0,0,15.924,19.914a4.9,4.9,0,0,0-1.481,7.914,4.5,4.5,0,0,0-3.69,4.417v4.084h-2.6v-.887a.768.768,0,0,0-.768-.768H.768A.768.768,0,0,0,0,35.443V51.987a.768.768,0,0,0,.768.768H7.386a.768.768,0,0,0,.768-.768V51.1h2.936l10.069.632a.768.768,0,1,0,.1-1.532l-9.378-.588V37.469l1.429-1.128a7.337,7.337,0,0,1,9.168.061l1.595,1.292a.767.767,0,0,0,.483.171H32.41a1.714,1.714,0,0,1,0,3.428H23.517a.767.767,0,0,0-.543.225L21.888,42.6a.768.768,0,1,0,1.086,1.086l.861-.861H39.606a.768.768,0,0,0,.543-.225l7.8-7.8a1.714,1.714,0,1,1,2.424,2.424l-8.53,8.53a3.379,3.379,0,0,1-1.388.836L28.818,50.187a7.468,7.468,0,0,1-2.683.319l-1.305-.082a.768.768,0,1,0-.1,1.532l1.305.082q.286.018.571.018a8.984,8.984,0,0,0,2.662-.4L40.908,48.06a4.921,4.921,0,0,0,2.021-1.217l8.53-8.53a3.254,3.254,0,0,0,0-4.6Zm-16.98-12.7a3.368,3.368,0,1,1-3.368,3.369,3.372,3.372,0,0,1,3.368-3.369Zm-9.167-1.535a.265.265,0,0,1-.254-.187l-.669-2.14a.768.768,0,0,0-.349-.436l-.069-.04a.768.768,0,0,0-.553-.085l-2.187.491a.265.265,0,0,1-.289-.127l-.894-1.549a.265.265,0,0,1,.035-.314L21.6,13.448a.768.768,0,0,0,.2-.52v-.08a.768.768,0,0,0-.2-.52l-1.519-1.649a.265.265,0,0,1-.035-.314l.894-1.549a.266.266,0,0,1,.289-.127l2.187.491A.767.767,0,0,0,23.97,9.1l.069-.04a.767.767,0,0,0,.349-.436l.669-2.14a.265.265,0,0,1,.254-.187H27.1a.265.265,0,0,1,.254.187l.669,2.14a.767.767,0,0,0,.348.436l.07.04a.767.767,0,0,0,.553.085l2.187-.491a.265.265,0,0,1,.289.127l.894,1.549a.265.265,0,0,1-.035.314L30.81,12.328a.768.768,0,0,0-.2.52v.08a.768.768,0,0,0,.2.52L32.329,15.1a.265.265,0,0,1,.035.314L31.47,16.96a.266.266,0,0,1-.289.127L28.993,16.6a.766.766,0,0,0-.552.084l-.071.041a.767.767,0,0,0-.348.435l-.669,2.14a.265.265,0,0,1-.254.187H25.311Zm.894,1.535a3.368,3.368,0,1,1-3.369,3.369,3.372,3.372,0,0,1,3.369-3.369Zm-8.273,0a3.368,3.368,0,1,1-3.368,3.369,3.372,3.372,0,0,1,3.368-3.369ZM6.618,51.22H1.535V36.21H6.618ZM8.153,37.865h2.187v11.7H8.153Zm6.788-4.146a8.851,8.851,0,0,0-2.587,1.418l-.065.051V32.245a2.958,2.958,0,0,1,2.955-2.955h4.9a4.471,4.471,0,0,0-1.113,2.955v1.062a8.83,8.83,0,0,0-4.085.411Zm8.5,1.49a8.877,8.877,0,0,0-2.878-1.554v-1.41a2.958,2.958,0,0,1,2.955-2.955h5.377a2.958,2.958,0,0,1,2.955,2.955v4.084H24.823Z" transform="translate(0)" fill="#00455a"/>
    </g>
  </g>
</svg>
