<svg xmlns="http://www.w3.org/2000/svg" width="153" height="153" viewBox="0 0 153 153">
  <g id="Grupo_1112889" data-name="Grupo 1112889" transform="translate(-524 -641)">
    <circle id="Elipse_11802" data-name="Elipse 11802" cx="76.5" cy="76.5" r="76.5" transform="translate(524 641)" fill="#f0e077"/>
    <g id="pez-" transform="translate(552 671.486)">
      <g id="Grupo_1112779" data-name="Grupo 1112779" transform="translate(2 1.513)">
        <g id="Grupo_1112773" data-name="Grupo 1112773" transform="translate(7.499)">
          <g id="Grupo_1112750" data-name="Grupo 1112750">
            <g id="Grupo_1112743" data-name="Grupo 1112743" transform="translate(0 41.921)">
              <g id="Grupo_1112742" data-name="Grupo 1112742">
                <path id="Trazado_979865" data-name="Trazado 979865" d="M33.2,51.952a.948.948,0,0,1-.283-.042.974.974,0,0,1-.649-1.214,11.505,11.505,0,0,0-.395-7.8c-1.861-.155-3.713-.4-5.514-.73a.985.985,0,0,1-.813-.789c-.307-1.717-.537-3.4-.685-5.01a11.624,11.624,0,0,0-14.69,7.312A11.575,11.575,0,0,1,22.1,46.438a11.337,11.337,0,0,1,2.621,4.023.973.973,0,0,1-1.817.7,9.4,9.4,0,0,0-2.176-3.342,9.6,9.6,0,0,0-11.5-1.584.973.973,0,0,1-1.441-1,13.56,13.56,0,0,1,18.34-10.471.974.974,0,0,1,.613.829c.122,1.529.322,3.133.6,4.777,1.72.293,3.483.507,5.25.636a.972.972,0,0,1,.807.551,13.443,13.443,0,0,1,.728,9.705.974.974,0,0,1-.931.691Z" transform="translate(-7.78 -33.824)" fill="#008db6" stroke="#008db6" stroke-width="2"/>
              </g>
            </g>
            <g id="Grupo_1112745" data-name="Grupo 1112745" transform="translate(12.379 5.349)">
              <g id="Grupo_1112744" data-name="Grupo 1112744">
                <path id="Trazado_979866" data-name="Trazado 979866" d="M25.482,24.758a.939.939,0,0,1-.366-.073c-.255-.106-6.249-2.666-7.543-6.747a5.314,5.314,0,0,1,.672-4.59C24.792,2.875,39.219,6.095,39.363,6.129a.973.973,0,0,1,.476,1.627l-.026.027a.962.962,0,0,1-.184.148,31.713,31.713,0,0,0-5.7,4.531,33.378,33.378,0,0,0-7.513,11.664.986.986,0,0,1-.22.337,1.013,1.013,0,0,1-.712.3Zm8.65-17.186c-4.371,0-10.674,1.11-14.236,6.806a3.408,3.408,0,0,0-.467,2.97c.715,2.257,3.72,4.191,5.552,5.124a35.117,35.117,0,0,1,7.57-11.387,33.987,33.987,0,0,1,3.97-3.4c-.69-.062-1.5-.109-2.389-.109Z" transform="translate(-17.322 -5.636)" fill="#008db6" stroke="#008db6" stroke-width="2"/>
              </g>
            </g>
            <g id="Grupo_1112747" data-name="Grupo 1112747" transform="translate(16.824)">
              <g id="Grupo_1112746" data-name="Grupo 1112746">
                <path id="Trazado_979867" data-name="Trazado 979867" d="M32.727,52.729A58.081,58.081,0,0,1,22.5,51.794a.984.984,0,0,1-.817-.788c-1.72-9.581-1.07-18.69,1.88-26.342a.963.963,0,0,1,.05-.11,35.3,35.3,0,0,1,7.915-12.242A33.653,33.653,0,0,1,37.585,7.5C46.373,1.964,57.652.222,70.193,2.463a.986.986,0,0,1,.827.854c2.248,12.6.47,23.906-5.141,32.717A34.77,34.77,0,0,1,49.027,49.819a44.443,44.443,0,0,1-16.3,2.91Zm-9.24-2.739c9.083,1.526,17.657.843,24.829-1.983A32.829,32.829,0,0,0,64.236,34.991s0,0,0,0c5.255-8.25,6.97-18.86,4.973-30.719-11.8-1.989-22.366-.3-30.594,4.884a31.722,31.722,0,0,0-5.709,4.535A33.378,33.378,0,0,0,25.4,25.352a1.014,1.014,0,0,1-.049.106c-2.722,7.122-3.363,15.588-1.86,24.531ZM70.053,3.438h.013Z" transform="translate(-20.748 -1.513)" fill="#008db6" stroke="#008db6" stroke-width="2"/>
              </g>
            </g>
            <g id="Grupo_1112749" data-name="Grupo 1112749" transform="translate(43.619 32.907)">
              <g id="Grupo_1112748" data-name="Grupo 1112748">
                <path id="Trazado_979868" data-name="Trazado 979868" d="M49.809,49.679a5.231,5.231,0,0,1-1.6-.255c-4.079-1.3-6.631-7.294-6.738-7.549a.974.974,0,0,1,.273-1.123l.156-.131a.973.973,0,0,1,.269-.16,32.832,32.832,0,0,0,15.92-13.016.975.975,0,0,1,.236-.256l.156-.118a.973.973,0,0,1,1.534.556c.034.144,3.254,14.571-7.217,21.13h0a5.609,5.609,0,0,1-2.992.919Zm2.477-1.745H52.3Zm-8.62-5.977c.789,1.562,2.7,4.838,5.14,5.613a3.393,3.393,0,0,0,2.964-.462c6.912-4.331,7.07-12.693,6.687-16.737A34.816,34.816,0,0,1,43.666,41.958Z" transform="translate(-41.4 -26.876)" fill="#008db6" stroke="#008db6" stroke-width="2"/>
              </g>
            </g>
          </g>
          <g id="Grupo_1112753" data-name="Grupo 1112753" transform="translate(46.621 4.905)">
            <g id="Grupo_1112752" data-name="Grupo 1112752">
              <g id="Grupo_1112751" data-name="Grupo 1112751">
                <path id="Trazado_979869" data-name="Trazado 979869" d="M48.616,15.053a4.9,4.9,0,0,1-3.467-8.37,5.02,5.02,0,0,1,6.934,0,4.9,4.9,0,0,1-3.465,8.37Zm0-7.859a2.957,2.957,0,0,0,0,5.913h0a2.957,2.957,0,1,0,0-5.913Z" transform="translate(-43.713 -5.294)" fill="#008db6" stroke="#008db6" stroke-width="2"/>
              </g>
            </g>
          </g>
          <g id="Grupo_1112772" data-name="Grupo 1112772" transform="translate(23.161 15.285)">
            <g id="Grupo_1112755" data-name="Grupo 1112755" transform="translate(0 23.225)">
              <g id="Grupo_1112754" data-name="Grupo 1112754">
                <path id="Trazado_979870" data-name="Trazado 979870" d="M31.024,37.56a.973.973,0,0,1-.973-.973V33.141H26.6a.973.973,0,0,1,0-1.946h4.419a.973.973,0,0,1,.973.973v4.419A.973.973,0,0,1,31.024,37.56Z" transform="translate(-25.632 -31.195)" fill="#008db6" stroke="#008db6" stroke-width="2"/>
              </g>
            </g>
            <g id="Grupo_1112757" data-name="Grupo 1112757" transform="translate(10.161 21.19)">
              <g id="Grupo_1112756" data-name="Grupo 1112756">
                <path id="Trazado_979871" data-name="Trazado 979871" d="M38.856,35.992a.973.973,0,0,1-.973-.973V31.573H34.436a.973.973,0,1,1,0-1.946h4.419a.973.973,0,0,1,.973.973v4.419A.973.973,0,0,1,38.856,35.992Z" transform="translate(-33.463 -29.626)" fill="#008db6" stroke="#008db6" stroke-width="2"/>
              </g>
            </g>
            <g id="Grupo_1112759" data-name="Grupo 1112759" transform="translate(2.035 13.064)">
              <g id="Grupo_1112758" data-name="Grupo 1112758">
                <path id="Trazado_979872" data-name="Trazado 979872" d="M32.593,29.729a.973.973,0,0,1-.973-.973V25.31H28.173a.973.973,0,0,1,0-1.946h4.419a.973.973,0,0,1,.973.973v4.419A.973.973,0,0,1,32.593,29.729Z" transform="translate(-27.2 -23.364)" fill="#008db6" stroke="#008db6" stroke-width="2"/>
              </g>
            </g>
            <g id="Grupo_1112761" data-name="Grupo 1112761" transform="translate(23.225 8.125)">
              <g id="Grupo_1112760" data-name="Grupo 1112760">
                <path id="Trazado_979873" data-name="Trazado 979873" d="M48.925,25.923a.973.973,0,0,1-.973-.973V21.5H44.506a.973.973,0,1,1,0-1.946h4.419a.973.973,0,0,1,.973.973V24.95A.973.973,0,0,1,48.925,25.923Z" transform="translate(-43.533 -19.557)" fill="#008db6" stroke="#008db6" stroke-width="2"/>
              </g>
            </g>
            <g id="Grupo_1112763" data-name="Grupo 1112763" transform="translate(15.099)">
              <g id="Grupo_1112762" data-name="Grupo 1112762">
                <path id="Trazado_979874" data-name="Trazado 979874" d="M42.662,19.66a.973.973,0,0,1-.973-.973V15.241H38.243a.973.973,0,1,1,0-1.946h4.419a.973.973,0,0,1,.973.973v4.419A.973.973,0,0,1,42.662,19.66Z" transform="translate(-37.27 -13.294)" fill="#008db6" stroke="#008db6" stroke-width="2"/>
              </g>
            </g>
            <g id="Grupo_1112765" data-name="Grupo 1112765" transform="translate(20.588 18.89)">
              <g id="Grupo_1112764" data-name="Grupo 1112764">
                <path id="Trazado_979875" data-name="Trazado 979875" d="M46.892,34.218a.973.973,0,0,1-.973-.973V29.8H42.473a.973.973,0,1,1,0-1.946h4.419a.973.973,0,0,1,.973.973v4.418A.973.973,0,0,1,46.892,34.218Z" transform="translate(-41.5 -27.854)" fill="#008db6" stroke="#008db6" stroke-width="2"/>
              </g>
            </g>
            <g id="Grupo_1112767" data-name="Grupo 1112767" transform="translate(12.462 10.763)">
              <g id="Grupo_1112766" data-name="Grupo 1112766">
                <path id="Trazado_979876" data-name="Trazado 979876" d="M40.629,27.956a.973.973,0,0,1-.973-.973V23.536H36.21a.973.973,0,0,1,0-1.946h4.419a.973.973,0,0,1,.973.973v4.419A.973.973,0,0,1,40.629,27.956Z" transform="translate(-35.237 -21.59)" fill="#008db6" stroke="#008db6" stroke-width="2"/>
              </g>
            </g>
            <g id="Grupo_1112769" data-name="Grupo 1112769" transform="translate(4.336 2.638)">
              <g id="Grupo_1112768" data-name="Grupo 1112768">
                <path id="Trazado_979877" data-name="Trazado 979877" d="M34.366,21.693a.973.973,0,0,1-.973-.973V17.274H29.947a.973.973,0,0,1,0-1.946h4.419a.973.973,0,0,1,.973.973V20.72A.973.973,0,0,1,34.366,21.693Z" transform="translate(-28.974 -15.328)" fill="#008db6" stroke="#008db6" stroke-width="2"/>
              </g>
            </g>
            <g id="Grupo_1112771" data-name="Grupo 1112771" transform="translate(12.462 10.763)">
              <g id="Grupo_1112770" data-name="Grupo 1112770">
                <path id="Trazado_979878" data-name="Trazado 979878" d="M40.629,27.956a.973.973,0,0,1-.973-.973V23.536H36.21a.973.973,0,0,1,0-1.946h4.419a.973.973,0,0,1,.973.973v4.419A.973.973,0,0,1,40.629,27.956Z" transform="translate(-35.237 -21.59)" fill="#008db6" stroke="#008db6" stroke-width="2"/>
              </g>
            </g>
          </g>
        </g>
        <g id="Grupo_1112778" data-name="Grupo 1112778" transform="translate(0 55.822)">
          <g id="Grupo_1112775" data-name="Grupo 1112775" transform="translate(0 11.675)">
            <g id="Grupo_1112774" data-name="Grupo 1112774">
              <path id="Trazado_979879" data-name="Trazado 979879" d="M83.011,70.339H4.025A2.028,2.028,0,0,1,2,68.313V54.51a.974.974,0,0,1,1.465-.84l6.76,3.957a12.41,12.41,0,0,0,12.523,0,14.372,14.372,0,0,1,14.406-.049c.034.015.067.032.1.049a12.409,12.409,0,0,0,12.523,0,14.614,14.614,0,0,1,14.5,0,12.608,12.608,0,0,0,12.525,0l6.772-3.957a.973.973,0,0,1,1.464.84v13.8A2.028,2.028,0,0,1,83.011,70.339ZM3.946,56.206V68.313l79.065.08.07-12.181-5.3,3.1a14.592,14.592,0,0,1-14.488,0,12.635,12.635,0,0,0-12.538,0,14.365,14.365,0,0,1-14.4.049c-.034-.015-.067-.032-.1-.049a12.426,12.426,0,0,0-12.525,0,14.358,14.358,0,0,1-14.488,0Z" transform="translate(-2 -53.537)" fill="#008db6" stroke="#008db6" stroke-width="2"/>
            </g>
          </g>
          <g id="Grupo_1112777" data-name="Grupo 1112777" transform="translate(0)">
            <g id="Grupo_1112776" data-name="Grupo 1112776">
              <path id="Trazado_979880" data-name="Trazado 979880" d="M70.544,63.946a14.393,14.393,0,0,1-7.251-1.963,12.635,12.635,0,0,0-12.538,0,14.365,14.365,0,0,1-14.4.049c-.034-.015-.067-.032-.1-.049a12.426,12.426,0,0,0-12.525,0,14.358,14.358,0,0,1-14.488,0l-6.76-3.957A.973.973,0,0,1,2,57.186V46.57a2.025,2.025,0,0,1,3.052-1.746l5.173,3.038a12.451,12.451,0,0,0,12.522-.014,14.59,14.59,0,0,1,14.489,0l.075.048a12.5,12.5,0,0,0,12.35.028.869.869,0,0,1,.112-.076,14.364,14.364,0,0,1,14.488,0c.025.015.049.03.072.047A12.482,12.482,0,0,0,76.8,47.859l5.185-3.04a2.025,2.025,0,0,1,3.05,1.747V57.186a.974.974,0,0,1-.482.84l-6.772,3.957a14.373,14.373,0,0,1-7.238,1.963ZM57.025,58.34a14.4,14.4,0,0,1,7.25,1.963,12.608,12.608,0,0,0,12.525,0l6.29-3.676V46.567a.069.069,0,0,0-.04-.068l-5.267,3.042a14.435,14.435,0,0,1-14.487,0,.886.886,0,0,1-.077-.049,12.424,12.424,0,0,0-12.349-.029.981.981,0,0,1-.116.079,14.446,14.446,0,0,1-14.483,0,.937.937,0,0,1-.079-.051,12.609,12.609,0,0,0-12.461.037,14.4,14.4,0,0,1-14.486.014L4.066,46.5l-.12.068V56.629L10.224,60.3a12.41,12.41,0,0,0,12.523,0,14.372,14.372,0,0,1,14.406-.049c.034.015.067.032.1.049a12.409,12.409,0,0,0,12.523,0,14.4,14.4,0,0,1,7.251-1.963Zm27.038-1.154h.013Z" transform="translate(-2 -44.538)" fill="#008db6" stroke="#008db6" stroke-width="2"/>
            </g>
          </g>
        </g>
      </g>
    </g>
  </g>
</svg>
