<svg xmlns="http://www.w3.org/2000/svg" xmlns:xlink="http://www.w3.org/1999/xlink" width="82" height="82" viewBox="0 0 82 82">
  <defs>
    <clipPath id="clip-path">
      <path id="path1173" d="M0-682.665H63.714v63.714H0Z" transform="translate(0 682.665)"/>
    </clipPath>
  </defs>
  <g id="Grupo_1112789" data-name="Grupo 1112789" transform="translate(-653.051 -505)">
    <circle id="Elipse_11803" data-name="Elipse 11803" cx="41" cy="41" r="41" transform="translate(653.051 505)" fill="#f0e077"/>
    <g id="g1167" transform="translate(662.051 1196.664)">
      <g id="g1169" transform="translate(0 -682.665)">
        <g id="g1171" clip-path="url(#clip-path)">
          <g id="g1177" transform="translate(-0.16 -0.161)">
            <path id="path1179" d="M-76.62-41.429a32.054,32.054,0,0,1-32.017-32.017,31.789,31.789,0,0,1,9.531-22.792,1.094,1.094,0,0,1,1.547.01,1.094,1.094,0,0,1-.01,1.547,29.617,29.617,0,0,0-8.88,21.235,29.864,29.864,0,0,0,29.83,29.83,29.864,29.864,0,0,0,29.83-29.83,29.864,29.864,0,0,0-29.83-29.83,29.59,29.59,0,0,0-17.714,5.827,1.094,1.094,0,0,1-1.53-.229,1.094,1.094,0,0,1,.229-1.53,31.762,31.762,0,0,1,19.015-6.255A32.054,32.054,0,0,1-44.6-73.446,32.054,32.054,0,0,1-76.62-41.429Z" transform="translate(108.637 105.464)" fill="#008db6"/>
          </g>
          <g id="g1181" transform="translate(38.216 9.702)">
            <path id="path1183" d="M4.5,21.334a1.094,1.094,0,0,1-1.02-1.489A21.3,21.3,0,0,0,4.75,9.622,21.218,21.218,0,0,0-9.276-7.878a1.094,1.094,0,0,1-.663-1.4,1.094,1.094,0,0,1,1.4-.663A23.394,23.394,0,0,1,6.922,9.358a23.5,23.5,0,0,1-1.4,11.277A1.094,1.094,0,0,1,4.5,21.334Z" transform="translate(10.003 10.003)" fill="#008db6"/>
          </g>
          <g id="g1185" transform="translate(21.872 8.409)">
            <path id="path1187" d="M-8.908-25.519a1.094,1.094,0,0,1-1.005-.661,1.094,1.094,0,0,1,.572-1.437A23.448,23.448,0,0,1-2.9-29.356a23.47,23.47,0,0,1,6.252.074,1.094,1.094,0,0,1,.923,1.241,1.094,1.094,0,0,1-1.241.923,21.282,21.282,0,0,0-5.669-.067,21.261,21.261,0,0,0-5.844,1.576A1.09,1.09,0,0,1-8.908-25.519Z" transform="translate(10.003 29.53)" fill="#008db6"/>
          </g>
          <g id="g1189" transform="translate(10.373 9.813)">
            <path id="path1191" d="M-311.377-167.013a3.17,3.17,0,0,1-2.125-.813l-.479-.43a8.349,8.349,0,0,1-2.584-7.876,11.355,11.355,0,0,0-5.668-2.281c-5.1-.579-12.239-2.221-17.287-6.754-9.361-8.406-11.034-20.175-7.593-24.008s15.322-3.433,24.684,4.972c3.2,2.876,5.7,7,7.422,12.264a1.094,1.094,0,0,1-.7,1.38,1.094,1.094,0,0,1-1.38-.7c-1.6-4.892-3.89-8.7-6.8-11.316-8.527-7.656-19.106-7.91-21.595-5.139s-1.1,13.263,7.426,20.919c4.618,4.147,11.289,5.665,16.073,6.208a13.519,13.519,0,0,1,7.369,3.222,1.094,1.094,0,0,1,.33,1.144,6.15,6.15,0,0,0,1.768,6.337l.479.43a1,1,0,0,0,1.412-.076,1.018,1.018,0,0,0,.215-.37l1.1-3.43a3.582,3.582,0,0,1,1.987-2.192l3.2-1.384a1.008,1.008,0,0,0,.347-.25.993.993,0,0,0,.254-.721.993.993,0,0,0-.33-.69l-.479-.43a6.088,6.088,0,0,0-6.386-1.122,1.094,1.094,0,0,1-1.14-.2,13.592,13.592,0,0,1-4.1-6.807,1.094,1.094,0,0,1,.792-1.329,1.094,1.094,0,0,1,1.329.792,11.431,11.431,0,0,0,2.973,5.276,8.253,8.253,0,0,1,7.99,1.763l.479.43a3.166,3.166,0,0,1,1.053,2.2,3.166,3.166,0,0,1-.811,2.3,3.211,3.211,0,0,1-1.105.8l-3.2,1.384a1.4,1.4,0,0,0-.774.853l-1.1,3.43a3.164,3.164,0,0,1-.663,1.155A3.193,3.193,0,0,1-311.377-167.013Z" transform="translate(348.763 211.505)" fill="#008db6"/>
          </g>
          <g id="g1193" transform="translate(17.06 13.757)">
            <path id="path1195" d="M-44.112-39.416a3.08,3.08,0,0,1-2.06-.789,3.088,3.088,0,0,1-.235-4.356,3.09,3.09,0,0,1,2.3-1.024,3.08,3.08,0,0,1,2.06.789,3.065,3.065,0,0,1,1.019,2.13,3.064,3.064,0,0,1-.785,2.227A3.09,3.09,0,0,1-44.112-39.416Zm0-3.982a.887.887,0,0,0-.668.3.9.9,0,0,0,.068,1.267.9.9,0,0,0,.6.23.887.887,0,0,0,.668-.3.891.891,0,0,0,.228-.648.892.892,0,0,0-.3-.62A.9.9,0,0,0-44.11-43.4Z" transform="translate(47.195 45.586)" fill="#008db6"/>
          </g>
          <g id="g1197" transform="translate(13.866 12.112)">
            <path id="path1199" d="M-156.768,7.555a1.094,1.094,0,0,1-1.021-.7,1.094,1.094,0,0,1,.627-1.414A21.719,21.719,0,0,0-144.025-9.19a1.094,1.094,0,0,1,1.339-.775,1.094,1.094,0,0,1,.775,1.339A23.913,23.913,0,0,1-156.375,7.482,1.091,1.091,0,0,1-156.768,7.555Z" transform="translate(157.862 10.002)" fill="#008db6"/>
          </g>
          <g id="g1201" transform="translate(30.708 12.291)">
            <path id="path1203" d="M.568-11.262a1.093,1.093,0,0,1-.94-.533,1.094,1.094,0,0,1,.378-1.5l2.515-1.5a1.953,1.953,0,0,0,.868-1.111A2.632,2.632,0,0,0,2.2-18.952L-4.078-22.64a3.221,3.221,0,0,0-4.014.623,1.094,1.094,0,0,1-1.545.083,1.094,1.094,0,0,1-.083-1.545,5.415,5.415,0,0,1,6.75-1.048l6.279,3.688a4.813,4.813,0,0,1,2.174,5.566A4.136,4.136,0,0,1,3.644-12.92l-2.515,1.5A1.089,1.089,0,0,1,.568-11.262Z" transform="translate(10 25.266)" fill="#008db6"/>
          </g>
          <g id="g1205" transform="translate(11.05 35.223)">
            <path id="path1207" d="M-43.623-158.951a15.134,15.134,0,0,1-6.2-1.335,1.094,1.094,0,0,1-.547-1.447,1.094,1.094,0,0,1,1.447-.547,12.922,12.922,0,0,0,5.76,1.133,13,13,0,0,0,9.555-4.746l-22.259-12.2a12.9,12.9,0,0,0,3.538,13.569,1.094,1.094,0,0,1,.068,1.545,1.094,1.094,0,0,1-1.545.068,15.085,15.085,0,0,1-3.633-17.182,1.094,1.094,0,0,1,.649-.6,1.094,1.094,0,0,1,.878.076l24.456,13.4a1.094,1.094,0,0,1,.537.7,1.094,1.094,0,0,1-.155.869,15.182,15.182,0,0,1-12.008,6.678Q-43.353-158.951-43.623-158.951Z" transform="translate(58.71 180.746)" fill="#008db6"/>
          </g>
          <g id="g1209" transform="translate(14.779 37.027)">
            <path id="path1211" d="M-112.635-144.478a11.382,11.382,0,0,1-5.453-1.4,11.286,11.286,0,0,1-5.445-6.779,11.228,11.228,0,0,1,.354-7.4,1.094,1.094,0,0,1,.646-.622,1.094,1.094,0,0,1,.894.071l17.873,9.8a1.094,1.094,0,0,1,.541.718,1.094,1.094,0,0,1-.18.881,11.467,11.467,0,0,1-8.819,4.727Q-112.429-144.478-112.635-144.478Zm-8.9-13.577a9.073,9.073,0,0,0,.1,4.785,9.113,9.113,0,0,0,4.4,5.473,9.18,9.18,0,0,0,4.734,1.125,9.269,9.269,0,0,0,6.324-2.858Z" transform="translate(123.997 160.741)" fill="#008db6"/>
          </g>
          <g id="g1213" transform="translate(16.858 41.991)">
            <path id="path1215" d="M-8.906-54.547a1.093,1.093,0,0,1-.924-.507,1.094,1.094,0,0,1,.337-1.51l7.573-4.811a1.094,1.094,0,0,1,1.51.337,1.094,1.094,0,0,1-.337,1.51l-7.573,4.811A1.089,1.089,0,0,1-8.906-54.547Z" transform="translate(10.001 61.545)" fill="#008db6"/>
          </g>
          <g id="g1217" transform="translate(24.431 41.992)">
            <path id="path1219" d="M-11.1-95.351a1.094,1.094,0,0,1-1.093-1.066l-.226-9.011a1.094,1.094,0,0,1,1.066-1.121,1.094,1.094,0,0,1,1.121,1.066L-10-96.472a1.094,1.094,0,0,1-1.066,1.121Z" transform="translate(12.417 106.549)" fill="#008db6"/>
          </g>
          <g id="g1221" transform="translate(31.596 49.327)">
            <path id="path1223" d="M-134.581-3.947A1.094,1.094,0,0,1-135.674-5a1.094,1.094,0,0,1,1.05-1.136c.581-.023,1.17-.071,1.75-.141a21.03,21.03,0,0,0,9.405-3.535,1.094,1.094,0,0,1,1.52.287A1.094,1.094,0,0,1-122.235-8a23.518,23.518,0,0,1-10.374,3.9c-.639.078-1.288.13-1.928.156Z" transform="translate(135.674 10.001)" fill="#008db6"/>
          </g>
          <g id="g1225" transform="translate(8.325 20.45)">
            <path id="path1227" d="M-35.632-212.916a1.093,1.093,0,0,1-.96-.568,23.322,23.322,0,0,1-2.712-8.438,23.337,23.337,0,0,1,2.5-13.708,1.094,1.094,0,0,1,1.476-.462,1.094,1.094,0,0,1,.462,1.476,21.158,21.158,0,0,0-2.266,12.429,21.144,21.144,0,0,0,2.458,7.651,1.094,1.094,0,0,1-.433,1.485A1.089,1.089,0,0,1-35.632-212.916Z" transform="translate(39.478 236.217)" fill="#008db6"/>
          </g>
        </g>
      </g>
    </g>
  </g>
</svg>
