<svg xmlns="http://www.w3.org/2000/svg" xmlns:xlink="http://www.w3.org/1999/xlink" width="85.538" height="85.538" viewBox="0 0 85.538 85.538">
  <defs>
    <filter id="Trazado_874925" x="0" y="0" width="85.538" height="85.538" filterUnits="userSpaceOnUse">
      <feOffset dy="3" input="SourceAlpha"/>
      <feGaussianBlur stdDeviation="3" result="blur"/>
      <feFlood flood-opacity="0.161"/>
      <feComposite operator="in" in2="blur"/>
      <feComposite in="SourceGraphic"/>
    </filter>
    <clipPath id="clip-path">
      <path id="path1789" d="M46-682.665H0v46H46Z" transform="translate(0 682.665)" fill="#008db6"/>
    </clipPath>
  </defs>
  <g id="Grupo_1112798" data-name="Grupo 1112798" transform="translate(9 6)">
    <g transform="matrix(1, 0, 0, 1, -9, -6)" filter="url(#Trazado_874925)">
      <g id="Trazado_874925-2" data-name="Trazado 874925" transform="translate(9 6)" fill="#f0e077">
        <path d="M 33.76883697509766 66.0380859375 C 29.41190719604492 66.0380859375 25.18610763549805 65.18511199951172 21.20880699157715 63.50285339355469 C 17.3664379119873 61.87766265869141 13.91531658172607 59.55075454711914 10.95131683349609 56.58676147460938 C 7.987317085266113 53.62276458740234 5.660407066345215 50.1716423034668 4.035226821899414 46.32927322387695 C 2.352967023849487 42.35197448730469 1.499997019767761 38.12616348266602 1.499997019767761 33.76923370361328 C 1.499997019767761 29.41192245483398 2.352967023849487 25.18612289428711 4.035226821899414 21.20882225036621 C 5.660407066345215 17.3664436340332 7.987327098846436 13.91533279418945 10.95131683349609 10.95133304595947 C 13.91531658172607 7.987332820892334 17.3664379119873 5.660422801971436 21.20880699157715 4.035233020782471 C 25.18610763549805 2.352972984313965 29.41190719604492 1.500002980232239 33.76883697509766 1.500002980232239 C 38.12576675415039 1.500002980232239 42.35156631469727 2.352972984313965 46.3288688659668 4.035233020782471 C 50.17123794555664 5.660422801971436 53.62235641479492 7.987332820892334 56.58635711669922 10.95133304595947 C 59.55034637451172 13.91533279418945 61.87726593017578 17.3664436340332 63.50244522094727 21.20882225036621 C 65.18470764160156 25.18612289428711 66.03767395019531 29.41192245483398 66.03767395019531 33.76885223388672 C 66.03767395019531 38.12616348266602 65.18470764160156 42.35197448730469 63.50244522094727 46.32927322387695 C 61.87726593017578 50.1716423034668 59.55035781860352 53.62276458740234 56.58635711669922 56.58676147460938 C 53.62235641479492 59.55075454711914 50.17123794555664 61.87766265869141 46.3288688659668 63.50285339355469 C 42.35156631469727 65.18511199951172 38.12576675415039 66.0380859375 33.76883697509766 66.0380859375 Z" stroke="none"/>
        <path d="M 33.76883697509766 3 C 29.61374664306641 3 25.58453750610352 3.8131103515625 21.79313659667969 5.416732788085938 C 18.12955856323242 6.966297149658203 14.83870315551758 9.185264587402344 12.01198196411133 12.01198577880859 C 9.185260772705078 14.83871078491211 6.966304779052734 18.12956619262695 5.416736602783203 21.79314422607422 C 3.813114166259766 25.58454132080078 3 29.61375427246094 3 33.76924133300781 C 3 37.92433166503906 3.813114166259766 41.95354461669922 5.416736602783203 45.74494171142578 C 6.966304779052734 49.40852355957031 9.185260772705078 52.69937515258789 12.01198196411133 55.52610015869141 C 14.83870315551758 58.35282135009766 18.12955856323242 60.5717887878418 21.79313659667969 62.12135314941406 C 25.58453750610352 63.7249755859375 29.61374664306641 64.5380859375 33.76883697509766 64.5380859375 C 37.92392730712891 64.5380859375 41.953125 63.7249755859375 45.74453735351562 62.12135314941406 C 49.40810394287109 60.5717887878418 52.69895935058594 58.35282135009766 55.52569198608398 55.52610015869141 C 58.3524169921875 52.69937515258789 60.57136917114258 49.40852355957031 62.12093734741211 45.74494171142578 C 63.72455978393555 41.95354461669922 64.53767395019531 37.92433166503906 64.53767395019531 33.76884460449219 C 64.53767395019531 29.61375427246094 63.72455978393555 25.58454132080078 62.12093734741211 21.79314422607422 C 60.57136917114258 18.12956619262695 58.3524169921875 14.83871078491211 55.52569198608398 12.01198577880859 C 52.69895935058594 9.185264587402344 49.40810394287109 6.966297149658203 45.74453735351562 5.416732788085938 C 41.953125 3.8131103515625 37.92392730712891 3 33.76883697509766 3 M 33.76883697509766 0 C 52.41884613037109 0 67.53767395019531 15.11883163452148 67.53767395019531 33.76884460449219 L 67.53767395019531 33.76924133300781 C 67.53767395019531 52.41925430297852 52.41884613037109 67.5380859375 33.76883697509766 67.5380859375 C 15.11881637573242 67.5380859375 0 52.41925430297852 0 33.76924133300781 L 0 33.76884460449219 C 0 15.11883163452148 15.11881637573242 0 33.76883697509766 0 Z" stroke="none" fill="#fff"/>
      </g>
    </g>
    <g id="g1767" transform="translate(10.538 11.001)">
      <g id="g1769" transform="translate(26.696 24.688)">
        <path id="path1771" d="M-148.349,1.392a.672.672,0,0,0,.476-.2.674.674,0,0,0,0-.953L-157.917-9.8a.674.674,0,0,0-.953,0,.674.674,0,0,0,0,.953l10.045,10.045A.672.672,0,0,0-148.349,1.392Z" transform="translate(159.068 10)" fill="#008db6"/>
      </g>
      <g id="g1773" transform="translate(9.704 7.696)">
        <path id="path1775" d="M-63.107-4.767a.672.672,0,0,0,.476-.2.674.674,0,0,0,0-.953L-66.516-9.8a.674.674,0,0,0-.953,0,.674.674,0,0,0,0,.953l3.886,3.886A.672.672,0,0,0-63.107-4.767Z" transform="translate(67.666 10)" fill="#008db6"/>
      </g>
      <g id="g1777" transform="translate(32.42 34.859)">
        <path id="path1779" d="M-38.35-6.555a.672.672,0,0,0,.476-.2.674.674,0,0,0,0-.953l-2.1-2.1a.674.674,0,0,0-.953,0,.674.674,0,0,0,0,.953l2.1,2.1A.672.672,0,0,0-38.35-6.555Z" transform="translate(41.121 10)" fill="#008db6"/>
      </g>
      <g id="g1781" transform="translate(7.481 9.92)">
        <path id="path1783" d="M-75.281-3.887a.672.672,0,0,0,.476-.2.674.674,0,0,0,0-.953L-79.57-9.8a.674.674,0,0,0-.953,0,.674.674,0,0,0,0,.953l4.765,4.765A.672.672,0,0,0-75.281-3.887Z" transform="translate(80.72 10)" fill="#008db6"/>
      </g>
      <g id="g1785">
        <g id="g1787" transform="translate(0 0)" clip-path="url(#clip-path)">
          <g id="g1793" transform="translate(0 0)">
            <path id="path1795" d="M-649.665-341.333a23.026,23.026,0,0,0-23,23,23.026,23.026,0,0,0,23,23,23.026,23.026,0,0,0,23-23A23.026,23.026,0,0,0-649.665-341.333Zm0,44.652a21.677,21.677,0,0,1-21.652-21.652,21.677,21.677,0,0,1,21.652-21.652,21.677,21.677,0,0,1,21.652,21.652A21.677,21.677,0,0,1-649.665-296.68Z" transform="translate(672.665 341.333)" fill="#008db6"/>
          </g>
          <g id="g1797" transform="translate(2.929 3.145)">
            <path id="path1799" d="M8.735-224.728a19.729,19.729,0,0,0,14.04-5.815,19.8,19.8,0,0,0,5.783-12.894.674.674,0,0,0-.635-.711.674.674,0,0,0-.711.635,18.456,18.456,0,0,1-5.39,12.018,18.39,18.39,0,0,1-13.087,5.42A18.39,18.39,0,0,1-4.352-231.5a18.39,18.39,0,0,1-5.421-13.087,18.39,18.39,0,0,1,5.421-13.087,18.39,18.39,0,0,1,13.087-5.421,18.39,18.39,0,0,1,13.087,5.421,18.263,18.263,0,0,1,5.317,11.121.674.674,0,0,0,.74.6.674.674,0,0,0,.6-.74,19.6,19.6,0,0,0-5.7-11.933,19.729,19.729,0,0,0-14.04-5.815A19.729,19.729,0,0,0-5.3-258.624a19.729,19.729,0,0,0-5.815,14.04,19.728,19.728,0,0,0,5.815,14.04A19.729,19.729,0,0,0,8.735-224.728Z" transform="translate(11.12 264.439)" fill="#008db6"/>
          </g>
          <g id="g1801" transform="translate(12.519 6.545)">
            <path id="path1803" d="M-9.327-120.591a.674.674,0,0,0,.663-.561,9.031,9.031,0,0,1,8.927-7.527,9.031,9.031,0,0,1,8.928,7.527.674.674,0,0,0,.778.551.674.674,0,0,0,.551-.778A10.376,10.376,0,0,0,.264-130.026a10.376,10.376,0,0,0-10.256,8.648.674.674,0,0,0,.551.778A.679.679,0,0,0-9.327-120.591Z" transform="translate(10.002 130.026)" fill="#008db6"/>
          </g>
          <g id="g1805" transform="translate(10.847 10.432)">
            <path id="path1807" d="M-58.216-126.7h1.526a.674.674,0,0,0,.674-.674.674.674,0,0,0-.674-.674h-1.526a1.215,1.215,0,0,1-.865-.358,1.213,1.213,0,0,1-.358-.864v-.551a1.224,1.224,0,0,1,1.223-1.222h5.584a6.793,6.793,0,0,0,6.027-3.7,6.793,6.793,0,0,0,6.027,3.7h1.1a1.224,1.224,0,0,1,1.223,1.222v.551a1.224,1.224,0,0,1-1.223,1.222h-1.526a.674.674,0,0,0-.674.674.674.674,0,0,0,.674.674h1.526a2.573,2.573,0,0,0,2.57-2.57v-.551a2.573,2.573,0,0,0-2.57-2.57h-1.1a5.434,5.434,0,0,1-5.074-3.526,1,1,0,0,0-.952-.661,1.006,1.006,0,0,0-.952.661,5.435,5.435,0,0,1-5.075,3.526h-5.584a2.573,2.573,0,0,0-2.57,2.57v.551a2.552,2.552,0,0,0,.753,1.817A2.554,2.554,0,0,0-58.216-126.7Z" transform="translate(60.786 136.58)" fill="#008db6"/>
          </g>
          <g id="g1809" transform="translate(18.517 17.408)">
            <path id="path1811" d="M-9.326-7.3a.674.674,0,0,0,.674-.674V-9.326A.674.674,0,0,0-9.326-10,.674.674,0,0,0-10-9.326v1.348A.674.674,0,0,0-9.326-7.3Z" transform="translate(10 10)" fill="#008db6"/>
          </g>
          <g id="g1813" transform="translate(25.704 17.408)">
            <path id="path1815" d="M-9.326-7.3a.674.674,0,0,0,.674-.674V-9.326A.674.674,0,0,0-9.326-10,.674.674,0,0,0-10-9.326v1.348A.674.674,0,0,0-9.326-7.3Z" transform="translate(10 10)" fill="#008db6"/>
          </g>
          <g id="g1817" transform="translate(20.859 21.862)">
            <path id="path1819" d="M-6.822-15.832a.672.672,0,0,0,.476-.2.674.674,0,0,0,0-.953A2.429,2.429,0,0,0-8.074-17.7a2.429,2.429,0,0,0-1.729.716.674.674,0,0,0,0,.953.674.674,0,0,0,.953,0,1.09,1.09,0,0,1,.776-.321,1.09,1.09,0,0,1,.776.321A.672.672,0,0,0-6.822-15.832Z" transform="translate(10 17.698)" fill="#008db6"/>
          </g>
          <g id="g1821" transform="translate(14.268 14.602)">
            <path id="path1823" d="M-234.782,2.2h1.987a7.531,7.531,0,0,0,7.523-7.522V-8.9c0-.252-.013-.5-.036-.746a.674.674,0,0,0-.735-.606.674.674,0,0,0-.606.735c.02.2.03.408.03.616v3.574A6.181,6.181,0,0,1-232.795.849h-1.987a6.182,6.182,0,0,1-6.175-6.174V-8.9c0-.2.01-.4.029-.6a.674.674,0,0,0-.607-.734.674.674,0,0,0-.734.607c-.023.239-.035.482-.035.727v3.574A7.531,7.531,0,0,0-234.782,2.2Z" transform="translate(242.305 10.254)" fill="#008db6"/>
          </g>
          <g id="g1825" transform="translate(18.254 27.847)">
            <path id="path1827" d="M-123.447-3.246h7a1.034,1.034,0,0,0,1.033-1.033V-9.326a.674.674,0,0,0-.674-.674.674.674,0,0,0-.674.674v4.733h-6.366V-9.326a.674.674,0,0,0-.674-.674.674.674,0,0,0-.674.674v5.047A1.034,1.034,0,0,0-123.447-3.246Z" transform="translate(124.48 10)" fill="#008db6"/>
          </g>
          <g id="g1829" transform="translate(28.252 28.354)">
            <path id="path1831" d="M-9.326-176.871a.674.674,0,0,0,.674-.674V-189.7a.674.674,0,0,0-.674-.674A.674.674,0,0,0-10-189.7v12.154A.674.674,0,0,0-9.326-176.871Z" transform="translate(10 190.373)" fill="#008db6"/>
          </g>
          <g id="g1833" transform="translate(15.969 28.354)">
            <path id="path1835" d="M-9.326-176.871a.674.674,0,0,0,.674-.674V-189.7a.674.674,0,0,0-.674-.674A.674.674,0,0,0-10-189.7v12.154A.674.674,0,0,0-9.326-176.871Z" transform="translate(10 190.373)" fill="#008db6"/>
          </g>
          <g id="g1837" transform="translate(11.922 36.091)">
            <path id="path1839" d="M-9.326-43.172a.674.674,0,0,0,.674-.674v-2.494a.674.674,0,0,0-.674-.674.674.674,0,0,0-.674.674v2.494A.674.674,0,0,0-9.326-43.172Z" transform="translate(10 47.013)" fill="#008db6"/>
          </g>
          <g id="g1841" transform="translate(11.922 25.354)">
            <path id="path1843" d="M-9.326-1.06a.674.674,0,0,0,.674-.674V-3.268a2.056,2.056,0,0,1,1.626-2L-3.09-6.1a1.893,1.893,0,0,0,.364-.117A1.844,1.844,0,0,0-1.629-7.9V-9.326A.674.674,0,0,0-2.3-10a.674.674,0,0,0-.674.674V-7.9a.492.492,0,0,1-.291.449.53.53,0,0,1-.1.031L-7.3-6.59A3.41,3.41,0,0,0-10-3.268v1.535A.674.674,0,0,0-9.326-1.06Z" transform="translate(10 10)" fill="#008db6"/>
          </g>
          <g id="g1845" transform="translate(25.277 25.354)">
            <path id="path1847" d="M-106.529,4.579a.674.674,0,0,0,.674-.674V-3.268a3.41,3.41,0,0,0-2.7-3.321l-3.937-.827a.549.549,0,0,1-.105-.034.49.49,0,0,1-.285-.446V-9.326a.674.674,0,0,0-.674-.674.674.674,0,0,0-.674.674V-7.9a1.841,1.841,0,0,0,1.09,1.68,1.913,1.913,0,0,0,.371.12l3.936.827a2.056,2.056,0,0,1,1.625,2V3.905A.674.674,0,0,0-106.529,4.579Z" transform="translate(114.226 10)" fill="#008db6"/>
          </g>
          <g id="g1849" transform="translate(18.945 35.801)">
            <path id="path1851" d="M-86.22-52.255h4.176a1.754,1.754,0,0,0,1.752-1.752V-55.72a1.034,1.034,0,0,0-1.033-1.033h-5.613a1.034,1.034,0,0,0-1.033,1.033v1.713A1.754,1.754,0,0,0-86.22-52.255Zm4.58-3.15v1.4a.4.4,0,0,1-.4.4H-86.22a.4.4,0,0,1-.4-.4v-1.4Z" transform="translate(87.972 56.753)" fill="#008db6"/>
          </g>
        </g>
      </g>
    </g>
  </g>
</svg>
