<svg xmlns="http://www.w3.org/2000/svg" xmlns:xlink="http://www.w3.org/1999/xlink" width="85.538" height="85.538" viewBox="0 0 85.538 85.538">
  <defs>
    <filter id="Trazado_874925" x="0" y="0" width="85.538" height="85.538" filterUnits="userSpaceOnUse">
      <feOffset dy="3" input="SourceAlpha"/>
      <feGaussianBlur stdDeviation="3" result="blur"/>
      <feFlood flood-opacity="0.161"/>
      <feComposite operator="in" in2="blur"/>
      <feComposite in="SourceGraphic"/>
    </filter>
  </defs>
  <g id="Grupo_1112800" data-name="Grupo 1112800" transform="translate(-761.051 -2234)">
    <g transform="matrix(1, 0, 0, 1, 761.05, 2234)" filter="url(#Trazado_874925)">
      <g id="Trazado_874925-2" data-name="Trazado 874925" transform="translate(9 6)" fill="#f0e077">
        <path d="M 33.76884841918945 66.0380859375 C 29.41191864013672 66.0380859375 25.18611907958984 65.18511199951172 21.20881843566895 63.50285339355469 C 17.3664379119873 61.87766265869141 13.91532802581787 59.55075454711914 10.95132827758789 56.58676147460938 C 7.98732852935791 53.62276458740234 5.660418510437012 50.1716423034668 4.035228252410889 46.32927322387695 C 2.352968454360962 42.35197448730469 1.499998450279236 38.12616348266602 1.499998450279236 33.76923370361328 C 1.499998450279236 29.41192245483398 2.352968454360962 25.18612289428711 4.035228252410889 21.20882225036621 C 5.660418510437012 17.36645317077637 7.98732852935791 13.91533279418945 10.95132827758789 10.95133304595947 C 13.91532802581787 7.987332820892334 17.3664493560791 5.660422801971436 21.20881843566895 4.035233020782471 C 25.18611907958984 2.352972984313965 29.41191864013672 1.500002980232239 33.76884841918945 1.500002980232239 C 38.12577819824219 1.500002980232239 42.35158920288086 2.352972984313965 46.32888793945312 4.035233020782471 C 50.17125701904297 5.660422801971436 53.62237930297852 7.987332820892334 56.58638000488281 10.95133304595947 C 59.55036926269531 13.91533279418945 61.87727737426758 17.3664436340332 63.50246810913086 21.20882225036621 C 65.18473052978516 25.18612289428711 66.03769683837891 29.41192245483398 66.03769683837891 33.76885223388672 C 66.03769683837891 38.12616348266602 65.18473052978516 42.35197448730469 63.50246810913086 46.32927322387695 C 61.87727737426758 50.1716423034668 59.55036926269531 53.62276458740234 56.58638000488281 56.58676147460938 C 53.62237930297852 59.55075454711914 50.17125701904297 61.87766265869141 46.32888793945312 63.50285339355469 C 42.35158920288086 65.18511199951172 38.12577819824219 66.0380859375 33.76884841918945 66.0380859375 Z" stroke="none"/>
        <path d="M 33.76884841918945 3 C 29.6137580871582 3 25.58454895019531 3.8131103515625 21.79314804077148 5.416732788085938 C 18.12957000732422 6.966297149658203 14.83871459960938 9.185264587402344 12.01199340820312 12.01198577880859 C 9.185260772705078 14.83871078491211 6.966304779052734 18.12956619262695 5.416736602783203 21.79314422607422 C 3.813114166259766 25.58454132080078 3.000007629394531 29.61375427246094 3.000007629394531 33.76924133300781 C 3.000007629394531 37.92433166503906 3.813114166259766 41.95354461669922 5.416736602783203 45.74494171142578 C 6.966304779052734 49.40852355957031 9.185260772705078 52.69937515258789 12.01199340820312 55.52610015869141 C 14.83871459960938 58.35282135009766 18.12957000732422 60.5717887878418 21.79314804077148 62.12135314941406 C 25.58454895019531 63.7249755859375 29.6137580871582 64.5380859375 33.76884841918945 64.5380859375 C 37.92393493652344 64.5380859375 41.95314788818359 63.7249755859375 45.74454879760742 62.12135314941406 C 49.40812683105469 60.5717887878418 52.69898223876953 58.35282135009766 55.52570343017578 55.52610015869141 C 58.35243606567383 52.69937515258789 60.57139205932617 49.40852355957031 62.1209602355957 45.74494171142578 C 63.72458267211914 41.95354461669922 64.53768920898438 37.92433166503906 64.53768920898438 33.76884460449219 C 64.53768920898438 29.61375427246094 63.72458267211914 25.58454132080078 62.1209602355957 21.79314422607422 C 60.57139205932617 18.12956619262695 58.35243606567383 14.83871078491211 55.52570343017578 12.01198577880859 C 52.69898223876953 9.185264587402344 49.40812683105469 6.966297149658203 45.74454879760742 5.416732788085938 C 41.95314788818359 3.8131103515625 37.92393493652344 3 33.76884841918945 3 M 33.76884841918945 0 C 52.41886901855469 0 67.53768920898438 15.11883163452148 67.53768920898438 33.76884460449219 L 67.53768920898438 33.76924133300781 C 67.53768920898438 52.41925430297852 52.41886901855469 67.5380859375 33.76884841918945 67.5380859375 C 15.11882781982422 67.5380859375 7.62939453125e-06 52.41925430297852 7.62939453125e-06 33.76924133300781 L 7.62939453125e-06 33.76884460449219 C 7.62939453125e-06 15.11883163452148 15.11882781982422 0 33.76884841918945 0 Z" stroke="none" fill="#fff"/>
      </g>
    </g>
    <g id="acuicultura" transform="translate(783.051 2253)">
      <g id="Grupo_1112799" data-name="Grupo 1112799">
        <path id="Trazado_979904" data-name="Trazado 979904" d="M0,0V34.875A5.929,5.929,0,0,0,5.922,40.8H34.875A5.929,5.929,0,0,0,40.8,34.875V0ZM10.285,1.316l3.838,3.29L10.285,7.9h-.171L6.276,4.606l3.838-3.29Zm2.022,0h5.654L15.134,3.739ZM5.264,3.74,2.437,1.316H8.091Zm-1.011.867L1.316,7.124V2.089Zm1.011.867L8.092,7.9H2.437Zm9.87,0L17.962,7.9H12.307ZM19.984,7.9l-3.838-3.29,3.838-3.29h.829l3.838,3.29L20.813,7.9Zm10.7-6.58,3.838,3.29L30.683,7.9h-.171l-3.838-3.29,3.838-3.29Zm2.022,0H38.36L35.533,3.739ZM25.663,3.74,22.835,1.316h5.654Zm0,1.733L28.49,7.9H22.836Zm9.87,0L38.36,7.9H32.706Zm1.011-.867,2.937-2.518V7.123ZM34.875,39.481H5.922a4.611,4.611,0,0,1-4.606-4.606V9.212H39.481V34.875A4.611,4.611,0,0,1,34.875,39.481Z" fill="#008db6"/>
        <path id="Trazado_979905" data-name="Trazado 979905" d="M101.071,309.5a1.974,1.974,0,1,0-1.974-1.974A1.976,1.976,0,0,0,101.071,309.5Zm0-2.632a.658.658,0,1,1-.658.658A.659.659,0,0,1,101.071,306.865Z" transform="translate(-91.201 -281.202)" fill="#008db6"/>
        <path id="Trazado_979906" data-name="Trazado 979906" d="M65.914,246.436a2.639,2.639,0,0,0-1.541.494l-2.363,1.687c-.695-.351-1.521-.757-2.436-1.185a7.649,7.649,0,0,0,2.385-3.445l.245-.841h-.876a29.116,29.116,0,0,1-6.984-1.324,12.01,12.01,0,0,0-7.055.051,9.975,9.975,0,0,0-2.653,1.311c-7.491.388-11.6,5.468-11.6,7.2,0,1.748,4.184,6.9,11.8,7.209a7.917,7.917,0,0,0,5.966,2.662h.658v-3.711q.535-.163,1.072-.342a4.92,4.92,0,0,0,3.534,1.421c2.54,0,4.606-1.771,4.606-3.948a3.371,3.371,0,0,0-.1-.809c.526-.254,1.011-.494,1.444-.714l2.362,1.687a2.651,2.651,0,0,0,4.192-2.157v-2.593A2.655,2.655,0,0,0,65.914,246.436ZM47.7,243.123a10.692,10.692,0,0,1,6.283-.036,37.06,37.06,0,0,0,6.374,1.33A6.269,6.269,0,0,1,58.2,246.8a43.469,43.469,0,0,0-10.911-3.529c.136-.051.269-.1.41-.151Zm-13.349,7.261c0-1,3.756-5.922,11.186-5.922,5.2,0,13.98,4.332,17.026,5.922-3.046,1.59-11.826,5.922-17.026,5.922a15.386,15.386,0,0,1-3.367-.372,11.713,11.713,0,0,0,2.192-2.552,5.68,5.68,0,0,0,1.833.291c2.214,0,3.948-1.156,3.948-2.632s-1.735-2.632-3.948-2.632c-.026,0-.051,0-.077,0a11.866,11.866,0,0,0,.077-1.319H44.876A10.394,10.394,0,0,1,40.6,255.5a13.072,13.072,0,0,1-3.741-2.014,4.76,4.76,0,0,0,1.441-3.1H36.98a3.567,3.567,0,0,1-1.127,2.235A4.663,4.663,0,0,1,34.348,250.384Zm11.536-.634c.1-.007.2-.024.309-.024,1.507,0,2.632.695,2.632,1.316s-1.125,1.316-2.632,1.316a4.524,4.524,0,0,1-1.175-.157A11.678,11.678,0,0,0,45.884,249.75Zm4.257,9.158a6.489,6.489,0,0,1-3.407-1.349,21.991,21.991,0,0,0,3.407-.642Zm9.212-5.234c0,1.452-1.476,2.632-3.29,2.632a3.763,3.763,0,0,1-2.092-.611c1.9-.7,3.757-1.5,5.358-2.244a2.166,2.166,0,0,1,.024.223Zm7.9-1.993a1.335,1.335,0,0,1-2.112,1.086l-1.812-1.294c.54-.285.878-.472.953-.513l1.035-.576-1.035-.575c-.075-.041-.414-.229-.953-.513L65.138,248a1.335,1.335,0,0,1,2.111,1.086v2.594Z" transform="translate(-30.4 -222.089)" fill="#008db6"/>
        <path id="Trazado_979907" data-name="Trazado 979907" d="M35.006,251.69a1.974,1.974,0,1,0-1.974-1.974A1.976,1.976,0,0,0,35.006,251.69Zm0-2.632a.658.658,0,1,1-.658.658A.659.659,0,0,1,35.006,249.058Z" transform="translate(-30.4 -228.002)" fill="#008db6"/>
        <path id="Trazado_979908" data-name="Trazado 979908" d="M52.181,178.684a2.632,2.632,0,1,0-2.632-2.632A2.635,2.635,0,0,0,52.181,178.684Zm0-3.948a1.316,1.316,0,1,1-1.316,1.316A1.317,1.317,0,0,1,52.181,174.736Z" transform="translate(-45.601 -159.602)" fill="#008db6"/>
        <path id="Trazado_979909" data-name="Trazado 979909" d="M125.845,136.077a1.974,1.974,0,1,0-1.974-1.974A1.976,1.976,0,0,0,125.845,136.077Zm0-2.632a.658.658,0,1,1-.658.658A.659.659,0,0,1,125.845,133.445Z" transform="translate(-114.001 -121.601)" fill="#008db6"/>
        <path id="Trazado_979910" data-name="Trazado 979910" d="M431.394,231.226a1.974,1.974,0,1,0,1.974,1.974A1.976,1.976,0,0,0,431.394,231.226Zm0,2.632a.658.658,0,1,1,.658-.658A.659.659,0,0,1,431.394,233.858Z" transform="translate(-395.203 -212.802)" fill="#008db6"/>
        <path id="Trazado_979911" data-name="Trazado 979911" d="M291.006,160.852a1.974,1.974,0,1,0-1.974-1.974A1.976,1.976,0,0,0,291.006,160.852Zm0-2.632a.658.658,0,1,1-.658.658A.659.659,0,0,1,291.006,158.22Z" transform="translate(-266.002 -144.402)" fill="#008db6"/>
      </g>
    </g>
  </g>
</svg>
