<svg xmlns="http://www.w3.org/2000/svg" width="74.037" height="74.052" viewBox="0 0 74.037 74.052">
  <path id="patogeno" d="M39.127,49.239A7.711,7.711,0,0,1,33.765,45.8,30.668,30.668,0,0,1,31.2,41.536c-1.643-3.172-2.634-5.086-10.6-8.851-2.248-1.062-3.449-2.578-3.567-4.506-.215-3.508,3.1-7.86,6.3-9.881a16.162,16.162,0,0,1,8.23-2.632,9.408,9.408,0,0,1,2.083.223,7.21,7.21,0,0,1,4.654,3.388,35.883,35.883,0,0,1,2.378,4.767c1.486,3.413,2.889,6.636,7.564,9.685a5.206,5.206,0,0,1,2.384,4.224,11.3,11.3,0,0,1-3.828,8.619A10.15,10.15,0,0,1,39.127,49.239Zm4.842,1.437a13.8,13.8,0,0,0,3.3-1.792l1.362,1.8A1.057,1.057,0,0,0,50.316,49.4l-1.439-1.9a13.893,13.893,0,0,0,2.24-3.039l2.163.807a1.057,1.057,0,1,0,.74-1.981l-2.027-.757a11.653,11.653,0,0,0,.741-4.6l1.8-.047a1.057,1.057,0,1,0-.055-2.114l-2.127.054a7.1,7.1,0,0,0-2.706-3.691l1.791-.9a1.058,1.058,0,0,0-.946-1.892l-2.776,1.389a14.445,14.445,0,0,1-2.326-2.384l2.43-1.479a1.058,1.058,0,0,0-1.1-1.807l-2.5,1.519a29.808,29.808,0,0,1-1.337-2.744l2.118-1.928a1.058,1.058,0,1,0-1.424-1.564L41.99,21.8a31.1,31.1,0,0,0-1.9-3.634c-.026-.041-.053-.08-.079-.121l1.664-1.828a1.058,1.058,0,0,0-1.564-1.425l-1.428,1.568a8.961,8.961,0,0,0-2.944-2.007l.465-1.984a1.058,1.058,0,1,0-2.059-.482l-.435,1.858a12.918,12.918,0,0,0-4.51.018l-.658-2.077a1.058,1.058,0,0,0-2.017.638l.61,1.926a20.137,20.137,0,0,0-4.049,1.724l-1.252-1.932a1.057,1.057,0,1,0-1.775,1.15l1.25,1.928a18.05,18.05,0,0,0-3.36,3.293l-2.34-1.39a1.058,1.058,0,0,0-1.081,1.819l2.21,1.313A13.136,13.136,0,0,0,15.147,25.9l-2.965-.354a1.058,1.058,0,0,0-.249,2.1L14.908,28c0,.1,0,.205.01.307a6.642,6.642,0,0,0,1.669,4.042L14.756,33.8a1.058,1.058,0,1,0,1.316,1.656l2.14-1.7a11.165,11.165,0,0,0,1.481.837c1.267.6,2.338,1.141,3.253,1.644L21.162,38.4a1.058,1.058,0,1,0,1.632,1.346l1.993-2.414a10.5,10.5,0,0,1,3.81,3.83L26.354,42.6a1.058,1.058,0,0,0,1.141,1.781l2.1-1.346a31.643,31.643,0,0,0,1.987,3.341l-1.637,2.083a1.057,1.057,0,1,0,1.663,1.306l1.3-1.65a9.885,9.885,0,0,0,3.419,2.522L35.9,53.084a1.058,1.058,0,0,0,2.084.363l.379-2.186q.247.045.5.077a9.747,9.747,0,0,0,1.208.076,10.551,10.551,0,0,0,1.849-.171l.894,2.265a1.057,1.057,0,0,0,.984.671,1.036,1.036,0,0,0,.388-.076,1.057,1.057,0,0,0,.6-1.372ZM46.1,37.712a1.36,1.36,0,1,0-1.36,1.36A1.362,1.362,0,0,0,46.1,37.712Zm-6.347,5.465a1.511,1.511,0,1,0-1.511,1.511A1.514,1.514,0,0,0,39.758,43.177ZM24.487,26.921a1.748,1.748,0,1,0-1.748,1.748,1.751,1.751,0,0,0,1.748-1.748Zm12.99,8.842a1.9,1.9,0,1,0-1.9-1.9A1.9,1.9,0,0,0,37.477,35.763Zm0-5.908a4.011,4.011,0,1,0,4.011,4.011A4.016,4.016,0,0,0,37.477,29.855Zm-5.787-2.093A3.286,3.286,0,1,0,28.4,24.477,3.289,3.289,0,0,0,31.691,27.762Zm5.4-3.285a5.4,5.4,0,1,0-5.4,5.4A5.407,5.407,0,0,0,37.092,24.477ZM80.4,60.813a4.532,4.532,0,0,1-2.072,3.678c-4.195,2.735-5.452,5.622-6.783,8.679A31.871,31.871,0,0,1,69.431,77.4a6.309,6.309,0,0,1-4.074,2.966c-3.141.715-6.761-.632-9.106-2.133-2.817-1.781-5.741-5.613-5.552-8.7.1-1.673,1.15-2.992,3.112-3.918,6.832-3.229,7.9-4.855,9.5-7.939a27.314,27.314,0,0,1,2.286-3.8,6.75,6.75,0,0,1,4.691-3,8.913,8.913,0,0,1,6.726,2.34A9.944,9.944,0,0,1,80.4,60.813Zm3.609-.047-1.487-.039a10.5,10.5,0,0,0-.636-3.916l1.7-.635a1.058,1.058,0,0,0-.74-1.982l-1.835.686a12.518,12.518,0,0,0-1.9-2.574l1.223-1.612a1.058,1.058,0,1,0-1.685-1.278l-1.145,1.509a12.381,12.381,0,0,0-2.766-1.505l.679-1.722a1.058,1.058,0,0,0-1.968-.776l-.761,1.929a9.1,9.1,0,0,0-2.666-.066c-.113.014-.225.033-.336.051L69.369,47a1.058,1.058,0,0,0-2.084.363l.363,2.091a8.892,8.892,0,0,0-2.913,2.136l-1.07-1.363A1.058,1.058,0,1,0,62,51.531l1.407,1.79a28.333,28.333,0,0,0-1.671,2.806L59.972,55a1.058,1.058,0,0,0-1.141,1.782L60.737,58A9.227,9.227,0,0,1,57.52,61.22l-1.71-2.071a1.057,1.057,0,1,0-1.632,1.345l1.5,1.819c-.786.428-1.7.888-2.77,1.394a10.262,10.262,0,0,0-1.265.707L49.8,62.952a1.058,1.058,0,0,0-1.316,1.656l1.538,1.222a6.029,6.029,0,0,0-1.437,3.578c0,.061,0,.12-.006.178l-2.553.3A1.057,1.057,0,0,0,46.154,72a.874.874,0,0,0,.126-.008l2.54-.3a11.88,11.88,0,0,0,1.348,3.168L48.3,75.968a1.058,1.058,0,0,0,.541,1.967,1.047,1.047,0,0,0,.539-.148l2-1.188a16.216,16.216,0,0,0,2.864,2.812l-1.054,1.626a1.058,1.058,0,0,0,1.775,1.151l1.058-1.632a18.031,18.031,0,0,0,3.425,1.459l-.508,1.606a1.059,1.059,0,0,0,.689,1.328,1.076,1.076,0,0,0,.319.048,1.057,1.057,0,0,0,1.008-.739L61.51,82.5a12.754,12.754,0,0,0,2.047.174,10.455,10.455,0,0,0,1.8-.152l.363,1.552a1.059,1.059,0,0,0,1.029.816,1.043,1.043,0,0,0,.242-.029,1.057,1.057,0,0,0,.789-1.271l-.392-1.672a8.086,8.086,0,0,0,2.487-1.688l1.189,1.305a1.057,1.057,0,1,0,1.564-1.423l-1.423-1.564.023-.035a27.483,27.483,0,0,0,1.635-3.108l1.3,1.186a1.058,1.058,0,1,0,1.424-1.564l-1.826-1.663c.342-.777.688-1.526,1.095-2.255L76.981,72.4a1.058,1.058,0,1,0,1.1-1.807l-2.054-1.248a12.778,12.778,0,0,1,1.916-1.958l2.406,1.2a1.04,1.04,0,0,0,.472.112,1.058,1.058,0,0,0,.474-2l-1.426-.713a6.416,6.416,0,0,0,2.272-3.153l1.809.047h.028a1.058,1.058,0,0,0,.026-2.115Zm-7.515.272a1.212,1.212,0,1,0-1.212,1.212A1.214,1.214,0,0,0,76.491,61.038Zm-8.348-4.87a1.346,1.346,0,1,0,1.346-1.347A1.349,1.349,0,0,0,68.143,56.168ZM57.23,70.652a1.558,1.558,0,1,0-1.558,1.558A1.561,1.561,0,0,0,57.23,70.652ZM68.8,66.037a1.574,1.574,0,1,0-1.574-1.574A1.577,1.577,0,0,0,68.8,66.037Zm0-5.263a3.689,3.689,0,1,0,3.689,3.688A3.693,3.693,0,0,0,68.8,60.775ZM63.649,75.642a2.813,2.813,0,1,0-2.813-2.813A2.816,2.816,0,0,0,63.649,75.642Zm0-7.741a4.928,4.928,0,1,0,4.928,4.927A4.933,4.933,0,0,0,63.649,67.9ZM27.576,73.124A1.572,1.572,0,1,1,26,71.551,1.574,1.574,0,0,1,27.576,73.124ZM22.96,70.247a1.1,1.1,0,1,1-1.1-1.1A1.1,1.1,0,0,1,22.96,70.247Zm4.743-2.16a1.246,1.246,0,1,1-1.246-1.247A1.249,1.249,0,0,1,27.7,68.086ZM25,76.863a6.471,6.471,0,1,0-6.472-6.471A6.479,6.479,0,0,0,25,76.863Zm12.3-9.2c-.519,0-.964.692-1.153,1.675H33.522a8.542,8.542,0,0,0-1.75-4.215l1.86-1.86c.83.562,1.633.736,2,.369.488-.488.019-1.75-1.049-2.816s-2.329-1.538-2.817-1.049c-.367.367-.193,1.171.37,2l-1.86,1.86a8.528,8.528,0,0,0-4.216-1.75V59.246c.983-.191,1.676-.636,1.676-1.153,0-.689-1.228-1.251-2.734-1.251s-2.734.562-2.734,1.251c0,.516.693.962,1.676,1.153v2.628a8.53,8.53,0,0,0-4.216,1.75l-1.86-1.86c.562-.83.736-1.634.37-2-.488-.489-1.75-.019-2.817,1.049s-1.537,2.328-1.049,2.816c.367.367,1.171.193,2-.369l1.86,1.86a8.542,8.542,0,0,0-1.75,4.215H13.856c-.189-.983-.634-1.675-1.153-1.675-.691,0-1.25,1.224-1.25,2.733s.56,2.733,1.25,2.733c.519,0,.964-.691,1.153-1.676h2.627a8.548,8.548,0,0,0,1.75,4.217l-1.86,1.86c-.83-.564-1.634-.737-2-.37-.488.488-.019,1.75,1.049,2.816s2.329,1.538,2.817,1.05c.367-.367.193-1.171-.37-2l1.86-1.858a8.54,8.54,0,0,0,4.216,1.75v2.626c-.985.189-1.676.635-1.676,1.153,0,.692,1.224,1.251,2.734,1.251s2.734-.559,2.734-1.251c0-.518-.692-.964-1.676-1.153V78.912a8.54,8.54,0,0,0,4.216-1.75l1.86,1.858c-.562.831-.737,1.635-.37,2,.488.488,1.75.018,2.817-1.05s1.537-2.328,1.049-2.816c-.367-.367-1.171-.194-2,.37l-1.86-1.86a8.55,8.55,0,0,0,1.751-4.217h2.626c.189.985.634,1.676,1.153,1.676.691,0,1.251-1.224,1.251-2.733s-.56-2.733-1.251-2.733Zm33.107-40.6a1.511,1.511,0,1,1,1.511,1.511A1.514,1.514,0,0,1,70.409,27.061ZM66.88,24.3a1.058,1.058,0,1,1,1.058,1.058A1.059,1.059,0,0,1,66.88,24.3Zm4.278-2.076a1.2,1.2,0,1,1,1.2,1.2A1.2,1.2,0,0,1,71.158,22.222Zm-.2-3.962a6.177,6.177,0,1,0,6.177,6.177,6.184,6.184,0,0,0-6.177-6.177Zm-11.819,8.8c.491,0,.913-.645,1.1-1.57h2.5A8.25,8.25,0,0,0,64.4,29.5L62.63,31.269c-.785-.521-1.539-.68-1.887-.332-.469.47-.018,1.682,1.008,2.707s2.238,1.476,2.707,1.008c.347-.347.189-1.1-.332-1.887L65.894,31A8.255,8.255,0,0,0,69.9,32.661v2.5c-.924.186-1.569.607-1.569,1.1,0,.665,1.176,1.2,2.627,1.2s2.627-.538,2.627-1.2c0-.491-.646-.913-1.569-1.1v-2.5A8.255,8.255,0,0,0,76.022,31l1.767,1.768c-.522.784-.68,1.54-.332,1.887.469.469,1.681.017,2.707-1.008s1.477-2.238,1.008-2.707c-.347-.348-1.1-.189-1.887.332L77.518,29.5a8.251,8.251,0,0,0,1.663-4.007h2.5c.186.925.608,1.57,1.1,1.57.664,0,1.2-1.177,1.2-2.627s-.538-2.626-1.2-2.626c-.491,0-.913.645-1.1,1.568h-2.5a8.242,8.242,0,0,0-1.663-4.005l1.768-1.768c.785.521,1.54.68,1.887.332.469-.47.018-1.682-1.008-2.708s-2.238-1.476-2.707-1.008c-.348.348-.189,1.1.332,1.887l-1.767,1.768a8.254,8.254,0,0,0-4.007-1.664v-2.5c.922-.186,1.569-.609,1.569-1.1,0-.661-1.18-1.2-2.627-1.2s-2.627.54-2.627,1.2c0,.49.647.913,1.569,1.1v2.5a8.256,8.256,0,0,0-4.007,1.664L64.126,16.11c.521-.784.68-1.54.332-1.887-.469-.469-1.681-.018-2.707,1.008s-1.477,2.238-1.008,2.708c.348.348,1.1.189,1.887-.332L64.4,19.374a8.243,8.243,0,0,0-1.663,4.005h-2.5c-.186-.923-.608-1.568-1.1-1.568-.663,0-1.2,1.176-1.2,2.626s.538,2.627,1.2,2.627Z" transform="translate(-10.999 -10.947)" fill="#008db6" fill-rule="evenodd"/>
</svg>
