<svg xmlns="http://www.w3.org/2000/svg" xmlns:xlink="http://www.w3.org/1999/xlink" width="85.538" height="85.538" viewBox="0 0 85.538 85.538">
  <defs>
    <filter id="Trazado_874925" x="0" y="0" width="85.538" height="85.538" filterUnits="userSpaceOnUse">
      <feOffset dy="3" input="SourceAlpha"/>
      <feGaussianBlur stdDeviation="3" result="blur"/>
      <feFlood flood-opacity="0.161"/>
      <feComposite operator="in" in2="blur"/>
      <feComposite in="SourceGraphic"/>
    </filter>
  </defs>
  <g id="Grupo_1112801" data-name="Grupo 1112801" transform="translate(-1000.051 -2234)">
    <g transform="matrix(1, 0, 0, 1, 1000.05, 2234)" filter="url(#Trazado_874925)">
      <g id="Trazado_874925-2" data-name="Trazado 874925" transform="translate(9 6)" fill="#f0e077">
        <path d="M 33.76884841918945 66.0380859375 C 29.41191864013672 66.0380859375 25.18611907958984 65.18511199951172 21.20881843566895 63.50285339355469 C 17.3664379119873 61.87766265869141 13.91532802581787 59.55075454711914 10.95132827758789 56.58676147460938 C 7.98732852935791 53.62276458740234 5.660418510437012 50.1716423034668 4.035228252410889 46.32927322387695 C 2.352968454360962 42.35197448730469 1.499998450279236 38.12616348266602 1.499998450279236 33.76923370361328 C 1.499998450279236 29.41192245483398 2.352968454360962 25.18612289428711 4.035228252410889 21.20882225036621 C 5.660418510437012 17.36645317077637 7.98732852935791 13.91533279418945 10.95132827758789 10.95133304595947 C 13.91532802581787 7.987332820892334 17.3664493560791 5.660422801971436 21.20881843566895 4.035233020782471 C 25.18611907958984 2.352972984313965 29.41191864013672 1.500002980232239 33.76884841918945 1.500002980232239 C 38.12577819824219 1.500002980232239 42.35158920288086 2.352972984313965 46.32888793945312 4.035233020782471 C 50.17125701904297 5.660422801971436 53.62237930297852 7.987332820892334 56.58638000488281 10.95133304595947 C 59.55036926269531 13.91533279418945 61.87727737426758 17.3664436340332 63.50246810913086 21.20882225036621 C 65.18473052978516 25.18612289428711 66.03769683837891 29.41192245483398 66.03769683837891 33.76885223388672 C 66.03769683837891 38.12616348266602 65.18473052978516 42.35197448730469 63.50246810913086 46.32927322387695 C 61.87727737426758 50.1716423034668 59.55036926269531 53.62276458740234 56.58638000488281 56.58676147460938 C 53.62237930297852 59.55075454711914 50.17125701904297 61.87766265869141 46.32888793945312 63.50285339355469 C 42.35158920288086 65.18511199951172 38.12577819824219 66.0380859375 33.76884841918945 66.0380859375 Z" stroke="none"/>
        <path d="M 33.76884841918945 3 C 29.6137580871582 3 25.58454895019531 3.8131103515625 21.79314804077148 5.416732788085938 C 18.12957000732422 6.966297149658203 14.83871459960938 9.185264587402344 12.01199340820312 12.01198577880859 C 9.185260772705078 14.83871078491211 6.966304779052734 18.12956619262695 5.416736602783203 21.79314422607422 C 3.813114166259766 25.58454132080078 3.000007629394531 29.61375427246094 3.000007629394531 33.76924133300781 C 3.000007629394531 37.92433166503906 3.813114166259766 41.95354461669922 5.416736602783203 45.74494171142578 C 6.966304779052734 49.40852355957031 9.185260772705078 52.69937515258789 12.01199340820312 55.52610015869141 C 14.83871459960938 58.35282135009766 18.12957000732422 60.5717887878418 21.79314804077148 62.12135314941406 C 25.58454895019531 63.7249755859375 29.6137580871582 64.5380859375 33.76884841918945 64.5380859375 C 37.92393493652344 64.5380859375 41.95314788818359 63.7249755859375 45.74454879760742 62.12135314941406 C 49.40812683105469 60.5717887878418 52.69898223876953 58.35282135009766 55.52570343017578 55.52610015869141 C 58.35243606567383 52.69937515258789 60.57139205932617 49.40852355957031 62.1209602355957 45.74494171142578 C 63.72458267211914 41.95354461669922 64.53768920898438 37.92433166503906 64.53768920898438 33.76884460449219 C 64.53768920898438 29.61375427246094 63.72458267211914 25.58454132080078 62.1209602355957 21.79314422607422 C 60.57139205932617 18.12956619262695 58.35243606567383 14.83871078491211 55.52570343017578 12.01198577880859 C 52.69898223876953 9.185264587402344 49.40812683105469 6.966297149658203 45.74454879760742 5.416732788085938 C 41.95314788818359 3.8131103515625 37.92393493652344 3 33.76884841918945 3 M 33.76884841918945 0 C 52.41886901855469 0 67.53768920898438 15.11883163452148 67.53768920898438 33.76884460449219 L 67.53768920898438 33.76924133300781 C 67.53768920898438 52.41925430297852 52.41886901855469 67.5380859375 33.76884841918945 67.5380859375 C 15.11882781982422 67.5380859375 7.62939453125e-06 52.41925430297852 7.62939453125e-06 33.76924133300781 L 7.62939453125e-06 33.76884460449219 C 7.62939453125e-06 15.11883163452148 15.11882781982422 0 33.76884841918945 0 Z" stroke="none" fill="#fff"/>
      </g>
    </g>
    <g id="acuicultura_1_" data-name="acuicultura (1)" transform="translate(992.249 2250)">
      <path id="Trazado_979912" data-name="Trazado 979912" d="M71.844,23.791A8.083,8.083,0,0,0,68.292,17.1a8.084,8.084,0,1,0-12.5-8.085H52.217V0H49.429V9.014H45.851a8.085,8.085,0,1,0-12.5,8.085,8.079,8.079,0,0,0,0,13.382,8.084,8.084,0,1,0,12.5,8.085h3.578v9.014h2.788V38.567h3.577a8.085,8.085,0,1,0,12.5-8.085A8.083,8.083,0,0,0,71.844,23.791ZM63.759,5.111a5.3,5.3,0,1,1-5.3,5.3A5.3,5.3,0,0,1,63.759,5.111ZM55.8,11.8a8.1,8.1,0,0,0,3.43,5.3,8.1,8.1,0,0,0-3.43,5.3H52.217V11.8Zm-9.944,0h3.578V22.4H45.851a8.1,8.1,0,0,0-3.43-5.3A8.1,8.1,0,0,0,45.851,11.8ZM32.59,10.408a5.3,5.3,0,1,1,5.3,5.3A5.3,5.3,0,0,1,32.59,10.408Zm0,13.382a5.3,5.3,0,1,1,5.3,5.3A5.3,5.3,0,0,1,32.59,23.791Zm5.3,18.679a5.3,5.3,0,1,1,5.3-5.3A5.3,5.3,0,0,1,37.887,42.47Zm7.964-6.691a8.1,8.1,0,0,0-3.43-5.3,8.1,8.1,0,0,0,3.43-5.3h3.578V35.779Zm9.944,0H52.217V25.185H55.8a8.1,8.1,0,0,0,3.43,5.3A8.1,8.1,0,0,0,55.8,35.779Zm13.261,1.394a5.3,5.3,0,1,1-5.3-5.3A5.3,5.3,0,0,1,69.056,37.173Zm-5.3-8.085a5.3,5.3,0,1,1,5.3-5.3A5.3,5.3,0,0,1,63.759,29.088Z" transform="translate(0)" fill="#008db6"/>
    </g>
  </g>
</svg>
