<svg xmlns="http://www.w3.org/2000/svg" xmlns:xlink="http://www.w3.org/1999/xlink" width="85.538" height="85.538" viewBox="0 0 85.538 85.538">
  <defs>
    <filter id="Trazado_874925" x="0" y="0" width="85.538" height="85.538" filterUnits="userSpaceOnUse">
      <feOffset dy="3" input="SourceAlpha"/>
      <feGaussianBlur stdDeviation="3" result="blur"/>
      <feFlood flood-opacity="0.161"/>
      <feComposite operator="in" in2="blur"/>
      <feComposite in="SourceGraphic"/>
    </filter>
  </defs>
  <g id="Grupo_1112803" data-name="Grupo 1112803" transform="translate(-1238.051 -2234)">
    <g transform="matrix(1, 0, 0, 1, 1238.05, 2234)" filter="url(#Trazado_874925)">
      <g id="Trazado_874925-2" data-name="Trazado 874925" transform="translate(9 6)" fill="#f0e077">
        <path d="M 33.76884841918945 66.0380859375 C 29.41191864013672 66.0380859375 25.18611907958984 65.18511199951172 21.20881843566895 63.50285339355469 C 17.3664379119873 61.87766265869141 13.91532802581787 59.55075454711914 10.95132827758789 56.58676147460938 C 7.98732852935791 53.62276458740234 5.660418510437012 50.1716423034668 4.035228252410889 46.32927322387695 C 2.352968454360962 42.35197448730469 1.499998450279236 38.12616348266602 1.499998450279236 33.76923370361328 C 1.499998450279236 29.41192245483398 2.352968454360962 25.18612289428711 4.035228252410889 21.20882225036621 C 5.660418510437012 17.36645317077637 7.98732852935791 13.91533279418945 10.95132827758789 10.95133304595947 C 13.91532802581787 7.987332820892334 17.3664493560791 5.660422801971436 21.20881843566895 4.035233020782471 C 25.18611907958984 2.352972984313965 29.41191864013672 1.500002980232239 33.76884841918945 1.500002980232239 C 38.12577819824219 1.500002980232239 42.35158920288086 2.352972984313965 46.32888793945312 4.035233020782471 C 50.17125701904297 5.660422801971436 53.62237930297852 7.987332820892334 56.58638000488281 10.95133304595947 C 59.55036926269531 13.91533279418945 61.87727737426758 17.3664436340332 63.50246810913086 21.20882225036621 C 65.18473052978516 25.18612289428711 66.03769683837891 29.41192245483398 66.03769683837891 33.76885223388672 C 66.03769683837891 38.12616348266602 65.18473052978516 42.35197448730469 63.50246810913086 46.32927322387695 C 61.87727737426758 50.1716423034668 59.55036926269531 53.62276458740234 56.58638000488281 56.58676147460938 C 53.62237930297852 59.55075454711914 50.17125701904297 61.87766265869141 46.32888793945312 63.50285339355469 C 42.35158920288086 65.18511199951172 38.12577819824219 66.0380859375 33.76884841918945 66.0380859375 Z" stroke="none"/>
        <path d="M 33.76884841918945 3 C 29.6137580871582 3 25.58454895019531 3.8131103515625 21.79314804077148 5.416732788085938 C 18.12957000732422 6.966297149658203 14.83871459960938 9.185264587402344 12.01199340820312 12.01198577880859 C 9.185260772705078 14.83871078491211 6.966304779052734 18.12956619262695 5.416736602783203 21.79314422607422 C 3.813114166259766 25.58454132080078 3.000007629394531 29.61375427246094 3.000007629394531 33.76924133300781 C 3.000007629394531 37.92433166503906 3.813114166259766 41.95354461669922 5.416736602783203 45.74494171142578 C 6.966304779052734 49.40852355957031 9.185260772705078 52.69937515258789 12.01199340820312 55.52610015869141 C 14.83871459960938 58.35282135009766 18.12957000732422 60.5717887878418 21.79314804077148 62.12135314941406 C 25.58454895019531 63.7249755859375 29.6137580871582 64.5380859375 33.76884841918945 64.5380859375 C 37.92393493652344 64.5380859375 41.95314788818359 63.7249755859375 45.74454879760742 62.12135314941406 C 49.40812683105469 60.5717887878418 52.69898223876953 58.35282135009766 55.52570343017578 55.52610015869141 C 58.35243606567383 52.69937515258789 60.57139205932617 49.40852355957031 62.1209602355957 45.74494171142578 C 63.72458267211914 41.95354461669922 64.53768920898438 37.92433166503906 64.53768920898438 33.76884460449219 C 64.53768920898438 29.61375427246094 63.72458267211914 25.58454132080078 62.1209602355957 21.79314422607422 C 60.57139205932617 18.12956619262695 58.35243606567383 14.83871078491211 55.52570343017578 12.01198577880859 C 52.69898223876953 9.185264587402344 49.40812683105469 6.966297149658203 45.74454879760742 5.416732788085938 C 41.95314788818359 3.8131103515625 37.92393493652344 3 33.76884841918945 3 M 33.76884841918945 0 C 52.41886901855469 0 67.53768920898438 15.11883163452148 67.53768920898438 33.76884460449219 L 67.53768920898438 33.76924133300781 C 67.53768920898438 52.41925430297852 52.41886901855469 67.5380859375 33.76884841918945 67.5380859375 C 15.11882781982422 67.5380859375 7.62939453125e-06 52.41925430297852 7.62939453125e-06 33.76924133300781 L 7.62939453125e-06 33.76884460449219 C 7.62939453125e-06 15.11883163452148 15.11882781982422 0 33.76884841918945 0 Z" stroke="none" fill="#fff"/>
      </g>
    </g>
    <g id="_x30_2_Aquaculture" transform="translate(1246.504 2234.928)">
      <g id="Grupo_1112802" data-name="Grupo 1112802" transform="translate(13.547 18.072)">
        <path id="Trazado_979913" data-name="Trazado 979913" d="M54.866,248.84a.538.538,0,0,0-.55.021c-3.069,1.989-6.752,1.977-10.945-.033l-.041-.018a22.253,22.253,0,0,0-11.573-1.379.539.539,0,0,0,.164,1.065,21.213,21.213,0,0,1,11,1.313c4.181,2,7.925,2.148,11.145.445v16.61c-3.608.842-34.847.033-39.445-.141V250.2a12.793,12.793,0,0,0,6.143,1.212.539.539,0,0,0-.051-1.076,11.753,11.753,0,0,1-6.369-1.489.539.539,0,0,0-.8.471v17.925a.539.539,0,0,0,.3.482c.251.126,38.891,1.374,41.058-.029a.539.539,0,0,0,.246-.452V249.313A.539.539,0,0,0,54.866,248.84Z" transform="translate(-13.547 -227.527)" fill="#008db6"/>
        <path id="Trazado_979914" data-name="Trazado 979914" d="M113.514,357.259l-1.574,1.121c-2.979-3.733-6.3-3.617-9.191.116a1.087,1.087,0,0,0,0,1.336c2.755,3.548,6.091,4,9.2.116l1.569,1.117a.661.661,0,0,0,1.048-.539V357.8A.663.663,0,0,0,113.514,357.259Zm-8.057,3.682a7.783,7.783,0,0,1-1.849-1.793,8.347,8.347,0,0,1,1.849-1.759A7.18,7.18,0,0,1,105.457,360.941Zm.974.5a8.2,8.2,0,0,0,0-4.561c1.836-.655,3.561.741,4.759,2.28C109.992,360.712,108.263,362.1,106.431,361.445Zm7.053-1.72-.785-.56.785-.56Z" transform="translate(-94.887 -326.677)" fill="#008db6"/>
        <path id="Trazado_979915" data-name="Trazado 979915" d="M298.055,323.443c-1.112-1.436-2.828-2.871-4.643-2.871-2.1,0-3.828,1.845-4.548,2.755l-1.573-1.121a.662.662,0,0,0-1.048.539v2.729a.662.662,0,0,0,1.048.539l1.569-1.117c3.069,3.845,6.393,3.492,9.2-.116A1.087,1.087,0,0,0,298.055,323.443Zm-10.734,1.229v-1.121l.785.56Zm7.053,1.72c-1.836.655-3.569-.746-4.759-2.281.552-.716,2.078-2.462,3.8-2.462a2.939,2.939,0,0,1,.961.177A8.221,8.221,0,0,0,294.373,326.392Zm.974-.5a7.182,7.182,0,0,1,0-3.552,7.777,7.777,0,0,1,1.849,1.793A8.328,8.328,0,0,1,295.348,325.887Z" transform="translate(-262.848 -294.62)" fill="#008db6"/>
        <path id="Trazado_979916" data-name="Trazado 979916" d="M49.777,314.391a.539.539,0,0,0-.539-.539H47.308a.539.539,0,0,0,0,1.078h1.931A.539.539,0,0,0,49.777,314.391Z" transform="translate(-43.919 -288.477)" fill="#008db6"/>
        <path id="Trazado_979917" data-name="Trazado 979917" d="M258.057,295.023h-1.931a.539.539,0,0,0,0,1.078h1.931a.539.539,0,0,0,0-1.078Z" transform="translate(-234.823 -271.263)" fill="#008db6"/>
        <path id="Trazado_979918" data-name="Trazado 979918" d="M300.762,425.386a.539.539,0,1,0,0,1.078h1.931a.539.539,0,0,0,0-1.078Z" transform="translate(-275.629 -390.442)" fill="#008db6"/>
        <path id="Trazado_979919" data-name="Trazado 979919" d="M434.649,402.5a.539.539,0,0,0,0-1.078h-1.931a.539.539,0,1,0,0,1.078Z" transform="translate(-396.264 -368.534)" fill="#008db6"/>
        <path id="Trazado_979920" data-name="Trazado 979920" d="M63.46,448.429h1.931a.539.539,0,1,0,0-1.078H63.46a.539.539,0,0,0,0,1.078Z" transform="translate(-58.685 -410.522)" fill="#008db6"/>
        <path id="Trazado_979921" data-name="Trazado 979921" d="M170.011,330.386a.539.539,0,1,0,0,1.078h1.931a.539.539,0,1,0,0-1.078Z" transform="translate(-156.095 -303.592)" fill="#008db6"/>
        <path id="Trazado_979922" data-name="Trazado 979922" d="M128.471,18.852a.539.539,0,0,0-.483-.78H117.323a.539.539,0,0,0-.539.539V38.027H115.1a2.015,2.015,0,1,0,0,4.031h4.445a2.015,2.015,0,1,0,0-4.031h-1.686V27.095h10.126a.545.545,0,0,0,.431-.211c2.811-3.682-1.9-4.139.052-8.031Zm-8.924,20.253a.938.938,0,1,1,0,1.875H115.1a.938.938,0,1,1,0-1.875Z" transform="translate(-104.545 -18.072)" fill="#008db6"/>
      </g>
    </g>
  </g>
</svg>
