<svg id="patogeno_1_" data-name="patogeno (1)" xmlns="http://www.w3.org/2000/svg" width="64" height="64" viewBox="0 0 64 64">
  <path id="Trazado_979885" data-name="Trazado 979885" d="M32,0A32,32,0,1,0,64,32,32.036,32.036,0,0,0,32,0Zm0,62A30,30,0,1,1,62,32,30.034,30.034,0,0,1,32,62Z" fill="#008db6"/>
  <path id="Trazado_979886" data-name="Trazado 979886" d="M32,5A27,27,0,1,0,59,32,27.03,27.03,0,0,0,32,5Zm0,52A25,25,0,1,1,57,32,25.028,25.028,0,0,1,32,57Z" fill="#008db6"/>
  <path id="Trazado_979887" data-name="Trazado 979887" d="M17.755,41.667l-.333,2.183a1,1,0,0,0,.838,1.139.983.983,0,0,0,.152.012,1,1,0,0,0,.987-.85l.371-2.438a4.965,4.965,0,0,0,1.6-.579l3.464-2,1,1.732a1,1,0,1,0,1.732-1l-1-1.732,3.464-2a4.958,4.958,0,0,0,1.293-1.1l2.307.9a1,1,0,0,0,.727-1.864L32.3,33.262a4.971,4.971,0,0,0-.435-3.959l-.5-.866,1.732-1a1,1,0,1,0-1-1.732l-1.732,1-.5-.866a4.971,4.971,0,0,0-3.211-2.356l.333-2.19a1,1,0,0,0-1.977-.3l-.373,2.449a4.952,4.952,0,0,0-1.6.568l-3.464,2-1-1.732a1,1,0,0,0-1.732,1l1,1.733-3.464,2a4.947,4.947,0,0,0-1.294,1.1l-2.306-.9a1,1,0,0,0-.728,1.863l2.062.806a4.969,4.969,0,0,0,.436,3.958l.5.866-1.732,1a1,1,0,1,0,1,1.732l1.732-1,.5.866a4.979,4.979,0,0,0,3.21,2.363Zm-2.38-10.925,8.661-5a3,3,0,0,1,4.1,1.1l2,3.464a3,3,0,0,1-1.1,4.1l-8.661,5a3,3,0,0,1-4.1-1.1l-2-3.464a3,3,0,0,1,1.1-4.1Z" fill="#008db6"/>
  <path id="Trazado_979888" data-name="Trazado 979888" d="M18.143,36.727a3.273,3.273,0,0,0,1.6-.423,2.218,2.218,0,0,0,.863-2.292c0-.068-.009-.148-.013-.229.068.043.136.088.193.125a2.225,2.225,0,0,0,2.417.4,2.225,2.225,0,0,0,.864-2.292c0-.07-.009-.153-.012-.235l.2.13a2.231,2.231,0,0,0,2.418.395,3.461,3.461,0,0,0,1.076-1.031,2.8,2.8,0,0,0,.022-3.066,1,1,0,0,0-1.732,1,.891.891,0,0,1-.257,1.293,4.8,4.8,0,0,1-.428-.262,2.233,2.233,0,0,0-2.418-.4,2.225,2.225,0,0,0-.864,2.292c0,.069.009.15.012.231-.068-.043-.137-.088-.194-.126a2.222,2.222,0,0,0-2.417-.4,2.223,2.223,0,0,0-.861,2.293c.009.151.022.362.014.495a.891.891,0,0,1-1.247-.424,1,1,0,1,0-1.732,1,2.8,2.8,0,0,0,2.5,1.521Z" fill="#008db6"/>
  <path id="Trazado_979889" data-name="Trazado 979889" d="M36,48H34.858a3.915,3.915,0,0,0-.425-1.019l.809-.809a1,1,0,0,0-1.414-1.414l-.809.809A4,4,0,0,0,32,45.142V44a1,1,0,0,0-2,0v1.142a3.915,3.915,0,0,0-1.019.425l-.809-.809a1,1,0,0,0-1.414,1.414l.809.809A3.984,3.984,0,0,0,27.142,48H26a1,1,0,0,0,0,2h1.142a3.915,3.915,0,0,0,.425,1.019l-.809.809a1,1,0,1,0,1.414,1.414l.809-.809A4,4,0,0,0,30,52.858V54a1,1,0,0,0,2,0V52.858a3.915,3.915,0,0,0,1.019-.425l.809.809a1,1,0,0,0,1.414-1.414l-.809-.809A3.984,3.984,0,0,0,34.858,50H36a1,1,0,0,0,0-2Zm-5,3a2,2,0,1,1,2-2A2,2,0,0,1,31,51Z" fill="#008db6"/>
  <path id="Trazado_979890" data-name="Trazado 979890" d="M53,24H49.91a5.976,5.976,0,0,0-1.024-2.471l2.186-2.186a1,1,0,0,0-1.414-1.414l-2.185,2.186A5.964,5.964,0,0,0,45,19.09V16a1,1,0,0,0-2,0v3.09a5.964,5.964,0,0,0-2.471,1.025l-2.185-2.186a1,1,0,0,0-1.414,1.414l2.186,2.186A5.949,5.949,0,0,0,38.094,24H35a1,1,0,0,0,0,2h3.09a5.976,5.976,0,0,0,1.024,2.471l-2.186,2.186a1,1,0,1,0,1.414,1.414l2.185-2.186A5.964,5.964,0,0,0,43,30.91V34a1,1,0,0,0,2,0V30.91a5.964,5.964,0,0,0,2.471-1.025l2.185,2.186a1,1,0,0,0,1.414-1.414l-2.186-2.186A5.949,5.949,0,0,0,49.91,26H53a1,1,0,0,0,0-2Zm-9,5a4,4,0,1,1,4-4A4,4,0,0,1,44,29Z" fill="#008db6"/>
  <path id="Trazado_979891" data-name="Trazado 979891" d="M42,23h2v2H42Z" fill="#008db6"/>
  <path id="Trazado_979892" data-name="Trazado 979892" d="M44,26h2v2H44Z" fill="#008db6"/>
  <path id="Trazado_979893" data-name="Trazado 979893" d="M20,23a4,4,0,0,0,4-4,1,1,0,0,1,1-1,4,4,0,0,0,0-8,9.01,9.01,0,0,0-9,9A4,4,0,0,0,20,23Zm5-11a2,2,0,0,1,0,4,3,3,0,0,0-3,3,2,2,0,0,1-4,0A7.008,7.008,0,0,1,25,12Z" fill="#008db6"/>
  <path id="Trazado_979894" data-name="Trazado 979894" d="M48,36a4,4,0,0,0-4,4,1,1,0,0,1-1,1,4,4,0,0,0,0,8,9.01,9.01,0,0,0,9-9A4,4,0,0,0,48,36ZM43,47a2,2,0,0,1,0-4,3,3,0,0,0,3-3,2,2,0,0,1,4,0A7.008,7.008,0,0,1,43,47Z" fill="#008db6"/>
  <path id="Trazado_979895" data-name="Trazado 979895" d="M42,35a1,1,0,0,0-.992-1H41a1,1,0,0,0-1,.988A1.884,1.884,0,0,1,38,37a3.888,3.888,0,0,0-4,4,1,1,0,0,0,.992,1H35a1,1,0,0,0,1-.988A1.884,1.884,0,0,1,38,39,3.888,3.888,0,0,0,42,35Z" fill="#008db6"/>
  <path id="Trazado_979896" data-name="Trazado 979896" d="M19,48a1.882,1.882,0,0,1-2-2,1,1,0,0,0-2,0,3.888,3.888,0,0,0,4,4,1.885,1.885,0,0,1,2,2.006A1,1,0,0,0,23,52,3.888,3.888,0,0,0,19,48Z" fill="#008db6"/>
  <path id="Trazado_979897" data-name="Trazado 979897" d="M30.992,19H31a1,1,0,0,0,1-.988A1.884,1.884,0,0,1,34,16a3.888,3.888,0,0,0,4-4,1,1,0,0,0-.992-1H37a1,1,0,0,0-1,.988A1.884,1.884,0,0,1,34,14a3.888,3.888,0,0,0-4,4A1,1,0,0,0,30.992,19Z" fill="#008db6"/>
</svg>
