<svg id="calidad-del-agua" xmlns="http://www.w3.org/2000/svg" width="64" height="60" viewBox="0 0 64 60">
  <path id="Trazado_979898" data-name="Trazado 979898" d="M63,50a8.141,8.141,0,0,0-3,.5V35a3.009,3.009,0,0,0-3-3H53V31a1,1,0,0,0-1-1H49V18a3.009,3.009,0,0,0-3-3H41V11.82A3,3,0,0,0,40,6H35V3a1,1,0,0,0-2,0V6H31V1a1,1,0,0,0-2,0V6H24a3,3,0,0,0-1,5.82V24H18a3.009,3.009,0,0,0-3,3v5H14a1,1,0,0,0-1,1v3H9a1,1,0,0,0-1,1v4a1,1,0,0,0,1,1h4.46L17,47.3v2.72c-.17,0-.33-.02-.51-.02a8.305,8.305,0,0,0-4.33,1.11A6.3,6.3,0,0,1,8.75,52a6.339,6.339,0,0,1-3.42-.89A8.305,8.305,0,0,0,1,50a1,1,0,0,0,0,2,6.3,6.3,0,0,1,3.41.89A8.347,8.347,0,0,0,8.75,54a8.305,8.305,0,0,0,4.33-1.11A6.3,6.3,0,0,1,16.49,52a6.339,6.339,0,0,1,3.42.89,10.07,10.07,0,0,0,1.7.74,8.508,8.508,0,0,0,2.63.37,8.305,8.305,0,0,0,4.33-1.11A6.366,6.366,0,0,1,31.99,52a6.366,6.366,0,0,1,3.42.89,9.02,9.02,0,0,0,8.67,0,7,7,0,0,1,6.83,0,9.02,9.02,0,0,0,8.67,0A6.339,6.339,0,0,1,63,52a1,1,0,0,0,0-2ZM51,32v4H45V32ZM46,17a1,1,0,0,1,1,1V30H44a1,1,0,0,0-1,1v5H40.78l-1.54-6.18.56-.42A3.012,3.012,0,0,0,41,27V17ZM24,8H40a1,1,0,0,1,0,2H24a1,1,0,0,1,0-2Zm8,26a1,1,0,0,0,1-1V32h2.33a2.974,2.974,0,0,0,1.8-.6l.37-.28L38.72,36H25.28l1.22-4.88.37.28a2.974,2.974,0,0,0,1.8.6H31v1A1,1,0,0,0,32,34Zm6.6-6.2-2.67,2a.984.984,0,0,1-.6.2H33V29a1,1,0,0,0-2,0v1H28.67a.984.984,0,0,1-.6-.2l-2.67-2A1.014,1.014,0,0,1,25,27V12H39V27A1.014,1.014,0,0,1,38.6,27.8ZM17,27a1,1,0,0,1,1-1h5v1a3.012,3.012,0,0,0,1.2,2.4l.56.42L23.22,36H19V33a1,1,0,0,0-1-1H17Zm-2,7h2v2H15Zm2,9.7L15.87,42H17Zm4,7.5c-.06-.03-.12-.06-.17-.09A10.585,10.585,0,0,0,19,50.33V42h2Zm20,.7a7.569,7.569,0,0,1-1.26.1,6.366,6.366,0,0,1-3.42-.89A8.305,8.305,0,0,0,31.99,50a8.305,8.305,0,0,0-4.33,1.11,6.339,6.339,0,0,1-3.42.89A8.767,8.767,0,0,1,23,51.91V47.3L26.54,42H37.46L41,47.3ZM23,43.7V42h1.13Zm18,0L39.87,42H41Zm4,6.63a10.381,10.381,0,0,0-1.84.78c-.06.03-.11.05-.16.08V42h2ZM10,40V38H54v2Zm38.13,2L47,43.7V42ZM58,51.44a6.088,6.088,0,0,1-2.75.56,6.312,6.312,0,0,1-3.42-.89A8.347,8.347,0,0,0,47.49,50c-.17,0-.33.01-.49.02V47.3L50.54,42H55a1,1,0,0,0,1-1V37a1,1,0,0,0-1-1H53V34h4a1,1,0,0,1,1,1Z" fill="#008db6"/>
  <path id="Trazado_979899" data-name="Trazado 979899" d="M63,56a8.276,8.276,0,0,0-4.33,1.11,7.016,7.016,0,0,1-6.84,0,9,9,0,0,0-8.66,0,7.016,7.016,0,0,1-6.84,0A8.305,8.305,0,0,0,32,56a8.305,8.305,0,0,0-4.33,1.11,6.312,6.312,0,0,1-3.42.89,6.339,6.339,0,0,1-3.42-.89A8.305,8.305,0,0,0,16.5,56a8.305,8.305,0,0,0-4.33,1.11A6.3,6.3,0,0,1,8.76,58a6.366,6.366,0,0,1-3.42-.89A8.305,8.305,0,0,0,1.01,56a1,1,0,0,0,0,2,6.3,6.3,0,0,1,3.41.89A8.305,8.305,0,0,0,8.75,60a8.305,8.305,0,0,0,4.33-1.11A6.312,6.312,0,0,1,16.5,58a6.274,6.274,0,0,1,3.41.89A8.305,8.305,0,0,0,24.24,60a8.305,8.305,0,0,0,4.33-1.11A6.312,6.312,0,0,1,31.99,58a6.339,6.339,0,0,1,3.42.89,9,9,0,0,0,8.66,0,7.016,7.016,0,0,1,6.84,0,9.02,9.02,0,0,0,8.67,0A6.312,6.312,0,0,1,63,58a1,1,0,0,0,0-2Z" fill="#008db6"/>
  <path id="Trazado_979900" data-name="Trazado 979900" d="M30,22h4a1,1,0,0,0,1-1V16a1,1,0,0,0-1-1H30a1,1,0,0,0-1,1v5A1,1,0,0,0,30,22Zm1-5h2v3H31Z" fill="#008db6"/>
</svg>
